<?xml version="1.0" encoding="UTF-8"?>
<!DOCTYPE svg PUBLIC "-//W3C//DTD SVG 1.1//EN" "http://www.w3.org/Graphics/SVG/1.1/DTD/svg11.dtd">
<!-- Creator: CorelDRAW X5 -->
<svg xmlns="http://www.w3.org/2000/svg" xml:space="preserve" width="181px" height="74px" style="shape-rendering:geometricPrecision; text-rendering:geometricPrecision; image-rendering:optimizeQuality; fill-rule:evenodd; clip-rule:evenodd"
viewBox="0 0 181 74"
 xmlns:xlink="http://www.w3.org/1999/xlink">
 <defs>
  <style type="text/css">
   <![CDATA[
    .fil0 {fill:none}
    .fil1 {fill:black;fill-rule:nonzero}
   ]]>
  </style>
 </defs>
 <g id="Layer_x0020_1">
  <metadata id="CorelCorpID_0Corel-Layer"/>
  <rect class="fil0" width="181" height="74"/>
  <polygon class="fil1" points="135,50 135,46 131,46 130,50 "/>
  <path class="fil1" d="M28 50l1 -4 -6 0c-1,0 -2,0 -3,-1 -1,0 -1,-1 -2,-2 0,-1 0,-2 0,-3 0,-1 1,-2 1,-3 1,-1 1,-1 2,-2 1,0 2,-1 3,-1l5 0 1 -4 -7 0c-3,0 -6,1 -8,2 -2,2 -3,4 -4,7 -1,3 0,6 1,7 1,2 4,2 7,2l7 0zm13 0l1 -4 -1 0c-1,0 -1,0 -2,0 0,0 0,-1 0,-2l4 -20 -5 0 -4 20c0,1 0,3 0,3 0,1 1,2 2,2 1,0 2,1 3,1l3 0zm25 -10c0,-2 0,-4 0,-6 -1,-1 -2,-3 -3,-3 -1,-1 -3,-1 -6,-1 -2,0 -4,0 -6,1 -2,1 -3,2 -4,3 -1,1 -2,3 -2,6 0,2 0,4 0,6 1,1 2,3 3,3 1,1 3,1 6,1 2,0 4,0 6,-1 2,-1 3,-2 4,-3 1,-1 2,-3 2,-6zm-12 6c-2,0 -3,0 -4,-1 -1,-1 -1,-2 0,-4 0,-2 1,-3 2,-4 1,-1 2,-1 4,-1 2,0 3,0 4,1 1,1 1,2 1,4 0,2 -1,3 -2,4 -1,1 -2,1 -4,1zm32 4l3 -19 -5 0 -3 15 -4 0c-1,0 -2,0 -3,-1 0,-1 -1,-2 0,-3l2 -11 -5 0 -2 11c0,2 0,3 0,5 0,1 1,2 2,3 1,1 3,1 4,1l11 0zm24 0l5 -26 -5 0 -1 7 -5 0c-3,0 -6,1 -8,2 -2,2 -3,4 -4,7 -1,3 0,6 1,7 1,2 4,2 7,2l10 0zm-5 -4l-3 0c-2,0 -3,0 -4,-1 -1,-1 -1,-2 -1,-4 0,-2 1,-3 2,-4 1,-1 3,-1 5,-1l3 0 -2 11zm24 4l1 -4 -4 0c-1,0 -2,0 -3,-1 -1,0 -1,-1 -2,-2 0,-1 0,-2 0,-3 0,-1 1,-2 1,-3 1,-1 1,-1 2,-2 1,0 2,-1 3,-1l5 0 1 -4 -7 0c-3,0 -6,1 -8,2 -2,2 -3,4 -4,7 -1,3 0,6 1,7 1,2 4,2 7,2l5 0zm16 -21l1 -5 -5 0 -1 5 5 0zm-4 21l3 -19 -5 0 -3 19 5 0zm27 -10c0,-2 0,-4 0,-6 -1,-1 -2,-3 -3,-3 -1,-1 -3,-1 -6,-1 -2,0 -4,0 -6,1 -2,1 -3,2 -4,3 -1,1 -2,3 -2,6 0,2 0,4 0,6 1,1 2,3 3,3 1,1 3,1 6,1 2,0 4,0 6,-1 2,-1 3,-2 4,-3 1,-1 2,-3 2,-6zm-12 6c-2,0 -3,0 -4,-1 -1,-1 -1,-2 0,-4 0,-2 1,-3 2,-4 1,-1 2,-1 4,-1 2,0 3,0 4,1 1,1 1,2 1,4 0,2 -1,3 -2,4 -1,1 -2,1 -4,1z"/>
 </g>
</svg>
