<?xml version="1.0" encoding="UTF-8"?>
<!DOCTYPE svg PUBLIC "-//W3C//DTD SVG 1.1//EN" "http://www.w3.org/Graphics/SVG/1.1/DTD/svg11.dtd">
<!-- Creator: CorelDRAW -->
<svg xmlns="http://www.w3.org/2000/svg" xml:space="preserve" width="137.381mm" height="25.4mm" style="shape-rendering:geometricPrecision; text-rendering:geometricPrecision; image-rendering:optimizeQuality; fill-rule:evenodd; clip-rule:evenodd"
viewBox="0 0 137.381 25.4"
 xmlns:xlink="http://www.w3.org/1999/xlink">
 <defs>
  <style type="text/css">
   <![CDATA[
    .fil1 {fill:#2B2A29}
    .fil0 {fill:#2B2A29;fill-rule:nonzero}
   ]]>
  </style>
 </defs>
 <g id="Layer_x0020_1">
  <metadata id="CorelCorpID_0Corel-Layer"/>
  <path class="fil0" d="M58.5591 15.0869l-0.969201 0.744001c-0.533,-0.695501 -1.1744,-1.2229 -1.924,-1.582 -0.749701,-0.3592 -1.5707,-0.5388 -2.4686,-0.5388 -0.980501,0 -1.887,0.2338 -2.7222,0.704101 -0.835201,0.4703 -1.4822,1.1031 -1.9412,1.8956 -0.4589,0.795201 -0.689801,1.6874 -0.689801,2.6766 0,1.4993 0.5131,2.7478 1.5421,3.7512 1.0262,1.0005 2.3232,1.5022 3.8881,1.5022 1.7188,0 3.1583,-0.6727 4.3156,-2.021l0.969201 0.735401c-0.6129,0.778201 -1.3768,1.3825 -2.2918,1.8072 -0.915001,0.4276 -1.9383,0.6386 -3.07,0.6386 -2.1492,0 -3.8424,-0.715501 -5.0852,-2.1465 -1.0405,-1.2057 -1.5621,-2.6652 -1.5621,-4.3755 0,-1.7986 0.63,-3.3094 1.8927,-4.5379 1.2599,-1.2286 2.8391,-1.8414 4.7375,-1.8414 1.1488,0 2.1835,0.228 3.1071,0.6812 0.923501,0.4533 1.6817,1.0889 2.2718,1.907zm2.098 -2.5882l1.1687 0 0 12.5934 -1.1687 0 0 -12.5934zm7.89871 3.2723c1.3967,0 2.554,0.5074 3.4747,1.5222 0.835201,0.923501 1.2514,2.0181 1.2514,3.2809 0,1.2684 -0.4419,2.3801 -1.3227,3.3293 -0.883601,0.949301 -2.0181,1.4224 -3.4034,1.4224 -1.3911,0 -2.5284,-0.4731 -3.4121,-1.4224 -0.883601,-0.949201 -1.3226,-2.0609 -1.3226,-3.3293 0,-1.2571 0.4162,-2.3488 1.2514,-3.2724 0.917801,-1.0204 2.0808,-1.5307 3.4833,-1.5307zm0 1.1459c-0.969201,0 -1.8016,0.3592 -2.4971,1.0775 -0.695501,0.718301 -1.0433,1.5849 -1.0433,2.6053 0,0.6556 0.1568,1.2685 0.4761,1.8357 0.3164,0.5701 0.744001,1.0063 1.2855,1.317 0.5388,0.3078 1.1317,0.4618 1.7788,0.4618 0.6442,0 1.2371,-0.154 1.7787,-0.4618 0.5387,-0.3107 0.969101,-0.746901 1.2855,-1.317 0.3164,-0.5672 0.4761,-1.1801 0.4761,-1.8357 0,-1.0204 -0.3507,-1.887 -1.049,-2.6053 -0.698401,-0.718301 -1.5279,-1.0775 -2.4913,-1.0775zm6.747 -0.912101l1.1772 0 0 4.2443c0,1.0348 0.0571,1.7474 0.1682,2.1379 0.1682,0.5558 0.4846,0.994801 0.954901,1.3198 0.4704,0.3221 1.0319,0.4845 1.6847,0.4845 0.6499,0 1.2029,-0.1596 1.6561,-0.4731 0.4532,-0.3136 0.766801,-0.726901 0.940701,-1.24 0.1168,-0.3506 0.1738,-1.0946 0.1738,-2.2291l0 -4.2443 1.1944 0 0 4.461c0,1.2513 -0.1454,2.1948 -0.4361,2.8305 -0.2936,0.6357 -0.732601,1.1316 -1.3198,1.4908 -0.5872,0.3592 -1.3255,0.5387 -2.2091,0.5387 -0.886501,0 -1.6248,-0.1795 -2.2177,-0.5387 -0.5929,-0.3592 -1.0347,-0.860801 -1.3283,-1.5022 -0.2908,-0.6442 -0.439,-1.6105 -0.439,-2.9018l0 -4.3783zm19.617 -3.5061l0 12.5934 -1.1544 0 0 -1.5621c-0.4875,0.5958 -1.0376,1.0433 -1.6476,1.3455 -0.61,0.2993 -1.277,0.4503 -2.0011,0.4503 -1.2855,0 -2.383,-0.4674 -3.2951,-1.3995 -0.909301,-0.932201 -1.3654,-2.0666 -1.3654,-3.4035 0,-1.3084 0.4589,-2.4258 1.3796,-3.355 0.917901,-0.929301 2.0239,-1.3968 3.3152,-1.3968 0.746801,0 1.4195,0.1596 2.0238,0.4761 0.6043,0.3192 1.1345,0.795201 1.5906,1.428l0 -5.1764 1.1544 0zm-4.6776 4.4011c-0.6499,0 -1.2514,0.1596 -1.8044,0.4789 -0.5501,0.3221 -0.989101,0.769601 -1.3141,1.3511 -0.3249,0.5787 -0.4902,1.1915 -0.4902,1.8357 0,0.6414 0.1653,1.2542 0.4931,1.8386 0.3306,0.5843 0.769601,1.0376 1.3255,1.3654 0.553,0.3249 1.1459,0.4874 1.7815,0.4874 0.6414,0 1.2485,-0.1625 1.8215,-0.4846 0.5729,-0.3221 1.0147,-0.758201 1.3226,-1.3112 0.3107,-0.5501 0.4646,-1.1715 0.4646,-1.8614 0,-1.0518 -0.3477,-1.9326 -1.0404,-2.6395 -0.692701,-0.706901 -1.545,-1.0604 -2.5597,-1.0604zm6.2454 5.9034l1.0433 -0.6243c0.735401,1.3511 1.5848,2.0267 2.5483,2.0267 0.4105,0 0.798101,-0.0941001 1.1601,-0.2879 0.3621,-0.191 0.6386,-0.4475 0.826701,-0.772501 0.191,-0.3221 0.285,-0.6641 0.285,-1.0262 0,-0.4133 -0.1396,-0.815201 -0.419,-1.2114 -0.3848,-0.5445 -1.086,-1.2029 -2.1036,-1.9697 -1.0234,-0.775301 -1.6619,-1.334 -1.9127,-1.6789 -0.4333,-0.5787 -0.6499,-1.2058 -0.6499,-1.8785 0,-0.5359 0.1254,-1.0233 0.3819,-1.4623 0.2566,-0.439 0.6186,-0.786701 1.0832,-1.0404 0.4646,-0.2537 0.969201,-0.3791 1.5136,-0.3791 0.5815,0 1.1231,0.1425 1.6248,0.4304 0.5045,0.285 1.0376,0.815201 1.5991,1.582l-1.0005 0.761101c-0.4618,-0.6129 -0.858001,-1.0176 -1.1829,-1.2115 -0.325,-0.1938 -0.6813,-0.2936 -1.0633,-0.2936 -0.496,0 -0.900701,0.1511 -1.2171,0.4533 -0.3136,0.2993 -0.4704,0.6698 -0.4704,1.1088 0,0.2679 0.0542,0.5273 0.1654,0.778201 0.114,0.2508 0.3164,0.5216 0.61,0.818101 0.1624,0.1539 0.692601,0.5644 1.5877,1.2257 1.0632,0.786701 1.7929,1.4851 2.1892,2.0979 0.3933,0.6129 0.5929,1.2257 0.5929,1.8443 0,0.892201 -0.3392,1.6647 -1.0148,2.3231 -0.6784,0.6556 -1.4994,0.983501 -2.4685,0.983501 -0.746901,0 -1.4224,-0.1967 -2.0296,-0.5958 -0.6071,-0.3991 -1.1658,-1.0661 -1.6789,-2.001zm17.2454 -0.726901l0.983401 0.5188c-0.3221,0.6356 -0.695501,1.1459 -1.1174,1.5364 -0.4247,0.3905 -0.900801,0.687001 -1.4281,0.889301 -0.5302,0.2024 -1.1288,0.305 -1.7958,0.305 -1.4823,0 -2.6395,-0.4845 -3.4747,-1.4566 -0.835201,-0.972001 -1.2514,-2.0694 -1.2514,-3.2951 0,-1.1516 0.3535,-2.1806 1.0604,-3.0814 0.895001,-1.1459 2.0951,-1.7217 3.5973,-1.7217 1.5478,0 2.7849,0.5901 3.7085,1.7645 0.6584,0.829501 0.991901,1.8642 1.0033,3.1041l-8.16661 0c0.02,1.0604 0.3592,1.927 1.0091,2.6025 0.6527,0.6756 1.4566,1.0148 2.4143,1.0148 0.4618,0 0.912201,-0.0798001 1.3483,-0.2423 0.4361,-0.1625 0.809501,-0.3762 1.1145,-0.6442 0.3051,-0.2651 0.6386,-0.698401 0.994901,-1.2941zm0 -2.4457c-0.1568,-0.6243 -0.3848,-1.1231 -0.6813,-1.4937 -0.2993,-0.3734 -0.692701,-0.6755 -1.1829,-0.903601 -0.4903,-0.228 -1.0034,-0.342 -1.545,-0.342 -0.889401,0 -1.6561,0.2879 -2.2946,0.860801 -0.4675,0.4162 -0.821001,1.0433 -1.0604,1.8785l6.7642 0zm11.114 2.4457l0.983401 0.5188c-0.3221,0.6356 -0.695501,1.1459 -1.1174,1.5364 -0.4247,0.3905 -0.900801,0.687001 -1.4281,0.889301 -0.5302,0.2024 -1.1288,0.305 -1.7958,0.305 -1.4823,0 -2.6395,-0.4845 -3.4747,-1.4566 -0.835201,-0.972001 -1.2514,-2.0694 -1.2514,-3.2951 0,-1.1516 0.3535,-2.1806 1.0604,-3.0814 0.895001,-1.1459 2.0951,-1.7217 3.5973,-1.7217 1.5478,0 2.7849,0.5901 3.7085,1.7645 0.6584,0.829501 0.991901,1.8642 1.0033,3.1041l-8.16661 0c0.02,1.0604 0.3592,1.927 1.0091,2.6025 0.6527,0.6756 1.4566,1.0148 2.4143,1.0148 0.4618,0 0.912201,-0.0798001 1.3483,-0.2423 0.4361,-0.1625 0.809501,-0.3762 1.1145,-0.6442 0.3051,-0.2651 0.6386,-0.698401 0.994901,-1.2941zm0 -2.4457c-0.1568,-0.6243 -0.3848,-1.1231 -0.6813,-1.4937 -0.2993,-0.3734 -0.692701,-0.6755 -1.1829,-0.903601 -0.4903,-0.228 -1.0034,-0.342 -1.545,-0.342 -0.889401,0 -1.6561,0.2879 -2.2946,0.860801 -0.4675,0.4162 -0.821001,1.0433 -1.0604,1.8785l6.7642 0zm12.5335 -7.13191l0 12.5934 -1.1544 0 0 -1.5621c-0.4875,0.5958 -1.0376,1.0433 -1.6476,1.3455 -0.61,0.2993 -1.277,0.4503 -2.0011,0.4503 -1.2855,0 -2.383,-0.4674 -3.2951,-1.3995 -0.909301,-0.932201 -1.3654,-2.0666 -1.3654,-3.4035 0,-1.3084 0.4589,-2.4258 1.3796,-3.355 0.917901,-0.929301 2.0239,-1.3968 3.3152,-1.3968 0.746801,0 1.4195,0.1596 2.0238,0.4761 0.6043,0.3192 1.1345,0.795201 1.5906,1.428l0 -5.1764 1.1544 0zm-4.6776 4.4011c-0.6499,0 -1.2514,0.1596 -1.8044,0.4789 -0.5501,0.3221 -0.989101,0.769601 -1.3141,1.3511 -0.3249,0.5787 -0.4902,1.1915 -0.4902,1.8357 0,0.6414 0.1653,1.2542 0.4931,1.8386 0.3306,0.5843 0.769601,1.0376 1.3255,1.3654 0.553,0.3249 1.1459,0.4874 1.7815,0.4874 0.6414,0 1.2485,-0.1625 1.8215,-0.4846 0.5729,-0.3221 1.0147,-0.758201 1.3226,-1.3112 0.3107,-0.5501 0.4646,-1.1715 0.4646,-1.8614 0,-1.0518 -0.3477,-1.9326 -1.0404,-2.6395 -0.692701,-0.706901 -1.545,-1.0604 -2.5597,-1.0604z"/>
  <g id="_307820136">
   <path id="_308630616" class="fil1" d="M8.75591 9.54331c0.765801,0 1.3867,0.6209 1.3867,1.3866 0,0.765801 -0.6209,1.3866 -1.3867,1.3866 -0.765701,0 -1.3866,-0.6208 -1.3866,-1.3866 0,-0.765701 0.6209,-1.3866 1.3866,-1.3866z"/>
   <path id="_308630520" class="fil1" d="M16.4131 22.6268c0.765801,0 1.3866,0.6208 1.3866,1.3866 0,0.765801 -0.6208,1.3866 -1.3866,1.3866 -0.765801,0 -1.3866,-0.6208 -1.3866,-1.3866 0,-0.765801 0.6208,-1.3866 1.3866,-1.3866z"/>
   <path id="_308630424" class="fil1" d="M6.5253 22.6268c0.765701,0 1.3866,0.6208 1.3866,1.3866 0,0.765801 -0.6209,1.3866 -1.3866,1.3866 -0.765801,0 -1.3867,-0.6208 -1.3867,-1.3866 0,-0.765801 0.6209,-1.3866 1.3867,-1.3866z"/>
   <path id="_308630328" class="fil1" d="M19.3071 9.48301c0.765801,0 1.3867,0.6209 1.3867,1.3867 0,0.765701 -0.6209,1.3866 -1.3867,1.3866 -0.765701,0 -1.3866,-0.6209 -1.3866,-1.3866 0,-0.765801 0.6209,-1.3867 1.3866,-1.3867z"/>
   <path id="_308630232" class="fil1" d="M18.0411 3.9362c0.765701,0 1.3866,0.6209 1.3866,1.3866 0,0.765801 -0.6209,1.3866 -1.3866,1.3866 -0.765801,0 -1.3867,-0.6208 -1.3867,-1.3866 0,-0.765701 0.6209,-1.3866 1.3867,-1.3866z"/>
   <path id="_308630136" class="fil1" d="M27.4466 7.31251c0.765801,0 1.3867,0.6209 1.3867,1.3866 0,0.765801 -0.6209,1.3867 -1.3867,1.3867 -0.765701,0 -1.3866,-0.6209 -1.3866,-1.3867 0,-0.765701 0.6209,-1.3866 1.3866,-1.3866z"/>
   <path id="_308630040" class="fil1" d="M35.2242 9.42281c0.765801,0 1.3867,0.6208 1.3867,1.3866 0,0.765801 -0.6209,1.3866 -1.3867,1.3866 -0.765701,0 -1.3866,-0.6208 -1.3866,-1.3866 0,-0.765801 0.6209,-1.3866 1.3866,-1.3866z"/>
   <path id="_308629944" class="fil1" d="M30.5215 15.1505c0.765701,0 1.3866,0.6209 1.3866,1.3866 0,0.765801 -0.6209,1.3867 -1.3866,1.3867 -0.765801,0 -1.3867,-0.6209 -1.3867,-1.3867 0,-0.765701 0.6209,-1.3866 1.3867,-1.3866z"/>
   <path id="_308629784" class="fil1" d="M34.9832 22.5062c0.765701,0 1.3866,0.6209 1.3866,1.3866 0,0.765801 -0.6209,1.3867 -1.3866,1.3867 -0.765801,0 -1.3867,-0.6209 -1.3867,-1.3867 0,-0.765701 0.6209,-1.3866 1.3867,-1.3866z"/>
   <path id="_308629688" class="fil1" d="M23.4674 17.2005c0.765701,0 1.3866,0.6208 1.3866,1.3866 0,0.765801 -0.6209,1.3866 -1.3866,1.3866 -0.765801,0 -1.3867,-0.6208 -1.3867,-1.3866 0,-0.765801 0.6209,-1.3866 1.3867,-1.3866z"/>
   <path id="_308629592" class="fil1" d="M27.6435 23.1692c0.5405,0 0.978701,0.4383 0.978701,0.978801 0,0.5405 -0.4382,0.978801 -0.978701,0.978801 -0.5406,0 -0.978801,-0.4383 -0.978801,-0.978801 0,-0.5405 0.4382,-0.978801 0.978801,-0.978801z"/>
   <path id="_308629496" class="fil1" d="M39.2196 20.3053c0.5406,0 0.978801,0.4382 0.978801,0.978801 0,0.5405 -0.4382,0.978801 -0.978801,0.978801 -0.5405,0 -0.978701,-0.4383 -0.978701,-0.978801 0,-0.5406 0.4382,-0.978801 0.978701,-0.978801z"/>
   <path id="_308629400" class="fil1" d="M39.3846 12.8451c0.5406,0 0.978801,0.4382 0.978801,0.978801 0,0.5405 -0.4382,0.978801 -0.978801,0.978801 -0.5405,0 -0.978801,-0.4383 -0.978801,-0.978801 0,-0.5406 0.4383,-0.978801 0.978801,-0.978801z"/>
   <path id="_308629304" class="fil1" d="M2.245 20.1103c0.5406,0 0.978801,0.4383 0.978801,0.978801 0,0.5406 -0.4382,0.978801 -0.978801,0.978801 -0.5405,0 -0.978801,-0.4382 -0.978801,-0.978801 0,-0.5405 0.4383,-0.978801 0.978801,-0.978801z"/>
   <path id="_308629208" class="fil1" d="M0.978801 15.8296c0.5406,0 0.978801,0.4382 0.978801,0.978801 0,0.5405 -0.4382,0.978801 -0.978801,0.978801 -0.5405,0 -0.978801,-0.4383 -0.978801,-0.978801 0,-0.5406 0.4383,-0.978801 0.978801,-0.978801z"/>
   <path id="_308629112" class="fil1" d="M3.2097 11.7298c0.5406,0 0.978801,0.4382 0.978801,0.978801 0,0.5405 -0.4382,0.978701 -0.978801,0.978701 -0.5405,0 -0.978701,-0.4382 -0.978701,-0.978701 0,-0.5406 0.4382,-0.978801 0.978701,-0.978801z"/>
   <path id="_308629016" class="fil1" d="M13.2386 15.6418c0.6659,0 1.2057,0.5399 1.2057,1.2058 0,0.6659 -0.5398,1.2058 -1.2057,1.2058 -0.6659,0 -1.2058,-0.5399 -1.2058,-1.2058 0,-0.6659 0.5399,-1.2058 1.2058,-1.2058z"/>
   <path id="_308628920" class="fil1" d="M21.9606 0.2885c0.6659,0 1.2057,0.5398 1.2057,1.2057 0,0.6659 -0.5398,1.2058 -1.2057,1.2058 -0.6659,0 -1.2058,-0.5399 -1.2058,-1.2058 0,-0.6659 0.5399,-1.2057 1.2058,-1.2057z"/>
   <path id="_307650024" class="fil1" d="M31.547 1.0724c0.6658,0 1.2057,0.5398 1.2057,1.2057 0,0.6659 -0.5399,1.2058 -1.2057,1.2058 -0.6659,0 -1.2058,-0.5399 -1.2058,-1.2058 0,-0.6659 0.5399,-1.2057 1.2058,-1.2057z"/>
   <path id="_307649464" class="fil1" d="M12.0123 6.0623c0.5406,0 0.978801,0.4382 0.978801,0.978801 0,0.5405 -0.4382,0.978701 -0.978801,0.978701 -0.5405,0 -0.978701,-0.4382 -0.978701,-0.978701 0,-0.5406 0.4382,-0.978801 0.978701,-0.978801z"/>
   <path id="_307649368" class="fil1" d="M26.5578 0c0.4007,0 0.725501,0.3248 0.725501,0.725501 0,0.4006 -0.3248,0.725401 -0.725501,0.725401 -0.4006,0 -0.725401,-0.3248 -0.725401,-0.725401 0,-0.4007 0.3248,-0.725501 0.725401,-0.725501z"/>
   <path id="_307649272" class="fil1" d="M34.9534 5.0044c0.4007,0 0.725501,0.3248 0.725501,0.725401 0,0.4007 -0.3248,0.725501 -0.725501,0.725501 -0.4006,0 -0.725401,-0.3248 -0.725401,-0.725501 0,-0.4006 0.3248,-0.725401 0.725401,-0.725401z"/>
   <path id="_307649128" class="fil1" d="M11.4998 23.0195c0.5406,0 0.978801,0.4383 0.978801,0.978801 0,0.5405 -0.4382,0.978801 -0.978801,0.978801 -0.5405,0 -0.978701,-0.4383 -0.978701,-0.978801 0,-0.5405 0.4382,-0.978801 0.978701,-0.978801z"/>
   <polygon id="_307650048" class="fil1" points="34.9534,5.6695 35.3152,5.6695 35.3152,10.2518 34.9534,10.2518 "/>
   <polygon id="_307649928" class="fil1" points="35.5411,11.2795 35.7455,10.981 39.5265,13.5696 39.3221,13.8681 "/>
   <polygon id="_307649808" class="fil1" points="38.881,21.3065 39.0778,21.6101 35.2323,24.1019 35.0356,23.7983 "/>
   <polygon id="_307649640" class="fil1" points="34.0382,24.0209 34.0495,24.3825 28.348,24.4973 28.3367,24.1357 "/>
   <polygon id="_307650560" class="fil1" points="27.3255,24.0555 27.289,24.4168 16.8311,24.0406 16.8676,23.6794 "/>
   <polygon id="_307650440" class="fil1" points="17.3653,23.7449 17.3962,24.1054 11.7094,24.5306 11.6784,24.1701 "/>
   <polygon id="_307650320" class="fil1" points="11.7572,23.9426 11.7267,24.3031 6.05,23.7598 6.0805,23.3992 "/>
   <polygon id="_307650152" class="fil1" points="2.2798,20.8387 2.083,21.1423 5.9285,23.6341 6.1252,23.3305 "/>
   <polygon id="_307651072" class="fil1" points="1.227,16.3578 0.878701,16.4557 2.1189,20.867 2.4671,20.7691 "/>
   <polygon id="_307650952" class="fil1" points="3.6293,12.7426 3.3213,12.5528 0.918001,16.4542 1.226,16.644 "/>
   <polygon id="_307650832" class="fil1" points="8.07541,11.4062 7.99571,11.0533 3.5261,12.063 3.6058,12.4158 "/>
   <polygon id="_307650664" class="fil1" points="11.9989,7.37031 11.7192,7.14091 8.81331,10.6839 9.09301,10.9133 "/>
   <polygon id="_178420808" class="fil1" points="17.6656,5.9773 17.5914,5.6226 12.3984,6.5509 12.4726,6.90561 "/>
   <polygon id="_178420688" class="fil1" points="21.696,2.0003 21.4163,1.7709 18.5104,5.3139 18.7901,5.5433 "/>
   <polygon id="_178420568" class="fil1" points="26.7614,0.4302 26.8069,0.789101 21.142,1.4442 21.0964,1.0853 "/>
   <polygon id="_178420400" class="fil1" points="26.8872,0.4135 26.7589,0.751701 31.043,2.3775 31.1713,2.0393 "/>
   <polygon id="_178419328" class="fil1" points="31.9215,2.5988 32.1849,2.3508 35.3263,5.6868 35.0629,5.9348 "/>
   <polygon id="_178419864" class="fil1" points="18.6831,10.3361 19.0234,10.3034 18.5859,5.7421 18.2456,5.7748 "/>
   <polygon id="_305234672" class="fil1" points="19.4142,10.5656 19.6579,10.8052 7.30701,23.3689 7.06321,23.1292 "/>
   <polygon id="_175148560" class="fil1" points="27.6781,7.83421 27.4115,7.62031 31.2226,2.8708 31.4892,3.0847 "/>
   <polygon id="_178419840" class="fil1" points="34.0487,11.0301 34.1708,10.7108 28.4826,8.53671 28.3606,8.85601 "/>
   <polygon id="_178420032" class="fil1" points="24.4565,18.7947 24.3344,18.4754 30.0226,16.3013 30.1446,16.6206 "/>
   <polygon id="_178420176" class="fil1" points="27.6693,23.9491 27.3721,24.118 24.3642,18.8232 24.6614,18.6544 "/>
   <polygon id="_178419376" class="fil1" points="30.3618,16.7626 30.6785,16.6341 27.5878,9.01881 27.2711,9.14731 "/>
   <polygon id="_178419496" class="fil1" points="34.7634,24.0839 35.0673,23.9274 31.3045,16.6208 31.0006,16.7773 "/>
   <polygon id="_178419664" class="fil1" points="27.8427,24.3427 27.5219,24.2247 30.359,16.5114 30.6798,16.6293 "/>
   <polygon id="_178421616" class="fil1" points="16.9941,23.414 16.7953,23.136 23.4798,18.3547 23.6787,18.6327 "/>
   <polygon id="_178422336" class="fil1" points="19.0337,10.9669 19.1971,10.6667 11.978,6.7386 11.8146,7.03881 "/>
   <polygon id="_178422240" class="fil1" points="19.6092,10.985 19.5106,10.6577 27.3802,8.28831 27.4788,8.61561 "/>
   <polygon id="_178422120" class="fil1" points="26.9248,8.70071 27.2057,8.50601 22.5236,1.7515 22.2427,1.9463 "/>
   <polygon id="_178422024" class="fil1" points="30.4832,17.3315 30.2193,17.1143 35.4429,10.7693 35.7068,10.9866 "/>
   <polygon id="_308116280" class="fil1" points="13.4386,16.9304 13.6992,16.7093 8.38121,10.4432 8.12051,10.6644 "/>
   <polygon id="_308115344" class="fil1" points="40.9515,17.2547 41.2594,17.1065 39.6622,13.3557 39.3543,13.5038 "/>
   <polygon id="_308116232" class="fil1" points="14.0803,17.2382 14.1497,16.9035 22.1968,18.5738 22.1273,18.9085 "/>
   <polygon id="_308116784" class="fil1" points="23.2909,18.4137 23.5886,18.2458 19.5527,11.0865 19.255,11.2543 "/>
   <polygon id="_308115272" class="fil1" points="12.3665,16.7369 12.3685,17.0787 1.9165,17.1384 1.9145,16.7966 "/>
   <path id="_307820064" class="fil1" d="M41.1126 16.7142c0.4385,0 0.793901,0.3555 0.793901,0.793901 0,0.4385 -0.3554,0.794001 -0.793901,0.794001 -0.4384,0 -0.793901,-0.3555 -0.793901,-0.794001 0,-0.4384 0.3555,-0.793901 0.793901,-0.793901z"/>
   <polygon id="_307819896" class="fil1" points="39.6261,21.3423 39.3182,21.1941 40.9154,17.4433 41.2233,17.5914 "/>
  </g>
 </g>
</svg>
