<?xml version="1.0" encoding="UTF-8"?>
<!DOCTYPE svg PUBLIC "-//W3C//DTD SVG 1.1//EN" "http://www.w3.org/Graphics/SVG/1.1/DTD/svg11.dtd">
<!-- Creator: CorelDRAW -->
<svg xmlns="http://www.w3.org/2000/svg" xml:space="preserve" width="2149px" height="428px" style="shape-rendering:geometricPrecision; text-rendering:geometricPrecision; image-rendering:optimizeQuality; fill-rule:evenodd; clip-rule:evenodd"
viewBox="0 0 2143.59 426.511"
 xmlns:xlink="http://www.w3.org/1999/xlink">
 <defs>
  <style type="text/css">
   <![CDATA[
    .fil1 {fill:#2B2A29;fill-rule:nonzero}
    .fil0 {fill:black;fill-rule:nonzero}
   ]]>
  </style>
 </defs>
 <g id="Layer_x0020_1">
  <metadata id="CorelCorpID_0Corel-Layer"/>
  <path class="fil0" d="M279.281 371.194l-0.353399 0.203793m-91.6316 -58.4416l89.4358 51.6363 0.0930617 0.0565438c0.690306,0.420545 1.26163,0.995407 1.66333,1.681l0.0376959 0.0376959c0.427613,0.749206 0.643186,1.59736 0.643186,2.38426 0,0.870539 -0.247379,1.67864 -0.67028,2.39958l0.00353399 0.00235599c-0.402875,0.692662 -0.984805,1.28284 -1.73872,1.73519l-0.0553658 0.0365179 -89.5159 51.3983 -0.0753918 0.0376959c-0.685594,0.379315 -1.4937,0.594888 -2.25469,0.62905 -0.915303,0.0435859 -1.89186,-0.173165 -2.7306,-0.657322l-89.3404 -51.5809m-1.81411 -1.69985c-0.454707,-0.739782 -0.716222,-1.55731 -0.710332,-2.51149l-0.00706798 0c0,-0.795148 0.215573,-1.62799 0.645542,-2.38073l0.001178 0c0.404053,-0.70562 1.01308,-1.32407 1.81411,-1.79173l89.5159 -51.4031 0.0753918 -0.0365179c0.67617,-0.375781 1.48428,-0.594888 2.23702,-0.62905l0.0176699 0c0.915303,-0.0435859 1.88715,0.169631 2.72942,0.656144m-96.3095 58.0894l-0.00942397 0.00706798m96.4355 -368.883l178.894 103.003 0.00235599 -0.00353399c0.561904,0.316881 1.02486,0.70562 1.39357,1.1403l1.11438 0.644364 0 0.213217 0.0329839 0.0188479 0 2.74591 0 51.8377 0 50.516c0.0212039,0.181411 0.0318059,0.362823 0.0318059,0.545412 0,0.179055 -0.010602,0.359289 -0.0318059,0.5407l0 0.233243 0 2.74591 -0.0329839 0.0188479 0 100.384 0 2.74591 -2.38898 1.37943 -87.5004 50.5184 -1.32171 0.763342c-0.250913,0.230887 -0.532454,0.439393 -0.842267,0.625516l-0.0553658 0.0376959 -50.4524 29.047 -38.7172 22.475 -0.0247379 0.00706798c-0.398163,0.226175 -0.806928,0.394629 -1.21334,0.510072l-1.57734 0.911769 -0.001178 -0.001178 -0.001178 0.001178 -1.58441 -0.914125c-0.433503,-0.116622 -0.856403,-0.290965 -1.25692,-0.527742l0.00471199 -0.00706798 -34.4611 -20.0047 -54.7274 -31.5114c-0.328661,-0.192013 -0.633762,-0.417011 -0.908235,-0.674992l-1.62681 -0.941219 0 -0.001178 -87.1435 -50.3134 -2.38898 -1.37943 0 -2.74591 0 -100.381 -0.0388739 -0.0223819 0 -2.74591 0 -51.8354 0 -51.8377 0 -2.74591 0.0388739 -0.0223819 0 -0.209683 1.16622 -0.673814c0.356933,-0.409943 0.795148,-0.777478 1.31229,-1.08022l0.0176699 -0.0200259 89.033 -51.264c0.176699,-0.13547 0.365179,-0.261515 0.566616,-0.376959l-0.00235599 -0.00588998 37.4992 -21.5326 51.8083 -29.8304 0.0188479 0c0.183767,-0.103664 0.374603,-0.196725 0.568972,-0.278007l2.10626 -1.21451 2.00495 1.15797c0.235599,0.0930617 0.466487,0.203793 0.686772,0.332195l-0.00235599 0.00235599zm359.447 262.656l60.2569 -153.696 0.248557 -0.632584 0.67617 0 8.44152 0 0.710332 0 0.230887 0.67617 52.6882 154.859 0 0.00706798c3.2713,9.81507 5.6697,17.4438 7.1952,22.8861 0.63494,-2.34186 1.39239,-4.92167 2.26647,-7.73472 1.35587,-4.35741 3.00978,-9.3156 4.95583,-14.864l53.5611 -159.227 0.229709 -0.678526 0.71151 0 14.5541 0 1.39357 0 -0.457063 1.31818 -72.4798 209.875 -0.233243 0.672636 -0.70562 0 -8.14938 0 -0.703264 0 -0.234421 -0.667924 -53.8521 -154.279 -0.010602 -0.0353399c-0.364001,-1.18742 -0.765698,-2.44788 -1.19684,-3.76841 -0.444105,-1.35705 -0.867005,-2.61515 -1.26635,-3.76841 -0.468843,-1.35823 -0.872895,-2.54801 -1.20509,-3.57169 -0.365179,-1.1191 -0.697374,-2.1734 -0.991873,-3.16292 -0.573684,-1.90835 -1.14266,-3.52339 -1.70927,-4.84392l-0.0270939 -0.0765698 -0.67028 -2.01084c-0.889387,2.56921 -1.86359,5.26447 -2.91554,8.08577 -1.5149,4.05349 -3.19001,8.35317 -5.02769,12.8967l0.001178 0 -60.8376 154.568 -0.249735 0.633762 -0.674992 0 -8.15174 0 -0.703264 0 -0.233243 -0.667924 -73.064 -209.877 -0.458241 -1.32171 1.39593 0 15.427 0 0.71151 0 0.229709 0.67617 53.2702 156.606 -0.001178 0.001178c1.28991,3.57875 2.4467,6.90541 3.46095,9.97174 1.03075,3.12051 1.96843,6.11734 2.80952,8.98576l0 0.00471199c0.684416,2.34068 1.27106,4.32914 1.75639,5.96773 0.573684,-1.88479 1.34998,-4.16068 2.32419,-6.83002 1.64802,-4.51173 3.88503,-10.1732 6.70398,-16.9796l-0.001178 0zm245.32 50.7198l0 -188.916 0 -0.995407 0.994229 0 13.3903 0 0.996585 0 0 0.995407 0 188.916 0 0.995407 -0.996585 0 -13.3903 0 -0.994229 0 0 -0.995407zm122.38 -179.769c-5.1502,0 -9.81153,0.61727 -13.9828,1.84828 -4.15126,1.22512 -7.82896,3.06397 -11.0308,5.51302 -3.16528,2.42196 -5.54365,5.33161 -7.12334,8.7266 -1.58558,3.40677 -2.38073,7.32007 -2.38073,11.7328 0,10.1991 4.26317,19.371 12.7872,27.5168l0.00824597 0.00706798c3.07575,2.98033 6.60738,6.05137 10.5878,9.21193 3.98516,3.16645 8.42032,6.41537 13.2949,9.74674 4.904,3.35022 9.04701,6.22807 12.4243,8.63354 3.36318,2.39604 5.9854,4.3362 7.86077,5.81695 1.88715,1.48899 3.94158,3.22535 6.15974,5.20203 2.21581,1.97314 4.64955,4.23961 7.30476,6.79468l0.015314 0.01178c4.83803,4.83803 8.47333,10.0624 10.9047,15.6662 2.43374,5.61315 3.65061,11.5903 3.65061,17.9315 0,8.19297 -1.37472,15.3976 -4.12417,21.6139 -2.76005,6.24338 -6.90306,11.4784 -12.4243,15.7074 -5.48357,4.19956 -12.0521,7.34716 -19.6996,9.44635 -7.61575,2.08741 -16.2905,3.12994 -26.0219,3.12994 -19.5324,0 -35.8924,-5.11486 -49.073,-15.3458l-0.74096 -0.57604 0.526564 -0.769232 6.9867 -10.1885 0.560726 -0.816352 0.815174 0.551302c6.52492,4.41395 13.2336,7.72177 20.1202,9.92226 6.8795,2.19696 13.9616,3.29603 21.2416,3.29603 7.28944,0 13.7661,-0.76452 19.4275,-2.29238 5.62729,-1.51962 10.4524,-3.79197 14.4705,-6.81824 3.98987,-3.00389 6.98316,-6.61916 8.97633,-10.8376 1.99553,-4.22901 2.99564,-9.08589 2.99564,-14.5683 0,-4.70845 -1.0119,-9.22725 -3.03216,-13.5528 -2.03322,-4.35034 -5.09601,-8.52398 -9.1813,-12.515l-0.012958 -0.00824597c-2.89669,-2.89669 -6.2799,-5.90647 -10.1425,-9.02581 -3.8921,-3.14407 -8.27778,-6.40594 -13.15,-9.7809 -5.01944,-3.48098 -9.18366,-6.40477 -12.4927,-8.77372 -3.38674,-2.42785 -6.07846,-4.41395 -8.07045,-5.95948 -1.9543,-1.51255 -4.08294,-3.28661 -6.38238,-5.31748 -2.29827,-2.02969 -4.75793,-4.30675 -7.38133,-6.83356l-0.0164919 -0.00942397c-5.03122,-5.0324 -8.81259,-10.4736 -11.3406,-16.3211 -2.53034,-5.85582 -3.7955,-12.1016 -3.7955,-18.7313 0,-6.64272 1.18271,-12.5775 3.54459,-17.8019 2.36777,-5.23266 5.92179,-9.74792 10.6585,-13.5375 4.71316,-3.76959 10.3216,-6.59442 16.8253,-8.47451 6.47898,-1.87184 13.8367,-2.80717 22.0721,-2.80717 16.4507,0 31.2499,3.23713 44.394,9.70905l0.865827 0.427613 -0.402875 0.877607 -4.94876 10.7692 -0.424079 0.923549 -0.910591 -0.440571c-5.94181,-2.87549 -12.343,-5.03476 -19.199,-6.47309 -6.86419,-1.43951 -14.1972,-2.15809 -21.9944,-2.15809zm246.722 179.769l0 -94.4812 -129.29 0 0 94.4812 0 0.995407 -0.995407 0 -13.3915 0 -0.995407 0 0 -0.995407 0 -188.916 0 -0.995407 0.995407 0 13.3915 0 0.995407 0 0 0.995407 0 80.509 129.29 0 0 -80.509 0 -0.995407 0.994229 0 13.3903 0 0.996585 0 0 0.995407 0 188.916 0 0.995407 -0.996585 0 -13.3903 0 -0.994229 0 0 -0.995407zm199.68 -188.259l-80.0719 90.476c15.6414,18.9669 28.8574,34.507 39.6455,46.618 10.8717,12.204 19.2249,20.8611 25.0536,25.9678 5.80045,5.0807 11.5903,9.06115 17.3637,11.9366 5.74273,2.85782 11.4702,4.62246 17.1728,5.28803l0.908235 0.10602 -0.00235599 0.0400519 76.075 -182.637 0.255625 -0.613736 0.662034 0 7.85841 0 0.660856 0 0.256803 0.61138 79.7586 190.082 0.579574 1.37943 -1.49723 0 -14.8451 0 -0.660856 0 -0.256803 -0.613736 -27.1045 -64.8817 -82.5116 0 -26.8147 64.8782 -0.255625 0.61727 -0.663212 0 -11.7811 0 -0.0353399 1.07433 -0.0306279 0.976559 -0.976559 -0.0176699c-11.0072,-0.195547 -19.9659,-1.82354 -26.8748,-4.8828 -3.43975,-1.52433 -6.69338,-3.31135 -9.75852,-5.36342 -3.05572,-2.04618 -5.9159,-4.35034 -8.57464,-6.9113 -2.62693,-2.53034 -6.75699,-6.90188 -12.3831,-13.1146 -5.62964,-6.21393 -12.7294,-14.2373 -21.297,-24.0618 -8.61704,-9.88457 -16.1303,-18.5841 -22.5304,-26.0973 -6.42361,-7.53682 -11.7788,-13.9369 -16.062,-19.1943l-0.533632 -0.65261 0.559548 -0.630228 81.2146 -91.6929 0.300389 -0.339263 0.441749 0 16.0113 0 2.20521 0 -1.46189 1.65273zm-101.047 -0.657322l0 188.916 0 0.995407 -0.995407 0 -13.3903 0 -0.995407 0 0 -0.995407 0 -188.916 0 -0.995407 0.995407 0 13.3903 0 0.995407 0 0 0.995407zm201.349 23.3809c-1.1297,3.3408 -2.21346,6.45306 -3.25245,9.33798 -1.32289,3.67181 -2.56332,6.9596 -3.72365,9.85865l-0.00353399 0.01178 -28.5346 68.484 71.5409 0 -28.2495 -68.1966c-2.2594,-5.50242 -4.1065,-10.0683 -5.53776,-13.6977 -0.889387,-2.25351 -1.63624,-4.18542 -2.23937,-5.7981zm121.807 165.536l0 -188.044 0 -0.916481 0.917659 -0.0742138c8.31312,-0.67617 16.0396,-1.18742 23.1724,-1.52904 7.1363,-0.342797 13.6059,-0.513606 19.4028,-0.513606 9.02463,0 17.2741,1.16975 24.7473,3.50336 7.48735,2.3395 14.1937,5.85464 20.1131,10.5419 5.95359,4.71199 10.4206,10.4312 13.3962,17.1516 2.96619,6.69927 4.45165,14.3916 4.45165,23.0687 0,5.8193 -0.841089,11.4266 -2.52327,16.8147 -1.67511,5.37638 -4.19367,10.5336 -7.54978,15.4706 -3.33373,4.90164 -6.88539,9.33562 -10.6538,13.2984 -3.53046,3.71422 -7.25646,7.02557 -11.1792,9.92933 11.2393,14.9193 20.3758,26.8984 27.4014,35.9336 7.11863,9.15068 12.0203,15.2162 14.7038,18.1894l0 -0.001178c5.45412,5.64614 11.1486,10.073 17.0751,13.2748 5.90412,3.19001 12.045,5.16669 18.4203,5.92886l0.903523 0.107198 -0.0294499 0.911769 -0.289787 9.02345 -0.0318059 0.976559 -0.975381 -0.0176699c-11.006,-0.195547 -19.9659,-1.82354 -26.8748,-4.8828 -3.46449,-1.53375 -6.91484,-3.59996 -10.3487,-6.19273 -3.41737,-2.58099 -6.82178,-5.68972 -10.2097,-9.32266 -3.36671,-3.61174 -8.73602,-10.2603 -16.1079,-19.9423 -7.27531,-9.55473 -16.532,-22.1133 -27.7689,-37.6676 -15.1808,-0.00942397 -30.1072,-0.473555 -44.7815,-1.39121l0 76.3707 0 0.995407 -0.996585 0 -13.3903 0 -0.994229 0 0 -0.995407zm53.3915 -88.0317c3.59878,0 7.35541,-1.2098 11.2687,-3.63176 3.98634,-2.46908 8.13289,-6.18919 12.4314,-11.1568 8.56875,-9.90224 12.8543,-21.4278 12.8543,-34.573 0,-6.55908 -1.11085,-12.3195 -3.3302,-17.28 -2.2111,-4.93816 -5.53187,-9.10591 -9.95878,-12.495 -4.46343,-3.4209 -9.59596,-5.98658 -15.3964,-7.69703 -5.82048,-1.7187 -12.3266,-2.57746 -19.5123,-2.57746 -3.91919,0 -8.127,0.0965957 -12.6246,0.288609 -4.24432,0.180233 -8.82791,0.448817 -13.7425,0.804572l0 86.9302c6.67453,0.455885 13.0993,0.79986 19.2697,1.02839 6.42833,0.239133 12.6776,0.359289 18.7407,0.359289zm212.204 79.1296l-7.85959 0 -0.663212 0 -0.254447 -0.61727 -55.016 -133.611 0 0c-1.18389,-2.66581 -2.35481,-5.51302 -3.50454,-8.53812 -0.71151,-1.86712 -1.42891,-3.83556 -2.15456,-5.90412 -0.113088,0.785724 -0.224997,1.59854 -0.335729,2.44081 -0.148428,1.12852 -0.329839,2.56332 -0.543056,4.31853 -0.384027,3.18177 -0.775122,5.86289 -1.16857,8.03511l0.00235599 0 -21.8318 142.927 -0.130758 0.845801 -0.854047 0 -13.0981 0 -1.16857 0 0.188479 -1.15444 30.8553 -190.082 0.13547 -0.836377 0.844623 0 7.85959 0 0.656144 0 0.257981 0.61138 58.7985 139.432 0.00706798 0.014136c2.35599,5.88645 4.1065,10.331 5.24915,13.3326 0.335729,0.879963 0.62316,1.65391 0.865827,2.32065 0.563082,-1.46661 1.2369,-3.10402 2.0238,-4.90871 1.3276,-3.0463 2.95913,-6.55437 4.8934,-10.5195l0.00235599 0.00235599 65.4872 -139.709 0.269761 -0.57604 0.627872 0 7.85959 0 0.855225 0 0.12958 0.846979 28.8173 190.082 0.173165 1.14383 -1.15679 0 -13.9722 0 -0.861115 0 -0.12369 -0.855225 -20.6656 -143.507c-0.679704,-4.75675 -1.19213,-8.72542 -1.53257,-11.8966 -0.115444,-1.07433 -0.212039,-2.05914 -0.289787,-2.9497l-6.76288 15.3952 -0.00824597 0.0188479 -62.0015 133.317 -0.270939 0.579574 -0.631406 0zm167.165 -55.5979l-26.8159 64.8782 -0.255625 0.61727 -0.662034 0 -13.6813 0 -1.49134 0 0.574862 -1.37708 79.1755 -190.082 0.255625 -0.613736 0.662034 0 7.85959 0 0.660856 0 0.256803 0.61138 79.7586 190.082 0.578396 1.37943 -1.49606 0 -14.8463 0 -0.660856 0 -0.255625 -0.613736 -27.1069 -64.8817 -82.5104 0zm41.0013 -101.036c-1.12852,3.3408 -2.21346,6.45306 -3.25245,9.33798 -1.32171,3.67181 -2.56332,6.9596 -3.72247,9.85865l-0.00471199 0.01178 -28.5346 68.484 71.5421 0 -28.2495 -68.1966c-2.26058,-5.50242 -4.10767,-10.0683 -5.54012,-13.6977 -0.888209,-2.25351 -1.63506,-4.18542 -2.23819,-5.7981zm-1702 166.284l-75.5484 -43.6177 0 43.9381 0 43.5352 75.5484 -43.8556zm-199.848 -126.162l0.0895277 -0.156674 24.6602 14.2373 0 -42.442 0 -49.3156 -12.4691 -7.21876 -29.6101 -17.0963 0.00471199 -0.00706798 -37.7501 -21.7906 0.110732 92.0569 54.9641 31.7329zm129.813 74.738l74.4647 42.9933 0 -85.9737 -37.6888 21.7611 -0.0188479 0 -36.757 21.2192zm-274.609 42.9886l74.46 -42.9898 -36.7558 -21.2181 -0.0188479 0 -37.6853 -21.7588 0 85.9666zm179.525 -103.65l6.7994 -3.92508 0.0365179 0.0624338 72.8767 -41.8471 0.109554 -92.157 -37.7501 21.7906 0.00471199 0.00706798 -22.3819 12.9238 -19.6949 11.4018 0 49.305 0 42.4385zm-99.5501 68.4663l-75.5426 43.6141 75.5426 43.8521 0 -43.527 0 -43.9393zm193.956 -111.535l75.142 43.3844 0 -52.4562 -0.0412299 -34.2773 -52.5928 30.2828 -22.508 13.0663zm-273.931 43.2325l75.221 -43.1948 -21.0508 -12.2194 -54.0995 -31.1509 -0.0706798 58.9092 0 27.6558zm169.137 109.29l-0.110732 -91.2488 -36.7806 21.2369 -0.0176699 0 -42.3843 24.4658 -0.110732 91.5185 79.404 -45.9725zm89.629 45.9584l-0.107198 -91.8307 -41.8165 -24.1395 -0.0176699 0 -37.3519 -21.5656 -0.0365179 30.3593 0 61.2535 79.3298 45.923zm-178.627 -206.631l0.103664 -86.6676 -37.7831 21.8106 0.00471199 0.00706798 -11.4266 6.59796 -25.7475 14.9052 53.6283 31.1286 21.2204 12.2182zm263.674 -43.3585l-5.22677 -3.02509 -31.9814 -18.4663 0.00471199 -0.00706798 -37.7501 -21.7918 0.104842 86.6322 22.7459 -13.097 52.1028 -30.2451z"/>
  <path class="fil1" d="M279.573 371.703l-0.352221 0.202615 0.001178 0.001178 -0.996585 0.57604 -0.0530098 0.0530098c-0.320415,0.318059 -0.691484,0.609024 -1.10732,0.857581l0 -0.001178 -0.0353399 0.0235599 -0.0294499 0.0212039 -54.2656 31.158 -34.9017 20.2604 -0.0624338 0.0365179 -0.0247379 0.00706798c-0.187301,0.103664 -0.389917,0.200259 -0.5996,0.288609l0 0.00235599c-0.197903,0.0824597 -0.406409,0.155496 -0.612558,0.217929l-1.44894 0.837555 -0.263871 0.265049 -0.0965957 -0.0553658 -0.0989517 0.0565438 -0.268583 -0.268583 -1.4454 -0.834021c-0.220285,-0.0624338 -0.438215,-0.139004 -0.647898,-0.226175l-0.00235599 -0.00235599c-0.233243,-0.0977737 -0.461775,-0.213217 -0.678526,-0.340441l-0.537166 -0.315703 0.00235599 -0.00353399 -33.9192 -19.6902 0 -0.001178 -54.725 -31.5102 -0.00235599 0c-0.186123,-0.107198 -0.366357,-0.227353 -0.535988,-0.353399l0.001178 -0.001178c-0.149606,-0.110732 -0.292143,-0.228531 -0.426435,-0.351043l-1.5738 -0.910591 -0.294499 -0.169631 0 -0.001178 -86.849 -50.1438 -2.38898 -1.37943 -0.294499 -0.169631 0 -0.339263 0 -2.74591 0 -100.043 -0.0388739 -0.0223819 0 -0.338085 0 -2.74591 0 -51.8354 0 -51.8377 0 -2.74591 0 -0.336907 0.0388739 -0.0223819 0 -0.210861 0.294499 -0.170809 1.08965 -0.630228c0.182589,-0.200259 0.384027,-0.395807 0.604312,-0.57604 0.216751,-0.176699 0.451173,-0.345153 0.69973,-0.495936l0.0212039 -0.0235599 0.0836377 -0.0482979 88.9906 -51.2393 0.174343 -0.127224 -0.010602 -0.0270939 0.442927 -0.255625 37.4992 -21.5326 0.001178 0.00235599 51.8071 -29.8304 0.140182 -0.0801038 0.0294499 0 0.14725 -0.0777478 0.0318059 -0.0164919 0.273295 -0.12369 2.0721 -1.19449 0.294499 -0.168453 0.292143 0.168453 1.96019 1.13205c0.107198,0.0435859 0.227353,0.0977737 0.354577,0.157852l0.00706798 0.00471199c0.12958,0.0636118 0.256803,0.130758 0.372247,0.197903l0.369891 0.217929 178.152 102.575 0.362823 0.203793c0.303923,0.170809 0.585464,0.365179 0.838733,0.571328 0.237955,0.193191 0.454707,0.402875 0.645542,0.619626l1.03075 0.596066 0.294499 0.170809 0 0.209683 0.0329839 0.0188479 0 0.341619 0 2.74591 0 51.8377 0 50.4925 0.0212039 0.245023 0 0.0341619 0.00824597 0.273295 0.00235599 0.0164919c0,0.184945 -0.01178,0.375781 -0.0318059,0.568972l0 0.204971 0 2.74591 0 0.341619 -0.0329839 0.0188479 0 100.043 0 2.74591 0 0.339263 -0.294499 0.169631 -2.38898 1.37943 -0.00235599 0 -87.147 50.3146zm-91.9827 -59.2556l1.44187 0.832843 0 -60.8364 0.00235599 0 0.0365179 -30.3593 0.00235599 -1.01661 0.878785 0.507716 37.2129 21.4855 0.0164919 0 0.137826 0.0801038 41.8165 24.1395 0.294499 0.170809 0 0.338085 0.107198 91.8307 0 0.140182 7.48852 4.32325 0.00942397 0.00706798 0.0930617 0.0565438 0.00235599 0c0.384027,0.234421 0.738604,0.514784 1.05195,0.830487 0.290965,0.293321 0.548946,0.62316 0.766876,0.980093l0.0471199 0.0471199 0.0400519 0.0706798c0.234421,0.409943 0.413477,0.852869 0.533632,1.29933 0.12369,0.461775 0.187301,0.930617 0.187301,1.37708 0,0.474733 -0.0683238,0.938863 -0.192013,1.38415l0 0.00235599 -0.0801038 0.259159 86.6487 -50.026 -0.001178 -0.001178 2.09448 -1.2098 0 -2.40665 0 -100.384 0 -0.341619 0.0329839 -0.0188479 0 -2.40429 0 -0.233243 0 -0.0259159 0.00471199 -0.0412299c0.0176699,-0.15314 0.0270939,-0.312169 0.0270939,-0.473555l0.00235599 0 -0.00706798 -0.222641 -0.001178 0 -0.0235599 -0.272117 -0.00235599 -0.0506538 0 -50.516 0 -51.8377 0 -2.40429 -0.0329839 -0.0188479 0 -0.216751 -0.819886 -0.473555 -0.0871717 -0.0494758 -0.0671458 -0.0801038c-0.164919,-0.194369 -0.352221,-0.380493 -0.55837,-0.547768l-0.00235599 -0.00235599c-0.137826,-0.113088 -0.286253,-0.221463 -0.444105,-0.321593l-0.234421 -0.13547 -178.894 -103.003 -0.167275 -0.0954177 -0.015314 -0.00942397 -0.00824597 -0.00471199 -0.0989517 -0.0494758 0 0.001178c-0.0907057,-0.0424079 -0.199081,-0.0907057 -0.319237,-0.137826l-0.0329839 -0.012958 -0.0447639 -0.0259159 -1.71163 -0.988339 -1.81294 1.04488 -0.0329839 0.0200259 -0.0176699 0.00706798 -0.286253 0.12958 -0.250913 0.131936 -0.130758 0.0695018 -0.00824597 0 -51.6693 29.7503 0 0.00235599 -37.0551 21.2781 0.00235599 0.00706798 -0.446461 0.253269c-0.0836377,0.0471199 -0.168453,0.101308 -0.253269,0.157852l-0.00706798 0.00471199c-0.0824597,0.0530098 -0.162564,0.11191 -0.236777,0.168453l-0.0247379 0.0200259 -0.0424079 0.0235599 -88.947 51.2146 -0.0176699 0.0200259 -0.0812818 0.0471199c-0.227353,0.134292 -0.439393,0.282719 -0.631406,0.439393 -0.195547,0.160208 -0.375781,0.338085 -0.535988,0.520674l-0.0659678 0.0765698 -0.0812818 0.0459419 -0.871717 0.504182 0 0.208505 -0.0388739 0.0223819 0 2.40782 0 51.8377 0 51.8354 0 2.409 0.0388739 0.0223819 0 0.336907 0 100.381 0 2.40665 2.09448 1.2098 86.7041 50.0601c-0.0482979,-0.128402 -0.0918837,-0.257981 -0.130758,-0.389917 -0.0848157,-0.289787 -0.146072,-0.59371 -0.177877,-0.910591l-0.0365179 0 0 -0.588998c0,-0.447639 0.0636118,-0.914125 0.186123,-1.37237l0.00235599 -0.00235599c0.121334,-0.446461 0.301567,-0.884675 0.53481,-1.2958l0.001178 -0.00235599 0.0270939 -0.0471199 0.142538 -0.249735 0.014136 0c0.194369,-0.289787 0.422901,-0.567794 0.685594,-0.826953 0.334551,-0.328661 0.72329,-0.627872 1.15915,-0.882319l0.00471199 -0.00471199 6.90306 -3.96396 0 -0.259159 0.110732 -91.5185 0.001178 -0.338085 0.293321 -0.170809 42.3843 -24.4658 0.139004 -0.0801038 0.015314 0 36.6416 -21.1568 0.879963 -0.507716 0.001178 1.01661 0.110732 91.2099 2.03558 -1.16857 0.0365179 -0.0176699 0.0671458 -0.0329839c0.368713,-0.201437 0.771588,-0.364001 1.18153,-0.479445 0.426435,-0.120156 0.869361,-0.192013 1.29462,-0.210861l0.0247379 -0.00235599 0.0176699 0 0 0.001178c0.506538,-0.0212039 1.03664,0.0294499 1.55378,0.15314l0.00235599 0c0.508894,0.122512 1.00836,0.316881 1.46778,0.58193zm88.8468 52.6529l0 0.001178 -89.4358 -51.6363c-0.364001,-0.210861 -0.757452,-0.364001 -1.15444,-0.459419 -0.413477,-0.0989517 -0.841089,-0.137826 -1.25339,-0.118978l-0.0270939 0.00235599 -0.0176699 0 0 -0.001178c-0.325127,0.0176699 -0.667924,0.0742138 -1.0013,0.167275 -0.331017,0.0930617 -0.657322,0.223819 -0.950643,0.387561l-0.0294499 0.015314 -0.0388739 0.0188479 -89.5159 51.4031 -0.001178 -0.001178c-0.347509,0.203793 -0.6585,0.441749 -0.922371,0.702086 -0.266227,0.262693 -0.491225,0.557192 -0.671458,0.871717l-0.0612558 0.107198c-0.15903,0.296855 -0.281541,0.60549 -0.365179,0.912947l0.001178 0c-0.0742138,0.279185 -0.121334,0.560726 -0.136648,0.842267l-0.00235599 0.228531c-0.00235599,0.415833 0.0541878,0.80575 0.160208,1.16975 0.103664,0.358111 0.263871,0.702086 0.465309,1.03075l-0.446461 0.274473 1.04959 0.607846 0.0577218 0.0329839 0.0506538 0.0482979c0.121334,0.114266 0.248557,0.220285 0.376959,0.315703l0.00235599 0c0.13547,0.101308 0.278007,0.195547 0.420545,0.278007l0 0.001178 0.0459419 0.0270939 0.0494758 -0.0859937 89.3404 51.5809 0 0.001178c0.364001,0.208505 0.757452,0.362823 1.15444,0.458241l0.00235599 0c0.413477,0.10013 0.841089,0.139004 1.25221,0.120156l0.00235599 0c0.340441,-0.015314 0.696196,-0.0730358 1.03899,-0.168453 0.332195,-0.0918837 0.6585,-0.222641 0.955355,-0.387561l0.0223819 -0.010602 0.0471199 -0.0235599 -0.001178 -0.001178 35.5625 -20.4194 3.49865 -2.03087 0.00235599 0 50.4253 -29.0305 0.0435859 -0.0306279 0.0294499 -0.0188479c0.133114,-0.0789258 0.266227,-0.169631 0.393451,-0.263871l0.00235599 0c0.127224,-0.0942397 0.246201,-0.192013 0.349865,-0.287431l0.0553658 -0.0506538 0.0482979 -0.0282719 0.176699 -0.101308c0.151962,-0.167275 0.288609,-0.347509 0.408765,-0.533632l0.0954177 -0.162564c0.190835,-0.323949 0.341619,-0.672636 0.442927,-1.03428l0.001178 0c0.0918837,-0.335729 0.143716,-0.69384 0.143716,-1.06844 0,-0.351043 -0.0494758,-0.715044 -0.144894,-1.07315 -0.0859937,-0.320415 -0.215573,-0.645542 -0.382849,-0.950643l-0.0270939 -0.0270939 -0.0435859 -0.0742138c-0.173165,-0.295677 -0.387561,-0.572506 -0.632584,-0.819886l-0.001178 -0.00235599c-0.242667,-0.246201 -0.52303,-0.467665 -0.829309,-0.653788l0.001178 -0.001178 -0.0824597 -0.0494758zm269.874 -100.489l60.2569 -153.696 0.248557 -0.632584 0.14725 -0.374603 0.400519 0 0.67617 0 8.44152 0 0.710332 0 0.420545 0 0.136648 0.400519 0.230887 0.67617 52.6882 154.859 0.0318059 0.0942397 0 0.012958c2.87549,8.63118 5.07599,15.5684 6.59796,20.8058l0.487691 -1.68807c0.371069,-1.2687 0.781012,-2.62104 1.22512,-4.04995 0.67617,-2.17812 1.43244,-4.51408 2.26175,-6.99965l0.001178 0c0.836377,-2.51149 1.73872,-5.14431 2.69997,-7.88551l53.5588 -159.22 0 -0.00235599 0.229709 -0.678526 0.136648 -0.400519 0.420545 0 0.71151 0 14.5541 0 1.39357 0 0.825775 0 -0.270939 0.779834 -0.457063 1.31818 -72.4798 209.875 -0.233243 0.672636 -0.137826 0.398163 -0.417011 0 -0.70562 0 -8.14938 0 -0.703264 0 -0.415833 0 -0.139004 -0.395807 -0.234421 -0.667924 -53.8521 -154.279 -0.00942397 -0.0247379 -0.010602 -0.0353399 0.001178 0 -0.568972 -1.82354 -0.001178 0 -0.621982 -1.92956 -0.001178 0 -0.647898 -1.95547 0.001178 0 -0.61727 -1.80822 -0.653788 -1.91189 -0.553658 -1.66686 0 -0.00235599 -0.52303 -1.63035 -0.00235599 -0.00471199c-0.171987,-0.550124 -0.331017,-1.06726 -0.471199,-1.53846 -0.286253,-0.951821 -0.57015,-1.82589 -0.848157,-2.61515 -0.282719,-0.802216 -0.563082,-1.52668 -0.837555,-2.16751l-0.014136 -0.0341619 -0.0270939 -0.0765698 -0.00235599 -0.01178 -0.126046 -0.378137 -0.831665 2.33008c-0.492402,1.36294 -1.00012,2.74591 -1.52079,4.14419 -0.766876,2.05207 -1.57027,4.15362 -2.40547,6.29875l0 0.00235599c-0.798682,2.04736 -1.64448,4.176 -2.53505,6.38121l-0.0883497 0.223819 -60.8376 154.568 -0.249735 0.633762 -0.14725 0.374603 -0.400519 0 -0.674992 0 -8.15174 0 -0.703264 0 -0.415833 0 -0.139004 -0.395807 -0.233243 -0.667924 -73.064 -209.877 0 -0.00235599 -0.458241 -1.32171 -0.269761 -0.779834 0.824597 0 1.39593 0 15.427 0 0.71151 0 0.421723 0 0.13547 0.400519 0.229709 0.67617 53.2702 156.606 0.0636118 0.186123c0.61727,1.71398 1.20862,3.37967 1.76699,4.99117 0.610202,1.75993 1.15444,3.35965 1.63153,4.80034 0.506538,1.53493 1.0013,3.07104 1.47839,4.59654 0.466487,1.49488 0.914125,2.96502 1.33585,4.40688l0.0247379 0.0848157 0 0.00471199 0.928261 3.16174 0.259159 0.878785 0.434681 -1.30051c0.382849,-1.12852 0.823419,-2.37013 1.317,-3.72129 0.837555,-2.29592 1.81176,-4.8451 2.9179,-7.64637l0.001178 0c1.08729,-2.75416 2.33714,-5.83933 3.74956,-9.24727l0.0388739 -0.10013zm61.3524 -153.267l-59.9423 152.892 0.0188479 0 -0.331017 0.798682 -0.00235599 0.00471199 -0.00353399 0.00824597c-1.38886,3.35258 -2.65285,6.46956 -3.78608,9.34151l0 0.00235599c-1.12852,2.859 -2.10037,5.39994 -2.90847,7.61339 -0.480623,1.31464 -0.916481,2.54801 -1.30758,3.69773 -0.391095,1.14855 -0.72918,2.18636 -1.00719,3.10284l-0.57015 1.8789 -0.556014 -1.88362 -0.803394 -2.72117 -0.952999 -3.24656 -0.0247379 -0.0836377 0 -0.00471199c-0.409943,-1.40064 -0.848157,-2.83779 -1.3064,-4.30675 -0.458241,-1.46661 -0.951821,-2.99564 -1.47367,-4.57769 -0.537166,-1.62446 -1.08022,-3.223 -1.6221,-4.7862 -0.572506,-1.65155 -1.18624,-3.37849 -1.83178,-5.1714l-0.126046 -0.352221 0.00471199 -0.00471199 -53.1524 -156.26 -0.0930617 -0.275651 -0.290965 0 -15.427 0 -0.57015 0 0.186123 0.539522 0.001178 0 73.064 209.877 0.0954177 0.272117 0.286253 0 8.15174 0 0.274473 0 0.102486 -0.259159 60.5219 -153.765 -0.00942397 0 0.326305 -0.808106c0.904701,-2.23702 1.77995,-4.43987 2.62222,-6.60031l0.001178 0c0.843445,-2.16869 1.64566,-4.26552 2.39958,-6.28225 0.52892,-1.42184 1.03664,-2.80128 1.51608,-4.13006 0.487691,-1.35116 0.952999,-2.66816 1.39475,-3.94158l0.566616 -1.63153 0.545412 1.63859 0.666746 1.99906 0.001178 0 0.0235599 0.0647898c0.286253,0.671458 0.573684,1.41242 0.855225,2.21346 0.289787,0.821063 0.579574,1.71398 0.867005,2.66934 0.15314,0.515962 0.309813,1.02721 0.466487,1.52668l-0.001178 0 0.520674 1.62328 0.001178 0 0.548946 1.65273 0.653788 1.91189 0.618448 1.81294 0.00235599 0.00471199 0.647898 1.95547 0 0.00471199 0.62316 1.93427 0 0.00235599 0.57604 1.83885 0.00235599 0.00353399 0.010602 0.0353399 -0.001178 0 53.8439 154.254 0.0954177 0.272117 0.287431 0 8.14938 0 0.288609 0 0.0954177 -0.274473 72.4798 -209.875 0.186123 -0.538344 -0.567794 0 -14.5541 0 -0.289787 0 -0.0942397 0.278007 -0.001178 0 -53.56 159.225 -0.00235599 0.00706798c-0.982449,2.80245 -1.88362,5.42939 -2.69643,7.86902l0 0.00235599c-0.823419,2.46672 -1.57616,4.79327 -2.25233,6.97138 -0.428791,1.38061 -0.836377,2.72824 -1.2204,4.03817 -0.379315,1.2958 -0.72918,2.52562 -1.04017,3.67653l-0.557192 2.06149 -0.57604 -2.05443c-1.52433,-5.44117 -3.92155,-13.064 -7.18696,-22.8614l-0.0318059 -0.0954177 -52.6564 -154.766 -0.0942397 -0.275651 -0.289787 0 -8.44152 0 -0.275651 0 -0.101308 0.257981zm183.926 204.201l0 -188.916 0 -0.995407 0 -0.588998 0.588998 0 0.994229 0 13.3903 0 0.996585 0 0.588998 0 0 0.588998 0 0.995407 0 188.916 0 0.995407 0 0.588998 -0.588998 0 -0.996585 0 -13.3903 0 -0.994229 0 -0.588998 0 0 -0.588998 0 -0.995407zm1.178 -188.916l0 188.916 0 0.406409 0.405231 0 13.3903 0 0.407587 0 0 -0.406409 0 -188.916 0 -0.406409 -0.407587 0 -13.3903 0 -0.405231 0 0 0.406409zm121.791 9.73614c-2.55861,0 -4.98764,0.15314 -7.28002,0.454707 -2.29356,0.302745 -4.47403,0.759808 -6.5367,1.36883 -2.04618,0.603134 -3.97456,1.35823 -5.77336,2.25704l0 0.00235599c-1.80822,0.903523 -3.49983,1.95665 -5.06656,3.15585 -1.54671,1.18389 -2.90258,2.48675 -4.05938,3.90506 -1.15561,1.41477 -2.11922,2.95088 -2.88727,4.60125l0 0.00235599c-0.775122,1.66686 -1.35941,3.45389 -1.74461,5.35753 -0.385205,1.90835 -0.580752,3.95336 -0.580752,6.12676 0,5.01355 1.04842,9.77619 3.14172,14.282 2.09919,4.51644 5.25386,8.78785 9.45931,12.8072l0.015314 0.014136c1.51608,1.46896 3.16292,2.97562 4.93109,4.51526 1.75875,1.52904 3.63176,3.08282 5.61315,4.65662 2.00024,1.5903 4.10178,3.19119 6.29521,4.79798 2.20874,1.61857 4.53293,3.26187 6.96431,4.92402 2.5056,1.71163 4.76971,3.2713 6.78879,4.67311 2.01673,1.40182 3.90035,2.72471 5.64496,3.96749 1.67864,1.19567 3.18059,2.28296 4.49759,3.25834 1.317,0.974203 2.44788,1.83532 3.38674,2.57628 0.956533,0.755096 1.94841,1.56674 2.97091,2.43021 1.04135,0.878785 2.1145,1.81176 3.21593,2.79303 1.09436,0.974203 2.26293,2.04029 3.49747,3.18884 1.20156,1.1191 2.46908,2.3183 3.79668,3.59642l0.0353399 0.0270939 0.0164919 0.0164919c2.43727,2.43727 4.58005,4.98175 6.42008,7.62517 1.83532,2.63871 3.3726,5.38227 4.60597,8.22595 2.46672,5.68972 3.70126,11.7458 3.70126,18.1635 0,8.27425 -1.39239,15.5602 -4.17482,21.8507 -1.39828,3.1641 -3.15232,6.07846 -5.25269,8.73484 -2.10037,2.6552 -4.55413,5.05949 -7.35305,7.20227 -2.76947,2.12039 -5.8193,3.98045 -9.1389,5.57192 -3.3137,1.58912 -6.90424,2.91436 -10.7634,3.97338 -3.84498,1.05313 -7.94794,1.84356 -12.303,2.36659 -4.36094,0.524208 -8.98811,0.786902 -13.8733,0.786902 -9.82449,0 -18.8562,-1.28873 -27.0939,-3.86383 -8.2448,-2.57746 -15.6933,-6.44835 -22.3383,-11.6056l-0.00235599 0 -0.74096 -0.57604 -0.435859 -0.339263 0.312169 -0.457063 0.526564 -0.769232 6.9867 -10.1885 0.560726 -0.816352 0.332195 -0.481801 0.481801 0.325127 0.815174 0.551302c3.24185,2.19225 6.52846,4.11239 9.85512,5.75216 3.32902,1.64213 6.70398,3.00978 10.1131,4.09825 3.41266,1.08965 6.87597,1.90835 10.384,2.45141 3.49747,0.543056 7.05973,0.815174 10.6809,0.815174 3.62469,0 7.04324,-0.189657 10.2545,-0.568972l0.00235599 0c3.21004,-0.378137 6.21864,-0.945931 9.01874,-1.7022 2.78007,-0.750384 5.36342,-1.68807 7.74179,-2.80834 2.37366,-1.1191 4.5506,-2.42314 6.5261,-3.91095 1.95547,-1.4725 3.67064,-3.09695 5.13724,-4.86866 1.46543,-1.76817 2.68819,-3.68831 3.66239,-5.75098 0.977737,-2.07327 1.71398,-4.30322 2.20285,-6.68277 0.488869,-2.38073 0.73507,-4.92756 0.73507,-7.63459 0,-2.31712 -0.248557,-4.58358 -0.742138,-6.79233 -0.494758,-2.21463 -1.24043,-4.38921 -2.2323,-6.51196 -0.998941,-2.13689 -2.25469,-4.23725 -3.76252,-6.29168 -1.49959,-2.04736 -3.2548,-4.05231 -5.25504,-6.01014l-0.0259159 -0.0164919 -0.0365179 -0.0365179c-1.45011,-1.45011 -3.01214,-2.92025 -4.679,-4.40335 -1.68571,-1.49959 -3.49158,-3.02863 -5.41525,-4.58123 -1.95665,-1.57969 -4.0205,-3.17941 -6.18684,-4.78973 -2.18754,-1.62564 -4.49877,-3.28308 -6.9278,-4.96643 -2.58099,-1.78938 -4.8828,-3.39499 -6.89246,-4.80623 -2.13217,-1.49606 -4.00048,-2.8213 -5.60962,-3.9722 -1.63624,-1.17328 -3.15703,-2.27707 -4.56591,-3.31724 -1.36883,-1.0119 -2.54683,-1.89893 -3.52103,-2.6552 -0.958889,-0.742138 -1.9861,-1.56909 -3.07339,-2.47497 -1.07433,-0.894099 -2.18872,-1.85299 -3.33844,-2.86842 -1.13677,-1.00365 -2.33125,-2.08623 -3.57875,-3.23949 -1.24632,-1.15326 -2.50206,-2.34068 -3.7637,-3.55519l-0.0294499 -0.0164919 -0.0541878 -0.0541878c-2.53623,-2.53623 -4.76264,-5.18318 -6.67571,-7.93734 -1.90718,-2.74591 -3.50454,-5.60373 -4.7862,-8.56875 -1.28048,-2.96384 -2.24291,-6.02899 -2.88256,-9.19191 -0.64083,-3.16645 -0.963601,-6.42597 -0.963601,-9.77148 0,-3.35611 0.300389,-6.54024 0.897633,-9.54413l0 -0.00235599c0.598422,-3.00742 1.50077,-5.84286 2.69997,-8.49689 1.20391,-2.66227 2.71175,-5.14195 4.51526,-7.43316 1.79762,-2.28531 3.90506,-4.3951 6.31288,-6.32113 4.77442,-3.81789 10.4524,-6.68042 17.0279,-8.58053 3.26423,-0.942397 6.75463,-1.65155 10.4653,-2.12275 3.71658,-0.472377 7.64166,-0.709154 11.7705,-0.709154 8.26364,0 16.1185,0.813996 23.5599,2.44199 7.44376,1.62681 14.4776,4.07233 21.0944,7.32949l0.865827 0.427613 0.51125 0.253269 -0.237955 0.51714 -0.402875 0.877607 -4.94876 10.7692 -0.424079 0.923549 -0.249735 0.54659 -0.539522 -0.261515 -0.910591 -0.440571c-2.9497,-1.42655 -6.01485,-2.67876 -9.18955,-3.74838 -3.17823,-1.0708 -6.47191,-1.96608 -9.87397,-2.67876 -3.41148,-0.715044 -6.94075,-1.25339 -10.5796,-1.60914 -3.63412,-0.355755 -7.40017,-0.53481 -11.2946,-0.53481zm-7.4308 -0.709154c2.36306,-0.310991 4.84274,-0.468843 7.4308,-0.468843 3.90506,0 7.70763,0.182589 11.4054,0.544234 3.68831,0.361645 7.25999,0.904701 10.7092,1.62799 3.44917,0.72329 6.78644,1.63035 10.0059,2.7141 3.22418,1.08611 6.33526,2.35717 9.32855,3.80493l0.372247 0.180233 0.173165 -0.378137 4.94876 -10.7692 0.164919 -0.359289 -0.354577 -0.175521c-6.5261,-3.21357 -13.4692,-5.62611 -20.8211,-7.2329 -7.35423,-1.60797 -15.1278,-2.41371 -23.3125,-2.41371 -4.10532,0 -7.97975,0.233243 -11.6221,0.695018 -3.64354,0.462953 -7.07387,1.16033 -10.2863,2.08741 -6.4295,1.8577 -11.9732,4.64955 -16.6227,8.36849 -2.32654,1.86123 -4.36919,3.90859 -6.11969,6.13265 -1.74815,2.22052 -3.20768,4.61892 -4.36919,7.18813 -1.1615,2.56921 -2.03558,5.31983 -2.61751,8.2448 -0.58193,2.92497 -0.874073,6.03252 -0.874073,9.3156 0,3.28308 0.313347,6.4672 0.935329,9.54059 0.624338,3.08164 1.56085,6.07022 2.80952,8.95866 1.24514,2.8802 2.80481,5.66852 4.67547,8.36142 1.85417,2.66816 4.01932,5.24444 6.49194,7.72294l0.00235599 0.001178 0.0565438 0.0541878c1.33938,1.29108 2.60926,2.49146 3.80257,3.59642 1.21216,1.12027 2.39958,2.19579 3.55991,3.22064 1.14972,1.01543 2.25586,1.96608 3.31017,2.84486 1.03546,0.862293 2.05325,1.681 3.04276,2.4467 1.01425,0.78808 2.18283,1.66922 3.50218,2.64342 1.2793,0.944753 2.80245,2.04854 4.55178,3.3031 1.69631,1.21451 3.56933,2.54212 5.60019,3.96749 2.15102,1.51019 4.44576,3.11109 6.88303,4.80151 2.44081,1.6916 4.76382,3.35729 6.96078,4.98999 2.21346,1.64566 4.29026,3.25363 6.22453,4.81565 1.94016,1.56674 3.76134,3.10873 5.46001,4.61892 1.69631,1.50901 3.26305,2.98151 4.69549,4.41277l0.0412299 0.0400519c2.06503,2.01673 3.87679,4.08529 5.42467,6.19744 1.55024,2.11215 2.84486,4.27848 3.87796,6.48958 1.02721,2.2005 1.79998,4.45518 2.31476,6.75699 0.515962,2.30652 0.775122,4.65662 0.775122,7.04442 0,2.77183 -0.255625,5.39758 -0.763342,7.87019 -0.508894,2.47615 -1.27341,4.79327 -2.29003,6.949 -1.01779,2.15456 -2.29238,4.15715 -3.81789,5.99836 -1.52315,1.84003 -3.30546,3.5281 -5.33515,5.05714 -2.03911,1.53611 -4.28673,2.88256 -6.73343,4.03582 -2.44434,1.1509 -5.09248,2.11333 -7.9397,2.88138 -2.85782,0.771588 -5.92179,1.35116 -9.18602,1.73519 -3.26305,0.385205 -6.72989,0.578396 -10.3935,0.578396 -3.65886,0 -7.2812,-0.278007 -10.8599,-0.834021 -3.57051,-0.55248 -7.09272,-1.38415 -10.5584,-2.49146 -3.47391,-1.10967 -6.90306,-2.49853 -10.2804,-4.16422 -3.37967,-1.66569 -6.71222,-3.61174 -9.99177,-5.8299l-0.333373 -0.224997 -0.228531 0.333373 -6.9867 10.1885 -0.213217 0.312169 0.303923 0.236777 -0.001178 0.001178c6.53317,5.06892 13.8579,8.8762 21.9673,11.4113 8.12111,2.53858 17.0385,3.80964 26.7452,3.80964 4.84392,0 9.42515,-0.259159 13.7343,-0.777478 4.31736,-0.519496 8.36377,-1.2958 12.1334,-2.3289 3.78844,-1.03899 7.313,-2.34068 10.5654,-3.90035 3.24067,-1.55378 6.221,-3.37143 8.93157,-5.44706 2.72235,-2.08388 5.10661,-4.41984 7.14573,-6.9973 2.03558,-2.5751 3.73778,-5.40347 5.09719,-8.4804 2.71528,-6.13854 4.07351,-13.2666 4.07351,-21.3771 0,-6.26341 -1.20038,-12.1652 -3.59996,-17.6994 -1.19684,-2.75887 -2.69643,-5.43292 -4.49523,-8.01862 -1.79291,-2.57628 -3.89092,-5.06538 -6.28814,-7.46261l-0.00588998 -0.00588998c-1.317,-1.26752 -2.58806,-2.47144 -3.80964,-3.6082 -1.20038,-1.11674 -2.3607,-2.17458 -3.47862,-3.16999 -1.11556,-0.994229 -2.18165,-1.92131 -3.19237,-2.77418 -1.02957,-0.870539 -2.01202,-1.67393 -2.94028,-2.40665 -0.935329,-0.738604 -2.05678,-1.59265 -3.35847,-2.55507 -1.30051,-0.962423 -2.79656,-2.04618 -4.47874,-3.2442 -1.63035,-1.1615 -3.51279,-2.48322 -5.63553,-3.95807 -2.12039,-1.4725 -4.38332,-3.03098 -6.77937,-4.6684 -2.43963,-1.66686 -4.7756,-3.31959 -6.9973,-4.94758 -2.23702,-1.63859 -4.35034,-3.24891 -6.33291,-4.8239 -1.99788,-1.58558 -3.88385,-3.15114 -5.6532,-4.6896 -1.75404,-1.52786 -3.41266,-3.04394 -4.96643,-4.5506l-0.015314 -0.014136c-4.315,-4.12417 -7.55685,-8.51456 -9.71847,-13.1676 -2.16751,-4.66487 -3.25245,-9.59007 -3.25245,-14.7744 0,-2.23466 0.203793,-4.35623 0.609024,-6.35765 0.406409,-2.00848 1.01897,-3.88621 1.82707,-5.62375l0.001178 0c0.809284,-1.73754 1.82354,-3.35493 3.04159,-4.84628 1.21687,-1.49252 2.63871,-2.859 4.25728,-4.09825 1.6327,-1.24985 3.38674,-2.34303 5.25504,-3.27601l0.001178 0.00235599c1.87419,-0.936507 3.86501,-1.71752 5.96537,-2.33714 2.10861,-0.621982 4.35152,-1.09082 6.71811,-1.40417zm253.564 179.889l0 -93.8922 -128.112 0 0 93.8922 0 0.995407 0 0.588998 -0.588998 0 -0.995407 0 -13.3915 0 -0.995407 0 -0.588998 0 0 -0.588998 0 -0.995407 0 -188.916 0 -0.995407 0 -0.588998 0.588998 0 0.995407 0 13.3915 0 0.995407 0 0.588998 0 0 0.588998 0 0.995407 0 79.92 128.112 0 0 -79.92 0 -0.995407 0 -0.588998 0.588998 0 0.994229 0 13.3903 0 0.996585 0 0.588998 0 0 0.588998 0 0.995407 0 188.916 0 0.995407 0 0.588998 -0.588998 0 -0.996585 0 -13.3903 0 -0.994229 0 -0.588998 0 0 -0.588998 0 -0.995407zm1.178 -94.4812l0 94.4812 0 0.406409 0.405231 0 13.3903 0 0.407587 0 0 -0.406409 0 -188.916 0 -0.406409 -0.407587 0 -13.3903 0 -0.405231 0 0 0.406409 0 80.509 0 0.588998 -0.588998 0 -129.29 0 -0.588998 0 0 -0.588998 0 -80.509 0 -0.406409 -0.406409 0 -13.3915 0 -0.406409 0 0 0.406409 0 188.916 0 0.406409 0.406409 0 13.3915 0 0.406409 0 0 -0.406409 0 -94.4812 0 -0.588998 0.588998 0 129.29 0 0.588998 0 0 0.588998zm199.53 -93.3892l-79.7398 90.1002c7.67111,9.29793 14.7791,17.7948 21.3182,25.486 6.59325,7.75239 12.594,14.6637 17.9951,20.728 5.43763,6.10556 10.2403,11.3158 14.3987,15.6261 4.16657,4.31853 7.70292,7.75239 10.602,10.291 2.88256,2.52562 5.76511,4.77913 8.63943,6.75463 2.86371,1.96843 5.73449,3.67064 8.60055,5.09719 2.84486,1.41477 5.68501,2.56096 8.5122,3.4315 2.82601,0.869361 5.65085,1.47132 8.46508,1.7988l0.482979 0.0565438 75.8877 -182.188 0.255625 -0.613736 0.150784 -0.364001 0.392273 0 0.662034 0 7.85841 0 0.660856 0 0.391095 0 0.151962 0.361645 0.256803 0.61138 79.7586 190.082 0.579574 1.37943 0.342797 0.816352 -0.885853 0 -1.49723 0 -14.8451 0 -0.660856 0 -0.391095 0 -0.151962 -0.364001 -0.256803 -0.613736 -26.9526 -64.5177 -81.7294 0 -26.6628 64.5118 -0.255625 0.61727 -0.151962 0.366357 -0.391095 0 -0.663212 0 -11.2133 0 -0.0164919 0.504182 -0.0306279 0.976559 -0.0188479 0.578396 -0.577218 -0.010602 -0.976559 -0.0176699c-5.53423,-0.0977737 -10.5584,-0.55837 -15.0678,-1.37708 -4.53057,-0.822241 -8.54283,-2.00848 -12.0344,-3.55402 -1.73754,-0.77041 -3.4315,-1.60797 -5.0701,-2.50795 -1.62799,-0.895277 -3.223,-1.86595 -4.77795,-2.90612 -1.55142,-1.03899 -3.04748,-2.13924 -4.4811,-3.29486 -1.43716,-1.15679 -2.82955,-2.38662 -4.17482,-3.68124 -1.32407,-1.27459 -3.02627,-3.01449 -5.1019,-5.21263 -2.03676,-2.15691 -4.47521,-4.80269 -7.30829,-7.93145 -2.82837,-3.12405 -6.01603,-6.68631 -9.55119,-10.6821 -3.56226,-4.02521 -7.48146,-8.48982 -11.7529,-13.3868 -4.33031,-4.96761 -8.36731,-9.61834 -12.0992,-13.9404 -3.77194,-4.36801 -7.25175,-8.42385 -10.4359,-12.1616 -3.23713,-3.79786 -6.18095,-7.28237 -8.83026,-10.4465 -2.65167,-3.17117 -5.06656,-6.09024 -7.23997,-8.7584l-0.001178 0.001178 -0.533632 -0.65261 -0.316881 -0.386383 0.333373 -0.374603 0.559548 -0.630228 81.2146 -91.6929 0.300389 -0.339263 0.176699 -0.200259 0.262693 0 0.441749 0 16.0113 0 2.20521 0 1.30404 0 -0.864649 0.977737 -1.46189 1.65273zm-80.9507 89.6985l80.0719 -90.476 0.597244 -0.674992 -0.901167 0 -16.0113 0 -0.180233 0 -0.122512 0.139004 -81.2146 91.6929 -0.227353 0.255625 0.217929 0.266227 0 0.00235599c2.11215,2.59277 4.52704,5.51067 7.23172,8.74545 2.69997,3.22535 5.64142,6.70751 8.82084,10.437 3.21475,3.77312 6.69455,7.83014 10.4312,12.1569 3.77666,4.3739 7.81012,9.01874 12.0945,13.9357 4.29497,4.9252 8.21299,9.38863 11.7482,13.382 3.56108,4.02404 6.74403,7.58276 9.54177,10.6726 2.77654,3.06632 5.2091,5.70504 7.29415,7.9126 2.06503,2.18754 3.75427,3.9133 5.06185,5.17258 1.31111,1.26163 2.67759,2.46672 4.09707,3.61056 1.42302,1.14737 2.8908,2.22877 4.39628,3.23596 1.50666,1.00719 3.07221,1.95901 4.69078,2.84957 1.61386,0.885853 3.27601,1.70809 4.97821,2.46319 3.41619,1.51255 7.3401,2.6717 11.7682,3.47627 4.44576,0.806928 9.40748,1.26163 14.8793,1.35823l0.398163 0.00706798 0.012958 -0.398163 0.0353399 -1.07433 0.0176699 -0.57015 0.568972 0 11.7811 0 0.272117 0 0.103664 -0.250913 26.8147 -64.8782 0.150784 -0.366357 0.392273 0 82.5116 0 0.389917 0 0.15314 0.364001 27.1045 64.8817 0.104842 0.249735 0.269761 0 14.8451 0 0.61138 0 -0.236777 -0.563082 -79.7586 -190.082 -0.104842 -0.249735 -0.269761 0 -7.85841 0 -0.270939 0 -0.103664 0.249735 -76.075 182.637 -1.33349 3.20179 0.173165 -2.94735 -0.355755 -0.0412299c-2.88374,-0.335729 -5.77807,-0.952999 -8.67477,-1.84356 -2.89552,-0.891743 -5.79692,-2.06149 -8.69361,-3.50218 -2.90258,-1.4454 -5.81812,-3.1747 -8.74191,-5.18436 -2.91201,-2.00142 -5.82873,-4.28202 -8.74545,-6.83709 -2.92968,-2.56685 -6.48958,-6.02074 -10.675,-10.3593 -4.18896,-4.34327 -9.00343,-9.56415 -14.4316,-15.6591 -5.38462,-6.04548 -11.3912,-12.9639 -18.0139,-20.7516 -6.58029,-7.73826 -13.7979,-16.3694 -21.6457,-25.8853l-0.318059 -0.385205 0.332195 -0.375781zm-19.947 -90.7446l0 188.916 0 0.995407 0 0.588998 -0.588998 0 -0.995407 0 -13.3903 0 -0.995407 0 -0.588998 0 0 -0.588998 0 -0.995407 0 -188.916 0 -0.995407 0 -0.588998 0.588998 0 0.995407 0 13.3903 0 0.995407 0 0.588998 0 0 0.588998 0 0.995407zm-1.178 188.916l0 -188.916 0 -0.406409 -0.406409 0 -13.3903 0 -0.406409 0 0 0.406409 0 188.916 0 0.406409 0.406409 0 13.3903 0 0.406409 0 0 -0.406409zm201.967 -163.797c-0.384027,1.12734 -0.762164,2.22641 -1.13441,3.29486 -0.527742,1.51608 -1.06255,3.02156 -1.59501,4.5023 -0.67617,1.8789 -1.31936,3.62469 -1.92485,5.22795 -0.614914,1.62799 -1.21216,3.16881 -1.79055,4.61421l-0.00706798 0.0200259 -0.014136 0.0353399 -28.1953 67.67 69.7798 0 -27.9138 -67.3849c-1.21451,-2.9603 -2.24291,-5.47768 -3.08164,-7.55213 -0.937685,-2.3183 -1.75639,-4.36683 -2.46083,-6.1515l0 -0.00235599c-0.414655,-1.05313 -0.81753,-2.08034 -1.22747,-3.14172l-0.434681 -1.13205zm-2.24408 2.90847c0.541878,-1.55849 1.09671,-3.17117 1.65744,-4.83332l0.527742 -1.56438 0.579574 1.54553c0.292143,0.78219 0.631406,1.6704 1.00954,2.65167 0.335729,0.868183 0.755096,1.93545 1.22629,3.13465l0.001178 0c0.726824,1.84239 1.54789,3.89681 2.45612,6.14207 1.00719,2.48911 2.0344,5.00884 3.07693,7.54978l28.2495 68.1966 0.335729 0.81164 -0.878785 0 -71.5409 0 -0.882319 0 0.339263 -0.813996 28.5181 -68.4451 0.00235599 -0.00824597 0.015314 -0.0365179c0.577218,-1.44069 1.17682,-2.98622 1.79644,-4.62835 0.63494,-1.68218 1.27695,-3.4209 1.92013,-5.2091 0.504182,-1.40299 1.03546,-2.89787 1.5903,-4.49288zm123.433 160.888l0 -188.044 0 -0.916481 0 -0.541878 0.543056 -0.0447639 0.917659 -0.0742138c4.12888,-0.335729 8.14467,-0.633762 12.0379,-0.890565 3.84498,-0.253269 7.56627,-0.467665 11.1533,-0.638474 3.55402,-0.169631 6.95842,-0.299211 10.2097,-0.385205 3.29486,-0.0871717 6.36943,-0.130758 9.22018,-0.130758 4.5294,0 8.8762,0.295677 13.031,0.883497 4.16186,0.58782 8.12818,1.4725 11.8907,2.64696 3.76841,1.17682 7.3507,2.6552 10.741,4.4328 3.38792,1.77642 6.57675,3.84616 9.5618,6.2104 3.01331,2.38544 5.65438,5.02769 7.91378,7.92203 2.26293,2.89787 4.15008,6.05019 5.65674,9.45342 1.49959,3.38674 2.62693,7.03028 3.37732,10.92 0.749206,3.88503 1.12499,8.01627 1.12499,12.3855 0,5.87702 -0.851691,11.5455 -2.55036,16.9891 -0.845801,2.71528 -1.906,5.37755 -3.17588,7.97975 -1.26635,2.59395 -2.75062,5.14549 -4.45047,7.6452 -1.68453,2.47733 -3.41855,4.82861 -5.19261,7.04324 -1.77995,2.22288 -3.62234,4.33503 -5.52127,6.33173 -1.78113,1.87419 -3.61056,3.64472 -5.48122,5.30687 -1.71634,1.52551 -3.48451,2.97326 -5.29863,4.33503 5.48829,7.28355 10.4477,13.8309 14.8757,19.6372 4.5023,5.90294 8.55932,11.1768 12.1663,15.817 3.58229,4.60479 6.58736,8.40736 9.00814,11.4042 2.43845,3.01567 4.3256,5.26682 5.65909,6.74403 2.69761,2.79185 5.46473,5.29038 8.29309,7.4897 2.82601,2.19814 5.70621,4.09 8.63118,5.6697 2.91908,1.57734 5.89823,2.85664 8.9351,3.83202 3.03098,0.975381 6.12558,1.65391 9.27672,2.02969l0.903523 0.107198 0.533632 0.0636118 -0.0164919 0.539522 -0.0294499 0.911769 -0.289787 9.02345 -0.0318059 0.976559 -0.0188479 0.578396 -0.577218 -0.010602 -0.975381 -0.0176699c-5.53305,-0.0977737 -10.5584,-0.55837 -15.0678,-1.37708 -4.53057,-0.822241 -8.54283,-2.00848 -12.0344,-3.55402 -1.74815,-0.773944 -3.50101,-1.68689 -5.2468,-2.73177 -1.74579,-1.0437 -3.48687,-2.22288 -5.2197,-3.53046 -1.72223,-1.30051 -3.44446,-2.73649 -5.15727,-4.30086 -1.71045,-1.56202 -3.42208,-3.26069 -5.12782,-5.09012 -1.69514,-1.81883 -3.88974,-4.39628 -6.58029,-7.72648 -2.67523,-3.3137 -5.86524,-7.40253 -9.56415,-12.2594 -3.63883,-4.78031 -7.77595,-10.3145 -12.4055,-16.5933 -4.54353,-6.16563 -9.61245,-13.1158 -15.1962,-20.8446 -7.49677,-0.00824597 -14.9335,-0.128402 -22.2983,-0.354577 -7.27295,-0.224997 -14.4729,-0.559548 -21.595,-0.997763l0 75.7452 0 0.995407 0 0.588998 -0.588998 0 -0.996585 0 -13.3903 0 -0.994229 0 -0.588998 0 0 -0.588998 0 -0.995407zm1.178 -188.044l0 188.044 0 0.406409 0.405231 0 13.3903 0 0.407587 0 0 -0.406409 0 -76.3707 0 -0.625516 0.62316 0.0388739c7.34834,0.458241 14.7462,0.80575 22.1829,1.03664 7.46261,0.229709 14.9888,0.351043 22.5645,0.354577l0.299211 0.001178 0.176699 0.242667c5.58135,7.7253 10.7056,14.7532 15.3681,21.0791 4.62481,6.27283 8.75723,11.8 12.3913,16.5744 3.67064,4.82036 6.85476,8.90094 9.54766,12.2358 2.67759,3.31488 4.85452,5.87231 6.52374,7.66287 1.67982,1.80116 3.37025,3.47862 5.05949,5.0218 1.68807,1.54082 3.38203,2.95441 5.07481,4.23254 1.7022,1.28402 3.40912,2.44081 5.11368,3.45978 1.69867,1.01661 3.40794,1.906 5.11722,2.66345 3.41619,1.51255 7.3401,2.6717 11.7682,3.47627 4.44694,0.808106 9.40866,1.26163 14.8793,1.35823l0.398163 0.00706798 0.012958 -0.398163 0.289787 -9.02345 0.01178 -0.372247 -0.368713 -0.0435859c-3.22064,-0.384027 -6.38945,-1.07904 -9.49583,-2.07916 -3.10402,-0.997763 -6.15032,-2.30534 -9.13301,-3.91684 -3.00036,-1.61975 -5.93475,-3.54695 -8.79846,-5.77336 -2.50913,-1.95076 -4.98175,-4.14655 -7.4096,-6.58029l0 0.0942397 -1.02603 -1.13794c-1.34881,-1.4937 -3.2548,-3.76488 -5.70975,-6.80293 -2.47733,-3.06632 -5.48711,-6.87479 -9.02227,-11.4183 -3.43975,-4.42455 -7.49795,-9.70198 -12.1687,-15.8264 -4.58594,-6.01367 -9.66782,-12.7212 -15.2362,-20.1143l-0.356933 -0.473555 0.475911 -0.352221c1.9378,-1.43362 3.83556,-2.9768 5.6909,-4.62481 1.85652,-1.64802 3.66239,-3.39616 5.41289,-5.23855 1.86595,-1.96254 3.68713,-4.05113 5.4553,-6.25869 1.77642,-2.21699 3.49158,-4.54 5.13842,-6.96314 1.65626,-2.43727 3.11227,-4.94052 4.3633,-7.50384 1.24396,-2.54918 2.28178,-5.15609 3.10991,-7.81247 1.66333,-5.32926 2.49617,-10.88 2.49617,-16.6404 0,-4.30322 -0.367535,-8.36024 -1.10143,-12.164 -0.732714,-3.79904 -1.83532,-7.35894 -3.29957,-10.6679 -1.46778,-3.31606 -3.30428,-6.38592 -5.50596,-9.20369 -2.20285,-2.82248 -4.77795,-5.39876 -7.71588,-7.72412 -2.93439,-2.32301 -6.06197,-4.35505 -9.37567,-6.0926 -3.31253,-1.73637 -6.8312,-3.18766 -10.5478,-4.34798 -3.71069,-1.15915 -7.61339,-2.02969 -11.7022,-2.60691 -4.08883,-0.578396 -8.38144,-0.869361 -12.8708,-0.869361 -2.94853,0 -6.01603,0.0424079 -9.19191,0.126046 -3.2124,0.0848157 -6.60856,0.214395 -10.1838,0.385205 -3.54106,0.169631 -7.25646,0.384027 -11.1344,0.638474 -3.82613,0.253269 -7.83485,0.551302 -12.0191,0.890565l-0.374603 0.0306279 0 0.373425zm52.8025 99.4229c1.74108,0 3.52221,-0.293321 5.33868,-0.878785 1.83178,-0.590176 3.70715,-1.47839 5.6214,-2.66345 1.95901,-1.21334 3.96749,-2.74238 6.01603,-4.58123 2.0556,-1.84474 4.15126,-4.00048 6.2799,-6.46013 4.23725,-4.89693 7.41784,-10.1967 9.5347,-15.8912 2.11568,-5.6909 3.1747,-11.7929 3.1747,-18.2978 0,-3.24538 -0.274473,-6.2905 -0.821063,-9.12712 -0.54659,-2.83779 -1.36648,-5.47768 -2.45612,-7.91378 -1.08258,-2.41843 -2.44316,-4.65544 -4.07351,-6.70162 -1.63035,-2.04618 -3.53517,-3.90388 -5.70621,-5.56603 -2.20285,-1.68925 -4.57416,-3.16763 -7.10214,-4.43162 -2.52798,-1.26281 -5.2303,-2.32065 -8.10344,-3.16763 -2.88491,-0.850513 -5.93828,-1.49134 -9.15185,-1.91542 -3.21593,-0.424079 -6.61563,-0.637296 -10.1944,-0.637296 -2.01791,0 -4.04995,0.0235599 -6.08317,0.0695018 -2.08505,0.0471199 -4.26081,0.120156 -6.51785,0.216751 -2.09919,0.0883497 -4.30558,0.202615 -6.6062,0.335729 -2.09094,0.122512 -4.28437,0.266227 -6.57086,0.429969l0 85.8324c3.16645,0.213217 6.25752,0.402875 9.26494,0.563082 3.223,0.170809 6.3706,0.315703 9.43693,0.428791 3.22535,0.120156 6.39416,0.210861 9.5029,0.269761 3.03687,0.0577218 6.11262,0.0871717 9.21664,0.0871717zm5.69679 0.240311c-1.93898,0.624338 -3.83909,0.937685 -5.69679,0.937685 -2.95441,0 -6.0337,-0.0306279 -9.23549,-0.0918837 -3.14172,-0.0600778 -6.31877,-0.150784 -9.52646,-0.269761 -3.10284,-0.114266 -6.25516,-0.259159 -9.45342,-0.428791 -3.24067,-0.173165 -6.52021,-0.374603 -9.83391,-0.5996l-0.550124 -0.0365179 0 -0.550124 0 -86.9302 0 -0.54659 0.547768 -0.0400519c2.43138,-0.175521 4.81329,-0.333373 7.13748,-0.468843 2.27236,-0.131936 4.48228,-0.246201 6.6227,-0.335729 2.23937,-0.0954177 4.4222,-0.168453 6.54141,-0.216751 2.17105,-0.0494758 4.2078,-0.0742138 6.10673,-0.0742138 3.60703,0 7.05855,0.217929 10.3452,0.651432 3.28779,0.434681 6.40241,1.08611 9.33327,1.95076 2.92614,0.862293 5.69326,1.94723 8.29663,3.24774 2.60102,1.30051 5.03358,2.81659 7.29062,4.54707 2.25351,1.72459 4.22665,3.64943 5.91354,5.76629 1.68689,2.11686 3.09695,4.43869 4.2243,6.95607 1.12852,2.52327 1.97668,5.24797 2.53858,8.17058 0.561904,2.91908 0.844623,6.03605 0.844623,9.34858 0,6.63801 -1.08493,12.8767 -3.25245,18.7078 -2.16634,5.82637 -5.41643,11.2452 -9.74674,16.2493 -2.16751,2.5056 -4.29733,4.69549 -6.38121,6.56615 -2.09566,1.88126 -4.16068,3.45153 -6.18566,4.7061 -1.9967,1.23572 -3.95925,2.16398 -5.88056,2.78361zm206.507 80.0672l-7.85959 0 -0.663212 0 -0.392273 0 -0.150784 -0.366357 -0.254447 -0.61727 -55.016 -133.611 0.001178 0c-0.60549,-1.36059 -1.19802,-2.74944 -1.7776,-4.16068 -0.591354,-1.43951 -1.17093,-2.9073 -1.73401,-4.39039l-0.001178 0c-0.336907,-0.885853 -0.697374,-1.85181 -1.07433,-2.88609l-0.276829 -0.762164 -0.00706798 0.0530098 -0.256803 1.99435 0.00235599 0 -0.286253 2.3183c-0.188479,1.56909 -0.384027,3.03805 -0.580752,4.39157 -0.182589,1.26281 -0.372247,2.43492 -0.565438,3.50925l-0.0223819 0.149606 -21.8318 142.927 -0.00235599 0.00235599 -0.130758 0.845801 -0.0777478 0.49947 -0.501826 0 -0.854047 0 -13.0981 0 -1.16857 0 -0.691484 0 0.11191 -0.683238 0.188479 -1.15444 30.8553 -190.082 0.13547 -0.834021 0.0801038 -0.497114 0.49947 0 0.844623 0 7.85959 0 0.656144 0 0.387561 0 0.15314 0.361645 0.257981 0.61138 58.7926 139.418 0.0176699 0.0365179c1.19684,2.98975 2.22641,5.57781 3.08164,7.75239 0.885853,2.24997 1.6115,4.11474 2.17223,5.58959l0 0.00235599 0.332195 0.882319 0.375781 -0.923549c0.339263,-0.822241 0.70562,-1.68453 1.09318,-2.57392 0.671458,-1.542 1.41595,-3.18884 2.22641,-4.93227l0 -0.00235599c0.812818,-1.74697 1.70692,-3.61998 2.67641,-5.60844l0.144894 -0.298033 65.3423 -139.399 0.269761 -0.57604 0.15903 -0.340441 0.372247 0 0.627872 0 7.85959 0 0.855225 0 0.504182 0 0.0777478 0.501826 0.12958 0.846979 28.8173 190.082 0.173165 1.14383 0.101308 0.67617 -0.683238 0 -1.15679 0 -13.9722 0 -0.861115 0 -0.508894 0 -0.0730358 -0.506538 -0.12369 -0.855225 -20.6656 -143.507c-0.331017,-2.32654 -0.630228,-4.51173 -0.892921,-6.55084 -0.259159,-2.01555 -0.474733,-3.80728 -0.642008,-5.36577l0 -0.00235599 -0.0730358 -0.71151 -5.857 13.3314 -0.00824597 0.0188479 -0.00471199 0.01178 -62.0015 133.317 -0.00235599 0.00235599 -0.270939 0.579574 -0.160208 0.340441 -0.371069 0 -0.631406 0zm-7.85959 -1.178l7.85959 0 0.259159 0 0.110732 -0.236777 -0.001178 0 62.0015 -133.317 0.00353399 -0.00706798 6.76288 -15.3952 0.912947 -2.07799 0.209683 2.2594 0.12958 1.40417 0.001178 0 0.15903 1.53611c0.173165,1.6115 0.386383,3.39381 0.637296,5.34221 0.247379,1.92367 0.54659,4.10532 0.892921,6.53435l20.6656 143.507 0.0506538 0.348687 0.352221 0 13.9722 0 0.472377 0 -0.0706798 -0.467665 -28.8173 -190.082 -0.0530098 -0.345153 -0.349865 0 -7.85959 0 -0.255625 0 -0.110732 0.235599 -65.4872 139.709 -0.356933 0.760986 -0.00942397 -0.00942397c-0.823419,1.69631 -1.59265,3.3137 -2.30534,4.8451l-0.001178 0c-0.818708,1.76228 -1.55967,3.40088 -2.21581,4.90636 -0.391095,0.898811 -0.753918,1.75168 -1.08376,2.55036 -0.342797,0.831665 -0.65261,1.61032 -0.930617,2.33361l-0.560726 1.45836 -0.539522 -1.46543 -0.398163 -1.08022 -0.464131 -1.23336 -0.001178 0c-0.580752,-1.52668 -1.30404,-3.38792 -2.16751,-5.58017 -0.891743,-2.26647 -1.91896,-4.84863 -3.07693,-7.74297l-0.00235599 -0.00588998 -58.7985 -139.432 -0.104842 -0.249735 -0.268583 0 -7.85959 0 -0.345153 0 -0.0553658 0.339263 0 0.00235599 -30.8553 190.082 -0.0765698 0.471199 0.477089 0 13.0981 0 0.352221 0 0.0530098 -0.343975 -0.00235599 0 21.7281 -142.251 -0.0200259 0 0.126046 -0.692662c0.192013,-1.05902 0.388739,-2.27353 0.585464,-3.63294 0.190835,-1.31347 0.384027,-2.77183 0.57604,-4.36801l0 -0.00235599 0.286253 -2.3183 0.00235599 -0.00235599 0.256803 -2.00024 0 -0.00353399 0.167275 -1.24161 0 -0.00235599 0.168453 -1.1992 0.335729 -2.39369 0.801038 2.2806c0.358111,1.0225 0.719756,2.03204 1.08022,3.02038 0.339263,0.930617 0.696196,1.88715 1.06962,2.86724l0 0.00235599c0.577218,1.51844 1.15208,2.97562 1.72105,4.36212 0.594888,1.44658 1.18506,2.8319 1.76935,4.14655l0.00706798 0.014136 55.016 133.611 0.103664 0.250913 0.270939 0zm175.415 -54.4199l-26.6639 64.5118 -0.255625 0.61727 -0.151962 0.366357 -0.391095 0 -0.662034 0 -13.6813 0 -1.49134 0 -0.883497 0 0.340441 -0.813996 0.574862 -1.37708 79.1755 -190.082 0.255625 -0.613736 0.150784 -0.364001 0.392273 0 0.662034 0 7.85959 0 0.660856 0 0.391095 0 0.151962 0.361645 0.256803 0.61138 79.7586 190.082 0 0.00235599 0.578396 1.37943 0.340441 0.813996 -0.883497 0 -1.49606 0 -14.8463 0 -0.660856 0 -0.392273 0 -0.150784 -0.364001 -0.255625 -0.613736 -26.9549 -64.5177 -81.7282 0zm-27.7501 64.0665l26.8159 -64.8782 0.150784 -0.366357 0.392273 0 82.5104 0 0.389917 0 0.15314 0.364001 27.1069 64.8817 0.103664 0.249735 0.269761 0 14.8463 0 0.61138 0 -0.235599 -0.563082 -0.001178 0 -79.7586 -190.082 -0.104842 -0.249735 -0.269761 0 -7.85959 0 -0.270939 0 -0.103664 0.249735 -79.1755 190.082 -0.235599 0.563082 0.609024 0 13.6813 0 0.270939 0 0.103664 -0.250913zm68.3909 -163.95c-0.380493,1.11556 -0.756274,2.20285 -1.12499,3.26069 -0.531276,1.52904 -1.06962,3.04512 -1.60561,4.53411 -0.67617,1.87655 -1.31936,3.62352 -1.92367,5.22441 -0.619626,1.64448 -1.22394,3.19944 -1.80587,4.65544l-0.00471199 0.01178 -0.00235599 0.00588998 -28.1953 67.67 69.781 0 -27.9138 -67.3849c-1.21098,-2.95088 -2.2488,-5.48946 -3.08282,-7.55213 -0.936507,-2.31712 -1.75875,-4.36801 -2.46201,-6.1515l0 -0.00235599 -1.22629 -3.14172 -0.433503 -1.1297zm-2.23466 2.87431c0.539522,-1.54789 1.08847,-3.14878 1.64684,-4.80151l0.527742 -1.56438 0.579574 1.54553c0.292143,0.78219 0.631406,1.6704 1.00954,2.65167 0.339263,0.878785 0.751562,1.92838 1.22512,3.13465l0.001178 0c0.728002,1.84356 1.54789,3.89446 2.4573,6.14207 1.0119,2.50206 2.03204,5.00059 3.0781,7.54978l28.2495 68.1966 0.335729 0.81164 -0.878785 0 -71.5421 0 -0.882319 0 0.339263 -0.813996 28.5346 -68.484 0.00235599 -0.00588998c0.57604,-1.44069 1.17682,-2.9874 1.79644,-4.63188 0.63494,-1.68218 1.27459,-3.41619 1.91896,-5.20557 0.508894,-1.41477 1.0437,-2.92143 1.6009,-4.52468zm-1700.97 161.669l-73.7873 -42.6011 0 42.9203 0 42.5139 73.7873 -42.8331zm-74.0842 -44.1277l75.5484 43.6177 0.881141 0.508894 -0.878785 0.508894 -75.5484 43.8556 -0.883497 0.513606 0 -1.0225 0 -43.5352 0 -43.9381 0 -1.01661 0.881141 0.507716zm-124.81 -82.8391l0.0895277 -0.156674 0.510072 0.294499 23.779 13.7284 0 -41.4242 0 -48.9776 -12.1746 -7.04795 -29.6101 -17.0963 -0.543056 -0.313347 0.00588998 -0.00824597 -36.3259 -20.9683 0.109554 90.701 54.1596 31.2687zm24.6755 15.3929l-24.1489 -13.9416 -0.0895277 0.156674 -0.51125 -0.295677 -54.9641 -31.7329 -0.293321 -0.169631 -0.001178 -0.339263 -0.110732 -92.0569 -0.001178 -1.01661 0.879963 0.507716 37.7501 21.7906 0.545412 0.315703 -0.00353399 0.00588998 29.0659 16.7817 12.4691 7.21876 0.294499 0.170809 0 0.338085 0 49.3156 0 42.442 0 1.01779 -0.881141 -0.508894zm106.53 60.1473l72.7012 41.9755 0 -83.9358 -36.8053 21.2511 -0.137826 0.0801038 -0.0223819 0 -35.7357 20.6291zm72.9957 43.5034l-74.4647 -42.9933 -0.879963 -0.507716 0.882319 -0.510072 36.757 -21.2192 0.139004 -0.0801038 0.0164919 0 37.5498 -21.681 0.883497 -0.510072 0 1.01897 0 85.9737 0 1.02014 -0.883497 -0.51125zm-348.19 -1.53257l72.6965 -41.972 -35.7345 -20.6279 -0.0212039 0 -0.139004 -0.0801038 -36.8018 -21.2487 0 83.9287zm74.1655 -41.4619l-74.46 42.9898 -0.883497 0.51125 0 -1.02014 0 -85.9666 0 -1.01897 0.883497 0.510072 37.5463 21.6787 0.0176699 0 0.137826 0.0801038 36.7558 21.2181 0.883497 0.510072 -0.881141 0.507716zm105.36 -62.1864l5.91825 -3.41619 0.50536 -0.290965 0.0353399 0.0612558 72.0781 -41.3889 0.108376 -90.7976 -36.3247 20.9683 0.00588998 0.00824597 -0.544234 0.313347 -22.3819 12.9238 -19.4004 11.231 0 48.967 0 41.4207zm5.99836 -2.10744l-6.29521 3.63412 -0.881141 0.508894 0 -1.01779 0 -42.4385 0 -49.305 0 -0.338085 0.294499 -0.170809 19.6949 -11.4018 21.8389 -12.6105 -0.00353399 -0.00471199 0.544234 -0.315703 37.7501 -21.7906 0.881141 -0.507716 -0.00235599 1.01661 -0.109554 92.157 0 0.342797 -0.294499 0.168453 -72.8767 41.8471 -0.503004 0.289787 -0.0376959 -0.0636118zm-106.726 72.6093l-73.7814 42.5975 73.7814 42.8296 0 -42.5056 0 -42.9215zm-75.2457 42.0875l75.5426 -43.6141 0.881141 -0.507716 0 1.01661 0 43.9393 0 43.527 0 1.0225 -0.883497 -0.513606 -75.5426 -43.8521 -0.877607 -0.508894 0.879963 -0.508894zm270.964 -154.641l73.3798 42.3666 0 -51.4372 0.00235599 0 -0.0400519 -33.2631 -51.7129 29.7762 0 0.001178 -21.6292 12.5563zm73.6743 43.8945l-75.142 -43.3844 -0.878785 -0.506538 0.878785 -0.51125 22.508 -13.0663 0.00235599 0 52.5928 -30.2828 0.877607 -0.504182 0.001178 1.01308 0.0412299 34.2773 0.00235599 0 0 52.4562 0 1.02014 -0.883497 -0.51125zm-348.19 -1.67864l73.4551 -42.1805 -20.1685 -11.7069 0 -0.001178 -53.2195 -30.6444 -0.0695018 57.895 0.00235599 0 0 26.638zm74.9241 -41.6657l-75.221 43.1948 -0.881141 0.506538 0 -1.01779 0 -27.6558 0.00235599 0 0.0706798 -58.9092 0.00235599 -1.01308 0.876429 0.504182 54.0995 31.1509 0.00235599 0 21.0508 12.2194 0.882319 0.512428 -0.884675 0.507716zm93.037 151.634l-0.109554 -89.8929 -35.9006 20.7292 -0.137826 0.0801038 -0.0212039 0 -41.9508 24.2161 -0.109554 90.1591 78.2296 -45.2916zm89.6279 45.2775l-0.10602 -90.4713 -41.383 -23.8898 -0.0200259 0 -0.139004 -0.0801038 -36.4719 -21.0579 -0.0353399 29.3427 0.00235599 0 0 60.9154 78.153 45.241zm-178.624 -206.625l0.101308 -84.6367 -36.3577 20.9884 0.00588998 0.00824597 -0.544234 0.313347 -11.4266 6.59796 -24.8699 14.3975 52.7507 30.6185 0 0.001178 20.3405 11.7116zm1.27577 -85.6533l-0.103664 86.6676 -0.001178 1.01425 -0.877607 -0.50536 -21.2204 -12.2182 -0.00235599 0 -53.6283 -31.1286 -0.877607 -0.508894 0.877607 -0.508894 25.7475 -14.9052 10.8835 -6.28461 -0.00353399 -0.00471199 0.544234 -0.315703 37.7831 -21.8106 0.881141 -0.507716 -0.00235599 1.01661zm261.812 43.3102l-4.34916 -2.51738 -31.9814 -18.4663 -0.543056 -0.313347 0.00588998 -0.00824597 -36.3259 -20.9695 0.102486 84.6013 21.866 -12.5904 0 -0.001178 51.2252 -29.735zm-3.76016 -3.53517l5.22677 3.02509 0.878785 0.508894 -0.878785 0.508894 -52.1028 30.2451 -0.00235599 0 -22.7459 13.097 -0.876429 0.50536 -0.00235599 -1.01425 -0.104842 -86.6322 -0.001178 -1.01661 0.879963 0.507716 37.7501 21.7918 0.545412 0.315703 -0.00353399 0.00588998 31.4372 18.1517z"/>
 </g>
</svg>
