<?xml version="1.0" encoding="UTF-8"?>
<!DOCTYPE svg PUBLIC "-//W3C//DTD SVG 1.1//EN" "http://www.w3.org/Graphics/SVG/1.1/DTD/svg11.dtd">
<!-- Creator: CorelDRAW -->
<svg xmlns="http://www.w3.org/2000/svg" xml:space="preserve" width="759px" height="136px" style="shape-rendering:geometricPrecision; text-rendering:geometricPrecision; image-rendering:optimizeQuality; fill-rule:evenodd; clip-rule:evenodd"
viewBox="0 0 759 135.94"
 xmlns:xlink="http://www.w3.org/1999/xlink">
 <defs>
  <style type="text/css">
   <![CDATA[
     .fil1 {fill:#2B2A29}
    .fil0 {fill:#2B2A29;fill-rule:nonzero}
   ]]>
  </style>
 </defs>
 <g id="Layer_x0020_1">
  <metadata id="CorelCorpID_0Corel-Layer"/>
  <g id="_292464208">
   <g>
    <path id="_292349848" class="fil0" d="M59.7438 0.477059l57.208 32.9391 0.000393938 -0.00118181c0.272999,0.153636 0.472725,0.360453 0.604695,0.591695l0.00630301 0.0177272c0.131969,0.237938 0.206029,0.507392 0.196575,0.802057 -0.00827269,0.251332 -0.0748482,0.489665 -0.191848,0.701997 -0.142605,0.255272 -0.355726,0.471938 -0.628725,0.625967l-0.000787876 -0.00118181 -57.1931 32.9316 -0.00590907 0c-0.247393,0.140242 -0.534574,0.215878 -0.798512,0.225726 -0.298211,0.0118181 -0.623604,-0.0598785 -0.904481,-0.220211l-0.000787876 0.00196969 -57.238 -32.9564 -0.00551513 -0.00590907c-0.250151,-0.146939 -0.440422,-0.34312 -0.568846,-0.561755 -0.154818,-0.263938 -0.224151,-0.541665 -0.21509,-0.832391 0.00827269,-0.258817 0.0764239,-0.502271 0.210363,-0.732724 0.131575,-0.226514 0.328544,-0.427423 0.586573,-0.578695l0.00590907 -0.00590907 57.2112 -32.9411 0.00590907 0c0.246999,-0.139848 0.534968,-0.216272 0.798906,-0.22612 0.304908,-0.0118181 0.635028,0.0606664 0.917087,0.224938l-0.000393938 0.000787876zm53.5129 34.3041l-54.3737 -31.3074 -54.3733 31.3074 54.3741 31.3074 54.3729 -31.3074z"/>
    <path id="_292349776" class="fil0" d="M59.6418 0.437665l28.6712 16.5533 0.00590907 0 28.6716 16.5533 0.763845 0.441604 0 0.877693 0 33.1069 0 33.1061 0 0.878087 -0.763845 0.44121 -28.6716 16.5541 -0.00590907 0 -28.6712 16.5529 -0.75833 0.437665 -0.75833 -0.437665 -28.6712 -16.5529 -0.00590907 0 -28.6712 -16.5541 -0.764239 -0.44121 0 -0.878087 0 -33.1061 0 -33.1069 0 -0.877693 0.764239 -0.441604 28.6712 -16.5533 0.00590907 0 28.6712 -16.5533 0.75833 -0.437665 0.75833 0.437665zm27.1506 19.1891l-27.9089 -16.1128 -27.9085 16.1128 0.00118181 0.00275756 -27.9069 16.1125 0 32.2284 0 32.2281 27.9069 16.1125 -0.00118181 0.00275756 27.9085 16.1125 27.9089 -16.1125 -0.00157575 -0.00275756 27.9073 -16.1125 0 -32.2281 0 -32.2284 -27.9073 -16.1125 0.00157575 -0.00275756z"/>
    <path id="_292349704" class="fil0" d="M30.9978 17.0441l14.3559 8.28648 0.00590907 0 14.3551 8.28845 0.763845 0.44121 0 0.878087 0 16.5761 0 16.5765 0 0.878087 -0.763845 0.44121 -14.3551 8.28845 -0.00590907 0 -14.3559 8.28688 -0.757936 0.437665 -0.75833 -0.437665 -14.3551 -8.28688 -0.00590907 0 -14.3559 -8.28845 -0.764239 -0.44121 0 -0.878087 0 -16.5765 0 -16.5761 0 -0.878087 0.764239 -0.44121 14.3559 -8.28845 0.00590907 0 14.3551 -8.28648 0.75833 -0.437665 0.757936 0.437665zm12.8349 10.9223l-13.5928 -7.84606 -13.5928 7.84606 0.00157575 0.00275756 -13.5916 7.84724 0 15.698 0 15.6984 13.5916 7.84724 -0.00157575 0.00236363 13.5928 7.84685 13.5928 -7.84685 -0.00157575 -0.00236363 13.5912 -7.84724 0 -15.6984 0 -15.698 -13.5912 -7.84724 0.00157575 -0.00275756z"/>
    <path id="_292349632" class="fil0" d="M88.2842 17.0441l14.3551 8.28648 0.00590907 0 14.3559 8.28845 0.763845 0.44121 0 0.878087 0 16.5761 0 16.5765 0 0.878087 -0.763845 0.44121 -14.3559 8.28845 -0.00590907 0 -14.3551 8.28688 -0.757936 0.437665 -0.75833 -0.437665 -14.3559 -8.28688 -0.00590907 0 -14.3551 -8.28845 -0.763845 -0.44121 0 -0.878087 0 -16.5765 0 -16.5761 0 -0.878087 0.763845 -0.44121 14.3551 -8.28845 0.00590907 0 14.3559 -8.28648 0.75833 -0.437665 0.757936 0.437665zm12.8345 10.9223l-13.5928 -7.84606 -13.5928 7.84606 0.00157575 0.00275756 -13.5912 7.84724 0 15.698 0 15.6984 13.5912 7.84724 -0.00157575 0.00236363 13.5928 7.84685 13.5928 -7.84685 -0.00157575 -0.00236363 13.5916 -7.84724 0 -15.6984 0 -15.698 -13.5916 -7.84724 0.00157575 -0.00275756z"/>
    <path id="_292349560" class="fil0" d="M59.641 66.5609l14.3559 8.28688 0.00590907 0 14.3551 8.28845 0.764239 0.44121 0 0.878087 0 16.5761 0 16.5765 0 0.877693 -0.764239 0.441604 -14.3551 8.28806 -0.00590907 0 -14.3559 8.28727 -0.75833 0.437665 -0.75833 -0.437665 -14.3555 -8.28727 -0.00590907 0 -14.3551 -8.28806 -0.764239 -0.441604 0 -0.877693 0 -16.5765 0 -16.5761 0 -0.878087 0.764239 -0.44121 14.3551 -8.28845 0.00590907 0 14.3555 -8.28688 0.75833 -0.437665 0.75833 0.437665zm12.8353 10.9231l-13.5936 -7.84685 -13.5928 7.84685 0.00118181 0.00275756 -13.5909 7.84685 0 15.698 0 15.698 13.5909 7.84724 -0.00118181 0.00236363 13.5928 7.84685 13.5936 -7.84685 -0.00157575 -0.00236363 13.5909 -7.84724 0 -15.698 0 -15.698 -13.5909 -7.84685 0.00157575 -0.00275756z"/>
    <path id="_292349488" class="fil0" d="M0.0283635 100.86l0.000393938 -66.048 1.51312 0.0106363 -1.51075 -0.018909c0,-0.29309 0.0748482,-0.557422 0.207211,-0.789057 0.133545,-0.234393 0.324605,-0.427029 0.568058,-0.562543l-0.00236363 -0.00393938c0.246605,-0.13709 0.500301,-0.202878 0.74927,-0.202878l0 0.000787876c0.283635,-0.00275756 0.572392,0.0689391 0.83633,0.221787l57.0958 33.1432c0.237938,0.138666 0.450665,0.352968 0.595634,0.58421l0.000393938 -0.000393938c0.162302,0.258423 0.262363,0.578301 0.262363,0.894633l0 66.0468c0,0.293484 -0.0748482,0.559786 -0.212726,0.796542l0.0031515 0.00157575c-0.13709,0.239908 -0.335241,0.43215 -0.568452,0.562543l0.00236363 0.00393938c-0.251332,0.139454 -0.499907,0.202878 -0.748876,0.202878l0 -0.000787876c-0.291908,0.00275756 -0.583028,-0.0693331 -0.844603,-0.224545l0.00118181 -0.00157575 -57.0879 -33.1396 0.000393938 -0.000787876c-0.241878,-0.142999 -0.451059,-0.351393 -0.592089,-0.571998l-0.00590907 -0.0102424c-0.161121,-0.255272 -0.261969,-0.573573 -0.261969,-0.894239zm3.02662 -63.5063l-0.000393938 62.7425 54.263 31.4993 0 -62.7437 -54.2626 -31.4981z"/>
    <path id="_292465976" class="fil0" d="M114.713 100.098l-0.000787876 -62.7425 -54.2626 31.4985 0 62.7429 54.2634 -31.4989zm1.51233 -65.2739l1.51312 -0.0106363 0.000787876 66.048c0,0.320665 -0.100848,0.638967 -0.262363,0.894239 -0.143787,0.227696 -0.35612,0.440816 -0.598392,0.58224l0.000787876 0.00157575 -57.095 33.1428 -0.00827269 0.00236363c-0.263544,0.150484 -0.538907,0.222181 -0.801663,0.222181l0.0102424 -1.52296 -0.0366362 1.52139c-0.235575,0 -0.47115,-0.0626361 -0.705149,-0.183969l-0.044121 -0.0185151c-0.23006,-0.127636 -0.419938,-0.311605 -0.565695,-0.566483 -0.130787,-0.229272 -0.205636,-0.498331 -0.206423,-0.797724l-0.0031515 0 0 -66.0476c0,-0.317908 0.100454,-0.635816 0.262363,-0.894239 0.142999,-0.225332 0.353362,-0.438847 0.597998,-0.581452l-0.00118181 -0.00236363 57.0879 -33.1384 -0.000787876 -0.00196969c0.259605,-0.154424 0.549543,-0.22612 0.830815,-0.22612l-0.0240302 1.52218 0.0370302 -1.52139c0.235575,0 0.477847,0.0661816 0.705149,0.183969l0.044121 0.018909c0.226514,0.125272 0.418756,0.308453 0.565695,0.566089l-0.00196969 0.00157575c0.137484,0.23912 0.209575,0.507392 0.209575,0.787482l-1.51075 0.018909z"/>
    <path id="_292465904" class="fil0" d="M59.6859 99.8636l28.62 16.4784 0.0295453 0.0181211c0.221393,0.134727 0.403392,0.318696 0.53221,0.537725l0.0118181 0.0118181c0.13709,0.239908 0.206029,0.510937 0.206029,0.761876 0,0.279302 -0.0787876,0.537331 -0.213514,0.768179l0.00118181 0.000393938c-0.129212,0.222181 -0.31515,0.410483 -0.555846,0.555058l-0.0181211 0.0118181 -28.607 16.4705 -0.0118181 0.00590907c-0.223757,0.126454 -0.484544,0.196181 -0.726815,0.207605l-0.00590907 0c-0.283635,0.0133939 -0.588543,-0.0527877 -0.855633,-0.203666l-0.0181211 -0.00590907 -28.6188 -16.4792c-0.222181,-0.129606 -0.409695,-0.306878 -0.546392,-0.528665l-0.00433332 0.00275756c-0.165848,-0.270241 -0.229666,-0.541271 -0.229666,-0.802451 0,-0.26709 0.0764239,-0.53418 0.206423,-0.761482l0.000393938 0.000393938c0.125666,-0.219423 0.315544,-0.414029 0.561755,-0.561755l0.0177272 -0.0122121 28.6066 -16.4713 0.00590907 -0.00590907c0.21509,-0.123303 0.474695,-0.194211 0.733512,-0.206423l0 -0.00118181c0.284817,-0.0137878 0.592089,0.0516059 0.861148,0.203666l0.0177272 0.00590907zm24.8657 17.8091l-25.6714 -14.7809 -25.6702 14.7805 25.6694 14.7809 25.6721 -14.7805z"/>
    <path id="_292465832" class="fil0" d="M117.708 34.9911l0.0393938 33.0258c0,0.292302 -0.0705149,0.53418 -0.185939,0.742573l-0.018909 0.038212c-0.142605,0.249363 -0.335241,0.439635 -0.556634,0.558998 -0.236363,0.126848 -0.488089,0.196969 -0.718543,0.196969l-0.0531816 0.00275756c-0.260393,0 -0.529452,-0.0705149 -0.769361,-0.211939l0.741391 -1.31654 -0.749664 1.31457 -28.568 -16.5387 0.74927 -1.31457 -0.752421 1.30945c-0.226908,-0.131181 -0.428604,-0.335635 -0.566089,-0.554271 -0.147727,-0.234393 -0.238726,-0.53024 -0.240302,-0.840663l-0.00236363 0 -0.0393938 -33.0258 0.00393938 0c0.00275756,-0.29112 0.0701209,-0.549149 0.196575,-0.763845l1.31654 0.756755 -1.31221 -0.7733c0.13906,-0.243848 0.326181,-0.434513 0.556634,-0.558604 0.232817,-0.125272 0.490059,-0.201696 0.750452,-0.201696l0 0.00196969c0.272605,0.00393938 0.54718,0.0716967 0.779997,0.20406l0.018909 0.00945451 28.5684 16.5379 0.0330908 0.0224545c0.209575,0.130393 0.401423,0.324211 0.536149,0.537725 0.149302,0.237545 0.238332,0.526301 0.239908,0.840269l0.00236363 0zm-2.98999 30.4384l-0.0354544 -29.6233 -25.6359 -14.8404 0.0354544 29.6229 25.6359 14.8408zm-27.1876 -47.0421l0.0244241 0 0.000393938 0.0208787 0.000787876 -0.00118181 -0.000787876 -0.0196969 0.00157575 0 0 -0.000393938 -0.00157575 0 0 -0.00236363 -0.000393938 -0.000787876 0 0.0031515 -0.0244241 0.000393938zm0.0244241 0l0.000393938 0 0 -0.000393938 -0.000393938 0 0 0.000393938zm0.00196969 0l0.00590907 0 -0.000787876 -0.000393938 -0.00512119 0 0 0.000393938zm0.00590907 0l0.000393938 0 -0.000393938 -0.000393938 -0.000787876 0 0.000787876 0.000393938zm0.000393938 0l0.00393938 0 0.000393938 -0.000393938 -0.00472725 0 0.000393938 0.000393938zm0.00433332 0l1.42842 0.00906057 0.00709088 -0.0181211 -1.43551 0.00866663 0 0.000393938zm-1.55015 -0.00945451l0.00393938 0.0185151 0 -0.0185151 -0.00393938 0zm1.53715 0.00433332l0.000787876 0.000393938 -0.000787876 -0.0228484 0 0.0224545zm0.000787876 0.000393938l-0.000787876 -0.000393938 0 0.000393938 0.000787876 0.000393938 0 -0.000393938zm0 0.000393938l-0.000787876 -0.000393938 0.000393938 0.00118181 0.000393938 0.000787876 0 -0.00157575zm0 0.0267878l0.0236363 1.42684 0.0173333 0.00669694 0.00866663 -0.0031515 -0.0488483 -1.43196 -0.000787876 0.00157575zm-0.0259999 -1.5726l-0.0263938 0.00157575 0.0263938 0.000393938 0 -0.00196969z"/>
    <path id="_292465760" class="fil0" d="M3.09359 35.8101l-0.0354544 29.6237 25.6367 -14.842 0.0346665 -29.6225 -25.6359 14.8408zm-0.0819391 32.1914l-1.43275 0.00906057 0 0.000393938 1.43905 0.00866663 -0.00630301 -0.0181211zm-1.43393 0.00906057l-0.000393938 0 -0.000787876 0.000393938 0.00157575 0 -0.000393938 -0.000393938zm-0.00157575 0l-0.00709088 0 0 0.000393938 0.00630301 0 0.000787876 -0.000393938zm-0.00709088 0l-0.00118181 0 0 0.000393938 0.00118181 0 0 -0.000393938zm-0.00118181 0l-0.000787876 0 0 0.000393938 0.000787876 0 0 -0.000393938zm-0.000787876 0l-0.00196969 0 0 0.000393938 0.00196969 0 0 -0.000393938zm-0.00196969 0l-0.0232423 0 0.0232423 0.000393938 0 -0.000393938zm-1.53242 0.00945451l-0.00393938 0 0.0393938 -33.025c0,-0.307272 0.0933633,-0.603513 0.242666,-0.840663 0.137878,-0.219029 0.33012,-0.413635 0.546786,-0.544816l0.0224545 -0.0145757 28.568 -16.5383c0.245423,-0.142999 0.510543,-0.214302 0.778027,-0.214302l-0.00354544 1.52099 0.0118181 -1.52296c0.224938,0 0.452635,0.0543634 0.667331,0.15403l0.000393938 0c0.0240302,0.0110303 0.0480604,0.0228484 0.0713027,0.0354544l0.0236363 0.012606 0 0.000393938c0.214696,0.120939 0.388423,0.293878 0.50818,0.488483l0.0677573 0.107939c0.115424,0.207999 0.185939,0.457362 0.185939,0.742573l-0.0389998 33.0254 -0.00196969 0c-0.00157575,0.306484 -0.0929693,0.60627 -0.240696,0.840663 -0.138666,0.220211 -0.338787,0.423089 -0.569634,0.557816l0.000787876 0.00157575 -28.5688 16.5395 -0.0575149 0.0287575c-0.192242,0.101636 -0.398271,0.161515 -0.623998,0.178848l0.000393938 0.00551513c-0.314756,0.0173333 -0.613361,-0.0547574 -0.867845,-0.20012l0.00157575 -0.00236363c-0.246605,-0.141818 -0.442786,-0.344696 -0.570422,-0.58421l-0.0145757 -0.0220605c-0.100454,-0.189878 -0.171757,-0.443968 -0.174514,-0.731149zm0 -0.0185151l-0.00393938 0.0185151 0.00393938 0 0 -0.0185151z"/>
    <path id="_292465688" class="fil0" d="M28.7705 51.4049l-0.0393938 -33.0254c0,-0.292302 0.0705149,-0.53418 0.186333,-0.742179l0.018909 -0.0386059c0.13906,-0.243848 0.326181,-0.434907 0.556634,-0.558998 0.227302,-0.122515 0.478634,-0.196575 0.718543,-0.196575l0.0527877 -0.0031515c0.260393,0 0.529452,0.0709088 0.769755,0.211939l-0.741785 1.31654 0.749664 -1.31457 28.5688 16.5387 0.0110303 0.00748482c0.219817,0.129212 0.418756,0.331696 0.557422,0.551907 0.139848,0.222181 0.233605,0.508968 0.239514,0.822148l0.00393938 0.0185151 0.0389998 33.0258 -0.000787876 0.0346665c0,0.269453 -0.0779997,0.521968 -0.20012,0.729967l-0.0527877 0.0854845c-0.134727,0.218635 -0.299787,0.377392 -0.50818,0.488877 -0.236363,0.127242 -0.468392,0.196969 -0.717755,0.196969l-0.0531816 0.0031515c-0.26709,0 -0.537725,-0.0740603 -0.778421,-0.214302l-28.568 -16.5383 0.000787876 -0.00118181c-0.232817,-0.136302 -0.431756,-0.338787 -0.570028,-0.557816 -0.147727,-0.234787 -0.238726,-0.534574 -0.240302,-0.841057l-0.00236363 0zm2.98999 -30.438l0.0354544 29.6225 25.6359 14.8408 -0.0346665 -29.6222 -25.6367 -14.8412z"/>
    <path id="_292465616" class="fil0" d="M31.7998 85.1654l-0.0354544 29.6237 25.6359 -14.8416 0.0358483 -29.6225 -25.6363 14.8404zm-3.06484 32.2103l0.0397877 -33.0254c0,-0.303332 0.0921815,-0.601937 0.242666,-0.840663 0.136696,-0.21706 0.328938,-0.413241 0.546786,-0.544816l0.0220605 -0.0145757 28.5684 -16.5383 0.000787876 0.00118181c0.250544,-0.144969 0.518816,-0.215484 0.776845,-0.215484l-0.00354544 1.52099 0.056727 -1.51784c0.207605,0 0.416786,0.0523937 0.622816,0.148908l0 0 0.00748482 0.00354544c0.0291514,0.0137878 0.0586967,0.0287575 0.0878481,0.044515l-0.00157575 0.00236363c0.207211,0.121727 0.390392,0.29309 0.509362,0.486513l0.0196969 0.025212c0.150878,0.246605 0.234393,0.523937 0.234393,0.8253l-0.0397877 33.0258c0,0.303332 -0.0933633,0.603907 -0.242666,0.841057l-0.0149696 0.0259999c-0.131181,0.204848 -0.325787,0.397877 -0.555058,0.531422l0.000787876 0.00118181 -28.568 16.5395 -0.019303 0.00906057c-0.232423,0.132757 -0.500695,0.200514 -0.779603,0.204454l0 0.00196969c-0.270241,0 -0.51724,-0.0764239 -0.750058,-0.201696l0.00118181 -0.00236363c-0.24306,-0.137878 -0.425847,-0.325393 -0.55821,-0.55624l-0.018909 -0.0386059c-0.115424,-0.207999 -0.185939,-0.464453 -0.185939,-0.742967z"/>
    <path id="_292465544" class="fil0" d="M88.8089 84.3468l0.0389998 33.0254c0,0.292302 -0.0705149,0.53418 -0.186333,0.742573l-0.0185151 0.038212c-0.142605,0.249363 -0.335241,0.439635 -0.557028,0.558998 -0.236363,0.126848 -0.487695,0.196969 -0.718543,0.196969l-0.0527877 0.00275756c-0.26709,0 -0.521968,-0.0693331 -0.758724,-0.204454l-0.018909 -0.00945451 -28.5684 -16.5387 0.000787876 -0.000787876c-0.234393,-0.13709 -0.426635,-0.33209 -0.555058,-0.53221l-0.0145757 -0.0259999c-0.146545,-0.232423 -0.238726,-0.530634 -0.240302,-0.841057l-0.00236363 0 -0.0397877 -33.0258 0.00393938 0c0.00275756,-0.29112 0.0701209,-0.549149 0.196575,-0.763845l1.31654 0.756755 -1.31221 -0.7733c0.13906,-0.243848 0.326181,-0.434513 0.556634,-0.558604 0.232817,-0.125272 0.490059,-0.201696 0.750452,-0.201696l0.0212726 0.00157575c0.260393,0 0.529452,0.0709088 0.769361,0.211939l-0.741391 1.31654 0.749664 -1.31457 28.5684 16.5387 -0.00157575 0.00236363c0.232029,0.13709 0.426635,0.329726 0.555452,0.531028l-1.26966 0.815057 1.27281 -0.809936c0.15403,0.237545 0.246605,0.527877 0.257241,0.805603l-0.00196969 0.0559392zm-2.99038 30.438l-0.0350605 -29.6222 -25.6367 -14.8416 0.0358483 29.6225 25.6359 14.8412zm1.38548 -30.4478l0.000393938 0 0.0425453 -0.0756361 -0.0429392 0.0756361zm-28.5735 -16.5942l0.0240302 0 0 -0.000393938 -0.0240302 0.000393938zm0.0244241 0l0.00196969 0 0 -0.000393938 -0.00196969 0 0 0.000393938zm0.00196969 0l0.00590907 0 -0.000787876 -0.000393938 -0.00512119 0 0 0.000393938zm0.00590907 0l0.000787876 0 -0.000787876 -0.000393938 -0.000787876 0 0.000787876 0.000393938zm0.000787876 0l0.00354544 0 0.000393938 -0.000393938 -0.00472725 0 0.000787876 0.000393938zm0.00354544 0l0.000393938 0 0.000393938 -0.000393938 -0.000393938 0 -0.000393938 0.000393938zm0.000393938 0l1.42842 0.00906057 0.00709088 -0.0181211 -1.43512 0.00866663 -0.000393938 0.000393938zm-1.55015 -0.00945451l0.00393938 0.0185151 0 -0.0185151 -0.00393938 0zm30.0842 16.6072l-0.00433332 0.00787876 0.000787876 -0.000787876 0.00433332 -0.00709088 -0.000787876 0zm-0.00433332 0.00787876l-0.000393938 0.000787876 0.00118181 -0.000787876 0 -0.000787876 -0.000787876 0.000787876zm-0.000393938 0.000787876l-0.683482 1.19796 0.00551513 0.00669694 0.679149 -1.20545 -0.00118181 0.000787876zm0.799694 -1.40242l-0.00827269 -0.00196969 0.00669694 0.00433332 0.00157575 -0.00236363z"/>
    <path id="_292465472" class="fil0" d="M85.9698 50.5934l0.0350605 -29.6229 -25.6363 14.8412 -0.0354544 29.6225 25.6367 -14.8408zm3.06444 -32.2103l-0.0389998 33.0258 -0.00236363 0c-0.00157575,0.310423 -0.0925754,0.60627 -0.240302,0.840663l-0.0149696 0.0259999c-0.133939,0.208787 -0.334453,0.40812 -0.565695,0.540877l-0.000393938 -0.000787876 -28.5569 16.5316c-0.248575,0.144969 -0.516452,0.214302 -0.778027,0.214302l0.00393938 -1.52099 -0.0122121 1.52296c-0.233211,0 -0.459725,-0.0575149 -0.667331,-0.15403l0 0c-0.0259999,-0.0118181 -0.0516059,-0.0244241 -0.0764239,-0.037818l-0.018909 -0.0102424c-0.222969,-0.12409 -0.389998,-0.297029 -0.50818,-0.488877l-0.0673634 -0.107939c-0.115818,-0.207999 -0.186333,-0.457362 -0.186333,-0.742573l0.0393938 -33.0258 0.00236363 0c0.00157575,-0.310029 0.0941511,-0.60824 0.240696,-0.841057 0.13906,-0.220605 0.338393,-0.422301 0.569634,-0.557816l-0.000787876 -0.00118181 28.5684 -16.5387 0.74927 1.31457 -0.741391 -1.31654c0.239908,-0.14103 0.509362,-0.211939 0.769361,-0.211939l-0.00354544 1.5206 0.056727 -1.51745c0.230848,0 0.48218,0.069727 0.718543,0.196575 0.221393,0.119363 0.414423,0.310029 0.556634,0.558998l0.018909 0.0386059c0.115818,0.207999 0.186333,0.449877 0.186333,0.742179z"/>
    <path id="_292465376" class="fil1" d="M30.2769 51.3072l28.6007 16.5123c0.0236363,0.0137878 0.0208787,0.0366362 -0.00630301,0.0527877l-28.6259 16.4371c-0.0275756,0.0149696 -0.0669694,0.0173333 -0.0902118,0.00354544l-28.5999 -16.5123c-0.0236363,-0.0133939 -0.0208787,-0.0362423 0.00630301,-0.0516059l28.6259 -16.4378c0.0275756,-0.0153636 0.0669694,-0.0173333 0.0894239,-0.00393938z"/>
    <path id="_292465280" class="fil0" d="M31.0533 50.008l28.5892 16.506 0.0295453 0.0177272c0.218635,0.132757 0.399453,0.312393 0.531816,0.538119l0.0122121 0.0118181c0.136696,0.239514 0.205636,0.510937 0.205636,0.76227 0,0.26709 -0.0752421,0.529058 -0.213908,0.767785l0.000787876 0.000393938c-0.126454,0.21706 -0.312787,0.408907 -0.55624,0.554664l-0.0177272 0.0122121 -28.6259 16.4371 -0.0539695 0.0295453c-0.207605,0.109515 -0.457756,0.172545 -0.692149,0.183575l-0.0177272 0c-0.289938,0.00906057 -0.59524,-0.0575149 -0.8643,-0.216272l-28.5904 -16.5068c-0.246211,-0.143393 -0.433726,-0.337999 -0.561755,-0.555846l-0.0122121 -0.0118181c-0.136302,-0.238726 -0.204454,-0.488089 -0.202878,-0.761876l-0.00236363 0c0,-0.261575 0.0653937,-0.488483 0.188696,-0.720118l0.0118181 -0.0295453c0.135909,-0.241878 0.331302,-0.435695 0.586573,-0.584604l28.6259 -16.4378 0.0240302 -0.0118181c0.217454,-0.120545 0.472725,-0.189878 0.714997,-0.201302l0.00630301 0c0.295847,-0.0137878 0.610998,0.0543634 0.88439,0.215878l-0.000393938 0.000787876zm24.8342 17.8324l-25.6536 -14.8113 -25.6883 14.751 25.6536 14.8109 25.6883 -14.7506z"/>
    <path id="_292465184" class="fil1" d="M87.6311 51.3072l28.6003 16.5123c0.0232423,0.0129999 0.0204848,0.0358483 -0.00630301,0.0519998l-28.6263 16.4374c-0.0275756,0.0153636 -0.0661816,0.0169393 -0.0894239,0.00393938l-28.6007 -16.5123c-0.0236363,-0.0133939 -0.0204848,-0.0362423 0.00630301,-0.0516059l28.6259 -16.4378c0.0275756,-0.0153636 0.0673634,-0.0173333 0.0902118,-0.00393938z"/>
    <path id="_292465088" class="fil0" d="M88.3957 50.0013l28.6003 16.5127 -0.00196969 0.0031515c0.237151,0.137484 0.431362,0.327756 0.563725,0.552301l0.0118181 0.0118181c0.13709,0.239908 0.205636,0.499907 0.205636,0.76227 0,0.244635 -0.0594846,0.495574 -0.202878,0.748482l0.00236363 0.00118181c-0.126454,0.225726 -0.320665,0.424665 -0.568452,0.57318l-0.0181211 0.0118181 -28.6259 16.4371 -0.00590907 0.00590907c-0.218635,0.125272 -0.479422,0.194999 -0.733118,0.206423l0 0.000787876c-0.296241,0.0141818 -0.61021,-0.0547574 -0.878481,-0.209969l-28.6007 -16.5123c-0.231635,-0.134727 -0.403786,-0.306878 -0.526695,-0.496756l-0.0476665 -0.0709088c-0.150484,-0.263544 -0.205242,-0.510543 -0.205242,-0.761876 0,-0.288756 0.0748482,-0.506604 0.188696,-0.720118l0.0240302 -0.0472725c0.125666,-0.215484 0.314362,-0.41521 0.574361,-0.566877l28.6263 -16.4378 0.0240302 -0.0118181c0.217454,-0.120545 0.472725,-0.189878 0.714997,-0.201302l0.00590907 0c0.289938,-0.0133939 0.602331,0.0535755 0.872966,0.209969zm24.8453 17.8387l-25.6532 -14.8109 -25.6883 14.751 25.6532 14.8105 25.6883 -14.7506z"/>
    <path id="_292464952" class="fil1" d="M58.9426 1.76721l28.6003 16.5123c0.0232423,0.0133939 0.0204848,0.0362423 -0.00630301,0.0523937l-28.6263 16.4371c-0.0275756,0.0157575 -0.0669694,0.0173333 -0.0898178,0.00393938l-28.6003 -16.5123c-0.0236363,-0.0129999 -0.0204848,-0.0358483 0.00630301,-0.0516059l28.6259 -16.4378c0.0275756,-0.0153636 0.0673634,-0.0169393 0.0902118,-0.00393938z"/>
    <path id="_292464856" class="fil0" d="M59.7072 0.461695l28.5762 16.4985c0.247393,0.137878 0.446332,0.33209 0.585786,0.569634l0.0122121 0.0114242c0.136696,0.239908 0.205242,0.488089 0.205242,0.761876 0,0.250151 -0.0713027,0.500695 -0.188696,0.720512l-0.0118181 0.0295453c-0.126454,0.22612 -0.321059,0.424665 -0.568452,0.57318l-0.0177272 0.0122121 -28.6263 16.4371 -0.0240302 0.0118181c-0.218242,0.121333 -0.478241,0.190272 -0.721694,0.201302l-0.0177272 0c-0.287181,0.00906057 -0.593664,-0.0594846 -0.854845,-0.210363l-28.6003 -16.5119c-0.238726,-0.13906 -0.417968,-0.318696 -0.547574,-0.528271l-0.00236363 0.00118181c-0.172939,-0.280484 -0.229272,-0.544422 -0.229272,-0.802451 0,-0.269453 0.0748482,-0.506604 0.188696,-0.720118l0.0240302 -0.0476665c0.128818,-0.220605 0.322241,-0.41915 0.575149,-0.565301l-0.000787876 -0.00118181 28.6263 -16.4378 0.0236363 -0.0118181c0.217454,-0.120545 0.475483,-0.190272 0.715391,-0.201302l0.00590907 0c0.292696,-0.0133939 0.602331,0.0535755 0.872966,0.209969zm24.8453 17.8387l-25.6532 -14.8109 -25.6883 14.751 25.6528 14.8105 25.6887 -14.7506z"/>
    <path id="_292464760" class="fil1" d="M58.9418 101.168l28.6003 16.5123c0.0236363,0.0137878 0.0208787,0.0366362 -0.00630301,0.0527877l-28.6255 16.4367c-0.0275756,0.0153636 -0.0673634,0.0169393 -0.0906057,0.00393938l-28.6003 -16.5123c-0.0232423,-0.0133939 -0.0204848,-0.0362423 0.00630301,-0.0516059l28.6263 -16.4378c0.0275756,-0.0153636 0.0669694,-0.0173333 0.0898178,-0.00393938z"/>
    <path id="_292464664" class="fil0" d="M59.7068 99.8624l28.6003 16.5123 0.0295453 0.0177272c0.220999,0.134727 0.402998,0.31909 0.531816,0.538119l0.0122121 0.0118181c0.136696,0.239908 0.205636,0.510937 0.205636,0.76227 0,0.278514 -0.0795754,0.536937 -0.214302,0.767785l0.00118181 0.000393938c-0.129212,0.221787 -0.31515,0.410089 -0.55624,0.554664l-0.0177272 0.0122121 -28.6255 16.4367 -0.0240302 0.0114242c-0.219423,0.121727 -0.478241,0.190272 -0.721694,0.201696 -0.292696,0.0133939 -0.605088,-0.0555452 -0.872966,-0.210363l-28.5699 -16.4946m55.067 -1.28345l-25.6536 -14.8109 -25.6879 14.7506 25.6528 14.8109 25.6887 -14.7506zm-55.6473 0.739421c-0.145363,-0.236363 -0.228878,-0.497937 -0.226514,-0.802845l-0.00275756 0c0,-0.254484 0.0689391,-0.520786 0.206423,-0.761482l0.000787876 0.000393938c0.129212,-0.22612 0.323817,-0.423877 0.579876,-0.573573l28.6259 -16.4378 0.0240302 -0.0114242c0.216666,-0.120545 0.475089,-0.190272 0.715391,-0.201696l0.00590907 0c0.292302,-0.0133939 0.603513,0.0547574 0.872966,0.210363m-30.7988 18.5757l-0.0031515 0.00236363"/>
    <polygon id="_292464568" class="fil0" points="0.783148,99.5516 62.6534,63.8313 64.1697,66.4699 2.29942,102.191 "/>
    <polygon id="_292464448" class="fil0" points="115.468,102.192 47.8847,63.1734 49.4014,60.5345 116.985,99.5532 "/>
   </g>
   <path id="_292464304" class="fil0" d="M204.85 84.8861l19.1139 -48.8577 0.173333 -0.442392 0.472725 0 2.96399 0 0.49715 0 0.159939 0.472331 16.6608 49.1642 0.00787876 0.0271817 1.73411 5.85273c0.0579089,-0.192242 0.118969,-0.392362 0.183969,-0.600361 0.42112,-1.34766 1.01124,-3.0739 1.76878,-5.17437l-0.000393938 0 16.9673 -50.5954 0.159545 -0.475089 0.497543 0 4.9061 0 0.973026 0 -0.318696 0.920239 -23.1001 66.7449 -0.162302 0.469574 -0.492028 0 -2.75953 0 -0.49124 0 -0.16309 -0.466816c-5.68964,-16.3197 -10.0088,-28.7224 -12.9554,-37.2055 -2.96123,-8.52363 -4.54013,-13.0961 -4.73553,-13.7153l0.00236363 -0.000787876c-0.245423,-0.73627 -0.550725,-1.64114 -0.917087,-2.72014l-0.262363 -0.770936c-0.0913936,0.247787 -0.190272,0.512119 -0.297029,0.792603l0 0.00275756c-0.460907,1.21136 -1.06757,2.74102 -1.8196,4.5878l-0.000393938 0 -19.3152 49.0539 -0.174121 0.442392 -0.471938 0 -2.75993 0 -0.49124 0 -0.16309 -0.466816 -23.3042 -66.7449 -0.322241 -0.922996 0.976572 0 5.21259 0 0.49715 0 0.159939 0.472331 16.8653 49.7776 -0.000787876 0.000393938c0.477059,1.36381 0.941117,2.81429 1.38863,4.34907 0.232423,0.796148 0.460119,1.61239 0.683088,2.44872 0.0996663,-0.284817 0.208393,-0.588149 0.325787,-0.909602 0.531422,-1.45678 1.24051,-3.29411 2.12648,-5.50961l-0.000393938 0zm79.0641 16.402l0 -66.336 0 -0.694906 0.694906 0 4.70165 0 0.694906 0 0 0.694906 0 66.336 0 0.694906 -0.694906 0 -4.70165 0 -0.694906 0 0 -0.694906zm43.3174 -62.7791c-1.77666,0 -3.38156,0.211545 -4.81274,0.634634 -1.41542,0.417968 -2.67011,1.04472 -3.76092,1.87908 -1.066,0.815057 -1.86569,1.79439 -2.39751,2.93602 -0.535755,1.1503 -0.803633,2.4759 -0.803633,3.97444 0,3.4832 1.46112,6.62091 4.38256,9.41236l0.00551513 0.00551513c1.07072,1.03684 2.30178,2.10836 3.69199,3.21217 1.39336,1.10618 2.94311,2.24229 4.64807,3.40677 1.7093,1.16763 3.1649,2.17966 4.36522,3.0345 1.1826,0.842239 2.10914,1.52808 2.77647,2.05478 0.675997,0.533786 1.40281,1.14715 2.17887,1.8389 0.780391,0.695694 1.63918,1.4946 2.57478,2.39514l0.0106363 0.00827269c1.72781,1.72781 3.0282,3.59823 3.89998,5.60889 0.874542,2.01696 1.31181,4.16156 1.31181,6.43261 0,5.88307 -1.98269,10.3432 -5.94689,13.3785 -1.95984,1.5009 -4.30574,2.62638 -7.03573,3.37487 -2.70635,0.741785 -5.78261,1.11327 -9.22799,1.11327 -3.4572,0 -6.64022,-0.453816 -9.5459,-1.36145 -2.91475,-0.909996 -5.54743,-2.27735 -7.89609,-4.1005l-0.517634 -0.402211 0.368332 -0.536937 2.45344 -3.57735 0.39118 -0.570422 0.569634 0.385665c2.26632,1.53321 4.59253,2.68153 6.97585,3.44262 2.3786,0.759512 4.83086,1.14006 7.35443,1.14006 2.53026,0 4.77531,-0.264726 6.73319,-0.793391 1.93384,-0.521968 3.58917,-1.30118 4.96401,-2.33645 1.35475,-1.01991 2.37032,-2.24623 3.04593,-3.67741 0.678361,-1.43669 1.01833,-3.09359 1.01833,-4.96795 0,-3.21374 -1.39493,-6.18325 -4.18362,-8.90693l-0.00787876 -0.00551513c-1.01084,-1.01084 -2.18951,-2.06029 -3.53323,-3.1452 -1.36184,-1.09948 -2.89544,-2.24032 -4.59725,-3.41977 -1.78808,-1.23933 -3.25196,-2.26751 -4.39083,-3.08296 -1.18418,-0.848542 -2.13357,-1.54936 -2.84502,-2.10048 -0.689785,-0.534574 -1.44339,-1.1629 -2.25884,-1.88302 -0.816239,-0.720512 -1.68448,-1.52415 -2.60235,-2.40775l-0.00787876 -0.00827269c-1.79911,-1.79872 -3.1519,-3.74556 -4.05598,-5.83816 -0.908421,-2.10245 -1.36302,-4.3408 -1.36302,-6.71388 0,-4.78556 1.70654,-8.54333 5.11804,-11.2725 1.69078,-1.35278 3.70065,-2.36599 6.02685,-3.03805 2.30926,-0.666937 4.9254,-1.001 7.84606,-1.001 2.91002,0 5.67704,0.286393 8.29791,0.859572 2.6252,0.573573 5.10701,1.4363 7.44306,2.58699l0.603907 0.297817 -0.280878 0.611391 -1.73766 3.7818 -0.296241 0.644482 -0.635028 -0.307665c-2.06187,-0.997845 -4.28329,-1.74672 -6.66228,-2.24545 -2.38451,-0.499907 -4.93604,-0.750452 -7.65303,-0.750452zm86.2881 62.7791l0 -32.8308 -44.708 0 0 32.8308 0 0.694906 -0.694906 0 -4.70165 0 -0.694906 0 0 -0.694906 0 -66.336 0 -0.694906 0.694906 0 4.70165 0 0.694906 0 0 0.694906 0 27.9247 44.708 0 0 -27.9247 0 -0.694906 0.694906 0 4.70204 0 0.694906 0 0 0.694906 0 66.336 0 0.694906 -0.694906 0 -4.70204 0 -0.694906 0 0 -0.694906zm70.7177 -65.877l-27.9207 31.5497c5.39734,6.54134 9.97293,11.9194 13.726,16.1318 3.80938,4.27659 6.73279,7.30676 8.76669,9.08854 2.01263,1.76327 4.02132,3.14402 6.02449,4.14147 1.98072,0.98642 3.95317,1.59466 5.91458,1.82314l0.0669694 0.00787876 26.607 -63.8762 0.178454 -0.428998 0.462089 0 2.75953 0 0.461301 0 0.179242 0.426241 28.0062 66.7449 0.40418 0.963572 -1.04472 0 -5.21259 0 -0.461695 0 -0.178848 -0.428998 -9.4289 -22.5687 -28.5136 0 -9.32766 22.5659 -0.178848 0.431756 -0.461695 0 -3.80386 0 -0.00118181 0.0421513 -0.0220605 0.6823 -0.681118 -0.0118181c-1.94645,-0.0342726 -3.71326,-0.195787 -5.29846,-0.483362 -1.60924,-0.291514 -3.03372,-0.711846 -4.27186,-1.26021 -1.22475,-0.542058 -2.3849,-1.18024 -3.47847,-1.91217 -1.0916,-0.730361 -2.11229,-1.5529 -3.05932,-2.46526 -0.920633,-0.88636 -2.37584,-2.42744 -4.36365,-4.62207 -1.99214,-2.19896 -4.48695,-5.01719 -7.48285,-8.45312 -3.03884,-3.48517 -5.67743,-6.54134 -7.91421,-9.16615 -2.24781,-2.6386 -4.12965,-4.88759 -5.64474,-6.74737l-0.198939 -0.244241 0 33.9464 0 0.694906 -0.694906 0 -4.70165 0 -0.694906 0 0 -0.694906 0 -66.336 0 -0.694906 0.694906 0 4.70165 0 0.694906 0 0 0.694906 0 31.9838 0.217848 -0.245817 28.5172 -32.1969 0.208787 -0.235969 0.309635 0 5.62149 0 1.53951 0 -1.02109 1.15384zm34.9797 8.76748c-0.287575,0.8383 -0.566089,1.6313 -0.835148,2.3782 -0.468392,1.30196 -0.906057,2.46093 -1.31142,3.47414l-0.00275756 0.00787876 -9.82087 23.5705 24.0885 0 -9.72239 -23.4708c-0.804815,-1.95945 -1.45363,-3.56277 -1.94566,-4.80919l-0.000787876 0.000393938c-0.16309,-0.412453 -0.313181,-0.796542 -0.449483,-1.15109zm42.409 57.1096l0 -66.0295 0 -0.639755 0.640543 -0.0523937c2.90923,-0.236757 5.62622,-0.415998 8.14742,-0.536543 2.52514,-0.120939 4.8021,-0.181605 6.8297,-0.181605 3.20232,0 6.13322,0.415604 8.7923,1.24642 2.66814,0.833572 5.06013,2.08748 7.17321,3.76092 2.13593,1.69078 3.73847,3.74241 4.80565,6.15291 1.06206,2.39829 1.59308,5.14562 1.59308,8.2396 0,2.07763 -0.300575,4.0808 -0.901724,6.00716 -0.597998,1.91808 -1.49696,3.75935 -2.69572,5.52183 -1.183,1.73963 -2.44241,3.31223 -3.77589,4.71504 -1.16803,1.22909 -2.39948,2.33487 -3.69277,3.31656 3.84286,5.09874 6.98137,9.21263 9.41157,12.3381 2.49678,3.2102 4.21001,5.33037 5.13774,6.36013l0.000787876 -0.000787876c1.8913,1.95748 3.86217,3.49068 5.91104,4.59725 2.0339,1.09869 4.15013,1.78021 6.34555,2.04217l0.630694 0.0752421 -0.0200908 0.635816 -0.10203 3.16844 -0.0220605 0.682694 -0.681118 -0.0122121c-1.94684,-0.0346665 -3.71365,-0.196181 -5.29846,-0.483362 -1.60963,-0.291908 -3.03411,-0.71224 -4.27186,-1.26021 -1.24169,-0.549543 -2.47669,-1.28857 -3.70302,-2.21472 -1.21451,-0.917875 -2.42469,-2.02326 -3.62856,-3.3142 -2.34472,-2.51451 -7.45527,-9.22169 -15.3297,-20.118 -2.5996,-0.00354544 -5.22283,-0.0472725 -7.86891,-0.129999 -2.48378,-0.0783936 -4.92934,-0.19106 -7.33591,-0.337211l0 26.4502 0 0.694906 -0.694906 0 -4.70165 0 -0.694906 0 0 -0.694906zm19.093 -31.2566c1.20033,0 2.45975,-0.40812 3.77589,-1.22278 1.36893,-0.846966 2.79814,-2.1312 4.28604,-3.85074 2.95217,-3.4115 4.42865,-7.38318 4.42865,-11.9143 0,-4.47395 -1.51036,-7.86851 -4.52989,-10.1813 -1.53399,-1.17512 -3.29923,-2.05754 -5.29413,-2.64569 -2.01026,-0.59327 -4.26241,-0.889906 -6.75485,-0.889906 -1.38745,0 -2.86117,0.0330908 -4.41919,0.0992723 -1.3839,0.0586967 -2.88205,0.145363 -4.49404,0.259605l0 29.8818c2.23442,0.148908 4.37901,0.262757 6.43182,0.33918 2.23363,0.0831209 4.42432,0.124878 6.5697,0.124878zm74.5129 28.4762l-2.75953 0 -0.462877 0 -0.177666 -0.431756 -19.3183 -46.9156 0.000393938 0c-0.423089,-0.95333 -0.835542,-1.9559 -1.235,-3.00575 -0.0929693,-0.243848 -0.186333,-0.494392 -0.280484,-0.750058l-0.118969 0.967905c-0.134333,1.10933 -0.272605,2.05399 -0.413241,2.83202l0.00157575 0.000393938 -7.66603 50.1865 -0.0906057 0.591695 -0.596028 0 -4.59962 0 -0.815057 0 0.131181 -0.806391 10.8345 -66.7449 0.0945451 -0.583422 0.589331 0 2.75993 0 0.457756 0 0.18003 0.426241 20.6471 48.9598 0.00551513 0.0106363c0.831209,2.07842 1.44378,3.63368 1.83811,4.66816 0.518422,-1.25784 1.22081,-2.79538 2.10678,-4.61183l0.00196969 0.000787876 22.9934 -49.052 0.188302 -0.401817 0.438847 0 2.75953 0 0.596816 0 0.0898178 0.591695 10.1191 66.7449 0.120939 0.798118 -0.807573 0 -4.9061 0 -0.600755 0 -0.0858784 -0.59721 -7.25712 -50.391c-0.219817,-1.54148 -0.390786,-2.85014 -0.510543,-3.92323l-1.84757 4.20489 -0.00512119 0.0133939 -21.7714 46.8132 -0.188302 0.404574 -0.441604 0zm58.928 -19.5224l-9.32766 22.5659 -0.178848 0.431756 -0.461695 0 -4.80368 0 -1.04078 0 0.400241 -0.960814 27.8018 -66.7449 0.178454 -0.428998 0.462089 0 2.75953 0 0.461301 0 0.179242 0.426241 28.0062 66.7449 0.40418 0.963572 -1.04472 0 -5.21259 0 -0.461695 0 -0.178848 -0.428998 -9.4289 -22.5687 -28.5136 0zm14.1841 -34.8068c-0.287575,0.8383 -0.566089,1.6313 -0.835148,2.3782 -0.468392,1.30196 -0.906057,2.46093 -1.31142,3.47414l-0.00275756 0.00787876 -9.82087 23.5705 24.0885 0 -9.72239 -23.4708c-0.804815,-1.95945 -1.45363,-3.56277 -1.94566,-4.80919l-0.000787876 0.000393938c-0.16309,-0.412453 -0.313181,-0.796542 -0.449483,-1.15109z"/>
  </g>
 </g>
</svg>
