<?xml version="1.0" encoding="utf-8"?>
<!-- Generator: Adobe Illustrator 16.0.2, SVG Export Plug-In . SVG Version: 6.00 Build 0)  -->
<!DOCTYPE svg PUBLIC "-//W3C//DTD SVG 1.1//EN" "http://www.w3.org/Graphics/SVG/1.1/DTD/svg11.dtd">
<svg version="1.1" id="Layer_1" xmlns="http://www.w3.org/2000/svg" xmlns:xlink="http://www.w3.org/1999/xlink" x="0px" y="0px"
	 width="765.71px" height="132px" viewBox="0 0 765.71 132" enable-background="new 0 0 765.71 132" xml:space="preserve">
<g>
	<polygon fill="#050505" points="575.995,130.042 598.554,130.042 602.258,109.854 579.699,109.854 	"/>
	<path fill="#050505" d="M19.657,46.611c-9.499,8.063-15.635,19.944-18.41,35.645c-2.807,15.7-0.881,27.581,5.81,35.644
		c6.659,8.063,17.855,12.109,33.555,12.143h33.881l3.526-20.173H50.796c-6.462,0.033-11.554-0.945-15.276-2.839
		c-3.754-1.927-6.234-4.93-7.442-9.009c-1.175-4.048-1.175-9.335,0-15.766c1.077-6.464,2.97-11.718,5.614-15.767
		c2.644-4.079,6.169-7.082,10.576-9.008c4.439-1.926,9.89-2.873,16.321-2.84H86.44l3.721-20.171H57.455
		C41.755,34.502,29.156,38.549,19.657,46.611z"/>
	<path fill="#050505" d="M240.995,37.7c-7.214-3.493-16.321-5.223-27.255-5.189c-10.935-0.033-20.63,1.697-29.018,5.189
		c-8.422,3.493-15.374,8.911-20.826,16.255c-5.451,7.344-9.204,16.778-11.261,28.301c-2.024,11.521-1.632,20.955,1.273,28.3
		c2.873,7.344,7.932,12.762,15.146,16.255s16.288,5.222,27.255,5.189c10.935,0.032,20.629-1.696,29.05-5.189
		c8.421-3.493,15.341-8.911,20.825-16.255c5.484-7.345,9.303-16.778,11.424-28.3c1.991-11.522,1.501-20.957-1.404-28.301
		C253.3,46.611,248.208,41.193,240.995,37.7z M230.974,82.256c-1.763,9.791-5.189,17.137-10.347,22.032
		c-5.157,4.896-12.077,7.344-20.792,7.344c-8.715,0-14.753-2.447-18.148-7.344c-3.395-4.896-4.178-12.241-2.415-22.032
		c1.665-9.792,5.059-17.138,10.184-22.033c5.125-4.897,12.044-7.344,20.76-7.344c8.715,0,14.753,2.447,18.181,7.344
		C231.79,65.118,232.671,72.464,230.974,82.256z"/>
	<path fill="#050505" d="M142.452,0h-26.243L98.387,100.86c-1.273,7.018-1.273,12.665-0.065,16.975
		c1.208,4.275,3.819,7.408,7.769,9.335c3.95,1.958,9.433,2.905,16.386,2.872h14.101l3.329-19.976h-6.659
		c-3.786,0.032-6.3-0.719-7.572-2.318c-1.306-1.599-1.568-4.276-0.849-8.063L142.452,0z"/>
	<path fill="#050505" d="M336.731,109.478h-20.956c-6.626,0.066-11.163-1.403-13.611-4.406c-2.448-2.971-3.068-7.769-1.861-14.394
		l9.988-56.208h-26.243l-9.988,56.012c-1.632,9.172-1.567,16.68,0.229,22.521c1.795,5.844,5.386,10.152,10.771,12.927
		c5.418,2.774,12.697,4.146,21.902,4.112h52.488l16.841-95.573h-26.243L336.731,109.478z"/>
	<polygon fill="#050505" points="624.257,27.684 650.501,27.684 654.809,3.986 628.566,3.986 	"/>
	<path fill="#050505" d="M763.079,53.955c-2.901-7.341-7.996-12.762-15.211-16.255c-7.213-3.493-16.319-5.189-27.254-5.189
		c-10.936,0-20.631,1.705-29.019,5.189c-8.417,3.496-15.374,8.911-20.824,16.255c-5.452,7.344-9.225,16.778-11.262,28.301
		c-2.036,11.517-1.615,20.952,1.272,28.3c2.884,7.335,7.932,12.762,15.146,16.255c7.213,3.493,16.287,5.189,27.254,5.189
		c10.936,0,20.63-1.696,29.051-5.189c8.422-3.493,15.344-8.914,20.825-16.255c5.48-7.341,9.369-16.77,11.424-28.3
		C766.534,70.747,765.981,61.297,763.079,53.955z M737.848,82.256c-1.729,9.795-5.193,17.139-10.349,22.032
		c-5.153,4.893-12.076,7.344-20.792,7.344c-8.715,0-14.756-2.451-18.147-7.344c-3.393-4.894-4.127-12.234-2.416-22.032
		c1.71-9.781,5.06-17.138,10.185-22.033c5.124-4.897,12.044-7.344,20.76-7.344c8.715,0,14.767,2.443,18.18,7.344
		C738.671,65.108,739.573,72.473,737.848,82.256z"/>
	<path fill="#050505" d="M465.989,34.469H443.27c-15.699,0.033-28.298,4.08-37.797,12.142c-9.498,8.063-15.635,19.944-18.409,35.645
		c-2.809,15.7-0.882,27.581,5.81,35.644c6.659,8.063,17.854,12.109,33.556,12.143h48.961L498.303,0H472.06L465.989,34.469z
		 M452.476,110.066h-15.668c-9.662,0.064-16.354-2.154-20.041-6.627c-3.722-4.471-4.668-11.555-2.873-21.184
		c1.632-9.662,5.092-16.745,10.445-21.282c5.32-4.537,12.828-6.79,22.456-6.725h15.668L452.476,110.066z"/>
	<polygon fill="#050505" points="605.652,130.042 631.896,130.042 648.739,34.469 622.495,34.469 	"/>
	<path fill="#050505" d="M537.277,107.03c-3.755-1.916-6.234-4.93-7.441-9.009c-1.176-4.048-1.176-9.335,0-15.766
		c1.076-6.464,2.97-11.718,5.613-15.767c2.644-4.079,6.169-7.082,10.575-9.008c4.439-1.926,9.891-2.873,16.321-2.84h25.851
		l3.722-20.171h-32.706c-15.7,0.033-28.3,4.08-37.799,12.142c-9.498,8.063-15.635,19.944-18.409,35.645
		c-2.807,15.7-0.869,27.576,5.81,35.644c6.667,8.053,17.855,12.143,33.556,12.143h27.007l3.526-20.173h-20.35
		C546.095,109.869,540.993,108.926,537.277,107.03z"/>
</g>
</svg>
