<svg viewBox="0 0 48 48" xmlns:xlink="http://www.w3.org/1999/xlink" xmlns="http://www.w3.org/2000/svg" version="1.1" y="0" x="0" width="35" height="35" style=""><g mix-blend-mode="normal" text-anchor="start" font-size="none" font-weight="none" font-family="none" stroke-dashoffset="0" stroke-dasharray="" stroke-miterlimit="10" stroke-linejoin="miter" stroke-linecap="butt" stroke-width="1" stroke="none" fill="none"><g><g><path font-size="12" font-weight="normal" font-family="sans-serif" fill="none" d="M0,48l0,-48l48,0l0,48z"/><path font-size="12" font-weight="normal" font-family="sans-serif" fill="#d3d3d3" d="M24,48c-13.25483,0 -24,-10.74517 -24,-24l0,0c0,-13.25483 10.74517,-24 24,-24l0,0c13.25483,0 24,10.74517 24,24l0,0c0,13.25483 -10.74517,24 -24,24z M24,47.04c12.72464,0 23.04,-10.31536 23.04,-23.04l0,0c0,-12.72464 -10.31536,-23.04 -23.04,-23.04l0,0c-12.72464,0 -23.04,10.31536 -23.04,23.04l0,0c0,12.72464 10.31536,23.04 23.04,23.04z"/><g font-size="16" font-weight="400" font-family="serif"><path fill="#ff3d00" d="M36.6,33.1c0,1.9334 -1.5666,3.5 -3.5,3.5l-18.2,0c-1.9327,0 -3.5,-1.5666 -3.5,-3.5l0,-18.2c0,-1.9334 1.5673,-3.5 3.5,-3.5l18.2,0c1.9334,0 3.5,1.5666 3.5,3.5z"/><g fill="#ffffff"><path d="M23.3406,25.3594l-0.7063,-0.5411c-0.2163,-0.1701 -0.5152,-0.4032 -0.5152,-0.8274c0,-0.4228 0.2989,-0.6951 0.553,-0.9471c0.826,-0.6328 1.652,-1.3426 1.652,-2.7671c0,-1.4672 -0.9478,-2.2099 -1.3986,-2.6383l1.2166,0l1.2579,-0.6384l-4.0467,0c-1.0591,0 -2.3975,0.1603 -3.5133,1.0696c-0.8477,0.7084 -1.2621,1.6961 -1.2621,2.5816c0,1.5029 1.1823,3.0303 3.2641,3.0303c0.1967,0 0.4123,-0.0203 0.6307,-0.0392c-0.0994,0.2338 -0.1988,0.4277 -0.1988,0.7497c0,0.5992 0.315,0.9653 0.5908,1.3097c-0.8855,0.0602 -2.5354,0.1575 -3.7499,0.8897c-1.1613,0.6776 -1.5148,1.6611 -1.5148,2.3527c0,1.4273 1.3727,2.7559 4.221,2.7559c3.3782,0 5.166,-1.8305 5.166,-3.6428c0,-1.3265 -0.7826,-1.9838 -1.6464,-2.6978z M20.7653,23.1418c-1.687,0 -2.4584,-2.1413 -2.4584,-3.4321c0,-0.5005 0.1015,-1.0206 0.4347,-1.421c0.3178,-0.3899 0.8666,-0.6398 1.3769,-0.6398c1.6289,0 2.4738,2.1581 2.4738,3.5476c0,0.3437 -0.0399,0.9583 -0.4879,1.4035c-0.3178,0.308 -0.8449,0.5418 -1.3391,0.5418z M20.7849,30.8929c-2.1007,0 -3.4545,-0.9842 -3.4545,-2.352c0,-1.3692 1.2537,-1.8305 1.6877,-1.9859c0.826,-0.2723 1.8851,-0.3073 2.0622,-0.3073c0.1981,0 0.2968,0 0.4543,0.0189c1.491,1.0402 2.1371,1.5596 2.1371,2.5438c-0.0007,1.1928 -1.0003,2.0825 -2.8868,2.0825z"/><rect height="8" width="2" transform="scale(0.7,0.7)" y="30.28571" x="41.28571"/><rect height="2" width="8" transform="scale(0.7,0.7)" y="33.28571" x="38.28571"/></g></g></g></g></g></svg>