<svg viewBox="0 0 50 50" xmlns:xlink="http://www.w3.org/1999/xlink" xmlns="http://www.w3.org/2000/svg" version="1.1" y="0" x="0" width="35" height="35" style="fill: rgb(255, 255, 255);"><g mix-blend-mode="normal" text-anchor="start" font-size="none" font-weight="none" font-family="none" stroke-dashoffset="0" stroke-dasharray="" stroke-miterlimit="10" stroke-linejoin="miter" stroke-linecap="butt" stroke-width="1" stroke="none" fill="none"><g><g><path font-size="12" font-weight="normal" font-family="sans-serif" fill="none" d="M0,50l0,-50l50,0l0,50z"/><path font-size="12" font-weight="normal" font-family="sans-serif" fill="#2ecc71" d="M25,46.75c-12.01219,0 -21.75,-9.73781 -21.75,-21.75l0,0c0,-12.01219 9.73781,-21.75 21.75,-21.75l0,0c12.01219,0 21.75,9.73781 21.75,21.75l0,0c0,12.01219 -9.73781,21.75 -21.75,21.75z"/><g font-size="16" font-weight="400" font-family="serif" fill="#ffffff"><path d="M25,15.27c-6.18536,0 -11.21773,4.37589 -11.21773,9.75455c0,3.01757 1.62608,5.88443 4.36565,7.72511c-0.06487,0.51358 -0.32434,1.75631 -1.35052,3.21168l-0.53894,0.76427l0.96424,0.00439c2.64933,0 4.43978,-1.62413 5.02798,-2.2455c0.89449,0.19558 1.81825,0.29459 2.74932,0.29459c6.18536,0 11.21773,-4.37589 11.21773,-9.75455c0,-5.37866 -5.03237,-9.75455 -11.21773,-9.75455z"/></g></g></g></g></svg>