<?xml version="1.0" encoding="UTF-8"?>
<svg xmlns="http://www.w3.org/2000/svg" xmlns:xlink="http://www.w3.org/1999/xlink" viewBox="0 0 50 50" version="1.1" fill="#2980b9" width="100px" height="100px">
<g id="surface1" fill="#2980b9">
<path style=" " d="M 25 2 C 12.316406 2 2 12.316406 2 25 C 2 37.683594 12.316406 48 25 48 C 37.683594 48 48 37.683594 48 25 C 48 12.316406 37.683594 2 25 2 Z M 33.707031 21.707031 C 33.511719 21.902344 33.257813 22 33 22 C 32.742188 22 32.488281 21.902344 32.292969 21.707031 L 26 15.414063 L 26 37 C 26 37.554688 25.550781 38 25 38 C 24.449219 38 24 37.554688 24 37 L 24 15.414063 L 17.707031 21.707031 C 17.316406 22.097656 16.683594 22.097656 16.292969 21.707031 C 15.902344 21.316406 15.902344 20.683594 16.292969 20.292969 L 24.292969 12.292969 C 24.386719 12.199219 24.496094 12.128906 24.617188 12.078125 C 24.863281 11.976563 25.136719 11.976563 25.382813 12.078125 C 25.503906 12.128906 25.613281 12.199219 25.707031 12.292969 L 33.707031 20.292969 C 34.097656 20.683594 34.097656 21.316406 33.707031 21.707031 Z " fill="#2980b9"/>
</g>
</svg>
