<?xml version="1.0" encoding="UTF-8"?>
<svg xmlns="http://www.w3.org/2000/svg" xmlns:xlink="http://www.w3.org/1999/xlink" viewBox="0 0 50 50" version="1.1" width="100px" height="100px">
<g id="surface1">
<path style=" " d="M 0 8 L 0 10.542969 C 6.472656 16.089844 19.710938 27.429688 20.824219 28.316406 C 22.214844 29.507813 23.605469 29.597656 24 29.597656 C 24.394531 29.597656 25.789063 29.507813 27.148438 28.339844 C 28.207031 27.496094 40.675781 16.773438 48 10.472656 L 48 8 Z M 48 13.109375 C 43.515625 16.96875 37.675781 21.988281 33.53125 25.539063 L 31.984375 26.863281 C 30.082031 28.492188 28.746094 29.625 28.421875 29.878906 C 26.617188 31.429688 24.726563 31.597656 24 31.597656 C 23.273438 31.597656 21.382813 31.429688 19.546875 29.859375 C 19.222656 29.597656 4.175781 16.753906 0 13.175781 L 0 42 L 30.203125 42 C 31.128906 46.558594 35.171875 50 40 50 C 45.515625 50 50 45.515625 50 40 C 50 37.757813 49.25 35.695313 48 34.027344 Z M 40 32 C 44.410156 32 48 35.589844 48 40 C 48 44.410156 44.410156 48 40 48 C 35.589844 48 32 44.410156 32 40 C 32 35.589844 35.589844 32 40 32 Z M 40 34.097656 C 39.398438 34.097656 39 34.5 39 35.097656 L 39 39 L 35.097656 39 C 34.5 39 34.097656 39.398438 34.097656 40 C 34.097656 40.601563 34.5 41 35.097656 41 L 39 41 L 39 44.902344 C 39 45.5 39.398438 45.902344 40 45.902344 C 40.601563 45.902344 41 45.5 41 44.902344 L 41 41 L 44.902344 41 C 45.5 41 45.902344 40.601563 45.902344 40 C 45.902344 39.398438 45.5 39 44.902344 39 L 41 39 L 41 35.097656 C 41 34.5 40.601563 34.097656 40 34.097656 Z "/>
</g>
</svg>
