<?xml version="1.0"?>
<svg xmlns="http://www.w3.org/2000/svg" viewBox="0 0 50 50" width="100px" height="100px">
    <path d="M43,46H7c-0.275,0-0.538-0.113-0.727-0.313c-0.189-0.199-0.287-0.468-0.272-0.742c0.335-5.96,4.896-7.835,8.561-9.343 c2.194-0.902,4.858-2.177,5.431-3.559C19.996,32.028,19.998,32.015,20,32c-3.715-0.422-8-0.714-8-3c0-0.281,0.119-0.55,0.326-0.739 c0.781-0.712,1.175-3.663,1.266-6.517C13.817,14.678,14.158,4,25.1,4c2.184,0,3.665,0.988,4.293,1.508 c1.901,0.077,3.464,0.721,4.648,1.916c2.984,3.011,2.935,8.752,2.89,13.817c-0.025,2.905-0.055,6.198,0.741,6.918 C37.881,28.349,38,28.618,38,28.9c0,2.378-5.722,2.803-8,3.1c0.002,0.033,0.004,0.066,0.005,0.101 c0.602,1.347,3.27,2.612,5.433,3.501c3.665,1.508,8.227,3.383,8.561,9.343c0.016,0.274-0.082,0.543-0.271,0.742 C43.538,45.887,43.275,46,43,46z M30.01,32.307h0.01H30.01z M28.8,31.598c0,0,0,0.001,0,0.002C28.8,31.599,28.8,31.598,28.8,31.598z M28.8,31.596L28.8,31.596L28.8,31.596z"/>
</svg>
