<?xml version="1.0" encoding="UTF-8"?>
<svg xmlns="http://www.w3.org/2000/svg" xmlns:xlink="http://www.w3.org/1999/xlink" viewBox="0 0 50 50" version="1.1" width="100px" height="100px">
<g id="surface1">
<path style=" " d="M 25 3 C 21.699219 3 19 5.699219 19 9 C 19 12.300781 21.699219 15 25 15 C 28.300781 15 31 12.300781 31 9 C 31 5.699219 28.300781 3 25 3 Z M 25 19 C 21.699219 19 19 21.699219 19 25 C 19 28.300781 21.699219 31 25 31 C 28.300781 31 31 28.300781 31 25 C 31 21.699219 28.300781 19 25 19 Z M 25 35 C 21.699219 35 19 37.699219 19 41 C 19 44.300781 21.699219 47 25 47 C 28.300781 47 31 44.300781 31 41 C 31 37.699219 28.300781 35 25 35 Z "/>
</g>
</svg>
