<?xml version="1.0" standalone="no"?>
<!DOCTYPE svg PUBLIC "-//W3C//DTD SVG 1.1//EN" "http://www.w3.org/Graphics/SVG/1.1/DTD/svg11.dtd" >
<!--
2018-1-23: Created.
-->
<svg xmlns="http://www.w3.org/2000/svg">
<metadata>
Created by FontForge 20120731 at Tue Jan 23 00:18:00 2018
 By icons8

</metadata>
<defs>
<font id="Downloaded" horiz-adv-x="512" >
  <font-face 
    font-family="Downloaded"
    font-weight="500"
    font-stretch="normal"
    units-per-em="512"
    panose-1="2 0 6 3 0 0 0 0 0 0"
    ascent="448"
    descent="-64"
    bbox="-3.51953 -65.9199 512.64 448.091"
    underline-thickness="25.6"
    underline-position="-51.2"
    unicode-range="U+0020-F257"
  />
    <missing-glyph />
    <glyph glyph-name="space" unicode=" " horiz-adv-x="200" 
 />
    <glyph glyph-name="restore" unicode="&#xf1c2;" 
d="M256 427.52c129.95 0 235.52 -105.569 235.52 -235.52s-105.569 -235.52 -235.52 -235.52s-235.52 105.569 -235.52 235.52c-0.000976562 0.0400391 -0.00195312 0.104492 -0.00195312 0.144531c0 5.65332 4.58887 10.2412 10.2412 10.2412
c5.65332 0 10.2412 -4.58789 10.2412 -10.2412c0 -0.0400391 0 -0.104492 -0.000976562 -0.144531c0 -118.882 96.1582 -215.04 215.04 -215.04s215.04 96.1582 215.04 215.04s-96.1582 215.04 -215.04 215.04c-68.5332 0 -129.385 -32.0586 -168.76 -81.9199h66.3594
l0.145508 0.000976562c5.65234 0 10.2412 -4.58789 10.2412 -10.2412s-4.58887 -10.2412 -10.2412 -10.2412l-0.145508 0.000976562h-102.399v102.4c-0.000976562 0.0390625 -0.000976562 0.101562 -0.000976562 0.140625c0 5.56543 4.51562 10.1523 10.0811 10.2393
l0.15918 0.000976562c5.65332 0 10.2412 -4.58789 10.2412 -10.2402l-0.000976562 -0.140625v-68.5996c43.1602 54.2422 109.693 89.0791 184.32 89.0791zM256 253.44c33.8115 0 61.4404 -27.6289 61.4404 -61.4404s-27.6289 -61.4404 -61.4404 -61.4404
s-61.4404 27.6289 -61.4404 61.4404s27.6289 61.4404 61.4404 61.4404zM256 232.96c-22.7432 0 -40.96 -18.2168 -40.96 -40.96s18.2168 -40.96 40.96 -40.96s40.96 18.2168 40.96 40.96s-18.2168 40.96 -40.96 40.96z" />
    <glyph glyph-name="map-editing" unicode="&#xf19b;" 
d="M454.4 372.688v-301.338l-12.8008 12.8008v272.762l-115.112 -24.2373l-140.8 25.6006l-115.287 -24.2754v-306.912l115.112 24.2373l140.8 -25.6006l15.0498 3.16309l10.7998 -10.7998l-25.6748 -5.41309l-140.8 25.6006l-128.088 -26.9629v333.088l127.913 26.9248
l140.8 -25.6006zM185.6 352c3.5332 0 6.40039 -2.86719 6.40039 -6.40039c0 -3.53223 -2.86719 -6.39941 -6.40039 -6.39941c-3.53223 0 -6.39941 2.86719 -6.39941 6.39941c0 3.5332 2.86719 6.40039 6.39941 6.40039zM185.6 326.4
c3.5332 0 6.40039 -2.86719 6.40039 -6.40039s-2.86719 -6.40039 -6.40039 -6.40039c-3.53223 0 -6.39941 2.86719 -6.39941 6.40039s2.86719 6.40039 6.39941 6.40039zM326.4 326.4c3.53223 0 6.39941 -2.86719 6.39941 -6.40039s-2.86719 -6.40039 -6.39941 -6.40039
c-3.5332 0 -6.40039 2.86719 -6.40039 6.40039s2.86719 6.40039 6.40039 6.40039zM185.6 300.8c3.5332 0 6.40039 -2.86719 6.40039 -6.39941c0 -3.5332 -2.86719 -6.40039 -6.40039 -6.40039c-3.53223 0 -6.39941 2.86719 -6.39941 6.40039
c0 3.53223 2.86719 6.39941 6.39941 6.39941zM326.4 300.8c3.53223 0 6.39941 -2.86719 6.39941 -6.39941c0 -3.5332 -2.86719 -6.40039 -6.39941 -6.40039c-3.5332 0 -6.40039 2.86719 -6.40039 6.40039c0 3.53223 2.86719 6.39941 6.40039 6.39941zM185.6 275.2
c3.5332 0 6.40039 -2.86719 6.40039 -6.40039c0 -3.53223 -2.86719 -6.39941 -6.40039 -6.39941c-3.53223 0 -6.39941 2.86719 -6.39941 6.39941c0 3.5332 2.86719 6.40039 6.39941 6.40039zM326.4 275.2c3.53223 0 6.39941 -2.86719 6.39941 -6.40039
c0 -3.53223 -2.86719 -6.39941 -6.39941 -6.39941c-3.5332 0 -6.40039 2.86719 -6.40039 6.39941c0 3.5332 2.86719 6.40039 6.40039 6.40039zM185.6 249.6c3.5332 0 6.40039 -2.86719 6.40039 -6.39941c0 -3.5332 -2.86719 -6.40039 -6.40039 -6.40039
c-3.53223 0 -6.39941 2.86719 -6.39941 6.40039c0 3.53223 2.86719 6.39941 6.39941 6.39941zM326.4 249.6c3.53223 0 6.39941 -2.86719 6.39941 -6.39941c0 -3.5332 -2.86719 -6.40039 -6.39941 -6.40039c-3.5332 0 -6.40039 2.86719 -6.40039 6.40039
c0 3.53223 2.86719 6.39941 6.40039 6.39941zM185.6 224c3.5332 0 6.40039 -2.86719 6.40039 -6.40039c0 -3.53223 -2.86719 -6.39941 -6.40039 -6.39941c-3.53223 0 -6.39941 2.86719 -6.39941 6.39941c0 3.5332 2.86719 6.40039 6.39941 6.40039zM326.4 224
c3.53223 0 6.39941 -2.86719 6.39941 -6.40039c0 -3.53223 -2.86719 -6.39941 -6.39941 -6.39941c-3.5332 0 -6.40039 2.86719 -6.40039 6.39941c0 3.5332 2.86719 6.40039 6.40039 6.40039zM185.6 198.4c3.5332 0 6.40039 -2.86719 6.40039 -6.40039
s-2.86719 -6.40039 -6.40039 -6.40039c-3.53223 0 -6.39941 2.86719 -6.39941 6.40039s2.86719 6.40039 6.39941 6.40039zM326.4 198.4c3.53223 0 6.39941 -2.86719 6.39941 -6.40039s-2.86719 -6.40039 -6.39941 -6.40039c-3.5332 0 -6.40039 2.86719 -6.40039 6.40039
s2.86719 6.40039 6.40039 6.40039zM185.6 172.8c3.5332 0 6.40039 -2.86719 6.40039 -6.39941c0 -3.5332 -2.86719 -6.40039 -6.40039 -6.40039c-3.53223 0 -6.39941 2.86719 -6.39941 6.40039c0 3.53223 2.86719 6.39941 6.39941 6.39941zM326.4 172.8
c3.53223 0 6.39941 -2.86719 6.39941 -6.39941c0 -3.5332 -2.86719 -6.40039 -6.39941 -6.40039c-3.5332 0 -6.40039 2.86719 -6.40039 6.40039c0 3.53223 2.86719 6.39941 6.40039 6.39941zM290.912 157.088l74.4502 -23.8379l98.6748 -98.6875l35.0254 -35.0127
l3.46289 -3.46191c12.5889 -12.5898 12.5889 -33.1865 0 -45.7754l-4.8252 -4.8252c-12.5889 -12.5889 -33.1982 -12.5889 -45.7881 0l-3.46191 3.4502l-30.5 30.4873l-4.52539 4.52539l0.0126953 0.0126953l-97.5879 97.5742l-1.09961 1.10059zM185.6 147.2
c3.5332 0 6.40039 -2.86719 6.40039 -6.40039c0 -3.53223 -2.86719 -6.39941 -6.40039 -6.39941c-3.53223 0 -6.39941 2.86719 -6.39941 6.39941c0 3.5332 2.86719 6.40039 6.39941 6.40039zM317.487 135.138l-4.625 -4.625l12.0127 -37.5381
c0.0341797 0.00683594 0.0527344 0.00585938 0.0878906 0.0126953c2.60254 0.520508 5.37109 1.70898 6.46191 2.7998s2.2793 3.87305 2.7998 6.47559c0.521484 2.60254 0.525391 4.58691 0.525391 4.58691v6.40039h6.40039s1.98438 0.00390625 4.58691 0.525391
c2.60254 0.520508 5.38477 1.70898 6.47559 2.7998s2.2793 3.85938 2.7998 6.46191c0.00683594 0.0351562 0.00585938 0.0537109 0.0126953 0.0878906zM185.6 121.6c3.5332 0 6.40039 -2.86719 6.40039 -6.39941c0 -3.5332 -2.86719 -6.40039 -6.40039 -6.40039
c-3.53223 0 -6.39941 2.86719 -6.39941 6.40039c0 3.53223 2.86719 6.39941 6.39941 6.39941zM365.862 114.65c-0.97168 -2.43066 -2.37598 -4.90234 -4.59961 -7.125c-4.10645 -4.10645 -9.12207 -5.52148 -13.0127 -6.30078
c-0.726562 -0.144531 -0.663086 -0.0537109 -1.3252 -0.149414c-0.0957031 -0.662109 -0.00488281 -0.598633 -0.149414 -1.3252c-0.779297 -3.89062 -2.19434 -8.90625 -6.30078 -13.0127c-2.22266 -2.22363 -4.69434 -3.62793 -7.125 -4.59961l89.1377 -89.125
l32.5127 32.5127zM185.6 96c3.5332 0 6.40039 -2.86719 6.40039 -6.40039c0 -3.53223 -2.86719 -6.39941 -6.40039 -6.39941c-3.53223 0 -6.39941 2.86719 -6.39941 6.39941c0 3.5332 2.86719 6.40039 6.39941 6.40039zM185.6 70.4004
c3.5332 0 6.40039 -2.86719 6.40039 -6.40039s-2.86719 -6.40039 -6.40039 -6.40039c-3.53223 0 -6.39941 2.86719 -6.39941 6.40039s2.86719 6.40039 6.39941 6.40039zM464.037 16.4629l-32.5 -32.5127l16.9131 -16.9131l32.5127 32.5127zM490.013 -9.5l-32.5127 -32.5127
l3.46289 -3.4502c7.69824 -7.69824 19.9883 -7.69824 27.6875 0l4.82422 4.8252c7.69922 7.69922 7.69922 19.9766 0 27.6748z" />
    <glyph glyph-name="send-2" unicode="&#xf221;" 
d="M30.7197 376.32h450.561v-26.7207c-17.6006 -15.3594 -182.48 -158.8 -195.24 -169.92c-12.6797 -11.04 -25.2402 -12.2793 -30.04 -12.2793s-17.3604 1.23926 -30.04 12.2793c-12.3203 10.7207 -168.08 146.32 -195.24 169.92v26.7207zM30.7197 325.76
c29.1201 -25.3594 92.04 -80.1602 136.2 -118.6l-136.2 -107.521v226.12zM481.28 325.72v-233.64l-60.2002 60.2002c-5.7998 5.7998 -13.5205 9 -21.7197 9c-8.2002 0 -15.9199 -3.2002 -21.7207 -9c-5.7998 -5.7998 -9 -13.5205 -9 -21.7207
c0 -8.19922 3.2002 -15.9199 9 -21.7197l19.2402 -19.2402h-110.16v-40.96h-256v28l150.04 118.48c17.4805 -15.2402 30.2002 -26.2803 33.3604 -29.04c17.2803 -15.04 35.04 -16.6797 41.8799 -16.6797s24.5996 1.63965 41.8799 16.6797
c3.2002 2.7998 15.9199 13.8398 33.3604 29c0 0 125.24 109.04 150.04 130.64zM399.24 140.92c2.7998 -0.0400391 5.43945 -1.12012 7.35938 -3.12012l78.9199 -78.9199l-78.9199 -78.9199c-2.55957 -2.67969 -6.39941 -3.75977 -9.95996 -2.7998
c-3.59961 0.919922 -6.39941 3.71973 -7.31934 7.32031c-0.959961 3.55957 0.120117 7.39941 2.7998 9.95996l54.2002 54.1992h-139.12v20.4805h139.12l-54.2002 54.2002c-3 2.91992 -3.91992 7.31934 -2.36035 11.1992c1.60059 3.84082 5.32031 6.36035 9.48047 6.40039z
" />
    <glyph glyph-name="microsoft-excel" unicode="&#xf242;" 
d="M295.04 447.68c3 0.560547 5.95996 0.0400391 8.32031 -1.91992c2.35938 -1.95996 3.83984 -4.95996 3.83984 -8v-491.52c0 -3.04004 -1.48047 -6.04004 -3.83984 -8c-1.84082 -1.52051 -4.04004 -2.24023 -6.40039 -2.24023
c-0.639648 0 -1.28027 0.200195 -1.91992 0.320312l-286.72 54.3994c-4.83984 0.919922 -8.32031 5.32031 -8.32031 10.2402v382.08c0 4.91992 3.48047 9.32031 8.32031 10.2402zM327.68 386.56h153.601c11.2793 0 20.4795 -9.19922 20.4795 -20.4795v-348.16
c0 -11.2803 -9.2002 -20.4795 -20.4795 -20.4795h-153.601v71.6797h20.4805v20.4795h-20.4805v61.4404h20.4805v20.4795h-20.4805v51.2002h20.4805v20.4805h-20.4805v51.2002h20.4805v20.4795h-20.4805v71.6797zM368.64 314.88v-20.4795h81.9199v20.4795h-81.9199z
M68.4805 287.36l56 -95.6807l-61.1201 -95.6797h51.1992l33.2803 61.7598c2.32031 5.95996 3.83984 10.5205 4.48047 13.4404h0.319336c1.32031 -6.2002 2.60059 -10.4805 3.84082 -12.7998l33.2793 -62.4004h50.8799l-58.8799 96.6396l57.2803 94.7207h-48
l-30.4004 -56.6406c-2.91992 -7.39941 -5 -13.2393 -6.08008 -16.96h-0.319336c-1.68066 6.24023 -3.60059 11.7998 -5.75977 16.3203l-27.5205 57.2803h-52.4795zM368.64 243.2v-20.4805h81.9199v20.4805h-81.9199zM368.64 171.52v-20.4795h81.9199v20.4795h-81.9199z
M368.64 89.5996v-20.4795h81.9199v20.4795h-81.9199z" />
    <glyph glyph-name="clear-search" unicode="&#xf1ae;" 
d="M215.04 417.28c96.04 0 174.08 -78.04 174.08 -174.08c0 -43.2402 -15.9199 -82.7598 -42.1201 -113.24l133.4 -133.4l-28.96 -28.96l-134.641 134.641c-28.6396 -20.7598 -63.7598 -33.1201 -101.76 -33.1201c-96.04 0 -174.08 78.04 -174.08 174.08
s78.04 174.08 174.08 174.08zM215.04 396.8c-84.96 0 -153.6 -68.6396 -153.6 -153.6s68.6396 -153.601 153.6 -153.601s153.6 68.6406 153.6 153.601s-68.6396 153.6 -153.6 153.6zM163.72 304.76c2.7998 -0.0400391 5.44043 -1.12012 7.36035 -3.12012l43.96 -43.96
l43.96 43.96c1.83984 1.91992 4.36035 3.04004 7.04004 3.12012c4.24023 0.120117 8.08008 -2.35938 9.71973 -6.2793c1.64062 -3.88086 0.759766 -8.36035 -2.2793 -11.3203l-43.9609 -43.96l43.9609 -43.96c2.67969 -2.56055 3.75977 -6.40039 2.7998 -9.95996
c-0.919922 -3.60059 -3.7207 -6.40039 -7.32031 -7.32031c-3.55957 -0.959961 -7.40039 0.120117 -9.95996 2.7998l-43.96 43.96l-43.96 -43.96c-2.56055 -2.67969 -6.40039 -3.75977 -9.95996 -2.7998c-3.60059 0.919922 -6.40039 3.71973 -7.32031 7.32031
c-0.959961 3.55957 0.120117 7.39941 2.7998 9.95996l43.96 43.96l-43.96 43.96c-3 2.91992 -3.91992 7.32031 -2.35938 11.2002c1.59961 3.83984 5.31934 6.35938 9.47949 6.39941z" />
    <glyph glyph-name="edit" unicode="&#xf106;" 
d="M441.6 427.52c12.7607 0 25.4404 -5 35.2002 -14.7197c19.4404 -19.4395 19.4805 -50.9199 0 -70.3994c0 0 -8.35938 -8.36035 -8.31934 -8.32031l-70.4004 70.4004l8.32031 8.31934c9.71973 9.71973 22.4395 14.7197 35.1992 14.7197zM382.4 386.24h0.959961
c4.2793 0.240234 8.23926 -2.2002 9.95996 -6.12012c1.71973 -3.91992 0.799805 -8.52051 -2.28027 -11.4805l-330.56 -330.56l41.5996 -41.5996l330.56 330.56c4.08008 3.95996 10.6006 3.91992 14.5605 -0.160156s3.91992 -10.5996 -0.160156 -14.5596l-332.48 -332.16
c-1.19922 -1.32031 -2.75977 -2.32031 -4.47949 -2.87988l-76.7998 -20.4805c-3.52051 -0.919922 -7.24023 0.120117 -9.7998 2.68066c-2.56055 2.55957 -3.60059 6.2793 -2.68066 9.7998l20.4805 76.7998c0.55957 1.71973 1.55957 3.28027 2.87988 4.47949l332.16 332.48
c1.59961 1.71973 3.75977 2.87988 6.08008 3.2002z" />
    <glyph glyph-name="menu-2" unicode="&#xf15f;" 
d="M256 352c17.6875 0 32 -14.3125 32 -32s-14.3125 -32 -32 -32s-32 14.3125 -32 32s14.3125 32 32 32zM256 224c17.6875 0 32 -14.3125 32 -32s-14.3125 -32 -32 -32s-32 14.3125 -32 32s14.3125 32 32 32zM256 96c17.6875 0 32 -14.3125 32 -32s-14.3125 -32 -32 -32
s-32 14.3125 -32 32s14.3125 32 32 32z" />
    <glyph glyph-name="move" unicode="&#xf114;" 
d="M256 410.64l58.4004 -57.7598c2.67969 -2.55957 3.7998 -6.36035 2.87988 -9.95996s-3.7207 -6.40039 -7.28027 -7.36035c-3.59961 -0.959961 -7.40039 0.120117 -10 2.76074l-33.7598 33.3594v-108c0.0400391 -3.67969 -1.87988 -7.12012 -5.08008 -9
c-3.2002 -1.83984 -7.12012 -1.83984 -10.3203 0c-3.2002 1.87988 -5.12012 5.32031 -5.08008 9v108l-33.7598 -33.3594c-2.59961 -2.64062 -6.40039 -3.7207 -10 -2.76074c-3.55957 0.959961 -6.36035 3.76074 -7.28027 7.36035s0.200195 7.40039 2.87988 9.95996z
M101.84 253.28c4.24023 0.120117 8.12012 -2.32031 9.7998 -6.2002c1.68066 -3.87988 0.760742 -8.40039 -2.23926 -11.3604l-33.4004 -33.7598h108.04c3.67969 0.0400391 7.12012 -1.87988 9 -5.08008c1.83984 -3.2002 1.83984 -7.12012 0 -10.3203
c-1.87988 -3.19922 -5.32031 -5.11914 -9 -5.0791h-108.04l33.4004 -33.7607c2.63965 -2.59961 3.71973 -6.39941 2.75977 -10c-0.959961 -3.55957 -3.75977 -6.35938 -7.36035 -7.2793c-3.59961 -0.920898 -7.39941 0.199219 -9.95996 2.87988l-57.7197 58.3994
l57.7197 58.4004c1.83984 1.91992 4.36035 3.04004 7 3.16016zM409.84 253.28c2.75977 -0.0400391 5.40039 -1.16016 7.32031 -3.16016l57.7598 -58.4004l-57.7598 -58.3994c-2.56055 -2.68066 -6.36035 -3.80078 -9.95996 -2.87988
c-3.60059 0.919922 -6.40039 3.71973 -7.36035 7.2793c-0.959961 3.60059 0.120117 7.40039 2.75977 10l33.4004 33.7607h-108.04c-3.67969 -0.0400391 -7.12012 1.87988 -9 5.0791c-1.83984 3.2002 -1.83984 7.12012 0 10.3203c1.87988 3.2002 5.32031 5.12012 9 5.08008
h108.04l-33.4004 33.7598c-2.95996 2.91992 -3.87988 7.36035 -2.2793 11.2002c1.59961 3.83984 5.35938 6.36035 9.51953 6.36035zM255.84 130.12c2.75977 0.0400391 5.44043 -1.04004 7.40039 -3s3.04004 -4.60059 3 -7.40039v-108l33.7598 33.4004
c2.59961 2.63965 6.40039 3.67969 10 2.71973c3.55957 -0.959961 6.36035 -3.75977 7.28027 -7.35938c0.919922 -3.56055 -0.200195 -7.40039 -2.87988 -9.9209l-58.4004 -57.7598l-58.4004 57.7598c-3 2.88086 -3.95996 7.28027 -2.39941 11.1602
c1.51953 3.87988 5.28027 6.40039 9.43945 6.44043c2.76074 0 5.44043 -1.08008 7.36035 -3.04004l33.7598 -33.4004v108c-0.0800781 5.68066 4.44043 10.3203 10.0801 10.4004z" />
    <glyph glyph-name="id-card" unicode="&#xf154;" 
d="M61.4404 355.84h389.119c22.5205 0 40.96 -18.4395 40.96 -40.96v-245.76c0 -22.5205 -18.4395 -40.96 -40.96 -40.96h-389.119c-22.5205 0 -40.96 18.4395 -40.96 40.96v245.76c0 22.5205 18.4395 40.96 40.96 40.96zM61.4404 335.36
c-11.4404 0 -20.4805 -9.04004 -20.4805 -20.4805v-245.76c0 -11.4404 9.04004 -20.4805 20.4805 -20.4805h389.119c11.4404 0 20.4805 9.04004 20.4805 20.4805v245.76c0 11.4404 -9.04004 20.4805 -20.4805 20.4805h-389.119zM173.12 294.4h0.320312
c10.7998 0 19.04 -4.7207 24.96 -11.2002c7.43945 -1.08008 14.3994 -3.87988 18.5596 -8.95996c5.04004 -6.12012 6.95996 -13.2402 7.67969 -20.1602c1.28027 -12.6797 -1.75977 -24.4404 -4.15918 -32.3203c1.43945 -3.47949 3.83984 -6.39941 3.83984 -11.2002
c0 -11.4395 -6.48047 -16.96 -9.91992 -19.5195c-1.40039 -4.95996 -2.91992 -10.1201 -5.44043 -13.7598c-1.71973 -2.44043 -4.16016 -3.60059 -6.08008 -5.44043c-0.120117 -4.24023 -0.519531 -8.2002 -0.320312 -12.1602
c0.720703 -1.67969 2.44043 -3.59961 7.36035 -6.08008c5.16016 -2.59961 12.6797 -5.23926 20.4805 -8.63965c7.7998 -3.40039 16.0801 -7.63965 23.04 -14.7197s12.04 -17.2402 12.7998 -29.7598c0.160156 -2.84082 -0.839844 -5.60059 -2.75977 -7.64062
c-1.96094 -2.08008 -4.64062 -3.24023 -7.48047 -3.24023h-163.84c-2.83984 0 -5.52051 1.16016 -7.48047 3.24023c-1.91992 2.04004 -2.91992 4.7998 -2.75977 7.64062c0.759766 12.5195 5.83984 22.6797 12.7998 29.7598s15.2402 11.3193 23.04 14.7197
s15.3203 6.04004 20.4805 8.63965c4.71973 2.36035 6.2002 4.12012 7.04004 5.76074c0.239258 4.08008 0.120117 8.12012 0 12.4795c-1.68066 1.64062 -3.68066 2.75977 -5.44043 5.12012c-2.63965 3.52051 -4.43945 8.67969 -6.08008 13.7598
c-1.43945 1 -2.16016 1.2002 -3.83984 3.2002c-3.2002 3.7998 -6.12012 9.71973 -6.40039 17.5996c-0.199219 5.48047 1.40039 10.04 3.2002 13.1201c0.0800781 0.120117 -0.0800781 0.200195 0 0.320312c-3.23926 14.5996 -4.35938 29.7598 1.28027 43.2002
c6.36035 15.0801 22.4004 25.8398 45.1201 26.2402zM173.44 273.92c-17.1201 -0.400391 -23.1602 -5.67969 -26.5605 -13.7598c-3.43945 -8.16016 -2.95996 -21.3604 0.639648 -35.2002c1 -3.51953 0 -7.32031 -2.55957 -9.91992c0 0 -1 -1.52051 -0.959961 -2.55957
c0.120117 -3.40039 0.919922 -4.64062 1.59961 -5.44043c0.680664 -0.799805 0.320312 -0.639648 0.320312 -0.639648c3.08008 -1.44043 5.24023 -4.32031 5.75977 -7.68066c0.360352 -2.71973 2.28027 -6.67969 4.48047 -9.59961
c1.55957 -2.08008 3.55957 -3.91992 4.16016 -4.48047c0.399414 -0.199219 0.479492 -0.15918 0.319336 0c3.2002 -1.83984 5.16016 -5.2793 5.12012 -8.95996c0 -6 0.759766 -11.7998 0 -20.1602c-0.120117 -0.879883 -0.319336 -1.71973 -0.639648 -2.55957
c-3.32031 -9 -10.8398 -14.04 -17.9199 -17.5996c-7.08008 -3.56055 -14.3203 -6.32031 -21.1201 -9.28027s-12.6797 -6.2002 -16.6396 -10.2402c-1.36035 -1.39941 -1.56055 -4.08008 -2.56055 -5.75977h134.4c-1 1.67969 -1.2002 4.36035 -2.56055 5.75977
c-3.95996 4.04004 -9.83984 7.28027 -16.6396 10.2402s-14.04 5.71973 -21.1201 9.28027c-7.08008 3.55957 -14.5596 8.63965 -17.9199 17.5996c-0.320312 0.839844 -0.520508 1.67969 -0.639648 2.55957c-0.760742 8.32031 0 14.1602 0 20.1602
c0.0800781 3.83984 2.31934 7.28027 5.75977 8.95996c-0.560547 -0.279297 1.95996 1.80078 3.83984 4.48047s3.36035 6.24023 3.83984 9.59961c0.520508 2.91992 2.24023 5.52051 4.7998 7.04004c0 0 3.2002 2.91992 3.2002 4.7998c0 2.68066 -1.39941 5 -1.28027 5.12012
c-2.35938 2.7207 -3.0791 6.52051 -1.91992 9.91992c1.68066 5.08008 4.40039 17.3604 3.52051 26.2402c-0.44043 4.44043 -1.87988 7.67969 -3.2002 9.28027c-1.32031 1.59961 -2.44043 2.55957 -7.04004 2.55957c-3.55957 0.0800781 -6.83984 2.04004 -8.63965 5.12012
c-0.680664 1.2002 -5.04004 4.95996 -11.5205 5.12012h-0.319336zM295.04 253.44h0.959961h0.959961h122.88c3.67969 0.0400391 7.12012 -1.88086 9 -5.08008c1.83984 -3.2002 1.83984 -7.12012 0 -10.3203c-1.87988 -3.2002 -5.32031 -5.12012 -9 -5.08008h-122.88
c-5.63965 -0.519531 -10.6797 3.63965 -11.2002 9.28027c-0.519531 5.63965 3.64062 10.6797 9.28027 11.2002zM295.04 202.24h0.959961h0.959961h122.88c3.67969 0.0400391 7.12012 -1.87988 9 -5.08008c1.83984 -3.2002 1.83984 -7.12012 0 -10.3203
c-1.87988 -3.2002 -5.32031 -5.12012 -9 -5.08008h-122.88c-5.63965 -0.519531 -10.6797 3.64062 -11.2002 9.28027c-0.519531 5.63965 3.64062 10.6797 9.28027 11.2002zM295.04 151.04h0.959961h0.959961h122.88c3.67969 0.0400391 7.12012 -1.87988 9 -5.08008
c1.83984 -3.2002 1.83984 -7.12012 0 -10.3203c-1.87988 -3.19922 -5.32031 -5.12012 -9 -5.08008h-122.88c-5.63965 -0.519531 -10.6797 3.64062 -11.2002 9.28027c-0.519531 5.64062 3.64062 10.6797 9.28027 11.2002z" />
    <glyph glyph-name="pin-3" unicode="&#xf11c;" 
d="M268.16 407.36c2.7998 -0.0400391 5.43945 -1.16016 7.35938 -3.2002l12.8008 -13.1201c0.55957 -0.360352 1.12012 -0.799805 1.59961 -1.28027l163.84 -163.84c0.480469 -0.479492 0.919922 -1.04004 1.28027 -1.59961l13.1201 -12.8008
c3.95996 -4.0791 3.91992 -10.5996 -0.160156 -14.5596s-10.5996 -3.91992 -14.5596 0.160156l-7.36035 7.36035c-26.6797 -23.2402 -59.5205 -38.2803 -86.7197 -47.6807c-14.9199 -5.16016 -28 -8.51953 -37.7607 -10.5596
c-4.35938 -0.919922 -7.63965 -1.52051 -10.5596 -1.91992l-32 -70.7207l3.51953 -3.51953c3.04004 -2.48047 4.44043 -6.44043 3.56055 -10.2803c-0.879883 -3.7998 -3.87988 -6.7998 -7.67969 -7.67969c-3.84082 -0.879883 -7.80078 0.519531 -10.2803 3.55957
l-148.48 148.48c-2.87988 2.75977 -3.91992 6.95996 -2.59961 10.7598c1.28027 3.75977 4.67969 6.44043 8.67969 6.83984c3.12012 0.240234 6.2002 -0.919922 8.32031 -3.2002l1.28027 -1.2793l72.3193 32.3193c1.44043 8.64062 14.1602 80.2803 60.8008 132.48
l-7.36035 7.36035c-2.83984 2.63965 -3.95996 6.63965 -2.87988 10.3994c1.08008 3.71973 4.16016 6.52051 8 7.2002c0.639648 0.160156 1.2793 0.280273 1.91992 0.320312zM283.84 366.72c-43.1201 -49.5996 -57.5996 -126.08 -57.5996 -126.08
c-0.600586 -3.43945 -2.87988 -6.31934 -6.08008 -7.67969l-68.1602 -31.04l112 -112l30.7197 68.4805c1.91992 4 6.16016 6.31934 10.5605 5.75977c0.0400391 0 0.639648 -0.0400391 0.959961 0c0.359375 0.0400391 0.399414 0.240234 0.959961 0.320312
c2.2002 0.279297 5.7998 0.679688 10.2402 1.59961c8.87988 1.87988 21.1592 5.08008 35.1992 9.91992c25.2002 8.67969 54.5605 23.7598 78.0801 43.8398zM179.2 129.6l14.3994 -14.3994l-135.04 -135.36l-14.7197 14.7197z" />
    <glyph glyph-name="course" unicode="&#xf133;" 
d="M52.2402 417.28h120.84c11.7998 0 21.4795 -9.68066 21.4795 -21.5205v-70.6396h122.881v70.6396c0 11.8398 9.67969 21.5205 21.4795 21.5205h120.88c11.7998 0 21.4805 -9.68066 21.4805 -21.5205v-408.56c0 -11.96 -9.68066 -20.4805 -21.4805 -20.4805h-120.88
c-3.95996 0 -7.67969 1.16016 -10.8799 3.08008c-3.12012 -1.91992 -6.71973 -3.08008 -10.5996 -3.08008h-122.881c-3.75977 0 -7.23926 1.12012 -10.2793 2.91992c-3.28027 -1.83984 -7.12012 -2.91992 -11.2002 -2.91992h-120.84
c-11.8398 0 -21.5205 9.68066 -21.5205 21.4805v407.56c0 11.8398 9.68066 21.5205 21.5205 21.5205zM52.2402 396.8c-0.480469 0 -1.04004 -0.55957 -1.04004 -1.04004v-407.56c0 -0.44043 0.55957 -1 1.04004 -1h120.84c0.439453 0 1 1.71973 1 0v408.56
c0 0.480469 -0.560547 1.04004 -1 1.04004h-120.84zM338.92 396.8c-0.439453 0 -1 -0.55957 -1 -1.04004v-407.56c0 -0.44043 0.560547 -1 1 -1h120.88c0.44043 0 1 1.71973 1 0v408.56c0 0.480469 -0.55957 1.04004 -1 1.04004h-120.88zM81.9199 335.36h61.4404
c3.67969 0.0400391 7.12012 -1.87988 9 -5.08008c1.83984 -3.2002 1.83984 -7.12012 0 -10.3203c-1.87988 -3.2002 -5.32031 -5.12012 -9 -5.08008h-61.4404c-3.67969 -0.0400391 -7.12012 1.87988 -9 5.08008c-1.83984 3.2002 -1.83984 7.12012 0 10.3203
c1.87988 3.2002 5.32031 5.12012 9 5.08008zM368.64 335.36h61.4404c3.67969 0.0400391 7.12012 -1.87988 9 -5.08008c1.83984 -3.2002 1.83984 -7.12012 0 -10.3203c-1.87988 -3.2002 -5.32031 -5.12012 -9 -5.08008h-61.4404
c-3.67969 -0.0400391 -7.12012 1.87988 -9 5.08008c-1.83984 3.2002 -1.83984 7.12012 0 10.3203c1.87988 3.2002 5.32031 5.12012 9 5.08008zM194.56 304.64v-317.439h122.881v317.439h-122.881zM225.28 243.2h61.4395c3.68066 0.0400391 7.12012 -1.87988 9 -5.08008
c1.83984 -3.2002 1.83984 -7.12012 0 -10.3203c-1.87988 -3.2002 -5.31934 -5.12012 -9 -5.08008h-61.4395c-3.68066 -0.0400391 -7.12012 1.87988 -9 5.08008c-1.83984 3.2002 -1.83984 7.12012 0 10.3203c1.87988 3.2002 5.31934 5.12012 9 5.08008zM81.9199 99.8398
h61.4404c3.67969 0.0400391 7.12012 -1.87988 9 -5.08008c1.83984 -3.2002 1.83984 -7.12012 0 -10.3193c-1.87988 -3.2002 -5.32031 -5.12012 -9 -5.08008h-61.4404c-3.67969 -0.0400391 -7.12012 1.87988 -9 5.08008c-1.83984 3.19922 -1.83984 7.11914 0 10.3193
c1.87988 3.2002 5.32031 5.12012 9 5.08008zM368.64 99.8398h61.4404c3.67969 0.0400391 7.12012 -1.87988 9 -5.08008c1.83984 -3.2002 1.83984 -7.12012 0 -10.3193c-1.87988 -3.2002 -5.32031 -5.12012 -9 -5.08008h-61.4404
c-3.67969 -0.0400391 -7.12012 1.87988 -9 5.08008c-1.83984 3.19922 -1.83984 7.11914 0 10.3193c1.87988 3.2002 5.32031 5.12012 9 5.08008zM81.9199 58.8799h61.4404c3.67969 0.0400391 7.12012 -1.87988 9 -5.08008c1.83984 -3.2002 1.83984 -7.12012 0 -10.3193
c-1.87988 -3.2002 -5.32031 -5.12012 -9 -5.08008h-61.4404c-3.67969 -0.0400391 -7.12012 1.87988 -9 5.08008c-1.83984 3.19922 -1.83984 7.11914 0 10.3193c1.87988 3.2002 5.32031 5.12012 9 5.08008zM368.64 58.8799h61.4404
c3.67969 0.0400391 7.12012 -1.87988 9 -5.08008c1.83984 -3.2002 1.83984 -7.12012 0 -10.3193c-1.87988 -3.2002 -5.32031 -5.12012 -9 -5.08008h-61.4404c-3.67969 -0.0400391 -7.12012 1.87988 -9 5.08008c-1.83984 3.19922 -1.83984 7.11914 0 10.3193
c1.87988 3.2002 5.32031 5.12012 9 5.08008zM225.28 48.6396h61.96c-0.280273 -3.39941 -0.520508 -6.75977 -0.520508 -10.2393c0 -3.48047 0.240234 -6.84082 0.520508 -10.2402h-61.96c-5.64062 0 -10.2402 4.59961 -10.2402 10.2402
c0 5.63965 4.59961 10.2393 10.2402 10.2393z" />
    <glyph glyph-name="close-program" unicode="&#xf176;" 
d="M61.4404 407.04h389.119c22.5205 0 40.96 -18.4404 40.96 -40.96v-252.8c12.8809 -18.3203 20.4805 -40.6406 20.4805 -64.6406c0 -62.0801 -50.5596 -112.64 -112.64 -112.64c-34.9199 0 -66.04 15.9199 -86.7207 40.96h-251.199
c-22.5205 0 -40.96 18.4404 -40.96 40.96v348.16c0 22.5195 18.4395 40.96 40.96 40.96zM61.4404 386.56c-11.4404 0 -20.4805 -9.04004 -20.4805 -20.4795v-30.7197h430.08v30.7197c0 11.4395 -9.04004 20.4795 -20.4805 20.4795h-389.119zM40.96 314.88v-245.76h247.68
c9.64062 52.3604 55.6006 92.1602 110.721 92.1602c27.1592 0 52.1992 -9.83984 71.6797 -25.9199v179.52h-430.08zM399.36 140.8c-51 0 -92.1602 -41.1602 -92.1602 -92.1602s41.1602 -92.1592 92.1602 -92.1592s92.1592 41.1592 92.1592 92.1592
s-41.1592 92.1602 -92.1592 92.1602zM363.2 99.2002l36.1602 -36.1602l36.1592 36.1602l14.4004 -14.4004l-36.1602 -36.1602l36.1602 -36.1592l-14.4004 -14.4004l-36.1592 36.1602l-36.1602 -36.1602l-14.4004 14.4004l36.1602 36.1592l-36.1602 36.1602zM40.96 48.6396
v-30.7197c0 -11.4395 9.04004 -20.4795 20.4805 -20.4795h237.76c-7.83984 15.3594 -12.4805 32.7998 -12.4805 51.1992h-245.76z" />
    <glyph glyph-name="new-message-2" unicode="&#xf21c;" 
d="M0 366.08h491.52v-25.3203c-75 -64.5195 -202.68 -174.319 -213.52 -182.96c-13.9199 -11.96 -28.2002 -12.8799 -32.2402 -12.8799s-18.2793 0.919922 -32.5195 13.1201c-11.4004 9.08008 -146.96 125.2 -213.24 182v26.04zM491.52 313.76v-214.2
c12.8008 -17.0791 20.4805 -38.1992 20.4805 -61.1592c0 -56.4805 -45.9199 -102.4 -102.4 -102.4c-49.4395 0 -90.8398 35.2402 -100.319 81.9199h-309.28v295.16c42.7598 -36.6396 196.84 -168.16 200.16 -170.84c18.7998 -16.0801 38.1602 -17.7998 45.5996 -17.7998
c7.44043 0 26.7998 1.71973 45.2803 17.5996c3.32031 2.59961 17 14.2002 36.4795 30.8799l15.8408 13.5605c42.4395 36.3594 102.239 87.7598 148.159 127.279zM409.6 120.32c-45.1592 0 -81.9199 -36.7607 -81.9199 -81.9199
c0 -45.1602 36.7607 -81.9199 81.9199 -81.9199c45.1602 0 81.9199 36.7598 81.9199 81.9199c0 45.1592 -36.7598 81.9199 -81.9199 81.9199zM409.6 98.8398c6.16016 0 10.2402 -4.12012 10.2402 -10.2402v-39.96h39.96c6.12012 0 10.2402 -4.08008 10.2402 -10.2393
c0 -6.16016 -4.12012 -10.2402 -10.2402 -10.2402h-39.96v-39.96c0 -6.12012 -4.08008 -10.2402 -10.2402 -10.2402c-6.15918 0 -10.2393 4.12012 -10.2393 10.2402v39.96h-39.96c-6.12012 0 -10.2402 4.08008 -10.2402 10.2402c0 6.15918 4.12012 10.2393 10.2402 10.2393
h39.96v39.96c0 6.12012 4.08008 10.2402 10.2393 10.2402z" />
    <glyph glyph-name="comments" unicode="&#xf217;" 
d="M92.1602 -23.04c-4.60059 0 -8.64062 3.08008 -9.87988 7.52051c-1.24023 4.39941 0.679688 9.11914 4.59961 11.4795c21.9199 13.1602 30.6797 33.2803 27.2002 62.9199h-42.4004c-28.2393 0 -51.1992 22.96 -51.1992 51.2002v245.76
c0 28.2402 22.96 51.2002 51.1992 51.2002h368.641c28.2393 0 51.1992 -22.96 51.1992 -51.2002v-245.76c0 -28.2402 -22.96 -51.2002 -51.1992 -51.2002h-228.521c-30.4795 -73.7598 -93.4395 -81.9199 -119.64 -81.9199z" />
    <glyph glyph-name="sidebar-menu" unicode="&#xf131;" 
d="M100.48 427.52h0.959961h0.959961h317.439c5.64062 0 10.2402 -4.59961 10.2402 -10.2393v-450.561c0 -5.63965 -4.59961 -10.2393 -10.2402 -10.2393h-317.439c-5.64062 0 -10.2402 4.59961 -10.2402 10.2393v450.561c-0.0800781 5 3.43945 9.31934 8.32031 10.2393z
M112.64 407.04v-430.08h296.96v430.08h-296.96zM174.08 366.08c11.3203 0 20.4795 -9.16016 20.4795 -20.4805c0 -11.3193 -9.15918 -20.4795 -20.4795 -20.4795s-20.4805 9.16016 -20.4805 20.4795c0 11.3203 9.16016 20.4805 20.4805 20.4805zM232.64 355.84h0.959961
h0.959961h0.959961h112.641c3.67969 0.0400391 7.12012 -1.87988 9 -5.08008c1.83984 -3.2002 1.83984 -7.12012 0 -10.3193c-1.87988 -3.2002 -5.32031 -5.12012 -9 -5.08008h-112.641c-5.63965 -0.800781 -10.8799 3.15918 -11.6797 8.7998
c-0.799805 5.63965 3.16016 10.8799 8.7998 11.6797zM163.84 304.64h20.4805c6.16016 0 10.2393 -4.08008 10.2393 -10.2393v-20.4805c0 -6.16016 -4.0791 -10.2402 -10.2393 -10.2402h-20.4805c-6.16016 0 -10.2402 4.08008 -10.2402 10.2402v20.4805
c0 6.15918 4.08008 10.2393 10.2402 10.2393zM232.64 294.4h0.959961h0.959961h0.959961h112.641c3.67969 0.0400391 7.12012 -1.88086 9 -5.08008c1.83984 -3.2002 1.83984 -7.12012 0 -10.3203c-1.87988 -3.2002 -5.32031 -5.12012 -9 -5.08008h-112.641
c-5.63965 -0.799805 -10.8799 3.16016 -11.6797 8.7998c-0.799805 5.64062 3.16016 10.8799 8.7998 11.6807zM174.08 192c11.3203 0 20.4795 -9.16016 20.4795 -20.4805c0 -11.3193 -9.15918 -20.4795 -20.4795 -20.4795s-20.4805 9.16016 -20.4805 20.4795
c0 11.3203 9.16016 20.4805 20.4805 20.4805zM232.64 181.76h0.959961h0.959961h0.959961h112.641c3.67969 0.0400391 7.12012 -1.87988 9 -5.08008c1.83984 -3.19922 1.83984 -7.12012 0 -10.3193c-1.87988 -3.2002 -5.32031 -5.12012 -9 -5.08008h-112.641
c-5.63965 -0.799805 -10.8799 3.16016 -11.6797 8.7998s3.16016 10.8799 8.7998 11.6797zM163.84 130.56h20.4805c6.16016 0 10.2393 -4.0791 10.2393 -10.2393v-20.4805c0 -6.16016 -4.0791 -10.2402 -10.2393 -10.2402h-20.4805
c-6.16016 0 -10.2402 4.08008 -10.2402 10.2402v20.4805c0 6.16016 4.08008 10.2393 10.2402 10.2393zM232.64 120.32h0.959961h0.959961h0.959961h112.641c3.67969 0.0400391 7.12012 -1.87988 9 -5.08008c1.83984 -3.2002 1.83984 -7.12012 0 -10.3203
c-1.87988 -3.2002 -5.32031 -5.12012 -9 -5.08008h-112.641c-5.63965 -0.799805 -10.8799 3.16016 -11.6797 8.7998c-0.799805 5.64062 3.16016 10.8799 8.7998 11.6807zM174.08 69.1201c11.2803 0 20.4795 -9.2002 20.4795 -20.4805
c0 -11.2793 -9.19922 -20.4795 -20.4795 -20.4795s-20.4805 9.2002 -20.4805 20.4795c0 11.2803 9.2002 20.4805 20.4805 20.4805zM232.64 58.8799h0.959961h0.959961h0.959961h112.641c3.67969 0.0400391 7.12012 -1.87988 9 -5.08008
c1.83984 -3.2002 1.83984 -7.12012 0 -10.3193c-1.87988 -3.2002 -5.32031 -5.12012 -9 -5.08008h-112.641c-5.63965 -0.800781 -10.8799 3.15918 -11.6797 8.7998c-0.799805 5.63965 3.16016 10.8799 8.7998 11.6797z" />
    <glyph glyph-name="download-from-the-cloud-2" unicode="&#xf213;" 
d="M450.44 206.92c36.1191 -12.2002 61.5596 -47.3604 61.5596 -86.5996c0 -50.8398 -41.3203 -92.1602 -92.1602 -92.1602h-307.2c-62.1201 0 -112.64 50.5195 -112.64 112.64c0 50.9199 34.04 95.2803 82.0801 108.48c3.16016 64.96 57 116.8 122.72 116.8
c41.1602 0 79.8398 -21.04 102.76 -55.3604c9.9209 2.7998 19.9209 4.16016 30.3604 4.16016c60.5205 0 110.08 -48 112.521 -107.96zM256 85.3604l68.6797 68.6797l-14.4795 14.4795l-43.96 -43.96v118.641h-20.4805v-118.641l-43.96 43.96l-14.4795 -14.4795z" />
    <glyph glyph-name="line" unicode="&#xf1c1;" 
d="M474.462 443.077l33.2305 -32.6152l-470.154 -470.154l-32.6152 33.2305z" />
    <glyph glyph-name="facebook-messenger" unicode="&#xf144;" 
d="M256 427.52c129.56 0 235.52 -98.2793 235.52 -220.159s-105.96 -220.16 -235.52 -220.16c-22.5195 0 -44 3.43945 -64.6396 8.95996l-73.9199 -38.4004l-15.04 -8v91.5205c-49.8408 40.2793 -81.9199 99.4395 -81.9199 166.08c0 121.88 105.96 220.159 235.52 220.159z
M256 407.04c-119.24 0 -215.04 -89.6797 -215.04 -199.68c0 -61.8408 30.3203 -117.16 78.0801 -153.92l3.83984 -2.88086v-67.1992l62.0801 32.3193l3.52051 1.91992l3.83984 -0.959961c20.0801 -5.75977 41.5195 -8.95996 63.6797 -8.95996
c119.24 0 215.04 89.6807 215.04 199.681s-95.7998 199.68 -215.04 199.68zM232.64 266.56l60.4805 -60.4795l107.84 60.4795l-121.6 -131.84l-59.2002 63.3604l-110.72 -62.0801z" />
    <glyph glyph-name="delete-folder-2" unicode="&#xf202;" 
d="M51.2002 417.28h92.1602c13.4854 0 21.626 -12.9863 29.4795 -25.5205c3.1748 -5.05859 9.08301 -14.4658 11.9404 -15.5l276.02 0.0605469c16.9375 0 30.7197 -13.7832 30.7197 -30.7207v-20.4795h-10.2393h-450.561h-10.2393v61.4395
c0 16.9375 13.7822 30.7207 30.7197 30.7207zM30.7197 304.64h450.561c5.6416 0 10.2393 -4.58691 10.2393 -10.2393v-194.94c12.7891 -17.0898 20.4805 -38.1982 20.4805 -61.0596c0 -56.3203 -46.0801 -102.4 -102.4 -102.4c-37.6807 0 -70.6992 20.6807 -88.4795 51.2002
h-269.92c-16.9375 0 -30.7197 13.7832 -30.7197 30.7197v276.48c0 5.65234 4.59766 10.2393 10.2393 10.2393zM409.6 120.32c-45.0557 0 -81.9199 -36.8643 -81.9199 -81.9199c0 -45.0566 36.8643 -81.9199 81.9199 -81.9199c45.0566 0 81.9199 36.8633 81.9199 81.9199
c0 45.0557 -36.8633 81.9199 -81.9199 81.9199zM373.76 84.4805c2.56055 0 5.1123 -1.03223 7.16016 -3.08008l28.6797 -28.6602l28.6807 28.6602c4.0957 4.0957 10.2236 4.0957 14.3193 0c4.09668 -4.09668 4.09668 -10.2246 0 -14.3203l-28.6592 -28.6797
l28.6592 -28.6807c4.09668 -4.0957 4.09668 -10.2236 0 -14.3193c-2.04785 -2.04883 -5.11133 -3.08008 -7.15918 -3.08008c-2.04883 0 -5.1123 1.03125 -7.16016 3.08008l-28.6807 28.6592l-28.6797 -28.6592c-2.04785 -2.04883 -5.1123 -3.08008 -7.16016 -3.08008
s-5.11133 1.03125 -7.16016 3.08008c-4.0957 4.0957 -4.0957 10.2236 0 14.3193l28.6602 28.6807l-28.6602 28.6797c-4.0957 4.0957 -4.0957 10.2236 0 14.3203c2.04883 2.04785 4.60059 3.08008 7.16016 3.08008z" />
    <glyph glyph-name="add-administrator" unicode="&#xf1e7;" 
d="M225.08 427.52c24.7598 0 43.3604 -6.7998 53.2803 -19.2793c18 -3.56055 31.4395 -12.4805 40.04 -26.6807c18.8799 -31.1992 7.39941 -78.2393 0.639648 -99.4395c4.36035 -5.48047 7.51953 -13.9199 6.55957 -25.4404
c-2.11914 -23.3994 -11.3594 -32.4395 -18.7197 -35.9199c-3.91992 -17.7598 -13.3203 -37.3594 -22.2002 -46.7197c0 -4.48047 1.04004 -24.3203 1.64062 -36.7197c0.919922 -2.12012 2.2793 -4.08008 3.87988 -5.95996c22.3994 30.4795 58.3594 50.3994 98.9199 50.3994
c67.6797 0 122.88 -55.2402 122.88 -122.88s-55.2002 -122.88 -122.88 -122.88c-45.2803 0 -84.8799 24.7998 -106.2 61.4404h-263l0.560547 10.7998c3.43945 62.1602 53.1592 81.8799 93.1191 97.6797c7.04004 2.7998 13.7607 5.48047 19.96 8.28027l42.8809 -51.6406
c1.95996 -2.31934 4.83984 -3.67969 7.87988 -3.67969h0.0800781c3.08008 0.0400391 5.95996 1.44043 7.91992 3.83984l20.0801 24.96l7.75977 -6.2793s-18 -30.8408 -23.1602 -63.4805h56.5996c-5.08008 33.2002 -23.1992 63.4805 -23.1992 63.4805l7.51953 6.59961
l20.3203 -25.2803c1.95996 -2.39941 4.83984 -3.7998 7.91992 -3.83984h0.0800781c0 8.28027 0.839844 16.4004 2.39941 24.2402l-19.6396 23.7598c-1.87988 2.7998 -3.87988 5.24023 -5.87988 7.32031l-6.7998 8.43945c-2.7207 3.36035 -7.16016 6.48047 -11.04 5.28027
c-3.91992 1.2002 -8.32031 -1.91992 -11.04 -5.28027l-30.0801 -37.3594l-32.2002 38.7998c5.75977 4.08008 10 8.59961 12.0801 14c1.28027 10.8799 1.16016 19.3604 0.959961 29.1602c-0.0400391 2.2002 -0.0800781 4.39941 -0.120117 6.67969
c-9.04004 9.24023 -19.1201 28.7998 -22.5596 47.2402c-6.83984 3.71973 -15.3203 12.8398 -18.3203 35c-1 11.8799 2.83984 20.5596 7.04004 26c-11.9199 50.4795 -8.67969 86.96 9.91992 111.439c16.4805 21.6406 44.7598 33.04 84.1201 33.9199zM225.28 407.04
c-32.5605 -0.719727 -55.5205 -9.44043 -68 -25.8398c-15.2803 -20.0801 -16.9199 -52.6807 -5 -99.6406l1.7998 -7l-6.08008 -4.04004s-4.36035 -3.55957 -3.67969 -12.1191c1.95996 -13.96 6.51953 -18.8008 8 -19.3604h9.2793l0.160156 -9.2002
c1.7998 -19.1201 14.5205 -39.5596 18.5605 -42.3203l4.35938 -3.03906l0.640625 -5.76074c0 -3.91992 0.0800781 -7.55957 0.120117 -11.0801c0.119141 -5.7998 0.199219 -11.5195 0 -17.5596l39.8398 -22.1201l39.2393 21.7998
c-0.279297 9.64062 -0.319336 18.3203 -0.319336 28.9199v5.95996l5.16016 2.91992c3.87988 2.84082 15.6797 23.04 18.4795 42.7207l1.28027 8.7998h8.83984c1.04004 0.200195 5.83984 4.24023 7.24023 19.4004c0.599609 7.35938 -1.83984 10.8799 -2.75977 11.5195
l-8.12012 4.08008l3.23926 8.43945c9.7207 27.2402 16.4404 66.7607 3.28027 88.4404c-6 9.95996 -15.7998 15.7598 -29.9199 17.7598l-4.87988 0.680664l-2.52051 4.2793c-4.91992 8.48047 -18.8799 13.3604 -38.2393 13.3604zM389.12 161.28
c-56.5605 0 -102.4 -45.8398 -102.4 -102.4c0 -56.5596 45.8398 -102.399 102.4 -102.399c56.5596 0 102.399 45.8398 102.399 102.399c0 56.5605 -45.8398 102.4 -102.399 102.4zM378.88 120.32h20.4805v-51.2002h51.1992v-20.4805h-51.1992v-51.1992h-20.4805v51.1992
h-51.2002v20.4805h51.2002v51.2002z" />
    <glyph glyph-name="ok-3" unicode="&#xf230;" 
d="M429.44 359.68c7.75977 0.360352 15.0791 -3.67969 18.8799 -10.4395c3.7998 -6.7998 3.43945 -15.1201 -0.959961 -21.5605l-205.761 -314.239c-3.19922 -4.9209 -8.35938 -8.24023 -14.1992 -9.12012c-5.80078 -0.839844 -11.7207 0.839844 -16.2002 4.63965
l-142.72 123.521c-6.24023 4.59961 -9.32031 12.2793 -8.04004 19.9199c1.2793 7.59961 6.75977 13.8398 14.1191 16.1191c7.40039 2.32031 15.4404 0.240234 20.8008 -5.31934l124.8 -107.84l192.64 294.72c3.60059 5.75977 9.83984 9.36035 16.6406 9.59961z" />
    <glyph glyph-name="add-file-2" unicode="&#xf1d4;" 
d="M61.4404 448h239.68l149.439 -149.44v-166.399c36.04 -15.8799 61.4404 -51.9199 61.4404 -93.7598c0 -56.4404 -45.96 -102.4 -102.4 -102.4c-22.9199 0 -44.04 7.67969 -61.1191 20.4805h-287.04v491.52zM296.96 423.36v-128.96h128.96zM409.6 120.32
c-45.3594 0 -81.9199 -36.5605 -81.9199 -81.9199c0 -45.3604 36.5605 -81.9199 81.9199 -81.9199c45.3604 0 81.9199 36.5596 81.9199 81.9199c0 45.3594 -36.5596 81.9199 -81.9199 81.9199zM399.36 89.5996h20.4795v-40.96h40.96v-20.4795h-40.96v-40.96h-20.4795v40.96
h-40.96v20.4795h40.96v40.96z" />
    <glyph glyph-name="pen" unicode="&#xf12a;" 
d="M346.88 417.28c4.16016 0.55957 8.24023 -1.48047 10.3203 -5.16016c2.04004 -3.67969 1.63965 -8.24023 -1.04004 -11.4805l-35.2002 -43.8398l100.16 -100.16l54.3994 36.1602c4.76074 3.2002 11.2002 1.87988 14.4004 -2.87988s1.87988 -11.2002 -2.87988 -14.4004
l-61.4404 -40.96l-7.04004 -4.47949l-6.0791 5.75977l-4.48047 4.48047c-39.9199 -42.0801 -49.5996 -88.4004 -49.5996 -171.2v-8.32031l-8.32031 -1.59961c-100.48 -20.0801 -305.6 -91.8398 -305.6 -91.8398l-20.1602 -7.04004l7.04004 20.1602
s71.7598 205.119 91.8398 305.6l1.59961 8.32031h8.32031c82.7598 0 129.12 9.67969 171.2 49.5996l-4.48047 4.48047l-6.39941 6.71973l5.75977 7.04004l40.96 51.2002c1.63965 2.11914 4.08008 3.47949 6.71973 3.83984zM318.72 329.6
c-44.96 -42.7998 -97.6797 -54.5996 -177.6 -55.3594c-17.8398 -84.2002 -58.96 -207.601 -76.4805 -258.88l147.521 147.52c-3.32031 5.67969 -5.44043 12.2002 -5.44043 19.2002c0 21.0801 17.3203 38.0801 38.4004 38.0801s38.3994 -17 38.3994 -38.0801
s-17.3193 -38.4004 -38.3994 -38.4004c-6.48047 0 -12.5205 1.91992 -17.9199 4.80078l-147.84 -147.841c51.2793 17.5205 174.68 58.6406 258.88 76.4805c0.759766 79.96 12.5596 132.64 55.3594 177.6zM245.12 199.68c-10 0 -17.9199 -7.59961 -17.9199 -17.5996
c0 -5 1.87988 -9.56055 5.12012 -12.7998c0.479492 -0.400391 0.879883 -0.799805 1.2793 -1.28027c3.08008 -2.55957 7.12012 -3.83984 11.5205 -3.83984c10 0 17.9199 7.91992 17.9199 17.9199s-7.91992 17.5996 -17.9199 17.5996z" />
    <glyph glyph-name="download-3" unicode="&#xf1f1;" 
d="M256 437.76c5.67969 0 10.2402 -4.59961 10.2402 -10.2402v-143.359h-20.4805v143.359c0 5.64062 4.60059 10.2402 10.2402 10.2402zM266.24 284.16h174.08v-348.16h-368.641v348.16h174.08v-169.92l-64.3193 64.6396c-4 4 -10.7207 4 -14.7207 0s-4 -10.7197 0 -14.7197
l89.2803 -88.96l89.2803 88.96c4 4 4 10.7197 0 14.7197s-10.7207 4 -14.7207 0l-64.3193 -64.6396v169.92z" />
    <glyph glyph-name="download-2" unicode="&#xf1f0;" 
d="M255.04 438.08c2.91992 0.280273 5.83984 -0.719727 8 -2.75977c2.12012 -2 3.32031 -4.83984 3.2002 -7.80078v-312.96l64.3193 64.3203c4.08008 4.08008 10.6406 4.08008 14.7207 0s4.08008 -10.6396 0 -14.7197l-81.9199 -81.9199l-7.36035 -7.04004l-7.36035 7.04004
l-81.9199 81.9199c-2.83984 2.63965 -3.95996 6.63965 -2.87988 10.3994c1.08008 3.7207 4.16016 6.52051 8 7.2002c3.48047 0.759766 7.12012 -0.319336 9.60059 -2.87988l64.3193 -64.3203v312.96c-0.120117 4.88086 3.24023 9.16016 8 10.2402
c0.400391 0.120117 0.839844 0.240234 1.28027 0.320312zM71.6797 284.16h102.4c3.67969 0.0400391 7.12012 -1.87988 9 -5.08008c1.83984 -3.2002 1.83984 -7.12012 0 -10.3203c-1.87988 -3.2002 -5.32031 -5.12012 -9 -5.08008h-81.9199v-307.199h327.68v307.199h-81.9199
c-3.67969 -0.0400391 -7.12012 1.87988 -9 5.08008c-1.83984 3.2002 -1.83984 7.12012 0 10.3203c1.87988 3.2002 5.32031 5.12012 9 5.08008h102.4v-348.16h-368.641v348.16z" />
    <glyph glyph-name="analyze-2" unicode="&#xf22b;" 
d="M61.4404 448h348.159c5.68066 0 10.2402 -4.59961 10.2402 -10.2402v-210.24c37.0801 -25.96 61.4404 -68.8398 61.4404 -117.439c0 -35.7998 -13.1201 -68.5996 -34.8799 -93.7598l65.5996 -65.9199l-14.4004 -14.4004l-65.9199 65.9199
c-25.1602 -21.8398 -57.8799 -35.2002 -93.7598 -35.2002c-26.8799 0 -52.0801 7.56055 -73.5996 20.4805h-202.88c-5.64062 0 -10.2402 4.55957 -10.2402 10.2402v440.319c0 5.64062 4.59961 10.2402 10.2402 10.2402zM143.36 345.6v-20.4795h194.56v20.4795h-194.56z
M143.36 284.16v-20.4805h194.56v20.4805h-194.56zM337.92 232.96c-67.7598 0 -122.88 -55.1201 -122.88 -122.88s55.1201 -122.88 122.88 -122.88s122.88 55.1201 122.88 122.88s-55.1201 122.88 -122.88 122.88zM143.36 222.72v-20.4795h85.1201
c6.35938 7.51953 13.3594 14.3994 21.1191 20.4795h-106.239zM256 171.52h133.12v-30.7197h-148.48c3.08008 11.2803 8.2002 21.5205 15.3604 30.7197zM143.36 161.28v-20.4805h54.3994c1.56055 7.04004 3.87988 13.8799 6.40039 20.4805h-60.7998zM143.36 99.8398v-20.4795
h54.7197c-1.48047 6.67969 -2.36035 13.4795 -2.87988 20.4795h-51.8398zM237.44 89.5996h151.68v-30.7197h-140.16c-5.12012 9.2002 -9.47949 19.4404 -11.5195 30.7197z" />
    <glyph glyph-name="add" unicode="&#xf17e;" 
d="M256 417.28c124.28 0 225.28 -101 225.28 -225.28s-101 -225.28 -225.28 -225.28s-225.28 101 -225.28 225.28s101 225.28 225.28 225.28zM256 396.8c-113.24 0 -204.8 -91.5596 -204.8 -204.8s91.5596 -204.8 204.8 -204.8s204.8 91.5596 204.8 204.8
s-91.5596 204.8 -204.8 204.8zM255.84 263.84c2.75977 0.0400391 5.44043 -1.04004 7.40039 -3s3.04004 -4.63965 3 -7.39941v-51.2002h51.2002c3.67969 0.0400391 7.11914 -1.87988 9 -5.08008c1.83984 -3.2002 1.83984 -7.12012 0 -10.3203
c-1.88086 -3.2002 -5.32031 -5.12012 -9 -5.08008h-51.2002v-51.2002c0.0400391 -3.67969 -1.87988 -7.11914 -5.08008 -9c-3.2002 -1.83984 -7.12012 -1.83984 -10.3203 0c-3.2002 1.88086 -5.12012 5.32031 -5.08008 9v51.2002h-51.2002
c-3.67969 -0.0400391 -7.11914 1.87988 -9 5.08008c-1.83984 3.2002 -1.83984 7.12012 0 10.3203c1.88086 3.2002 5.32031 5.12012 9 5.08008h51.2002v51.2002c-0.0800781 5.63965 4.44043 10.2793 10.0801 10.3994z" />
    <glyph glyph-name="delete-database-2" unicode="&#xf1a1;" 
d="M121.6 390.4h268.801c14.0625 0 25.5996 -11.5371 25.5996 -25.6006v-57.5996c0 -7.75 -3.6875 -14.4922 -9.1875 -19.2002c5.5 -4.70801 9.1875 -11.4502 9.1875 -19.2002v-57.5996c0 -7.75 -3.6875 -14.4922 -9.1875 -19.2002
c5.5 -4.70801 9.1875 -11.4502 9.1875 -19.2002v-32.3252c53.4932 -3.32715 96 -47.7559 96 -102.074c0 -56.4785 -45.9219 -102.4 -102.4 -102.4c-40.3955 0 -75.2822 23.5547 -91.9375 57.5996h-196.062c-14.0625 0 -25.5996 11.5371 -25.5996 25.6006v57.5996
c0 7.75 3.6875 14.4922 9.1875 19.2002c-5.5 4.70801 -9.1875 11.4502 -9.1875 19.2002v57.5996c0 7.75 3.6875 14.4922 9.1875 19.2002c-5.5 4.70801 -9.1875 11.4502 -9.1875 19.2002v57.5996c0 7.75 3.6875 14.4922 9.1875 19.2002
c-5.5 4.70801 -9.1875 11.4502 -9.1875 19.2002v57.5996c0 14.0635 11.5371 25.6006 25.5996 25.6006zM121.6 377.6c-7.14648 0 -12.7998 -5.65332 -12.7998 -12.7998v-57.5996c0 -7.14648 5.65332 -12.7998 12.7998 -12.7998v-12.8008
c-7.14648 0 -12.7998 -5.65332 -12.7998 -12.7998v-57.5996c0 -7.14648 5.65332 -12.7998 12.7998 -12.7998v-12.8008c-7.14648 0 -12.7998 -5.65332 -12.7998 -12.7998v-57.5996c0 -7.14648 5.65332 -12.7998 12.7998 -12.7998v-12.8008
c-7.14648 0 -12.7998 -5.65332 -12.7998 -12.7998v-57.5996c0 -7.14648 5.65332 -12.7998 12.7998 -12.7998h190.788c-3.3252 10.0781 -5.1875 20.8193 -5.1875 32c0 18.7041 5.12305 36.1953 13.9121 51.2998c-0.304688 -0.0546875 -0.802734 -0.0996094 -1.1123 -0.100586
c-3.5332 0 -6.40039 2.86719 -6.40039 6.40039s2.86719 6.40039 6.40039 6.40039c2.73242 -0.00390625 5.50391 -2.1543 6.1875 -4.80078c17.4082 24.4629 45.248 40.8994 77.0127 42.875v32.3252c0 7.14648 -5.65332 12.7998 -12.7998 12.7998v12.8008
c7.14648 0 12.7998 5.65332 12.7998 12.7998v57.5996c0 7.14648 -5.65332 12.7998 -12.7998 12.7998v12.8008c7.14648 0 12.7998 5.65332 12.7998 12.7998v57.5996c0 7.14648 -5.65332 12.7998 -12.7998 12.7998h-268.801zM288 345.6h6.40039h25.5996h6.40039v-12.7998
h-6.40039h-25.5996h-6.40039v12.7998zM140.8 294.4c3.5332 0 6.40039 -2.86719 6.40039 -6.40039s-2.86719 -6.40039 -6.40039 -6.40039c-3.53223 0 -6.39941 2.86719 -6.39941 6.40039s2.86719 6.40039 6.39941 6.40039zM166.4 294.4
c3.53223 0 6.39941 -2.86719 6.39941 -6.40039s-2.86719 -6.40039 -6.39941 -6.40039c-3.5332 0 -6.40039 2.86719 -6.40039 6.40039s2.86719 6.40039 6.40039 6.40039zM192 294.4c3.5332 0 6.40039 -2.86719 6.40039 -6.40039s-2.86719 -6.40039 -6.40039 -6.40039
s-6.40039 2.86719 -6.40039 6.40039s2.86719 6.40039 6.40039 6.40039zM217.6 294.4c3.5332 0 6.40039 -2.86719 6.40039 -6.40039s-2.86719 -6.40039 -6.40039 -6.40039c-3.53223 0 -6.39941 2.86719 -6.39941 6.40039s2.86719 6.40039 6.39941 6.40039zM243.2 294.4
c3.53223 0 6.39941 -2.86719 6.39941 -6.40039s-2.86719 -6.40039 -6.39941 -6.40039c-3.5332 0 -6.40039 2.86719 -6.40039 6.40039s2.86719 6.40039 6.40039 6.40039zM268.8 294.4c3.5332 0 6.40039 -2.86719 6.40039 -6.40039s-2.86719 -6.40039 -6.40039 -6.40039
c-3.53223 0 -6.39941 2.86719 -6.39941 6.40039s2.86719 6.40039 6.39941 6.40039zM294.4 294.4c3.53223 0 6.39941 -2.86719 6.39941 -6.40039s-2.86719 -6.40039 -6.39941 -6.40039c-3.5332 0 -6.40039 2.86719 -6.40039 6.40039s2.86719 6.40039 6.40039 6.40039z
M320 294.4c3.5332 0 6.40039 -2.86719 6.40039 -6.40039s-2.86719 -6.40039 -6.40039 -6.40039s-6.40039 2.86719 -6.40039 6.40039s2.86719 6.40039 6.40039 6.40039zM345.6 294.4c3.5332 0 6.40039 -2.86719 6.40039 -6.40039s-2.86719 -6.40039 -6.40039 -6.40039
c-3.53223 0 -6.39941 2.86719 -6.39941 6.40039s2.86719 6.40039 6.39941 6.40039zM371.2 294.4c3.53223 0 6.39941 -2.86719 6.39941 -6.40039s-2.86719 -6.40039 -6.39941 -6.40039c-3.5332 0 -6.40039 2.86719 -6.40039 6.40039s2.86719 6.40039 6.40039 6.40039z
M288 249.6h6.40039h25.5996h6.40039v-12.7998h-6.40039h-25.5996h-6.40039v12.7998zM140.8 198.4c3.5332 0 6.40039 -2.86719 6.40039 -6.40039s-2.86719 -6.40039 -6.40039 -6.40039c-3.53223 0 -6.39941 2.86719 -6.39941 6.40039s2.86719 6.40039 6.39941 6.40039z
M166.4 198.4c3.53223 0 6.39941 -2.86719 6.39941 -6.40039s-2.86719 -6.40039 -6.39941 -6.40039c-3.5332 0 -6.40039 2.86719 -6.40039 6.40039s2.86719 6.40039 6.40039 6.40039zM192 198.4c3.5332 0 6.40039 -2.86719 6.40039 -6.40039
s-2.86719 -6.40039 -6.40039 -6.40039s-6.40039 2.86719 -6.40039 6.40039s2.86719 6.40039 6.40039 6.40039zM217.6 198.4c3.5332 0 6.40039 -2.86719 6.40039 -6.40039s-2.86719 -6.40039 -6.40039 -6.40039c-3.53223 0 -6.39941 2.86719 -6.39941 6.40039
s2.86719 6.40039 6.39941 6.40039zM243.2 198.4c3.53223 0 6.39941 -2.86719 6.39941 -6.40039s-2.86719 -6.40039 -6.39941 -6.40039c-3.5332 0 -6.40039 2.86719 -6.40039 6.40039s2.86719 6.40039 6.40039 6.40039zM268.8 198.4
c3.5332 0 6.40039 -2.86719 6.40039 -6.40039s-2.86719 -6.40039 -6.40039 -6.40039c-3.53223 0 -6.39941 2.86719 -6.39941 6.40039s2.86719 6.40039 6.39941 6.40039zM294.4 198.4c3.53223 0 6.39941 -2.86719 6.39941 -6.40039s-2.86719 -6.40039 -6.39941 -6.40039
c-3.5332 0 -6.40039 2.86719 -6.40039 6.40039s2.86719 6.40039 6.40039 6.40039zM320 198.4c3.5332 0 6.40039 -2.86719 6.40039 -6.40039s-2.86719 -6.40039 -6.40039 -6.40039s-6.40039 2.86719 -6.40039 6.40039s2.86719 6.40039 6.40039 6.40039zM345.6 198.4
c3.5332 0 6.40039 -2.86719 6.40039 -6.40039s-2.86719 -6.40039 -6.40039 -6.40039c-3.53223 0 -6.39941 2.86719 -6.39941 6.40039s2.86719 6.40039 6.39941 6.40039zM371.2 198.4c3.53223 0 6.39941 -2.86719 6.39941 -6.40039s-2.86719 -6.40039 -6.39941 -6.40039
c-3.5332 0 -6.40039 2.86719 -6.40039 6.40039s2.86719 6.40039 6.40039 6.40039zM288 153.6h6.40039h25.5996h6.40039v-12.7998h-6.40039h-25.5996h-6.40039v12.7998zM409.6 128c-49.5605 0 -89.5996 -40.0391 -89.5996 -89.5996s40.0391 -89.6006 89.5996 -89.6006
s89.6006 40.04 89.6006 89.6006s-40.04 89.5996 -89.6006 89.5996zM140.8 102.4c3.5332 0 6.40039 -2.86719 6.40039 -6.40039s-2.86719 -6.40039 -6.40039 -6.40039c-3.53223 0 -6.39941 2.86719 -6.39941 6.40039s2.86719 6.40039 6.39941 6.40039zM166.4 102.4
c3.53223 0 6.39941 -2.86719 6.39941 -6.40039s-2.86719 -6.40039 -6.39941 -6.40039c-3.5332 0 -6.40039 2.86719 -6.40039 6.40039s2.86719 6.40039 6.40039 6.40039zM192 102.4c3.5332 0 6.40039 -2.86719 6.40039 -6.40039s-2.86719 -6.40039 -6.40039 -6.40039
s-6.40039 2.86719 -6.40039 6.40039s2.86719 6.40039 6.40039 6.40039zM217.6 102.4c3.5332 0 6.40039 -2.86719 6.40039 -6.40039s-2.86719 -6.40039 -6.40039 -6.40039c-3.53223 0 -6.39941 2.86719 -6.39941 6.40039s2.86719 6.40039 6.39941 6.40039zM243.2 102.4
c3.53223 0 6.39941 -2.86719 6.39941 -6.40039s-2.86719 -6.40039 -6.39941 -6.40039c-3.5332 0 -6.40039 2.86719 -6.40039 6.40039s2.86719 6.40039 6.40039 6.40039zM268.8 102.4c3.5332 0 6.40039 -2.86719 6.40039 -6.40039s-2.86719 -6.40039 -6.40039 -6.40039
c-3.53223 0 -6.39941 2.86719 -6.39941 6.40039s2.86719 6.40039 6.39941 6.40039zM294.4 102.4c3.53223 0 6.39941 -2.86719 6.39941 -6.40039s-2.86719 -6.40039 -6.39941 -6.40039c-3.5332 0 -6.40039 2.86719 -6.40039 6.40039s2.86719 6.40039 6.40039 6.40039z
M382.125 74.9248l27.4746 -27.4746l27.4756 27.4746l9.0498 -9.0498l-27.4746 -27.4746l27.4746 -27.4756l-9.0498 -9.0498l-27.4756 27.4746l-27.4746 -27.4746l-9.0498 9.0498l27.4746 27.4756l-27.4746 27.4746z" />
    <glyph glyph-name="synchronize" unicode="&#xf156;" 
d="M256 396.8c66.96 0 126.44 -32.2402 163.84 -82.04v61.5605c-0.0800781 5.63965 4.44043 10.2793 10.0801 10.3994c2.75977 0.0400391 5.44043 -1.04004 7.40039 -3s3.04004 -4.63965 3 -7.39941v-102.4h-102.4c-3.67969 -0.0400391 -7.12012 1.87988 -9 5.08008
c-1.83984 3.2002 -1.83984 7.12012 0 10.3203c1.87988 3.19922 5.32031 5.12012 9 5.08008h71.2402c-33.0801 49.3594 -89.2002 81.9199 -153.16 81.9199c-101.92 0 -184.32 -82.4004 -184.32 -184.32c0.0400391 -3.67969 -1.87988 -7.12012 -5.08008 -9
c-3.19922 -1.83984 -7.11914 -1.83984 -10.3193 0c-3.2002 1.87988 -5.12012 5.32031 -5.08008 9c0 113 91.7998 204.8 204.8 204.8zM450.4 202.4c2.75977 0.0400391 5.43945 -1.04004 7.39941 -3s3.04004 -4.64062 3 -7.40039c0 -113 -91.7998 -204.8 -204.8 -204.8
c-66.96 0 -126.48 32.2803 -163.84 82.0801v-61.6006c0.0400391 -3.67969 -1.87988 -7.12012 -5.08008 -9c-3.2002 -1.83984 -7.12012 -1.83984 -10.3203 0c-3.2002 1.87988 -5.12012 5.32031 -5.08008 9v102.4h10.8398c1.32031 0.240234 2.64062 0.240234 3.96094 0
h87.5996c3.67969 0.0400391 7.12012 -1.91992 9 -5.08008c1.83984 -3.2002 1.83984 -7.16016 0 -10.3604c-1.87988 -3.15918 -5.32031 -5.12012 -9 -5.04004h-71.2402c33.04 -49.3594 89.2002 -81.9199 153.16 -81.9199c101.92 0 184.32 82.4004 184.32 184.32
c-0.0800781 5.63965 4.43945 10.2803 10.0801 10.4004z" />
    <glyph glyph-name="copy-file-2" unicode="&#xf1d6;" 
d="M194.56 448h188.48l128.96 -128.96v-301.12h-174.08v20.4805h153.6v266.239h-122.88v122.88h-153.6v-61.4395l-20.4805 20.4795v61.4404zM389.12 413.12v-88h88zM0 366.08h188.48l3.19922 -2.87988l122.88 -122.88l2.88086 -3.2002v-301.12h-317.44v430.08z
M20.4805 345.6v-389.119h276.479v266.239h-122.88v122.88h-153.6zM194.56 330.88v-87.6797h87.6807z" />
    <glyph glyph-name="select-all" unicode="&#xf249;" 
d="M491.52 448c11.3203 0 20.4805 -9.16016 20.4805 -20.4805v-471.039c0 -11.3203 -9.16016 -20.4805 -20.4805 -20.4805h-471.039c-11.3203 0 -20.4805 9.16016 -20.4805 20.4805v471.039c0 11.3203 9.16016 20.4805 20.4805 20.4805h471.039zM133.12 417.28v-20.4805
h102.399v20.4805h-102.399zM133.12 243.2v-20.4805h204.8v20.4805h-204.8zM133.12 79.3604v-20.4805h204.8v20.4805h-204.8zM30.7197 314.88v-102.399h20.4805v102.399h-20.4805zM30.7197 171.52v-102.399h20.4805v102.399h-20.4805zM92.1602 -33.2803v20.4805h-40.96v40.96
h-20.4805v-61.4404h61.4404zM92.1602 396.8v20.4805h-61.4404v-61.4404h20.4805v40.96h40.96zM235.52 -33.2803v20.4805h-102.399v-20.4805h102.399zM378.88 -33.2803v20.4805h-102.399v-20.4805h102.399zM378.88 140.8v20.4805h-245.76v-20.4805h245.76zM378.88 304.64
v20.4805h-245.76v-20.4805h245.76zM378.88 396.8v20.4805h-102.399v-20.4805h102.399zM481.28 -33.2803v61.4404h-20.4805v-40.96h-40.96v-20.4805h61.4404zM481.28 69.1201v102.399h-20.4805v-102.399h20.4805zM481.28 212.48v102.399h-20.4805v-102.399h20.4805z
M481.28 355.84v61.4404h-61.4404v-20.4805h40.96v-40.96h20.4805z" />
    <glyph glyph-name="whatsapp" unicode="&#xf145;" 
d="M256 407.04c57.4004 -0.0400391 111.48 -22.4805 152 -63.04s63.0801 -94.6797 63.04 -152c-0.0400391 -118.36 -96.6797 -214.72 -215.04 -214.72c-34.4805 0 -68.1602 8.55957 -98.5596 24.3193l-104.96 -27.5195
c-3.52051 -0.919922 -7.24023 0.120117 -9.80078 2.67969c-2.55957 2.56055 -3.59961 6.28027 -2.67969 9.7998l27.8398 102.721c-17.2402 31.5195 -26.5596 66.8398 -26.5596 103.04c0.0400391 118.359 96.3594 214.72 214.72 214.72zM256 386.56
c-107.24 0 -194.2 -87 -194.24 -194.239c0 -34.2803 8.91992 -67.8008 25.9199 -97.2803c1.32031 -2.32031 1.64062 -5.08008 0.959961 -7.67969l-24.3193 -88.96l91.1992 24c2.60059 0.679688 5.36035 0.359375 7.68066 -0.959961
c28.3994 -15.4805 60.2402 -23.6807 92.7998 -23.6807c107.24 0 194.52 87 194.56 194.24c0 52 -20.1992 100.8 -56.96 137.6c-36.7598 36.8008 -85.5195 56.96 -137.6 56.96zM183.68 296.96c3.48047 0 6.95996 -0.160156 10.2402 -0.320312
c-0.120117 0 4.32031 0.760742 9.28027 -1.59961s8.59961 -7.16016 11.2002 -13.4404c2.15918 -5.19922 5.71973 -13.8799 8.95996 -21.7598c1.63965 -3.91992 3.2793 -7.71973 4.47949 -10.5596c1.12012 -2.68066 1.95996 -4.83984 1.91992 -4.7998
c0 0 0 -0.360352 0 -0.320312c1.83984 -3.83984 3.95996 -11.2803 0.640625 -17.9199c-1.56055 -3.12012 -3.32031 -6.60059 -6.7207 -10.5605v-0.319336c-2.12012 -2.48047 -4.75977 -5.60059 -7.67969 -8.64062c3.12012 -5.31934 12 -19.8398 25.2803 -31.6797
c9.08008 -8.12012 17.3994 -13.4404 24 -16.96c6.51953 -3.48047 10.8398 -4.7998 14.7197 -6.71973c0.0800781 -0.0400391 0.240234 0.0400391 0.320312 0c3.55957 4.12012 11.9199 14.3594 14.0801 17.5996c2.71973 4.08008 7.7998 7.75977 12.7998 8.32031
c5 0.55957 8.28027 -0.640625 10.8799 -1.60059c4.32031 -1.55957 10.6797 -4.67969 18.2402 -8.31934c7.55957 -3.64062 14.9199 -7.64062 17.5996 -8.95996c4.71973 -2.36035 9.59961 -2.16016 14.0801 -9.60059c2.2002 -3.63965 2.08008 -5.47949 2.24023 -7.67969
s-0.0800781 -4.44043 -0.320312 -7.04004c-0.439453 -5.24023 -1.71973 -11.7197 -4.16016 -18.5605c-3.55957 -9.91992 -11.2793 -16.0391 -19.2002 -21.1191c-7.91992 -5.08008 -15.7998 -8.80078 -23.3594 -9.91992
c-9.64062 -1.44043 -22.5605 -1.96094 -36.7998 2.55957c-7.52051 2.40039 -17.4404 5.75977 -30.0801 11.2002c-27.5605 11.9199 -49.5605 31.2402 -65.2803 48c-7.83984 8.35938 -14.0801 16.2002 -18.5596 22.0801c-4.48047 5.87988 -8.04004 10.7197 -7.68066 10.2393
c-2.39941 3.2002 -23.04 29.0801 -23.04 59.2002c0 28.7598 17.04 45.4805 20.7998 49.6006c6.84082 7.43945 15.1602 9.59961 21.1201 9.59961zM183.68 276.48c-0.839844 0 -3.51953 -0.400391 -6.08008 -3.2002c-5.59961 -6.12012 -15.3594 -13.96 -15.3594 -35.5205
c0 -20.2002 16.1602 -43.0801 18.8799 -46.7197c1.63965 -2.2002 3.55957 -5.12012 7.67969 -10.5596c4.12012 -5.44043 9.71973 -12.4404 16.96 -20.1602c14.5205 -15.4805 34.8398 -32.96 58.5605 -43.2002c11.7998 -5.08008 20.8398 -8.24023 28.1602 -10.5605
c10.2793 -3.2793 19.8398 -2.7998 27.8398 -1.59961c2.2793 0.320312 9.51953 3 15.3594 6.71973c5.83984 3.7207 10.1602 8.87988 10.8799 10.8799c1.80078 5.08008 2.9209 9.7207 3.2002 13.1201c0.0800781 1 0.0400391 1.60059 0 2.24023
c-0.439453 0.0400391 -1.75977 0.719727 -4.7998 2.24023c-2.44043 1.24023 -10.1602 5.04004 -17.5996 8.63965c-7.44043 3.60059 -15.96 7.56055 -16.3203 7.68066c-0.879883 0.319336 -0.280273 0.239258 -0.639648 0.319336c-4.7207 -6.75977 -13 -16.7197 -16 -20.1602
c-2.48047 -2.83984 -6.48047 -5.83984 -11.2002 -6.39941c-4.71973 -0.560547 -8.68066 0.799805 -12.1602 2.55957c-1.2002 0.600586 -7.55957 3.2002 -15.3604 7.36035c-7.7998 4.16016 -17.3994 10.2002 -27.8398 19.5195
c-16.6396 14.8398 -27.1602 32.5205 -30.3994 38.0801c-2.56055 4.40039 -3.56055 10.3203 -1.9209 14.7207c1.64062 4.39941 4.44043 6.67969 5.76074 8c1.35938 1.35938 4.2002 5 7.04004 8.31934c1.63965 1.91992 1.63965 3.2002 3.19922 6.40039
c-0.799805 1.63965 -1.35938 3.16016 -2.55957 6.08008s-2.83984 6.59961 -4.47949 10.5596c-3.24023 7.91992 -6.84082 17.04 -8.96094 22.0801c-0.599609 1.44043 -1.03906 1.83984 -1.2793 2.24023c-0.400391 0 -0.480469 -0.0400391 -1.28027 0
c-2.67969 0.120117 -5.95996 0.320312 -9.28027 0.320312z" />
    <glyph glyph-name="add-new" unicode="&#xf17f;" 
d="M61.4404 417.28h389.119c16.8408 0 30.7207 -13.8799 30.7207 -30.7207v-389.119c0 -16.8408 -13.8799 -30.7207 -30.7207 -30.7207h-389.119c-16.8408 0 -30.7207 13.8799 -30.7207 30.7207v389.119c0 16.8408 13.8799 30.7207 30.7207 30.7207zM61.4404 396.8
c-5.68066 0 -10.2402 -4.55957 -10.2402 -10.2402v-389.119c0 -5.68066 4.55957 -10.2402 10.2402 -10.2402h389.119c5.68066 0 10.2402 4.55957 10.2402 10.2402v389.119c0 5.68066 -4.55957 10.2402 -10.2402 10.2402h-389.119zM245.76 325.12h20.4805v-122.88h122.88
v-20.4805h-122.88v-122.88h-20.4805v122.88h-122.88v20.4805h122.88v122.88z" />
    <glyph glyph-name="page-overview-4" unicode="&#xf125;" 
d="M51.2002 396.8h81.9199v-81.9199h-81.9199v81.9199zM174.08 386.56h276.479v-20.4795h-276.479v20.4795zM71.6797 376.32v-40.96h40.96v40.96h-40.96zM174.08 345.6h235.52v-20.4795h-235.52v20.4795zM51.2002 232.96h81.9199v-81.9199h-81.9199v81.9199zM174.08 222.72
h276.479v-20.4795h-276.479v20.4795zM71.6797 212.48v-40.9609h40.96v40.9609h-40.96zM174.08 181.76h235.52v-20.4795h-235.52v20.4795zM51.2002 69.1201h81.9199v-81.9199h-81.9199v81.9199zM174.08 58.8799h276.479v-20.4795h-276.479v20.4795zM71.6797 48.6396v-40.96
h40.96v40.96h-40.96zM174.08 17.9199h235.52v-20.4795h-235.52v20.4795z" />
    <glyph glyph-name="columns" unicode="&#xf147;" 
d="M30.7197 427.52h450.561c5.63965 0 10.2393 -4.55957 10.2393 -10.2393v-450.561c0 -5.67969 -4.59961 -10.2393 -10.2393 -10.2393h-450.561c-5.63965 0 -10.2393 4.55957 -10.2393 10.2393v450.561c0 5.67969 4.59961 10.2393 10.2393 10.2393zM40.96 407.04v-430.08
h204.8v430.08h-204.8zM266.24 407.04v-430.08h204.8v430.08h-204.8z" />
    <glyph glyph-name="right-pointing-arrow" unicode="&#xf1fd;" 
d="M305.6 313.92h0.959961c3.12012 0.240234 6.2002 -0.919922 8.32031 -3.2002l111.68 -111.359l7.04004 -7.36035l-7.04004 -7.36035l-111.68 -111.359c-2.47949 -3.04004 -6.43945 -4.44043 -10.2803 -3.56055c-3.7998 0.879883 -6.7998 3.87988 -7.67969 7.68066
c-0.879883 3.83984 0.520508 7.7998 3.56055 10.2793l94.0791 94.0801h-302.399c-5.64062 -0.279297 -10.4404 4.12012 -10.7197 9.75977c-0.280273 5.64062 4.11914 10.4404 9.75977 10.7207h0.959961h302.399l-94.0791 94.0801
c-2.84082 2.63965 -3.96094 6.63965 -2.88086 10.3994c1.08008 3.7207 4.16016 6.52051 8 7.2002z" />
    <glyph glyph-name="add-tag" unicode="&#xf181;" 
d="M293.12 427.52c3.47949 0.0400391 6.91992 0 10.2402 0h152.319c19.6807 0 35.8398 -16.1592 35.8398 -35.8398v-152.319c0 -6.80078 0.280273 -13.7607 -0.639648 -20.8008s-3.36035 -14.8799 -9.28027 -20.7998l-47.3594 -47.3594
c33.7598 -16.7607 57.2793 -51.3604 57.2793 -91.5205c0 -56.4395 -45.96 -102.399 -102.399 -102.399c-40.2002 0 -75.0801 23.4395 -91.8398 57.2793l-48.3203 -48.6396l-0.320312 -0.320312c-11.5195 -11.1602 -30.2393 -11.04 -41.5996 0.320312l-177.92 177.92
c-11.4805 11.4795 -11.4805 30.4404 0 41.9199l232.64 232.64c5.95996 5.95996 13.7207 8.36035 20.7998 9.28027c3.56055 0.44043 7.08008 0.600586 10.5605 0.639648zM293.44 407.04c-3 -0.0800781 -5.64062 -0.320312 -8 -0.639648
c-4.7207 -0.600586 -7.36035 -1.60059 -8.95996 -3.2002l-232.961 -232.641c-3.63965 -3.63965 -3.63965 -9.47949 0 -13.1191l1.28027 -0.959961l176.641 -176.961c3.63965 -3.63965 9.47949 -3.63965 13.1191 0l55.04 55.3604
c-1.87988 7.71973 -2.87988 15.7197 -2.87988 24c0 56.4404 45.96 102.4 102.4 102.4c8.28027 0 16.2803 -1 24 -2.87988l54.0801 54.0801c1.63965 1.63965 2.59961 3.95996 3.2002 8.63965c0.599609 4.67969 0.639648 11.1201 0.639648 18.2402v152.319
c0 8.64062 -6.75977 15.3604 -15.3604 15.3604h-152.319c-3.48047 0 -6.91992 0.0800781 -9.91992 0zM399.36 376.32c22.5195 0 40.96 -18.4404 40.96 -40.96c0 -22.5205 -18.4404 -40.96 -40.96 -40.96c-22.5205 0 -40.96 18.4395 -40.96 40.96
c0 22.5195 18.4395 40.96 40.96 40.96zM399.36 355.84c-11.4404 0 -20.4805 -9.04004 -20.4805 -20.4795c0 -11.4404 9.04004 -20.4805 20.4805 -20.4805c11.4395 0 20.4795 9.04004 20.4795 20.4805c0 11.4395 -9.04004 20.4795 -20.4795 20.4795zM389.12 140.8
c-45.3604 0 -81.9199 -36.5596 -81.9199 -81.9199s36.5596 -81.9199 81.9199 -81.9199s81.9199 36.5596 81.9199 81.9199s-36.5596 81.9199 -81.9199 81.9199zM378.88 110.08h20.4805v-40.96h40.96v-20.4805h-40.96v-40.96h-20.4805v40.96h-40.96v20.4805h40.96v40.96z" />
    <glyph glyph-name="course-2" unicode="&#xf24e;" 
d="M52.2402 417.28h100.359c11.8408 0 21.4805 -9.64062 21.4805 -21.5205v-408.56c0 -11.3203 -9.16016 -20.4805 -20.4805 -20.4805h-101.359c-11.8799 0 -21.5205 9.64062 -21.5205 21.4805v407.56c0 11.8799 9.64062 21.5205 21.5205 21.5205zM359.4 417.28h100.399
c11.8398 0 21.4805 -9.64062 21.4805 -21.5205v-408.56c0 -11.3203 -9.16016 -20.4805 -20.4805 -20.4805h-102.399c-11.3203 0 -20.4805 9.16016 -20.4805 20.4805v408.56c0 11.8799 9.63965 21.5205 21.4805 21.5205zM61.4404 335.36
c-5.68066 0 -10.2402 -4.60059 -10.2402 -10.2402s4.55957 -10.2402 10.2402 -10.2402h81.9199c5.67969 0 10.2393 4.60059 10.2393 10.2402s-4.55957 10.2402 -10.2393 10.2402h-81.9199zM368.64 335.36c-5.67969 0 -10.2393 -4.60059 -10.2393 -10.2402
s4.55957 -10.2402 10.2393 -10.2402h81.9199c5.68066 0 10.2402 4.60059 10.2402 10.2402s-4.55957 10.2402 -10.2402 10.2402h-81.9199zM204.8 325.12h102.4c11.3193 0 20.4795 -9.16016 20.4795 -20.4805v-317.439c0 -11.3203 -9.16016 -20.4805 -20.4795 -20.4805h-102.4
c-11.3193 0 -20.4795 9.16016 -20.4795 20.4805v317.439c0 11.3203 9.16016 20.4805 20.4795 20.4805zM215.04 243.2c-5.67969 0 -10.2402 -4.60059 -10.2402 -10.2402s4.56055 -10.2402 10.2402 -10.2402h81.9199c5.67969 0 10.2402 4.60059 10.2402 10.2402
s-4.56055 10.2402 -10.2402 10.2402h-81.9199zM61.4404 99.8398c-5.68066 0 -10.2402 -4.59961 -10.2402 -10.2402c0 -5.63965 4.55957 -10.2393 10.2402 -10.2393h81.9199c5.67969 0 10.2393 4.59961 10.2393 10.2393c0 5.64062 -4.55957 10.2402 -10.2393 10.2402
h-81.9199zM368.64 99.8398c-5.67969 0 -10.2393 -4.59961 -10.2393 -10.2402c0 -5.63965 4.55957 -10.2393 10.2393 -10.2393h81.9199c5.68066 0 10.2402 4.59961 10.2402 10.2393c0 5.64062 -4.55957 10.2402 -10.2402 10.2402h-81.9199zM61.4404 58.8799
c-5.68066 0 -10.2402 -4.59961 -10.2402 -10.2402c0 -5.63965 4.55957 -10.2393 10.2402 -10.2393h81.9199c5.67969 0 10.2393 4.59961 10.2393 10.2393c0 5.64062 -4.55957 10.2402 -10.2393 10.2402h-81.9199zM368.64 58.8799
c-5.67969 0 -10.2393 -4.59961 -10.2393 -10.2402c0 -5.63965 4.55957 -10.2393 10.2393 -10.2393h81.9199c5.68066 0 10.2402 4.59961 10.2402 10.2393c0 5.64062 -4.55957 10.2402 -10.2402 10.2402h-81.9199zM215.04 48.6396
c-5.67969 0 -10.2402 -4.59961 -10.2402 -10.2393c0 -5.64062 4.56055 -10.2402 10.2402 -10.2402h81.9199c5.67969 0 10.2402 4.59961 10.2402 10.2402c0 5.63965 -4.56055 10.2393 -10.2402 10.2393h-81.9199z" />
    <glyph glyph-name="add-folder-2" unicode="&#xf1d3;" 
d="M51.2002 407.04h92.1602c13.4854 0 21.626 -12.9863 29.4795 -25.5205c3.1748 -5.05859 9.08301 -14.4648 11.9404 -15.5l276.02 0.0605469c16.9375 0 30.7197 -13.7832 30.7197 -30.7197v-20.4805h-10.2393h-450.561h-10.2393v61.4404
c0 16.9365 13.7822 30.7197 30.7197 30.7197zM30.7197 294.4h450.561c5.6416 0 10.2393 -4.58789 10.2393 -10.2402v-184.7c12.7891 -17.0898 20.4805 -38.1982 20.4805 -61.0596c0 -56.3203 -46.0801 -102.4 -102.4 -102.4c-33.2891 0 -62.9062 16.1631 -81.6396 40.96
h-276.76c-16.9375 0 -30.7197 13.7832 -30.7197 30.7197v276.48c0 5.65234 4.59766 10.2402 10.2393 10.2402zM409.6 120.32c-45.0557 0 -81.9199 -36.8643 -81.9199 -81.9199c0 -45.0566 36.8643 -81.9199 81.9199 -81.9199c45.0566 0 81.9199 36.8633 81.9199 81.9199
c0 45.0557 -36.8633 81.9199 -81.9199 81.9199zM409.6 98.8203c6.14453 0 10.2402 -4.09668 10.2402 -10.2402v-39.9404h39.9404c6.14355 0 10.2393 -4.0957 10.2393 -10.2393c0 -6.14453 -4.0957 -10.2402 -10.2393 -10.2402h-39.9404v-39.9404
c0 -6.14355 -4.0957 -10.2393 -10.2402 -10.2393c-6.14355 0 -10.2393 4.0957 -10.2393 10.2393v39.9404h-39.9404c-6.14355 0 -10.2402 4.0957 -10.2402 10.2402c0 6.14355 4.09668 10.2393 10.2402 10.2393h39.9404v39.9404c0 6.14355 4.0957 10.2402 10.2393 10.2402z
" />
    <glyph glyph-name="marker-off" unicode="&#xf1a4;" 
d="M256 403.2c81.165 0 147.2 -66.0293 147.2 -147.2c0 -19.9756 -8.76172 -46.8027 -21.8877 -75.8496l70.2373 -46.8252c1.62012 -1.04395 2.93457 -3.4541 2.93457 -5.38086c0 -3.5332 -2.86816 -6.40039 -6.40039 -6.40039
c-1.10059 0 -2.72852 0.506836 -3.63379 1.13086l-384 256c-1.61426 1.04395 -2.9248 3.45215 -2.9248 5.375c0 3.53223 2.86816 6.40039 6.40039 6.40039h0.0117188c1.09277 -0.00195312 2.71191 -0.505859 3.6123 -1.125l69.75 -46.5
c26.8066 36.5508 69.9961 60.375 118.7 60.375zM256 390.4c-44.2676 0 -83.4414 -21.6201 -107.925 -54.75l74.6494 -49.7754c8.19824 9.14355 20.0557 14.9248 33.2754 14.9248c24.7041 0 44.7998 -20.1025 44.7998 -44.7998c0 -6.89258 -1.57422 -13.416 -4.375 -19.25
l74.1504 -49.4375c11.9551 26.626 19.8252 50.8877 19.8252 68.6875c0 74.1055 -60.2881 134.4 -134.4 134.4zM256 377.6c3.5332 0 6.40039 -2.86719 6.40039 -6.39941c0 -3.5332 -2.86719 -6.40039 -6.40039 -6.40039s-6.40039 2.86719 -6.40039 6.40039
c0 3.53223 2.86719 6.39941 6.40039 6.39941zM225.787 373.675c0.0878906 0.00488281 0.231445 0.0078125 0.319336 0.0078125s0.230469 -0.00292969 0.318359 -0.0078125c2.60254 -0.0986328 5.2627 -2.22168 5.9375 -4.7373
c0.12207 -0.451172 0.220703 -1.19727 0.220703 -1.66406c0 -2.71777 -2.13184 -5.48828 -4.75781 -6.18555c-0.449219 -0.121094 -1.19141 -0.21875 -1.65625 -0.21875c-2.70996 0 -5.47949 2.125 -6.18164 4.74316c-0.12207 0.452148 -0.220703 1.19922 -0.220703 1.66797
c0 2.71191 2.12598 5.48145 4.74609 6.18262c0.345703 0.09375 0.916992 0.189453 1.27441 0.211914zM285.763 373.662h0.0302734c0.472656 0 1.22559 -0.100586 1.68164 -0.224609c2.61816 -0.702148 4.74316 -3.47168 4.74316 -6.18164
c0 -0.464844 -0.0976562 -1.20703 -0.217773 -1.65625c-0.702148 -2.61719 -3.47168 -4.74219 -6.18164 -4.74219c-0.464844 0 -1.20703 0.0976562 -1.65625 0.217773c-2.61719 0.701172 -4.74219 3.4707 -4.74219 6.18164c0 0.464844 0.0976562 1.20703 0.217773 1.65527
c0.692383 2.59766 3.43652 4.72559 6.125 4.75zM198.237 362.162l0.15625 0.00195312c2.04102 0 4.52441 -1.43457 5.54395 -3.20117c0.473633 -0.820312 0.858398 -2.25488 0.858398 -3.20312c0 -2.04297 -1.4375 -4.52832 -3.20801 -5.54688
c-0.818359 -0.47168 -2.24902 -0.853516 -3.19336 -0.853516c-2.04102 0 -4.52539 1.43457 -5.54492 3.20312c-0.472656 0.819336 -0.856445 2.25195 -0.856445 3.19824c0 2.03711 1.43164 4.51855 3.19434 5.53906c0.78125 0.453125 2.14746 0.839844 3.0498 0.862305z
M313.287 362.15c0.0869141 0.00390625 0.226562 0.00683594 0.3125 0.00683594c0.947266 0 2.38086 -0.383789 3.2002 -0.857422c1.7666 -1.01953 3.19922 -3.50293 3.19922 -5.54199c0 -0.949219 -0.385742 -2.38672 -0.861328 -3.20801
c-1.02051 -1.7627 -3.50195 -3.19336 -5.53906 -3.19336c-0.946289 0 -2.37891 0.382812 -3.19824 0.856445c-1.76855 1.01953 -3.2041 3.50293 -3.2041 5.54395c0 0.944336 0.382812 2.375 0.853516 3.19336c0.962891 1.67285 3.30957 3.10645 5.2373 3.2002z
M174.638 343.862c1.43066 -0.0224609 3.41309 -0.862305 4.4248 -1.875c1.03418 -1.03418 1.87402 -3.06152 1.87402 -4.52441c0 -1.46387 -0.839844 -3.49023 -1.87402 -4.52539c-1.03516 -1.03418 -3.06152 -1.87402 -4.52539 -1.87402
c-1.46289 0 -3.49023 0.839844 -4.52441 1.87402c-1.03418 1.03516 -1.87402 3.06152 -1.87402 4.52539c0 1.46289 0.839844 3.49023 1.87402 4.52441c1.03418 1.03516 3.0625 1.87598 4.52637 1.87598zM337.537 343.862
c1.43555 -0.0195312 3.42383 -0.859375 4.4375 -1.875c1.03516 -1.03418 1.87402 -3.06152 1.87402 -4.52441c0 -1.46387 -0.838867 -3.49023 -1.87402 -4.52539c-1.03418 -1.03418 -3.06152 -1.87402 -4.52441 -1.87402s-3.49023 0.839844 -4.52539 1.87402
c-1.03418 1.03516 -1.87402 3.06152 -1.87402 4.52539c0 1.46289 0.839844 3.49023 1.87402 4.52441c1.03516 1.03516 3.0625 1.87598 4.52637 1.87598zM124.438 321.912l10.8379 -7.22461c-8.67285 -17.7598 -13.6758 -37.625 -13.6758 -58.6875
c0 -66.4893 109.165 -222.675 134.4 -257.888c16.6211 23.1934 69.6406 98.8701 103.912 166.825l10.7002 -7.1377c-40.6914 -80.6465 -105.501 -169.018 -109.462 -174.399l-5.15039 -6.98828l-5.15039 6.98828c-5.79785 7.87793 -142.05 193.643 -142.05 272.6
c0 23.6865 5.65332 46.0664 15.6377 65.9121zM355.6 320l0.144531 0.00195312c2.04004 0 4.52344 -1.43457 5.54297 -3.20215c0.473633 -0.819336 0.856445 -2.25195 0.856445 -3.19824c0 -2.03711 -1.43066 -4.51855 -3.19336 -5.53906
c-0.819336 -0.472656 -2.25293 -0.856445 -3.19824 -0.856445c-2.03711 0 -4.51855 1.43066 -5.53906 3.19434c-0.476562 0.821289 -0.862305 2.25781 -0.862305 3.20703c0 2.04004 1.43359 4.52246 3.19922 5.54297c0.782227 0.449219 2.14844 0.830078 3.0498 0.849609z
M367.513 292.213c2.60254 -0.0996094 5.2627 -2.22168 5.9375 -4.73828c0.120117 -0.448242 0.217773 -1.19043 0.217773 -1.65527c0 -2.71094 -2.125 -5.48047 -4.74316 -6.18164c-0.452148 -0.12207 -1.19922 -0.22168 -1.66699 -0.22168
c-2.71191 0 -5.48242 2.12695 -6.18262 4.74609c-0.120117 0.448242 -0.216797 1.18945 -0.216797 1.65332c0 2.71582 2.12988 5.48633 4.75391 6.18457c0.448242 0.120117 1.18945 0.216797 1.65332 0.216797zM144.662 292.2h0.0761719
c0.458984 0 1.19238 -0.0947266 1.63672 -0.212891c2.61816 -0.701172 4.74316 -3.4707 4.74316 -6.18164c0 -0.464844 -0.0976562 -1.20703 -0.217773 -1.65527c-0.702148 -2.61816 -3.47168 -4.74316 -6.18262 -4.74316c-0.464844 0 -1.20605 0.0976562 -1.65527 0.217773
c-2.61816 0.702148 -4.74316 3.47168 -4.74316 6.18164c0 0.464844 0.0976562 1.20703 0.217773 1.65625c0.697266 2.5918 3.44141 4.71387 6.125 4.7373zM256 288c-8.7666 0 -16.6523 -3.60742 -22.4248 -9.34961l52.0244 -34.6875
c1.53711 3.71289 2.40039 7.77148 2.40039 12.0371c0 17.6445 -14.3555 32 -32 32zM211.9 263.612l12.1494 -8.09961c0.268555 -17.4082 14.4717 -31.5127 31.9502 -31.5127c4.18555 0 8.1582 0.859375 11.8252 2.3252l12.1494 -8.10059
c-6.94336 -4.42188 -15.1494 -7.02441 -23.9746 -7.02441c-24.7041 0 -44.7998 20.1025 -44.7998 44.7998c0 2.59863 0.270508 5.13574 0.700195 7.6123zM140.8 262.4c3.5332 0 6.40039 -2.86719 6.40039 -6.40039s-2.86719 -6.40039 -6.40039 -6.40039
c-3.53223 0 -6.39941 2.86719 -6.39941 6.40039s2.86719 6.40039 6.39941 6.40039zM371.2 262.4c3.53223 0 6.39941 -2.86719 6.39941 -6.40039s-2.86719 -6.40039 -6.39941 -6.40039c-3.5332 0 -6.40039 2.86719 -6.40039 6.40039s2.86719 6.40039 6.40039 6.40039z
M144.963 232.575c2.60254 -0.0996094 5.2627 -2.22168 5.9375 -4.7373c0.120117 -0.449219 0.217773 -1.19141 0.217773 -1.65625c0 -2.70996 -2.125 -5.47949 -4.74316 -6.18164c-0.449219 -0.120117 -1.19043 -0.217773 -1.65527 -0.217773
c-2.71094 0 -5.48047 2.125 -6.18262 4.74316c-0.120117 0.448242 -0.217773 1.19043 -0.217773 1.65527c0 2.71094 2.125 5.48047 4.74316 6.18164c0.448242 0.120117 1.18945 0.217773 1.65332 0.217773c0.0683594 0 0.178711 -0.00195312 0.24707 -0.00488281z
M367.213 232.562h0.0751953c0.458984 0 1.19238 -0.0947266 1.63672 -0.212891c2.61816 -0.701172 4.74316 -3.4707 4.74316 -6.18164c0 -0.464844 -0.0976562 -1.20605 -0.217773 -1.65527c-0.702148 -2.61816 -3.47168 -4.74316 -6.18164 -4.74316
c-0.464844 0 -1.20703 0.0976562 -1.65625 0.217773c-2.61816 0.702148 -4.74316 3.47168 -4.74316 6.18164c0 0.464844 0.0976562 1.20703 0.21875 1.65625c0.696289 2.5918 3.44043 4.71387 6.125 4.7373z" />
    <glyph glyph-name="reuse" unicode="&#xf151;" 
d="M378.88 386.56c28.1602 0 51.2002 -23.04 51.2002 -51.1992c0 -28.1602 -23.04 -51.2002 -51.2002 -51.2002s-51.2002 23.04 -51.2002 51.2002c0 28.1592 23.04 51.1992 51.2002 51.1992zM238.08 385.6c27.0801 1.52051 53.5996 -13.96 65.2803 -40l52.7998 -122.88
h84.1602c5.63965 0 10.2393 -4.59961 10.2393 -10.2393v-30.7207c0.0800781 -0.639648 0.0800781 -1.2793 0 -1.91992l-27.8398 -156.479v-0.320312c-2.87988 -14.4805 -15.3994 -25.5996 -30.3994 -25.5996h-67.8398c-15 0 -27.5205 11.1191 -30.4004 25.5996v0.320312
l-27.8398 156.479c-0.0800781 0.640625 -0.0800781 1.28027 0 1.91992v30.7207c-0.0400391 5.31934 4 9.75977 9.2793 10.2393h0.960938h12.1592l-27.1992 60.4805l-79.04 -41.6006c1.08008 -6.63965 8.2793 -50.3594 16.6396 -100.8
c4.47949 -27.0801 8.7998 -54.1602 12.1602 -74.5596c1.67969 -10.2002 3.16016 -18.6406 4.16016 -24.6406c0.479492 -3 1 -5.39941 1.2793 -7.04004c0.120117 -0.839844 0.240234 -1.43945 0.320312 -1.91992c0.0400391 -0.239258 -0.0400391 -0.439453 0 -0.639648
v-0.320312v-0.639648c0.0400391 -0.320312 0 -0.639648 0 -0.959961c0.400391 -9.67969 -2.87988 -18.6396 -8.95996 -24.3203c-6.28027 -5.87988 -14.5996 -8.31934 -22.7197 -8.31934c-7.7998 0 -15.3203 2.71973 -20.7998 8
c-5.48047 5.2793 -8.7207 12.5195 -10.5605 20.4795l-24.3203 112.96l-15.04 -110.399v-0.640625h-0.319336c-0.799805 -8.28027 -3.40039 -16.2002 -8.95996 -21.7598c-5.7207 -5.71973 -14 -8.63965 -22.4004 -8.63965c-16.8398 0 -31.6797 13.7197 -31.6797 31.6797
v1.59961c0.0400391 0.480469 0.240234 1.12012 0.319336 1.91992c0.120117 1.60059 0.400391 3.87988 0.640625 6.7207c0.519531 5.67969 1.04004 13.7197 1.91992 23.3594c1.75977 19.3203 4.28027 45.2002 6.71973 72c4.87988 53.6406 9.87988 111.12 10.8799 126.4
v0.320312c2.28027 34.1191 22.3203 52.4395 43.5205 66.2393h0.319336c11.5205 6.91992 56.6406 31.04 95.6807 50.5605c0.0800781 0.0400391 0.240234 -0.0400391 0.319336 0c8.60059 4.39941 17.6406 6.87988 26.5605 7.35938zM378.88 366.08
c-17.0801 0 -30.7197 -13.6396 -30.7197 -30.7197s13.6396 -30.7207 30.7197 -30.7207s30.7197 13.6406 30.7197 30.7207s-13.6396 30.7197 -30.7197 30.7197zM239.68 365.44c-6.23926 -0.400391 -12.7197 -2.28027 -18.8799 -5.44043
c-38.5596 -19.2803 -85.2002 -44.0801 -94.3994 -49.5996c-0.160156 -0.0800781 -0.160156 -0.240234 -0.320312 -0.320312c-19.5205 -12.7197 -32.1201 -23.1201 -33.9199 -50.2402c-1.08008 -16.4795 -6.32031 -73.3994 -11.2002 -127.04
c-2.44043 -26.8398 -4.63965 -52.6797 -6.40039 -72c-0.879883 -9.63965 -1.71973 -17.7197 -2.23926 -23.3594c-0.240234 -2.84082 -0.200195 -4.84082 -0.320312 -6.40039c-0.0800781 -0.759766 -0.280273 -1.52051 -0.320312 -1.91992
c0 -6.60059 5.52051 -11.2002 11.2002 -11.2002c3.87988 0 5.95996 1.16016 7.67969 2.87988c1.7207 1.71973 3.16016 4.56055 3.52051 9.28027l0.320312 0.320312l22.3994 168.96c0.600586 4.95996 4.68066 8.71973 9.68066 8.95996
c4.95996 0.239258 9.39941 -3.12012 10.4795 -8l36.7998 -169.92c1.24023 -5.36035 3.08008 -8.60059 4.7998 -10.2402c1.7207 -1.64062 3.28027 -2.24023 6.7207 -2.24023c4.16016 0 7.31934 1.36035 8.95996 2.87988c1.63965 1.52051 2.59961 3.32031 2.24023 8.64062
c-0.0800781 0.399414 0.119141 0.799805 0 1.59961c-0.240234 1.59961 -0.800781 4.04004 -1.28027 7.04004c-0.959961 6 -2.48047 14.7598 -4.16016 24.96c-3.36035 20.4004 -7.67969 47.4795 -12.1602 74.5596c-8.95996 54.1602 -17.9199 108.16 -17.9199 108.16
c-0.679688 4.24023 1.36035 8.48047 5.12012 10.5605l95.3604 50.2393c2.47949 1.32031 5.39941 1.52051 8.0791 0.640625c2.64062 -0.919922 4.84082 -2.87988 6 -5.44043l35.8408 -79.04h22.3994l-49.2793 114.561v0.319336
c-8.36035 18.3604 -26.04 29.0801 -44.8008 27.8408zM286.72 202.24v-10.2402h143.36v10.2402h-143.36zM288.96 171.52l25.2803 -144.319v-0.320312c1.2793 -5.7998 4.87988 -8.95996 10.2402 -8.95996h67.8398c5.35938 0 8.95996 3.16016 10.2393 8.95996
c0.0400391 0.120117 -0.0400391 0.200195 0 0.320312l25.2803 144.319h-138.88z" />
    <glyph glyph-name="search-filled" unicode="&#xf140;" 
d="M215.04 417.28c96.2402 0 174.08 -77.8398 174.08 -174.08c0 -39.7197 -13.5205 -76 -35.8398 -105.28l124.16 -123.84l-43.5205 -43.5205l-125.76 125.761c-26.96 -17.1201 -58.7598 -27.2002 -93.1201 -27.2002c-96.2402 0 -174.08 77.8398 -174.08 174.08
s77.8398 174.08 174.08 174.08zM215.04 376.32c-73.7197 0 -133.12 -59.4004 -133.12 -133.12s59.4004 -133.12 133.12 -133.12s133.12 59.4004 133.12 133.12s-59.4004 133.12 -133.12 133.12z" />
    <glyph glyph-name="menu-2-2" unicode="&#xf160;" 
d="M256 417.28c33.7998 0 61.4404 -27.6406 61.4404 -61.4404s-27.6406 -61.4395 -61.4404 -61.4395s-61.4404 27.6396 -61.4404 61.4395s27.6406 61.4404 61.4404 61.4404zM256 396.8c-22.7598 0 -40.96 -18.2002 -40.96 -40.96s18.2002 -40.96 40.96 -40.96
s40.96 18.2002 40.96 40.96s-18.2002 40.96 -40.96 40.96zM256 253.44c33.7998 0 61.4404 -27.6406 61.4404 -61.4404s-27.6406 -61.4404 -61.4404 -61.4404s-61.4404 27.6406 -61.4404 61.4404s27.6406 61.4404 61.4404 61.4404zM256 232.96
c-22.7598 0 -40.96 -18.2002 -40.96 -40.96s18.2002 -40.96 40.96 -40.96s40.96 18.2002 40.96 40.96s-18.2002 40.96 -40.96 40.96zM256 89.5996c33.7998 0 61.4404 -27.6396 61.4404 -61.4395s-27.6406 -61.4404 -61.4404 -61.4404s-61.4404 27.6406 -61.4404 61.4404
s27.6406 61.4395 61.4404 61.4395zM256 69.1201c-22.7598 0 -40.96 -18.2002 -40.96 -40.96s18.2002 -40.96 40.96 -40.96s40.96 18.2002 40.96 40.96s-18.2002 40.96 -40.96 40.96z" />
    <glyph glyph-name="whatsapp-2" unicode="&#xf21f;" 
d="M256 427.52c129.863 0 235.52 -105.656 235.52 -235.52s-105.656 -235.52 -235.52 -235.52c-38.8096 0 -77.1787 9.64551 -111.247 27.9346l-111.575 -27.6377c-0.80957 -0.195312 -1.63867 -0.296875 -2.45801 -0.296875c-2.7334 0 -5.39648 1.0957 -7.35156 3.1123
c-2.54004 2.61133 -3.49219 6.37988 -2.50977 9.8916l29.9629 106.906c-19.8662 35.1846 -30.3408 75.0586 -30.3408 115.609c0 129.863 105.656 235.52 235.52 235.52zM374.477 108.893c5.03809 13.9365 5.03809 25.8965 3.52246 28.375
c-1.51562 2.48828 -5.5498 3.9834 -11.5918 6.97266c-6.04102 2.99023 -35.7676 17.4287 -41.3184 19.415c-5.5498 1.99707 -9.58398 2.98047 -13.6084 -2.98926c-4.02441 -5.9707 -15.6162 -19.415 -19.1387 -23.4092
c-3.52246 -3.9834 -7.05566 -4.48535 -13.0967 -1.49512c-6.04199 2.99023 -25.5283 9.29785 -48.6201 29.6348c-17.9814 15.8311 -30.1152 35.3789 -33.6377 41.3594c-3.52344 5.98047 -0.378906 9.20605 2.65137 12.1855c2.72461 2.68262 6.04199 6.97363 9.07324 10.4648
c3.03125 3.49219 4.03418 5.98047 6.04102 9.96387c2.00781 3.9834 1.00391 7.47559 -0.511719 10.4658c-1.49512 3 -13.5889 32.3789 -18.627 44.3389c-4.9043 11.6533 -9.8916 10.0654 -13.6084 10.25c-3.5332 0.164062 -7.55762 0.214844 -11.5918 0.214844
s-10.5781 -1.49512 -16.1279 -7.47461c-5.5498 -5.98047 -21.166 -20.4287 -21.166 -49.8076s21.668 -57.7637 24.6885 -61.7471c3.03125 -3.9834 42.6396 -64.2871 103.291 -90.1533c14.4277 -6.1543 25.6924 -9.82031 34.4678 -12.585
c14.4795 -4.5459 27.6689 -3.89062 38.0928 -2.36523c11.6123 1.70996 35.7783 14.4385 40.8164 28.3857z" />
    <glyph glyph-name="plus-math" unicode="&#xf14d;" 
d="M245.76 355.84h20.4805v-153.6h153.6v-20.4805h-153.6v-153.6h-20.4805v153.6h-153.6v20.4805h153.6v153.6z" />
    <glyph glyph-name="descending-sorting" unicode="&#xf123;" 
d="M408.64 366.4c2.91992 0.279297 5.84082 -0.720703 8 -2.76074c2.12012 -2 3.32031 -4.83984 3.2002 -7.7998v-302.399l73.6006 73.5996c2.47949 3.04004 6.43945 4.44043 10.2793 3.55957c3.7998 -0.879883 6.7998 -3.87988 7.68066 -7.67969
c0.879883 -3.83984 -0.520508 -7.7998 -3.56055 -10.2803l-90.8799 -91.1992l-7.36035 -7.04004l-7.35938 7.04004l-90.8799 91.1992c-3 2.87988 -3.91992 7.32031 -2.40039 11.1602c1.55957 3.87988 5.28027 6.40039 9.44043 6.44043
c2.7998 -0.0400391 5.43945 -1.16016 7.35938 -3.2002l73.6006 -73.5996v302.399c-0.120117 4.87988 3.23926 9.16016 8 10.2402c0.399414 0.120117 0.839844 0.240234 1.2793 0.320312zM7.36035 366.08h0.959961h0.959961h0.959961h256
c5.63965 0 10.2402 -4.59961 10.2402 -10.2402c0 -5.63965 -4.60059 -10.2402 -10.2402 -10.2402h-256c-5.64062 -0.799805 -10.8799 3.16016 -11.6807 8.80078c-0.799805 5.63965 3.16016 10.8799 8.80078 11.6797zM7.36035 284.16h0.959961h0.959961h0.959961h184.319
c5.64062 0 10.2402 -4.60059 10.2402 -10.2402s-4.59961 -10.2402 -10.2402 -10.2402h-184.319c-5.64062 -0.799805 -10.8799 3.16016 -11.6807 8.80078c-0.799805 5.63965 3.16016 10.8799 8.80078 11.6797zM8.32031 202.24h0.959961h0.959961h143.359
c5.64062 0 10.2402 -4.60059 10.2402 -10.2402s-4.59961 -10.2402 -10.2402 -10.2402h-143.359c-5.64062 -0.519531 -10.6807 3.64062 -11.2002 9.28027c-0.520508 5.63965 3.63965 10.6797 9.28027 11.2002zM8.32031 120c0.639648 0.0800781 1.2793 0.0800781 1.91992 0
h102.399c3.95996 0.679688 7.95996 -1.04004 10.1602 -4.40039c2.2002 -3.35938 2.2002 -7.67969 0 -11.04c-2.2002 -3.35938 -6.2002 -5.0791 -10.1602 -4.39941h-102.399c-5 0.240234 -9.04004 4.12012 -9.52051 9.08008c-0.479492 5 2.76074 9.55957 7.60059 10.7598z
M8.32031 38.0801c0.639648 0.0800781 1.2793 0.0800781 1.91992 0h61.4395c3.83984 0.479492 7.60059 -1.32031 9.68066 -4.56055c2.04004 -3.2793 2.04004 -7.43945 0 -10.7197c-2.08008 -3.24023 -5.84082 -5.04004 -9.68066 -4.55957h-61.4395
c-5.24023 -0.120117 -9.64062 3.83984 -10.1602 9.04004c-0.480469 5.2002 3.08008 9.91992 8.24023 10.7998z" />
    <glyph glyph-name="add-3" unicode="&#xf20e;" 
d="M256 427.52c129.874 0 235.52 -105.646 235.52 -235.52s-105.646 -235.52 -235.52 -235.52s-235.52 105.646 -235.52 235.52s105.646 235.52 235.52 235.52zM327.68 181.76c5.66309 0 10.2402 4.57715 10.2402 10.2402s-4.57715 10.2402 -10.2402 10.2402h-61.4395
v61.4395c0 5.66309 -4.57715 10.2402 -10.2402 10.2402s-10.2402 -4.57715 -10.2402 -10.2402v-61.4395h-61.4395c-5.66309 0 -10.2402 -4.57715 -10.2402 -10.2402s4.57715 -10.2402 10.2402 -10.2402h61.4395v-61.4395c0 -5.66309 4.57715 -10.2402 10.2402 -10.2402
s10.2402 4.57715 10.2402 10.2402v61.4395h61.4395z" />
    <glyph glyph-name="add-2" unicode="&#xf20d;" 
d="M256 427.52c129.874 0 235.52 -105.646 235.52 -235.52s-105.646 -235.52 -235.52 -235.52s-235.52 105.646 -235.52 235.52s105.646 235.52 235.52 235.52zM378.88 181.76v20.4805h-112.64v112.64h-20.4805v-112.64h-112.64v-20.4805h112.64v-112.64h20.4805v112.64
h112.64z" />
    <glyph glyph-name="upload-to-the-cloud" unicode="&#xf250;" 
d="M450.44 206.92c36.1191 -12.2002 61.5596 -47.3604 61.5596 -86.5996c0 -50.8398 -41.3203 -92.1602 -92.1602 -92.1602h-307.2c-62.1201 0 -112.64 50.5195 -112.64 112.64c0 50.9199 34.04 95.2803 82.0801 108.48c3.16016 64.96 57 116.8 122.72 116.8
c41.1602 0 79.8398 -21.04 102.76 -55.3604c9.9209 2.7998 19.9209 4.16016 30.3604 4.16016c60.5205 0 110.08 -48 112.521 -107.96zM310.2 174.52l14.4795 14.4805l-68.6797 68.6797l-68.6797 -68.6797l14.4795 -14.4805l43.96 43.9609v-118.641h20.4805v118.641z" />
    <glyph glyph-name="new-copy-2" unicode="&#xf248;" 
d="M71.6797 427.52h229.521l139.12 -139.119v-152.36c41.4307 -13.1377 71.6797 -52.0107 71.6797 -97.6396c0 -56.3203 -46.0801 -102.4 -102.4 -102.4c-22.8965 0 -44.0283 7.70898 -61.1396 20.54c-0.102539 0 -0.197266 -0.0595703 -0.299805 -0.0595703h-276.48
v471.039zM307.2 392.56v-98.1592h98.1602zM143.36 232.96v-20.4795h225.279v20.4795h-225.279zM143.36 171.52v-20.4795h225.279v20.4795h-225.279zM409.6 120.32c-45.0557 0 -81.9199 -36.8643 -81.9199 -81.9199c0 -45.0566 36.8643 -81.9199 81.9199 -81.9199
c45.0566 0 81.9199 36.8633 81.9199 81.9199c0 45.0557 -36.8633 81.9199 -81.9199 81.9199zM143.36 110.08v-20.4805h112.64v20.4805h-112.64zM409.6 98.8203c6.14453 0 10.2402 -4.09668 10.2402 -10.2402v-39.9404h39.9404c6.14355 0 10.2393 -4.0957 10.2393 -10.2393
c0 -6.14453 -4.0957 -10.2402 -10.2393 -10.2402h-39.9404v-39.9404c0 -6.14355 -4.0957 -10.2393 -10.2402 -10.2393c-6.14355 0 -10.2393 4.0957 -10.2393 10.2393v39.9404h-39.9404c-6.14355 0 -10.2402 4.0957 -10.2402 10.2402
c0 6.14355 4.09668 10.2393 10.2402 10.2393h39.9404v39.9404c0 6.14355 4.0957 10.2402 10.2393 10.2402z" />
    <glyph glyph-name="easel" unicode="&#xf1b1;" 
d="M206.72 417.12c5.56055 -1.08008 9.2002 -6.44043 8.16016 -12l-9.39941 -49.2803h101.039l-9.39941 49.2803c-1.04004 5.55957 2.59961 10.9199 8.16016 12c5.63965 1 10.9199 -2.60059 12 -8.16016l10.0801 -53.1201h102.72
c5.63965 0 10.2402 -4.59961 10.2402 -10.2402v-245.76h40.96v-20.4795h-101.24l19.1602 -100.48c1.04004 -5.55957 -2.60059 -10.9199 -8.16016 -12c-0.639648 -0.120117 -1.32031 -0.160156 -1.91992 -0.160156c-4.83984 0 -9.12012 3.40039 -10.0801 8.32031
l-19.8398 104.32h-92.96v-71.6807c0.0400391 -3.67969 -1.87988 -7.12012 -5.08008 -9c-3.2002 -1.83984 -7.12012 -1.83984 -10.3203 0c-3.2002 1.87988 -5.12012 5.32031 -5.08008 9v71.6807h-92.96l-19.8398 -104.32
c-0.959961 -4.91992 -5.24023 -8.32031 -10.0801 -8.32031c-0.599609 0 -1.28027 0.0400391 -1.91992 0.160156c-5.55957 1.08008 -9.2002 6.44043 -8.16016 12l19.1602 100.48h-101.24v20.4795h40.96v245.76c0 5.64062 4.60059 10.2402 10.2402 10.2402h102.72
l10.0801 53.1201c1.08008 5.55957 6.36035 9.2002 12 8.16016zM92.1602 335.36v-235.521h162.2c0.479492 0.0800781 1 0.120117 1.47949 0.160156c0.600586 0 1.16016 -0.0800781 1.75977 -0.160156h162.24v235.521h-327.68zM148.48 304.64
c8.47949 0 15.3594 -6.87988 15.3594 -15.3594c0 -8.48047 -6.87988 -15.3604 -15.3594 -15.3604c-8.48047 0 -15.3604 6.87988 -15.3604 15.3604c0 8.47949 6.87988 15.3594 15.3604 15.3594zM295.88 274.76c3.16016 -0.0800781 6.04004 -1.55957 7.95996 -4.04004
l93.4404 -123.72c2.35938 -3.12012 2.75977 -7.28027 1 -10.7598c-1.7207 -3.48047 -5.28027 -5.68066 -9.16016 -5.68066h-266.24c-3.95996 0 -7.55957 2.28027 -9.24023 5.84082c-1.67969 3.59961 -1.19922 7.7998 1.32031 10.8799l92.1602 112.64
c2 2.44043 5.04004 3.83984 8.2002 3.75977c3.12012 -0.0800781 6.04004 -1.59961 7.91992 -4.12012l26.3994 -35.1992l38.0801 46.6396c2 2.44043 5 3.83984 8.16016 3.75977zM295.36 247.96l-79.2002 -96.9199h152.359zM214.68 236.84l-70.1992 -85.7998h45.2393
l46.5605 57z" />
    <glyph glyph-name="grid" unicode="&#xf1a0;" 
d="M70.4004 384h371.199c3.5332 0 6.40039 -2.86719 6.40039 -6.40039v-371.199c0 -3.5332 -2.86719 -6.40039 -6.40039 -6.40039h-371.199c-3.5332 0 -6.40039 2.86719 -6.40039 6.40039v371.199c0 3.5332 2.86719 6.40039 6.40039 6.40039zM76.7998 371.2v-70.4004
c3.5332 0 6.40039 -2.86719 6.40039 -6.39941c0 -3.5332 -2.86719 -6.40039 -6.40039 -6.40039v-89.5996c3.5332 0 6.40039 -2.86719 6.40039 -6.40039s-2.86719 -6.40039 -6.40039 -6.40039v-89.5996c3.5332 0 6.40039 -2.86719 6.40039 -6.40039
c0 -3.53223 -2.86719 -6.39941 -6.40039 -6.39941v-70.4004h70.4004c0 3.5332 2.86719 6.40039 6.39941 6.40039c3.5332 0 6.40039 -2.86719 6.40039 -6.40039h89.5996c0 3.5332 2.86719 6.40039 6.40039 6.40039s6.40039 -2.86719 6.40039 -6.40039h89.5996
c0 3.5332 2.86719 6.40039 6.40039 6.40039c3.53223 0 6.39941 -2.86719 6.39941 -6.40039h70.4004v70.4004c-3.5332 0 -6.40039 2.86719 -6.40039 6.39941c0 3.5332 2.86719 6.40039 6.40039 6.40039v89.5996c-3.5332 0 -6.40039 2.86719 -6.40039 6.40039
s2.86719 6.40039 6.40039 6.40039v89.5996c-3.5332 0 -6.40039 2.86719 -6.40039 6.40039c0 3.53223 2.86719 6.39941 6.40039 6.39941v70.4004h-70.4004c0 -3.5332 -2.86719 -6.40039 -6.39941 -6.40039c-3.5332 0 -6.40039 2.86719 -6.40039 6.40039h-89.5996
c0 -3.5332 -2.86719 -6.40039 -6.40039 -6.40039s-6.40039 2.86719 -6.40039 6.40039h-89.5996c0 -3.5332 -2.86719 -6.40039 -6.40039 -6.40039c-3.53223 0 -6.39941 2.86719 -6.39941 6.40039h-70.4004zM153.6 352c3.5332 0 6.40039 -2.86719 6.40039 -6.40039
c0 -3.53223 -2.86719 -6.39941 -6.40039 -6.39941c-3.53223 0 -6.39941 2.86719 -6.39941 6.39941c0 3.5332 2.86719 6.40039 6.39941 6.40039zM256 352c3.5332 0 6.40039 -2.86719 6.40039 -6.40039c0 -3.53223 -2.86719 -6.39941 -6.40039 -6.39941
s-6.40039 2.86719 -6.40039 6.39941c0 3.5332 2.86719 6.40039 6.40039 6.40039zM358.4 352c3.53223 0 6.39941 -2.86719 6.39941 -6.40039c0 -3.53223 -2.86719 -6.39941 -6.39941 -6.39941c-3.5332 0 -6.40039 2.86719 -6.40039 6.39941
c0 3.5332 2.86719 6.40039 6.40039 6.40039zM153.6 326.4c3.5332 0 6.40039 -2.86719 6.40039 -6.40039s-2.86719 -6.40039 -6.40039 -6.40039c-3.53223 0 -6.39941 2.86719 -6.39941 6.40039s2.86719 6.40039 6.39941 6.40039zM256 326.4
c3.5332 0 6.40039 -2.86719 6.40039 -6.40039s-2.86719 -6.40039 -6.40039 -6.40039s-6.40039 2.86719 -6.40039 6.40039s2.86719 6.40039 6.40039 6.40039zM358.4 326.4c3.53223 0 6.39941 -2.86719 6.39941 -6.40039s-2.86719 -6.40039 -6.39941 -6.40039
c-3.5332 0 -6.40039 2.86719 -6.40039 6.40039s2.86719 6.40039 6.40039 6.40039zM102.4 300.8c3.53223 0 6.39941 -2.86719 6.39941 -6.39941c0 -3.5332 -2.86719 -6.40039 -6.39941 -6.40039c-3.5332 0 -6.40039 2.86719 -6.40039 6.40039
c0 3.53223 2.86719 6.39941 6.40039 6.39941zM128 300.8c3.5332 0 6.40039 -2.86719 6.40039 -6.39941c0 -3.5332 -2.86719 -6.40039 -6.40039 -6.40039s-6.40039 2.86719 -6.40039 6.40039c0 3.53223 2.86719 6.39941 6.40039 6.39941zM153.6 300.8
c3.5332 0 6.40039 -2.86719 6.40039 -6.39941c0 -3.5332 -2.86719 -6.40039 -6.40039 -6.40039c-3.53223 0 -6.39941 2.86719 -6.39941 6.40039c0 3.53223 2.86719 6.39941 6.39941 6.39941zM179.2 300.8c3.53223 0 6.39941 -2.86719 6.39941 -6.39941
c0 -3.5332 -2.86719 -6.40039 -6.39941 -6.40039c-3.5332 0 -6.40039 2.86719 -6.40039 6.40039c0 3.53223 2.86719 6.39941 6.40039 6.39941zM204.8 300.8c3.5332 0 6.40039 -2.86719 6.40039 -6.39941c0 -3.5332 -2.86719 -6.40039 -6.40039 -6.40039
c-3.53223 0 -6.39941 2.86719 -6.39941 6.40039c0 3.53223 2.86719 6.39941 6.39941 6.39941zM230.4 300.8c3.53223 0 6.39941 -2.86719 6.39941 -6.39941c0 -3.5332 -2.86719 -6.40039 -6.39941 -6.40039c-3.5332 0 -6.40039 2.86719 -6.40039 6.40039
c0 3.53223 2.86719 6.39941 6.40039 6.39941zM256 300.8c3.5332 0 6.40039 -2.86719 6.40039 -6.39941c0 -3.5332 -2.86719 -6.40039 -6.40039 -6.40039s-6.40039 2.86719 -6.40039 6.40039c0 3.53223 2.86719 6.39941 6.40039 6.39941zM281.6 300.8
c3.5332 0 6.40039 -2.86719 6.40039 -6.39941c0 -3.5332 -2.86719 -6.40039 -6.40039 -6.40039c-3.53223 0 -6.39941 2.86719 -6.39941 6.40039c0 3.53223 2.86719 6.39941 6.39941 6.39941zM307.2 300.8c3.53223 0 6.39941 -2.86719 6.39941 -6.39941
c0 -3.5332 -2.86719 -6.40039 -6.39941 -6.40039c-3.5332 0 -6.40039 2.86719 -6.40039 6.40039c0 3.53223 2.86719 6.39941 6.40039 6.39941zM332.8 300.8c3.5332 0 6.40039 -2.86719 6.40039 -6.39941c0 -3.5332 -2.86719 -6.40039 -6.40039 -6.40039
c-3.53223 0 -6.39941 2.86719 -6.39941 6.40039c0 3.53223 2.86719 6.39941 6.39941 6.39941zM358.4 300.8c3.53223 0 6.39941 -2.86719 6.39941 -6.39941c0 -3.5332 -2.86719 -6.40039 -6.39941 -6.40039c-3.5332 0 -6.40039 2.86719 -6.40039 6.40039
c0 3.53223 2.86719 6.39941 6.40039 6.39941zM384 300.8c3.5332 0 6.40039 -2.86719 6.40039 -6.39941c0 -3.5332 -2.86719 -6.40039 -6.40039 -6.40039s-6.40039 2.86719 -6.40039 6.40039c0 3.53223 2.86719 6.39941 6.40039 6.39941zM409.6 300.8
c3.5332 0 6.40039 -2.86719 6.40039 -6.39941c0 -3.5332 -2.86719 -6.40039 -6.40039 -6.40039c-3.53223 0 -6.39941 2.86719 -6.39941 6.40039c0 3.53223 2.86719 6.39941 6.39941 6.39941zM153.6 275.2c3.5332 0 6.40039 -2.86719 6.40039 -6.40039
c0 -3.53223 -2.86719 -6.39941 -6.40039 -6.39941c-3.53223 0 -6.39941 2.86719 -6.39941 6.39941c0 3.5332 2.86719 6.40039 6.39941 6.40039zM256 275.2c3.5332 0 6.40039 -2.86719 6.40039 -6.40039c0 -3.53223 -2.86719 -6.39941 -6.40039 -6.39941
s-6.40039 2.86719 -6.40039 6.39941c0 3.5332 2.86719 6.40039 6.40039 6.40039zM358.4 275.2c3.53223 0 6.39941 -2.86719 6.39941 -6.40039c0 -3.53223 -2.86719 -6.39941 -6.39941 -6.39941c-3.5332 0 -6.40039 2.86719 -6.40039 6.39941
c0 3.5332 2.86719 6.40039 6.40039 6.40039zM153.6 249.6c3.5332 0 6.40039 -2.86719 6.40039 -6.39941c0 -3.5332 -2.86719 -6.40039 -6.40039 -6.40039c-3.53223 0 -6.39941 2.86719 -6.39941 6.40039c0 3.53223 2.86719 6.39941 6.39941 6.39941zM256 249.6
c3.5332 0 6.40039 -2.86719 6.40039 -6.39941c0 -3.5332 -2.86719 -6.40039 -6.40039 -6.40039s-6.40039 2.86719 -6.40039 6.40039c0 3.53223 2.86719 6.39941 6.40039 6.39941zM358.4 249.6c3.53223 0 6.39941 -2.86719 6.39941 -6.39941
c0 -3.5332 -2.86719 -6.40039 -6.39941 -6.40039c-3.5332 0 -6.40039 2.86719 -6.40039 6.40039c0 3.53223 2.86719 6.39941 6.40039 6.39941zM153.6 224c3.5332 0 6.40039 -2.86719 6.40039 -6.40039c0 -3.53223 -2.86719 -6.39941 -6.40039 -6.39941
c-3.53223 0 -6.39941 2.86719 -6.39941 6.39941c0 3.5332 2.86719 6.40039 6.39941 6.40039zM256 224c3.5332 0 6.40039 -2.86719 6.40039 -6.40039c0 -3.53223 -2.86719 -6.39941 -6.40039 -6.39941s-6.40039 2.86719 -6.40039 6.39941
c0 3.5332 2.86719 6.40039 6.40039 6.40039zM358.4 224c3.53223 0 6.39941 -2.86719 6.39941 -6.40039c0 -3.53223 -2.86719 -6.39941 -6.39941 -6.39941c-3.5332 0 -6.40039 2.86719 -6.40039 6.39941c0 3.5332 2.86719 6.40039 6.40039 6.40039zM102.4 198.4
c3.53223 0 6.39941 -2.86719 6.39941 -6.40039s-2.86719 -6.40039 -6.39941 -6.40039c-3.5332 0 -6.40039 2.86719 -6.40039 6.40039s2.86719 6.40039 6.40039 6.40039zM128 198.4c3.5332 0 6.40039 -2.86719 6.40039 -6.40039s-2.86719 -6.40039 -6.40039 -6.40039
s-6.40039 2.86719 -6.40039 6.40039s2.86719 6.40039 6.40039 6.40039zM153.6 198.4c3.5332 0 6.40039 -2.86719 6.40039 -6.40039s-2.86719 -6.40039 -6.40039 -6.40039c-3.53223 0 -6.39941 2.86719 -6.39941 6.40039s2.86719 6.40039 6.39941 6.40039zM179.2 198.4
c3.53223 0 6.39941 -2.86719 6.39941 -6.40039s-2.86719 -6.40039 -6.39941 -6.40039c-3.5332 0 -6.40039 2.86719 -6.40039 6.40039s2.86719 6.40039 6.40039 6.40039zM204.8 198.4c3.5332 0 6.40039 -2.86719 6.40039 -6.40039s-2.86719 -6.40039 -6.40039 -6.40039
c-3.53223 0 -6.39941 2.86719 -6.39941 6.40039s2.86719 6.40039 6.39941 6.40039zM230.4 198.4c3.53223 0 6.39941 -2.86719 6.39941 -6.40039s-2.86719 -6.40039 -6.39941 -6.40039c-3.5332 0 -6.40039 2.86719 -6.40039 6.40039s2.86719 6.40039 6.40039 6.40039z
M256 198.4c3.5332 0 6.40039 -2.86719 6.40039 -6.40039s-2.86719 -6.40039 -6.40039 -6.40039s-6.40039 2.86719 -6.40039 6.40039s2.86719 6.40039 6.40039 6.40039zM281.6 198.4c3.5332 0 6.40039 -2.86719 6.40039 -6.40039s-2.86719 -6.40039 -6.40039 -6.40039
c-3.53223 0 -6.39941 2.86719 -6.39941 6.40039s2.86719 6.40039 6.39941 6.40039zM307.2 198.4c3.53223 0 6.39941 -2.86719 6.39941 -6.40039s-2.86719 -6.40039 -6.39941 -6.40039c-3.5332 0 -6.40039 2.86719 -6.40039 6.40039s2.86719 6.40039 6.40039 6.40039z
M332.8 198.4c3.5332 0 6.40039 -2.86719 6.40039 -6.40039s-2.86719 -6.40039 -6.40039 -6.40039c-3.53223 0 -6.39941 2.86719 -6.39941 6.40039s2.86719 6.40039 6.39941 6.40039zM358.4 198.4c3.53223 0 6.39941 -2.86719 6.39941 -6.40039
s-2.86719 -6.40039 -6.39941 -6.40039c-3.5332 0 -6.40039 2.86719 -6.40039 6.40039s2.86719 6.40039 6.40039 6.40039zM384 198.4c3.5332 0 6.40039 -2.86719 6.40039 -6.40039s-2.86719 -6.40039 -6.40039 -6.40039s-6.40039 2.86719 -6.40039 6.40039
s2.86719 6.40039 6.40039 6.40039zM409.6 198.4c3.5332 0 6.40039 -2.86719 6.40039 -6.40039s-2.86719 -6.40039 -6.40039 -6.40039c-3.53223 0 -6.39941 2.86719 -6.39941 6.40039s2.86719 6.40039 6.39941 6.40039zM153.6 172.8
c3.5332 0 6.40039 -2.86719 6.40039 -6.39941c0 -3.5332 -2.86719 -6.40039 -6.40039 -6.40039c-3.53223 0 -6.39941 2.86719 -6.39941 6.40039c0 3.53223 2.86719 6.39941 6.39941 6.39941zM256 172.8c3.5332 0 6.40039 -2.86719 6.40039 -6.39941
c0 -3.5332 -2.86719 -6.40039 -6.40039 -6.40039s-6.40039 2.86719 -6.40039 6.40039c0 3.53223 2.86719 6.39941 6.40039 6.39941zM358.4 172.8c3.53223 0 6.39941 -2.86719 6.39941 -6.39941c0 -3.5332 -2.86719 -6.40039 -6.39941 -6.40039
c-3.5332 0 -6.40039 2.86719 -6.40039 6.40039c0 3.53223 2.86719 6.39941 6.40039 6.39941zM153.6 147.2c3.5332 0 6.40039 -2.86719 6.40039 -6.40039c0 -3.53223 -2.86719 -6.39941 -6.40039 -6.39941c-3.53223 0 -6.39941 2.86719 -6.39941 6.39941
c0 3.5332 2.86719 6.40039 6.39941 6.40039zM256 147.2c3.5332 0 6.40039 -2.86719 6.40039 -6.40039c0 -3.53223 -2.86719 -6.39941 -6.40039 -6.39941s-6.40039 2.86719 -6.40039 6.39941c0 3.5332 2.86719 6.40039 6.40039 6.40039zM358.4 147.2
c3.53223 0 6.39941 -2.86719 6.39941 -6.40039c0 -3.53223 -2.86719 -6.39941 -6.39941 -6.39941c-3.5332 0 -6.40039 2.86719 -6.40039 6.39941c0 3.5332 2.86719 6.40039 6.40039 6.40039zM153.6 121.6c3.5332 0 6.40039 -2.86719 6.40039 -6.39941
c0 -3.5332 -2.86719 -6.40039 -6.40039 -6.40039c-3.53223 0 -6.39941 2.86719 -6.39941 6.40039c0 3.53223 2.86719 6.39941 6.39941 6.39941zM256 121.6c3.5332 0 6.40039 -2.86719 6.40039 -6.39941c0 -3.5332 -2.86719 -6.40039 -6.40039 -6.40039
s-6.40039 2.86719 -6.40039 6.40039c0 3.53223 2.86719 6.39941 6.40039 6.39941zM358.4 121.6c3.53223 0 6.39941 -2.86719 6.39941 -6.39941c0 -3.5332 -2.86719 -6.40039 -6.39941 -6.40039c-3.5332 0 -6.40039 2.86719 -6.40039 6.40039
c0 3.53223 2.86719 6.39941 6.40039 6.39941zM102.4 96c3.53223 0 6.39941 -2.86719 6.39941 -6.40039c0 -3.53223 -2.86719 -6.39941 -6.39941 -6.39941c-3.5332 0 -6.40039 2.86719 -6.40039 6.39941c0 3.5332 2.86719 6.40039 6.40039 6.40039zM128 96
c3.5332 0 6.40039 -2.86719 6.40039 -6.40039c0 -3.53223 -2.86719 -6.39941 -6.40039 -6.39941s-6.40039 2.86719 -6.40039 6.39941c0 3.5332 2.86719 6.40039 6.40039 6.40039zM153.6 96c3.5332 0 6.40039 -2.86719 6.40039 -6.40039
c0 -3.53223 -2.86719 -6.39941 -6.40039 -6.39941c-3.53223 0 -6.39941 2.86719 -6.39941 6.39941c0 3.5332 2.86719 6.40039 6.39941 6.40039zM179.2 96c3.53223 0 6.39941 -2.86719 6.39941 -6.40039c0 -3.53223 -2.86719 -6.39941 -6.39941 -6.39941
c-3.5332 0 -6.40039 2.86719 -6.40039 6.39941c0 3.5332 2.86719 6.40039 6.40039 6.40039zM204.8 96c3.5332 0 6.40039 -2.86719 6.40039 -6.40039c0 -3.53223 -2.86719 -6.39941 -6.40039 -6.39941c-3.53223 0 -6.39941 2.86719 -6.39941 6.39941
c0 3.5332 2.86719 6.40039 6.39941 6.40039zM230.4 96c3.53223 0 6.39941 -2.86719 6.39941 -6.40039c0 -3.53223 -2.86719 -6.39941 -6.39941 -6.39941c-3.5332 0 -6.40039 2.86719 -6.40039 6.39941c0 3.5332 2.86719 6.40039 6.40039 6.40039zM256 96
c3.5332 0 6.40039 -2.86719 6.40039 -6.40039c0 -3.53223 -2.86719 -6.39941 -6.40039 -6.39941s-6.40039 2.86719 -6.40039 6.39941c0 3.5332 2.86719 6.40039 6.40039 6.40039zM281.6 96c3.5332 0 6.40039 -2.86719 6.40039 -6.40039
c0 -3.53223 -2.86719 -6.39941 -6.40039 -6.39941c-3.53223 0 -6.39941 2.86719 -6.39941 6.39941c0 3.5332 2.86719 6.40039 6.39941 6.40039zM307.2 96c3.53223 0 6.39941 -2.86719 6.39941 -6.40039c0 -3.53223 -2.86719 -6.39941 -6.39941 -6.39941
c-3.5332 0 -6.40039 2.86719 -6.40039 6.39941c0 3.5332 2.86719 6.40039 6.40039 6.40039zM332.8 96c3.5332 0 6.40039 -2.86719 6.40039 -6.40039c0 -3.53223 -2.86719 -6.39941 -6.40039 -6.39941c-3.53223 0 -6.39941 2.86719 -6.39941 6.39941
c0 3.5332 2.86719 6.40039 6.39941 6.40039zM358.4 96c3.53223 0 6.39941 -2.86719 6.39941 -6.40039c0 -3.53223 -2.86719 -6.39941 -6.39941 -6.39941c-3.5332 0 -6.40039 2.86719 -6.40039 6.39941c0 3.5332 2.86719 6.40039 6.40039 6.40039zM384 96
c3.5332 0 6.40039 -2.86719 6.40039 -6.40039c0 -3.53223 -2.86719 -6.39941 -6.40039 -6.39941s-6.40039 2.86719 -6.40039 6.39941c0 3.5332 2.86719 6.40039 6.40039 6.40039zM409.6 96c3.5332 0 6.40039 -2.86719 6.40039 -6.40039
c0 -3.53223 -2.86719 -6.39941 -6.40039 -6.39941c-3.53223 0 -6.39941 2.86719 -6.39941 6.39941c0 3.5332 2.86719 6.40039 6.39941 6.40039zM153.6 70.4004c3.5332 0 6.40039 -2.86719 6.40039 -6.40039s-2.86719 -6.40039 -6.40039 -6.40039
c-3.53223 0 -6.39941 2.86719 -6.39941 6.40039s2.86719 6.40039 6.39941 6.40039zM256 70.4004c3.5332 0 6.40039 -2.86719 6.40039 -6.40039s-2.86719 -6.40039 -6.40039 -6.40039s-6.40039 2.86719 -6.40039 6.40039s2.86719 6.40039 6.40039 6.40039zM358.4 70.4004
c3.53223 0 6.39941 -2.86719 6.39941 -6.40039s-2.86719 -6.40039 -6.39941 -6.40039c-3.5332 0 -6.40039 2.86719 -6.40039 6.40039s2.86719 6.40039 6.40039 6.40039zM153.6 44.7998c3.5332 0 6.40039 -2.86719 6.40039 -6.39941
c0 -3.5332 -2.86719 -6.40039 -6.40039 -6.40039c-3.53223 0 -6.39941 2.86719 -6.39941 6.40039c0 3.53223 2.86719 6.39941 6.39941 6.39941zM256 44.7998c3.5332 0 6.40039 -2.86719 6.40039 -6.39941c0 -3.5332 -2.86719 -6.40039 -6.40039 -6.40039
s-6.40039 2.86719 -6.40039 6.40039c0 3.53223 2.86719 6.39941 6.40039 6.39941zM358.4 44.7998c3.53223 0 6.39941 -2.86719 6.39941 -6.39941c0 -3.5332 -2.86719 -6.40039 -6.39941 -6.40039c-3.5332 0 -6.40039 2.86719 -6.40039 6.40039
c0 3.53223 2.86719 6.39941 6.40039 6.39941z" />
    <glyph glyph-name="share-2" unicode="&#xf192;" 
d="M419.84 427.52c39.4668 0 71.6797 -32.2129 71.6797 -71.6797s-32.2129 -71.6797 -71.6797 -71.6797c-13.2461 0 -25.6309 3.70605 -36.2998 10.0195l-83.7998 -102.439l79.1797 -104.86c11.624 8.13477 25.7158 12.96 40.9199 12.96
c39.4668 0 71.6797 -32.2129 71.6797 -71.6797s-32.2129 -71.6797 -71.6797 -71.6797s-71.6797 32.2129 -71.6797 71.6797c0 16.8623 5.90527 32.3721 15.7197 44.6396l-82.2598 108.96h-118.601c-5.00879 -34.6357 -34.8779 -61.4395 -70.8594 -61.4395
c-39.4668 0 -71.6797 32.2129 -71.6797 71.6797s32.2129 71.6797 71.6797 71.6797c35.9814 0 65.8506 -26.8037 70.8594 -61.4395h118.841l85.7197 104.74c-12.0029 12.8252 -19.4199 29.9873 -19.4199 48.8594c0 39.4668 32.2129 71.6797 71.6797 71.6797zM419.84 407.04
c-28.3984 0 -51.2002 -22.8018 -51.2002 -51.2002s22.8018 -51.2002 51.2002 -51.2002s51.2002 22.8018 51.2002 51.2002s-22.8018 51.2002 -51.2002 51.2002zM92.1602 243.2c-28.3984 0 -51.2002 -22.8018 -51.2002 -51.2002s22.8018 -51.2002 51.2002 -51.2002
s51.2002 22.8018 51.2002 51.2002s-22.8018 51.2002 -51.2002 51.2002zM419.84 79.3604c-28.3984 0 -51.2002 -22.8018 -51.2002 -51.2002s22.8018 -51.2002 51.2002 -51.2002s51.2002 22.8018 51.2002 51.2002s-22.8018 51.2002 -51.2002 51.2002z" />
    </font>
</defs>
</svg>
