<?xml version="1.0" encoding="UTF-8"?>
<!DOCTYPE svg PUBLIC "-//W3C//DTD SVG 1.1//EN" "http://www.w3.org/Graphics/SVG/1.1/DTD/svg11.dtd">
<!-- Creator: CorelDRAW -->
<svg xmlns="http://www.w3.org/2000/svg" xml:space="preserve" width="346px" height="100px" style="shape-rendering:geometricPrecision; text-rendering:geometricPrecision; image-rendering:optimizeQuality; fill-rule:evenodd; clip-rule:evenodd"
viewBox="0 0 346 100"
 xmlns:xlink="http://www.w3.org/1999/xlink">
 <defs>
  <style type="text/css">
   <![CDATA[
    .fil0 {fill:none}
    .fil1 {fill:#2B2A29;fill-rule:nonzero}
   ]]>
  </style>
 </defs>
 <g id="Layer_x0020_1">
  <metadata id="CorelCorpID_0Corel-Layer"/>
  <rect class="fil0" width="346" height="100"/>
  <path class="fil1" d="M58.3201 75.4146l0.841732 -4.97362 -8.4937 0c-3.18819,0.0125984 -5.70079,-0.472047 -7.5626,-1.42835 -1.84921,-0.956693 -3.07362,-2.44882 -3.67283,-4.46378 -0.599606,-2.02756 -0.599606,-4.62913 -0.0129921,-7.80472 0.548425,-3.17559 1.49213,-5.77717 2.80591,-7.80512 1.32638,-2.01496 3.08622,-3.50709 5.27953,-4.46339 2.1937,-0.969291 4.88465,-1.44134 8.06024,-1.42835l8.03425 0 0.918504 -4.97402 -9.25906 0c-6.27441,-0.0125984 -11.2354,1.53031 -14.8827,4.62953 -3.64764,3.08622 -6.00669,7.76654 -7.07795,14.0413 -1.10984,6.26181 -0.395669,10.9421 2.15512,14.0409 2.55079,3.08622 6.95039,4.62953 13.2252,4.62953l9.64134 0zm22.6496 0l0.841732 -5.05039 -1.91299 0c-1.33937,0 -2.38504,-0.178346 -3.1248,-0.548425 -0.73937,-0.369685 -1.21142,-0.956299 -1.42835,-1.75984 -0.203937,-0.816142 -0.203937,-1.8748 0.0385827,-3.20079l7.11614 -40.2492 -5.9685 0 -7.19291 40.4787c-0.407874,2.41024 -0.382283,4.38701 0.0767717,5.90472 0.471654,1.53031 1.40276,2.65236 2.80551,3.36654 1.40276,0.714173 3.29055,1.05866 5.6878,1.05866l3.06102 0zm22.1902 0.612205c3.91535,0 7.35866,-0.727165 10.3429,-2.15551 2.98425,-1.44094 5.45827,-3.59606 7.39685,-6.45276 1.93858,-2.85669 3.29016,-6.41496 4.06811,-10.6744 0.727165,-4.25984 0.625197,-7.81772 -0.305906,-10.6744 -0.931102,-2.86969 -2.62717,-5.0122 -5.10118,-6.45315 -2.48701,-1.42835 -5.6752,-2.15551 -9.59055,-2.15551 -3.91496,0 -7.35827,0.727165 -10.3425,2.15551 -2.98425,1.44094 -5.44567,3.58346 -7.37165,6.45315 -1.92559,2.85669 -3.26457,6.41457 -4.01693,10.6744 -0.752756,4.25945 -0.675984,7.81772 0.242126,10.6744 0.91811,2.85669 2.62717,5.01181 5.10118,6.45276 2.47441,1.42835 5.6626,2.15551 9.57756,2.15551zm0.918504 -5.05039c-4.0937,0 -6.95039,-1.18583 -8.55748,-3.55787 -1.61969,-2.37244 -2.00236,-5.93031 -1.16063,-10.6744 1.60709,-9.48858 6.50433,-14.2327 14.6917,-14.2327 4.0937,0 6.95039,1.18622 8.57008,3.55827 1.61969,2.37205 2.02795,5.92992 1.22441,10.6744 -0.841732,4.74409 -2.48701,8.30197 -4.94843,10.6744 -2.44843,2.37205 -5.72598,3.55787 -9.81969,3.55787zm58.0776 4.43819l6.58071 -37.3413 -5.9685 0 -5.73898 32.2909 -9.48819 0c-2.33386,0.0129921 -4.17047,-0.318504 -5.50945,-0.994488 -1.32638,-0.675984 -2.19331,-1.73465 -2.60157,-3.18858 -0.420866,-1.45354 -0.420866,-3.35394 0,-5.6878l3.97913 -22.4201 -5.9685 0 -3.90276 22.0374c-0.650394,3.53268 -0.624803,6.44055 0.0385827,8.69764 0.675591,2.25748 2.04055,3.92795 4.1063,4.99921 2.06614,1.08425 4.87165,1.61969 8.40433,1.60709l16.0689 0zm42.8508 0l8.95236 -50.8087 -5.96811 0 -2.37244 13.4673 -8.57008 0c-6.27441,-0.0125984 -11.2354,1.53031 -14.8827,4.62953 -3.64764,3.08622 -6.00669,7.76654 -7.07795,14.0413 -1.10984,6.26181 -0.395669,10.9421 2.15512,14.0409 2.55079,3.08622 6.95039,4.62953 13.2252,4.62953l14.5386 0zm-5.12677 -4.97362l-7.34606 0c-3.18819,0.0125984 -5.71339,-0.472047 -7.5752,-1.42835 -1.8748,-0.956693 -3.11181,-2.44882 -3.72402,-4.46378 -0.612205,-2.02756 -0.612205,-4.62913 -0.0255906,-7.80472 0.548425,-3.18858 1.49213,-5.79016 2.80591,-7.81772 1.32638,-2.04055 3.08622,-3.54567 5.27953,-4.51457 2.1937,-0.969291 4.88465,-1.45394 8.06024,-1.44134l7.34567 0 -4.82047 27.4705zm43.0799 4.97362l0.841732 -4.97362 -8.4937 0c-3.18819,0.0125984 -5.70079,-0.472047 -7.5626,-1.42835 -1.84921,-0.956693 -3.07362,-2.44882 -3.67283,-4.46378 -0.599606,-2.02756 -0.599606,-4.62913 -0.0129921,-7.80472 0.548425,-3.17559 1.49213,-5.77717 2.80591,-7.80512 1.32638,-2.01496 3.08622,-3.50709 5.27953,-4.46339 2.1937,-0.969291 4.88465,-1.44134 8.06024,-1.42835l8.03425 0 0.918504 -4.97402 -9.25906 0c-6.27441,-0.0125984 -11.2354,1.53031 -14.8827,4.62953 -3.64764,3.08622 -6.00669,7.76654 -7.07795,14.0413 -1.10984,6.26181 -0.395669,10.9421 2.15512,14.0409 2.55079,3.08622 6.95039,4.62953 13.2252,4.62953l9.64134 0zm26.4756 -42.315l1.07441 -5.96339 -5.64646 0.0275591 -0.329134 0.011811 -1.06732 5.92402 5.9685 0zm-7.42244 42.315l6.58071 -37.3413 -5.9685 0 -6.58071 37.3413 5.9685 0zm26.9177 0.612205c3.91535,0 7.36575,-0.726378 10.3429,-2.15551 2.98228,-1.4315 5.45827,-3.59606 7.39685,-6.45276 1.93858,-2.85669 3.31929,-6.41496 4.06811,-10.6744 0.747244,-4.25118 0.618898,-7.82165 -0.305906,-10.6744 -0.928346,-2.86457 -2.62717,-5.02441 -5.10118,-6.45315 -2.47795,-1.4315 -5.6752,-2.15551 -9.59055,-2.15551 -3.91496,0 -7.36535,0.726378 -10.3425,2.15551 -2.98228,1.4315 -5.44724,3.58976 -7.37165,6.45315 -1.91811,2.85394 -3.26457,6.41496 -4.01693,10.6744 -0.752362,4.25945 -0.675984,7.81772 0.242126,10.6744 0.91811,2.85669 2.62874,5.02126 5.10118,6.45276 2.46693,1.42874 5.6626,2.15551 9.57756,2.15551zm0.918504 -5.05039c-4.0937,0 -6.95079,-1.19331 -8.55748,-3.55787 -1.61102,-2.37087 -1.97402,-5.9315 -1.16063,-10.6744 1.62638,-9.48071 6.50433,-14.2327 14.6917,-14.2327 4.0937,0 6.95039,1.18622 8.57008,3.55827 1.61969,2.37205 2.04213,5.9378 1.22441,10.6744 -0.818504,4.74291 -2.49449,8.30354 -4.94843,10.6744 -2.44685,2.36457 -5.72598,3.55787 -9.81969,3.55787z"/>
  <polygon class="fil1" points="252.474,75.4272 253.549,69.4638 247.902,69.4913 247.573,69.5031 246.506,75.4272 "/>
 </g>
</svg>
