<?xml version="1.0" encoding="UTF-8"?>
<!DOCTYPE svg PUBLIC "-//W3C//DTD SVG 1.1//EN" "http://www.w3.org/Graphics/SVG/1.1/DTD/svg11.dtd">
<!-- Creator: CorelDRAW -->
<svg xmlns="http://www.w3.org/2000/svg" xml:space="preserve" width="346px" height="100px" style="shape-rendering:geometricPrecision; text-rendering:geometricPrecision; image-rendering:optimizeQuality; fill-rule:evenodd; clip-rule:evenodd"
viewBox="0 0 346 100"
 xmlns:xlink="http://www.w3.org/1999/xlink"
 version="1.1"
 enable-background="new 0 0 765.71 132">
 <defs>
  <style type="text/css">
   <![CDATA[
    .fil0 {fill:#050505}
   ]]>
  </style>
 </defs>
 <g id="Layer_x0020_1">
  <metadata id="CorelCorpID_0Corel-Layer"/>
  <g id="_359380248">
   <polygon id="_359378376" class="fil0" points="244.246,74.7311 252.569,74.7311 253.935,66.935 245.613,66.935 "/>
   <path id="_359378352" class="fil0" d="M39.0213 42.5122c-3.50394,3.11378 -5.76772,7.70197 -6.79134,13.7654 -1.03543,6.06299 -0.324803,10.6512 2.14331,13.765 2.4563,3.11339 6.58661,4.67598 12.378,4.68898l12.4984 0 1.30079 -7.79016 -10.0425 0c-2.38346,0.0125984 -4.2622,-0.364961 -5.63504,-1.09646 -1.38465,-0.744094 -2.29961,-1.90394 -2.74528,-3.47913 -0.433465,-1.56299 -0.433465,-3.60472 0,-6.08819 0.397244,-2.49646 1.09567,-4.5252 2.07087,-6.08898 0.975591,-1.5752 2.27559,-2.73504 3.90157,-3.47874 1.6374,-0.743701 3.64803,-1.10945 6.02047,-1.09646l9.53622 0 1.37244 -7.78976 -12.0646 0c-5.79173,0.0125984 -10.4394,1.5752 -13.9433,4.68858z"/>
   <path id="_359378664" class="fil0" d="M120.67 39.0709c-2.66102,-1.34882 -6.02047,-2.01693 -10.0539,-2.00354 -4.03386,-0.0129921 -7.61024,0.655118 -10.7043,2.00354 -3.10669,1.34921 -5.67126,3.44134 -7.68228,6.27756 -2.01102,2.83583 -3.39528,6.47913 -4.15433,10.9291 -0.746457,4.44921 -0.601969,8.09213 0.469685,10.9287 1.05984,2.83622 2.92598,4.92835 5.5874,6.27717 2.66102,1.34882 6.00827,2.01693 10.0539,2.00394 4.03346,0.0122047 7.60945,-0.655118 10.7157,-2.00394 3.10669,-1.34882 5.65945,-3.44094 7.68228,-6.27717 2.02283,-2.83661 3.4315,-6.47913 4.21417,-10.9287 0.734252,-4.44961 0.553543,-8.09331 -0.51811,-10.9291 -1.07087,-2.83622 -2.94961,-4.92835 -5.61024,-6.27756zm-3.69646 17.2067c-0.650394,3.7811 -1.91417,6.61772 -3.81693,8.50827 -1.90236,1.89055 -4.45512,2.83583 -7.66969,2.83583 -3.21496,0 -5.44213,-0.944882 -6.69488,-2.83583 -1.25236,-1.89094 -1.54094,-4.72717 -0.890945,-8.50827 0.614173,-3.7815 1.86614,-6.61811 3.75709,-8.50866 1.89055,-1.89134 4.44252,-2.83622 7.65787,-2.83622 3.21496,0 5.44213,0.944882 6.70669,2.83622 1.25157,1.89016 1.57677,4.72717 0.950787,8.50866z"/>
   <path id="_359382552" class="fil0" d="M84.3185 24.5122l-9.68071 0 -6.57402 38.9496c-0.469685,2.71024 -0.469685,4.89094 -0.0240157,6.55551 0.445669,1.65079 1.40866,2.86063 2.86575,3.60472 1.45709,0.756299 3.47953,1.12205 6.04449,1.10945l5.20157 -0.000393701 1.22835 -7.71417 -2.45669 0c-1.39646,0.0125984 -2.32402,-0.277559 -2.79291,-0.895276 -0.48189,-0.617323 -0.57874,-1.65118 -0.313386,-3.11339l6.50157 -38.4961z"/>
   <path id="_277067872" class="fil0" d="M155.985 66.7902l-7.73031 0c-2.44449,0.0251969 -4.11772,-0.542126 -5.02087,-1.70157 -0.90315,-1.14764 -1.13189,-3.00039 -0.686614,-5.55866l3.68465 -21.7063 -9.68071 0 -3.68465 21.6303c-0.601969,3.54213 -0.577953,6.44173 0.0846457,8.69724 0.661811,2.25669 1.98661,3.92047 3.97323,4.99213 1.99843,1.07126 4.68346,1.60118 8.07913,1.58819l19.3622 -0.000393701 6.2122 -36.9079 -9.68031 0 -4.9126 28.9669z"/>
   <polygon id="_277068184" class="fil0" points="262.05,35.2031 271.731,35.2031 273.32,26.0516 263.639,26.0516 "/>
   <path id="_277068400" class="fil0" d="M313.259 45.3484c-1.07047,-2.83504 -2.94961,-4.92835 -5.61142,-6.27756 -2.66063,-1.34882 -6.01969,-2.00354 -10.0535,-2.00354 -4.03425,0 -7.61063,0.658268 -10.7047,2.00354 -3.10472,1.35039 -5.67126,3.44134 -7.6815,6.27756 -2.01142,2.83583 -3.40315,6.47913 -4.15433,10.9291 -0.751181,4.44764 -0.596063,8.09134 0.469291,10.9287 1.06378,2.83268 2.92598,4.92835 5.58701,6.27717 2.66063,1.34882 6.00827,2.00394 10.0535,2.00394 4.03425,0 7.61024,-0.655118 10.7165,-2.00394 3.10669,-1.34882 5.66024,-3.44213 7.68228,-6.27717 2.02126,-2.83504 3.45591,-6.47638 4.21417,-10.9287 0.757087,-4.44449 0.55315,-8.09409 -0.517323,-10.9291zm-9.30748 10.9291c-0.637795,3.78268 -1.91575,6.6185 -3.81772,8.50827 -1.90079,1.88937 -4.45472,2.83583 -7.66969,2.83583 -3.21496,0 -5.44331,-0.946457 -6.69409,-2.83583 -1.25157,-1.89016 -1.52244,-4.72441 -0.891339,-8.50827 0.630709,-3.77717 1.86654,-6.61811 3.75709,-8.50866 1.89016,-1.89134 4.44291,-2.83622 7.65827,-2.83622 3.21457,0 5.44724,0.943701 6.7063,2.83622 1.25472,1.88661 1.5874,4.73071 0.951181,8.50866z"/>
   <path id="_277068592" class="fil0" d="M203.667 37.8232l-8.38071 0c-5.79094,0.0125984 -10.4386,1.57559 -13.9429,4.68898 -3.50354,3.11378 -5.76732,7.70197 -6.79055,13.7654 -1.03622,6.06299 -0.325591,10.6512 2.14291,13.765 2.45669,3.11339 6.58622,4.67598 12.3783,4.68898l18.0614 0 8.45157 -50.2193 -9.68031 0 -2.23976 13.311zm-4.98465 29.1937l-5.77992 0c-3.56417,0.0248031 -6.03268,-0.83189 -7.39252,-2.55906 -1.37323,-1.72677 -1.72205,-4.4626 -1.05984,-8.18071 0.601969,-3.7315 1.87835,-6.46654 3.85315,-8.2189 1.9622,-1.75197 4.73189,-2.62205 8.28346,-2.59685l5.77953 0 -3.68386 21.5555z"/>
   <polygon id="_277068808" class="fil0" points="255.187,74.7311 264.868,74.7311 271.081,37.8232 261.4,37.8232 "/>
   <path id="_277069024" class="fil0" d="M229.964 65.8445c-1.38504,-0.739764 -2.29961,-1.90354 -2.74488,-3.47874 -0.433858,-1.56339 -0.433858,-3.60512 0,-6.08858 0.39685,-2.49606 1.09567,-4.5252 2.07047,-6.08898 0.975591,-1.5748 2.27559,-2.73465 3.90118,-3.47874 1.6374,-0.743701 3.64843,-1.10906 6.02047,-1.09646l9.53622 -0.000393701 1.37283 -7.78937 -12.065 0c-5.79134,0.0125984 -10.4394,1.57559 -13.9433,4.68898 -3.50394,3.11378 -5.76772,7.70197 -6.79094,13.7654 -1.03543,6.06299 -0.320472,10.6492 2.14331,13.765 2.45945,3.10984 6.58622,4.68898 12.3783,4.68898l9.9626 0 1.30039 -7.79016 -7.50669 0c-2.38228,-0.000393701 -4.26417,-0.364567 -5.63504,-1.09685z"/>
  </g>
 </g>
</svg>
