<?xml version="1.0" encoding="UTF-8"?>
<!DOCTYPE svg PUBLIC "-//W3C//DTD SVG 1.1//EN" "http://www.w3.org/Graphics/SVG/1.1/DTD/svg11.dtd">
<!-- Creator: CorelDRAW X5 -->
<svg xmlns="http://www.w3.org/2000/svg" xml:space="preserve" width="486px" height="84px" style="shape-rendering:geometricPrecision; text-rendering:geometricPrecision; image-rendering:optimizeQuality; fill-rule:evenodd; clip-rule:evenodd"
viewBox="0 0 486 84"
 xmlns:xlink="http://www.w3.org/1999/xlink">
 <defs>
  <style type="text/css">
   <![CDATA[
    .fil0 {fill:black;fill-rule:nonzero}
   ]]>
  </style>
 </defs>
 <g id="Layer_x0020_1">
  <metadata id="CorelCorpID_0Corel-Layer"/>
  <g id="_189018136">
   <polygon class="fil0" points="380,83 382,70 368,70 366,83 "/>
   <path class="fil0" d="M47 83l2 -13 -17 0c-4,0 -7,-1 -10,-2 -2,-1 -4,-3 -5,-6 -1,-3 -1,-6 0,-10 1,-4 2,-7 4,-10 2,-3 4,-4 7,-6 3,-1 6,-2 10,-2l16 0 2 -13 -21 0c-10,0 -18,3 -24,8 -6,5 -10,13 -12,23 -2,10 -1,18 4,23 4,5 11,8 21,8l22 0zm39 0l2 -13 -4 0c-2,0 -4,0 -5,-1 -1,-1 -1,-3 -1,-5l11 -63 -17 0 -11 64c-1,4 -1,8 0,11 1,3 2,5 5,6 3,1 6,2 10,2l9 0zm77 -30c1,-7 1,-13 -1,-18 -2,-5 -5,-8 -10,-10 -5,-2 -10,-3 -17,-3 -7,0 -13,1 -18,3 -5,2 -10,6 -13,10 -3,5 -6,11 -7,18 -1,7 -1,13 1,18 2,5 5,8 10,10 5,2 10,3 17,3 7,0 13,-1 18,-3 5,-2 10,-6 13,-10 3,-5 6,-11 7,-18zm-37 19c-6,0 -9,-2 -12,-5 -2,-3 -3,-8 -2,-14 1,-6 3,-11 6,-14 3,-3 8,-5 13,-5 6,0 9,2 12,5 2,3 3,8 2,14 -1,6 -3,11 -7,14 -3,3 -8,5 -13,5zm101 12l11 -61 -17 0 -8 48 -13 0c-4,0 -7,-1 -9,-3 -2,-2 -2,-5 -1,-9l6 -36 -17 0 -6 36c-1,6 -1,11 0,14 1,4 3,6 7,8 3,2 8,3 14,3l33 0zm74 0l15 -83 -17 0 -4 22 -14 0c-10,0 -18,3 -24,8 -6,5 -10,13 -12,23 -2,10 -1,18 4,23 4,5 11,8 21,8l31 0zm-15 -13l-10 0c-6,0 -10,-1 -13,-4 -2,-3 -3,-7 -2,-13 1,-6 3,-11 7,-14 3,-3 8,-4 14,-4l10 0 -6 35zm74 13l2 -13 -13 0c-4,0 -7,-1 -10,-2 -2,-1 -4,-3 -5,-6 -1,-3 -1,-6 0,-10 1,-4 2,-7 4,-10 2,-3 4,-4 7,-6 3,-1 6,-2 10,-2l16 0 2 -13 -21 0c-10,0 -18,3 -24,8 -6,5 -10,13 -12,23 -2,10 -1,18 4,23 4,5 11,8 21,8l17 0zm51 -65l3 -15 -17 0 -3 15 17 0zm-12 65l11 -61 -17 0 -11 61 17 0zm84 -30c1,-7 1,-13 -1,-18 -2,-5 -5,-8 -10,-10 -5,-2 -10,-3 -17,-3 -7,0 -13,1 -18,3 -5,2 -10,6 -13,10 -3,5 -6,11 -7,18 -1,7 -1,13 1,18 2,5 5,8 10,10 5,2 10,3 17,3 7,0 13,-1 18,-3 5,-2 10,-6 13,-10 3,-5 6,-11 7,-18zm-37 19c-6,0 -9,-2 -12,-5 -2,-3 -3,-8 -2,-14 1,-6 3,-11 6,-14 3,-3 8,-5 13,-5 6,0 9,2 12,5 2,3 3,8 2,14 -1,6 -3,11 -7,14 -3,3 -8,5 -13,5z"/>
  </g>
 </g>
</svg>
