<svg viewBox="0 0 48 48" xmlns:xlink="http://www.w3.org/1999/xlink" xmlns="http://www.w3.org/2000/svg" version="1.1" y="0" x="0" width="35" height="35" style=""><g mix-blend-mode="normal" text-anchor="start" font-size="none" font-weight="none" font-family="none" stroke-dashoffset="0" stroke-dasharray="" stroke-miterlimit="10" stroke-linejoin="miter" stroke-linecap="butt" stroke-width="1" stroke="none" fill="none"><g><g><path font-size="12" font-weight="normal" font-family="sans-serif" fill="none" d="M0,48l0,-48l48,0l0,48z"/><path font-size="12" font-weight="normal" font-family="sans-serif" fill="#d3d3d3" d="M24,48c-13.25483,0 -24,-10.74517 -24,-24l0,0c0,-13.25483 10.74517,-24 24,-24l0,0c13.25483,0 24,10.74517 24,24l0,0c0,13.25483 -10.74517,24 -24,24z M24,47.04c12.72464,0 23.04,-10.31536 23.04,-23.04l0,0c0,-12.72464 -10.31536,-23.04 -23.04,-23.04l0,0c-12.72464,0 -23.04,10.31536 -23.04,23.04l0,0c0,12.72464 10.31536,23.04 23.04,23.04z"/><g font-size="16" font-weight="400" font-family="serif"><path fill="#673ab7" d="M34.5,11.4l-21,0c-1.1599,0 -2.1,0.9401 -2.1,2.1l0,23.1l5.9892,-5.6l17.1108,0c1.1592,0 2.1,-0.9408 2.1,-2.1l0,-15.4c0,-1.1599 -0.9408,-2.1 -2.1,-2.1z"/><g fill="#d1c4e9"><rect height="2" width="28" transform="scale(0.7,0.7)" y="24.28571" x="20.28571"/><rect height="2" width="28" transform="scale(0.7,0.7)" y="29.28571" x="20.28571"/><rect height="2" width="16" transform="scale(0.7,0.7)" y="34.28571" x="20.28571"/></g></g></g></g></g></svg>