<svg viewBox="0 0 48 48" xmlns:xlink="http://www.w3.org/1999/xlink" xmlns="http://www.w3.org/2000/svg" version="1.1" y="0" x="0" width="35" height="35" style=""><g mix-blend-mode="normal" text-anchor="start" font-size="none" font-weight="none" font-family="none" stroke-dashoffset="0" stroke-dasharray="" stroke-miterlimit="10" stroke-linejoin="miter" stroke-linecap="butt" stroke-width="1" stroke="none" fill="none"><g><g><path font-size="12" font-weight="normal" font-family="sans-serif" fill="none" d="M0,48l0,-48l48,0l0,48z"/><path font-size="12" font-weight="normal" font-family="sans-serif" fill="#d3d3d3" d="M24,48c-13.25483,0 -24,-10.74517 -24,-24l0,0c0,-13.25483 10.74517,-24 24,-24l0,0c13.25483,0 24,10.74517 24,24l0,0c0,13.25483 -10.74517,24 -24,24z M24,47.04c12.72464,0 23.04,-10.31536 23.04,-23.04l0,0c0,-12.72464 -10.31536,-23.04 -23.04,-23.04l0,0c-12.72464,0 -23.04,10.31536 -23.04,23.04l0,0c0,12.72464 10.31536,23.04 23.04,23.04z"/><g font-size="16" font-weight="400" font-family="serif"><path fill="#3f51b5" d="M36.6,33.1c0,1.9334 -1.5666,3.5 -3.5,3.5l-18.2,0c-1.9327,0 -3.5,-1.5666 -3.5,-3.5l0,-18.2c0,-1.9334 1.5673,-3.5 3.5,-3.5l18.2,0c1.9334,0 3.5,1.5666 3.5,3.5z"/><path fill="#ffffff" d="M31.2576,24.7l-2.3576,0l0,9.1l-3.5,0l0,-9.1l-2.1,0l0,-2.8l2.1,0l0,-1.687c0.0014,-2.4556 1.0213,-3.913 3.9144,-3.913l2.3856,0l0,2.8l-1.6009,0c-1.1263,0 -1.1991,0.42 -1.1991,1.2061l0,1.5939l2.8,0z"/></g></g></g></g></svg>