<?xml version="1.0"?>
<svg xmlns="http://www.w3.org/2000/svg" xmlns:xlink="http://www.w3.org/1999/xlink" version="1.1" viewBox="0 0 252 252" width="50px" height="50px"><g transform=""><g fill="none" fill-rule="nonzero" stroke="none" stroke-width="1" stroke-linecap="butt" stroke-linejoin="miter" stroke-miterlimit="10" stroke-dasharray="" stroke-dashoffset="0" font-family="none" font-weight="none" font-size="none" text-anchor="none" style="mix-blend-mode: normal"><path d="M0,252v-252h252v252z" fill="none"/><g fill="#cccccc"><g id="surface1"><path d="M126,0c-11.08406,0 -20.16,9.07594 -20.16,20.16c0,2.59875 0.51188,5.11875 1.4175,7.4025c-28.35,7.36313 -46.7775,31.99219 -46.7775,63.1575c0,39.47344 -9.68625,57.44813 -18.9,67.5675c-4.60687,5.05969 -9.15469,8.13094 -13.0725,11.025c-1.96875,1.43719 -3.76031,2.87438 -5.355,4.725c-1.59469,1.85063 -2.9925,4.48875 -2.9925,7.4025c0,6.93 4.2525,12.81656 10.2375,16.695c5.985,3.87844 13.84031,6.37875 23.31,8.3475c12.285,2.53969 27.44438,3.87844 44.1,4.5675c-1.26,3.34688 -2.0475,6.94969 -2.0475,10.71c0,16.63594 13.60406,30.24 30.24,30.24c16.63594,0 30.24,-13.60406 30.24,-30.24c0,-3.78 -0.76781,-7.38281 -2.0475,-10.71c16.65563,-0.68906 31.815,-2.02781 44.1,-4.5675c9.46969,-1.96875 17.325,-4.46906 23.31,-8.3475c5.985,-3.87844 10.2375,-9.765 10.2375,-16.695c0,-2.91375 -1.39781,-5.55187 -2.9925,-7.4025c-1.59469,-1.85062 -3.38625,-3.28781 -5.355,-4.725c-3.91781,-2.89406 -8.46562,-5.96531 -13.0725,-11.025c-9.21375,-10.11937 -18.9,-28.09406 -18.9,-67.5675c0,-31.14562 -18.46687,-55.755 -46.7775,-63.1575c0.90563,-2.28375 1.4175,-4.80375 1.4175,-7.4025c0,-11.08406 -9.07594,-20.16 -20.16,-20.16zM126,10.08c5.63063,0 10.08,4.44938 10.08,10.08c0,5.63063 -4.44937,10.08 -10.08,10.08c-5.63062,0 -10.08,-4.44937 -10.08,-10.08c0,-5.63062 4.44938,-10.08 10.08,-10.08zM137.8125,36.225c26.87344,4.78406 43.6275,25.55438 43.6275,54.495c0,41.16656 10.47375,62.31094 21.42,74.34c5.47313,6.00469 11.00531,9.765 14.6475,12.4425c1.81125,1.33875 3.16969,2.46094 3.78,3.15c0.61031,0.68906 0.4725,0.63 0.4725,0.7875c0,3.15 -1.45687,5.45344 -5.67,8.19c-4.21312,2.73656 -11.06437,5.27625 -19.845,7.0875c-17.56125,3.64219 -42.56437,4.8825 -70.245,4.8825c-27.68062,0 -52.68375,-1.24031 -70.245,-4.8825c-8.78062,-1.81125 -15.63187,-4.35094 -19.845,-7.0875c-4.21312,-2.73656 -5.67,-5.04 -5.67,-8.19c0,-0.1575 -0.13781,-0.09844 0.4725,-0.7875c0.61031,-0.68906 1.96875,-1.81125 3.78,-3.15c3.64219,-2.6775 9.17438,-6.43781 14.6475,-12.4425c10.94625,-12.02906 21.42,-33.17344 21.42,-74.34c0,-28.92094 16.77375,-49.53375 43.6275,-54.3375c3.34688,2.46094 7.38281,3.9375 11.8125,3.9375c4.46906,0 8.46563,-1.59469 11.8125,-4.095zM108.675,211.365c5.65031,0.11813 11.39906,0.315 17.325,0.315c5.92594,0 11.67469,-0.19687 17.325,-0.315c1.79156,3.03188 2.835,6.615 2.835,10.395c0,11.20219 -8.95781,20.16 -20.16,20.16c-11.20219,0 -20.16,-8.95781 -20.16,-20.16c0,-3.81937 1.00406,-7.36312 2.835,-10.395z"/></g></g><path d="" fill="none"/><path d="" fill="none"/></g></g></svg>
