<?xml version="1.0" encoding="iso-8859-1"?>
<!-- Generator: Adobe Illustrator 21.1.0, SVG Export Plug-In . SVG Version: 6.00 Build 0)  -->
<svg xmlns="http://www.w3.org/2000/svg" xmlns:xlink="http://www.w3.org/1999/xlink" version="1.1" id="&#1057;&#1083;&#1086;&#1081;_1" x="0px" y="0px" viewBox="0 0 50 50" style="enable-background:new 0 0 50 50;" xml:space="preserve" width="50px" height="50px">
<path style="fill:none;stroke:#000000;stroke-width:2;stroke-miterlimit:10;" d="M22.58,7.201C16.761,8.198,13,12.5,13,19  c0,15.125-6,14.564-6,17c0,4,9,5,18,5s18-1,18-5c0-2.436-6-1.875-6-17c0-6.5-3.822-10.877-9.723-11.823"/>
<circle style="fill:none;stroke:#000000;stroke-width:2;stroke-miterlimit:10;" cx="25" cy="5" r="3"/>
<path style="fill:none;stroke:#000000;stroke-width:2;stroke-miterlimit:10;" d="M29.585,41.003C29.852,41.615,30,42.29,30,43  c0,2.762-2.238,5-5,5s-5-2.238-5-5c0-0.663,0.129-1.296,0.364-1.875"/>
</svg>
