<svg viewBox="0 0 48 48" xmlns:xlink="http://www.w3.org/1999/xlink" xmlns="http://www.w3.org/2000/svg" version="1.1" y="0" x="0" width="35" height="35" style=""><g mix-blend-mode="normal" text-anchor="start" font-size="none" font-weight="none" font-family="none" stroke-dashoffset="0" stroke-dasharray="" stroke-miterlimit="10" stroke-linejoin="miter" stroke-linecap="butt" stroke-width="1" stroke="none" fill="none"><g><g><path font-size="12" font-weight="normal" font-family="sans-serif" fill="none" d="M0,48l0,-48l48,0l0,48z"/><path font-size="12" font-weight="normal" font-family="sans-serif" fill="#d3d3d3" d="M24,48c-13.25483,0 -24,-10.74517 -24,-24l0,0c0,-13.25483 10.74517,-24 24,-24l0,0c13.25483,0 24,10.74517 24,24l0,0c0,13.25483 -10.74517,24 -24,24z M24,47.04c12.72464,0 23.04,-10.31536 23.04,-23.04l0,0c0,-12.72464 -10.31536,-23.04 -23.04,-23.04l0,0c-12.72464,0 -23.04,10.31536 -23.04,23.04l0,0c0,12.72464 10.31536,23.04 23.04,23.04z"/><g font-size="16" font-weight="400" font-family="serif"><path fill="#0288d1" d="M36.6,33.1c0,1.9334 -1.5666,3.5 -3.5,3.5l-18.2,0c-1.9327,0 -3.5,-1.5666 -3.5,-3.5l0,-18.2c0,-1.9334 1.5673,-3.5 3.5,-3.5l18.2,0c1.9334,0 3.5,1.5666 3.5,3.5z"/><g fill="#ffffff"><rect height="17" width="5" transform="scale(0.7,0.7)" y="29.28571" x="22.28571"/><path d="M17.3395,19.1l-0.0196,0c-1.0444,0 -1.7199,-0.7784 -1.7199,-1.7507c0,-0.9933 0.6965,-1.7493 1.7598,-1.7493c1.0647,0 1.7206,0.756 1.7402,1.7493c0,0.9716 -0.6755,1.7507 -1.7605,1.7507z"/><path d="M32.4,32.4l-3.5,0l0,-6.3693c0,-1.5386 -0.8575,-2.5886 -2.2344,-2.5886c-1.0507,0 -1.6191,0.7084 -1.8949,1.393c-0.1008,0.245 -0.0707,0.9226 -0.0707,1.2649l0,6.3l-3.5,0l0,-11.9l3.5,0l0,1.8312c0.5047,-0.7812 1.295,-1.8312 3.3166,-1.8312c2.5046,0 4.3827,1.575 4.3827,5.0918l0.0007,6.8082z"/></g></g></g></g></g></svg>