<svg viewBox="0 0 48 48" xmlns:xlink="http://www.w3.org/1999/xlink" xmlns="http://www.w3.org/2000/svg" version="1.1" y="0" x="0" width="35" height="35" style=""><g mix-blend-mode="normal" text-anchor="start" font-size="none" font-weight="none" font-family="none" stroke-dashoffset="0" stroke-dasharray="" stroke-miterlimit="10" stroke-linejoin="miter" stroke-linecap="butt" stroke-width="1" stroke="none" fill="none"><g><g><path font-size="12" font-weight="normal" font-family="sans-serif" fill="none" d="M0,48l0,-48l48,0l0,48z"/><path font-size="12" font-weight="normal" font-family="sans-serif" fill="#d3d3d3" d="M24,48c-13.25483,0 -24,-10.74517 -24,-24l0,0c0,-13.25483 10.74517,-24 24,-24l0,0c13.25483,0 24,10.74517 24,24l0,0c0,13.25483 -10.74517,24 -24,24z M24,47.04c12.72464,0 23.04,-10.31536 23.04,-23.04l0,0c0,-12.72464 -10.31536,-23.04 -23.04,-23.04l0,0c-12.72464,0 -23.04,10.31536 -23.04,23.04l0,0c0,12.72464 10.31536,23.04 23.04,23.04z"/><g font-size="16" font-weight="400" font-family="serif"><circle fill="#d32f2f" r="19" transform="scale(0.7,0.7)" cy="34.28714" cx="34.28571"/><path fill="#ffffff" d="M19.1371,36.3707c-0.0217,-0.455 -0.0189,-2.8077 1.6191,-9.8343c0.2191,-2.3436 -0.0854,-3.1759 -0.0854,-4.1503c0,-2.2099 1.148,-2.6747 1.8186,-2.6747c0.9562,0 2.2764,0.3654 2.2764,1.9061c0,1.7647 -1.4392,2.2288 -1.4392,2.2288c0,0 -0.1036,0.4515 -0.2226,1.7052c-0.1197,1.2565 0.3822,2.6152 2.4311,2.6152c3.2865,0 3.7926,-4.5598 3.7926,-5.8142c0,-1.7339 -1.2698,-5.2535 -5.215,-5.2535c-5.2605,0 -6.1656,4.7138 -6.1656,5.9703c0,0.5376 0.1484,1.4861 0.2499,1.8921c0.9933,0.1603 0.8904,1.5204 0.4662,1.9075c-0.4725,0.4235 -2.8994,0.9296 -2.8994,-4.3967c0,-5.0722 4.5213,-7.6874 8.4896,-7.6874c3.7772,0 7.8925,2.6075 7.8925,7.6286c0,4.4814 -3.2228,8.0101 -6.6073,8.0101c-2.0314,0 -3.1087,-1.6744 -3.1087,-1.6744c0,1.5673 -2.8791,6.9538 -3.2473,7.6384"/></g></g></g></g></svg>