<svg viewBox="0 0 48 48" xmlns:xlink="http://www.w3.org/1999/xlink" xmlns="http://www.w3.org/2000/svg" version="1.1" y="0" x="0" width="35" height="35" style=""><g mix-blend-mode="normal" text-anchor="start" font-size="none" font-weight="none" font-family="none" stroke-dashoffset="0" stroke-dasharray="" stroke-miterlimit="10" stroke-linejoin="miter" stroke-linecap="butt" stroke-width="1" stroke="none" fill="none"><g><g><path font-size="12" font-weight="normal" font-family="sans-serif" fill="none" d="M0,48l0,-48l48,0l0,48z"/><path font-size="12" font-weight="normal" font-family="sans-serif" fill="#d3d3d3" d="M24,48c-13.25483,0 -24,-10.74517 -24,-24l0,0c0,-13.25483 10.74517,-24 24,-24l0,0c13.25483,0 24,10.74517 24,24l0,0c0,13.25483 -10.74517,24 -24,24z M24,47.04c12.72464,0 23.04,-10.31536 23.04,-23.04l0,0c0,-12.72464 -10.31536,-23.04 -23.04,-23.04l0,0c-12.72464,0 -23.04,10.31536 -23.04,23.04l0,0c0,12.72464 10.31536,23.04 23.04,23.04z"/><g font-size="16" font-weight="400" font-family="serif" fill="#03a9f4"><path d="M35.29543,16.55234c-0.83026,0.36775 -1.72327,0.61312 -2.66523,0.72922c0.95765,-0.56857 1.6944,-1.47538 2.04018,-2.54662c-0.89615,0.52526 -1.88894,0.91121 -2.94512,1.11454c-0.84343,-0.89427 -2.04646,-1.44903 -3.37939,-1.44903c-2.56043,0 -4.63575,2.05713 -4.63575,4.5937c0,0.35896 0.04205,0.70851 0.12112,1.04802c-3.85193,-0.19329 -7.26834,-2.02449 -9.5539,-4.80331c-0.40164,0.67901 -0.62755,1.47413 -0.62755,2.31317c0,1.59462 0.81645,2.99846 2.06152,3.82558c-0.75997,-0.02322 -1.47538,-0.23471 -2.10168,-0.57358c0,0.01381 0,0.03452 0,0.05397c0,2.22845 1.59838,4.08413 3.71701,4.50647c-0.3872,0.10606 -0.79637,0.16505 -1.21809,0.16505c-0.29934,0 -0.59116,-0.03389 -0.87356,-0.08472c0.5899,1.82117 2.30124,3.15221 4.32888,3.19175c-1.58646,1.23001 -3.58459,1.96676 -5.75719,1.96676c-0.37528,0 -0.7424,-0.02134 -1.10512,-0.06527c2.05273,1.29967 4.49016,2.06152 7.10643,2.06152c8.52534,0 13.18933,-7.00101 13.18933,-13.07448c0,-0.19894 -0.00628,-0.39724 -0.01569,-0.59304c0.90996,-0.64262 1.6944,-1.45342 2.3138,-2.37969"/></g></g></g></g></svg>