<svg viewBox="0 0 48 48" xmlns:xlink="http://www.w3.org/1999/xlink" xmlns="http://www.w3.org/2000/svg" version="1.1" y="0" x="0" width="35" height="35" style=""><g mix-blend-mode="normal" text-anchor="start" font-size="none" font-weight="none" font-family="none" stroke-dashoffset="0" stroke-dasharray="" stroke-miterlimit="10" stroke-linejoin="miter" stroke-linecap="butt" stroke-width="1" stroke="none" fill="none"><g><g><path font-size="12" font-weight="normal" font-family="sans-serif" fill="none" d="M0,48l0,-48l48,0l0,48z"/><path font-size="12" font-weight="normal" font-family="sans-serif" fill="#d3d3d3" d="M24,48c-13.25483,0 -24,-10.74517 -24,-24l0,0c0,-13.25483 10.74517,-24 24,-24l0,0c13.25483,0 24,10.74517 24,24l0,0c0,13.25483 -10.74517,24 -24,24z M24,47.04c12.72464,0 23.04,-10.31536 23.04,-23.04l0,0c0,-12.72464 -10.31536,-23.04 -23.04,-23.04l0,0c-12.72464,0 -23.04,10.31536 -23.04,23.04l0,0c0,12.72464 10.31536,23.04 23.04,23.04z"/><g font-size="16" font-weight="400" font-family="serif"><path fill="#ffffff" d="M10.58789,37.5577l1.8858,-6.8845c-1.1634,-2.0146 -1.7752,-4.3008 -1.7745,-6.6423c0.0035,-7.3255 5.9647,-13.2853 13.2909,-13.2853c3.5553,0.0014 6.8915,1.3853 9.401,3.8962c2.5088,2.5116 3.8906,5.8492 3.8892,9.3996c-0.0028,7.3255 -5.9654,13.286 -13.2902,13.286c-0.0007,0 0,0 0,0l-0.0056,0c-2.2239,-0.0007 -4.41,-0.5586 -6.3511,-1.6177z"/><g><path fill="#ffffff" d="M10.58789,37.9077c-0.0924,0 -0.182,-0.0364 -0.2485,-0.1036c-0.0875,-0.0889 -0.1218,-0.2184 -0.0889,-0.3381l1.8473,-6.7452c-1.1452,-2.0342 -1.7493,-4.3442 -1.7479,-6.6892c0.0028,-7.5194 6.1215,-13.636 13.6402,-13.636c3.647,0.0014 7.0735,1.4217 9.6488,3.9991c2.5753,2.5781 3.9928,6.0039 3.9914,9.6467c-0.0028,7.5187 -6.1222,13.636 -13.6402,13.636c-2.2323,-0.0007 -4.4408,-0.5516 -6.4008,-1.5939l-6.9125,1.8123c-0.0294,0.0084 -0.0588,0.0119 -0.0889,0.0119z"/><path fill="#cfd8dc" d="M23.99009,10.7456c3.5553,0.0014 6.8915,1.3853 9.401,3.8962c2.5088,2.5116 3.8906,5.8492 3.8892,9.3996c-0.0028,7.3255 -5.9654,13.286 -13.2902,13.286l-0.0056,0c-2.2239,-0.0007 -4.41,-0.5586 -6.3511,-1.6177l-7.0455,1.848l1.8858,-6.8845c-1.1634,-2.0146 -1.7752,-4.3008 -1.7745,-6.6423c0.0035,-7.3255 5.9647,-13.2853 13.2909,-13.2853 M23.99009,37.3274l0,0l0,0 M23.99009,37.3274l0,0l0,0 M23.99009,10.0456l0,0c-7.7112,0 -13.9874,6.2734 -13.9909,13.9853c-0.0007,2.3569 0.5943,4.6795 1.7227,6.7354l-1.8095,6.6073c-0.0658,0.2415 0.0014,0.4991 0.1778,0.6769c0.133,0.1344 0.3129,0.2079 0.4977,0.2079c0.0595,0 0.119,-0.0077 0.1778,-0.0231l6.7809,-1.778c1.9796,1.0276 4.1986,1.5701 6.4379,1.5708c7.7168,0 13.993,-6.2741 13.9965,-13.986c0.0014,-3.7373 -1.4525,-7.2513 -4.0936,-9.8945c-2.6425,-2.6439 -6.1572,-4.1006 -9.8973,-4.102z"/></g><path fill="#40c351" d="M31.80349,16.228c-2.086,-2.0874 -4.8587,-3.2375 -7.8099,-3.2382c-6.0928,0 -11.0481,4.9532 -11.0509,11.0418c-0.0007,2.0867 0.5831,4.1181 1.6891,5.8772l0.2632,0.4179l-1.1165,4.0747l4.1811,-1.0962l0.4039,0.2394c1.6954,1.0066 3.64,1.5386 5.6224,1.5393l0.0042,0c6.0886,0 11.0439,-4.9539 11.046,-11.0432c0.0007,-2.9505 -1.1466,-5.7253 -3.2326,-7.8127z"/><path fill="#ffffff" d="M20.66789,18.4771c-0.2485,-0.553 -0.5103,-0.5642 -0.7476,-0.574c-0.1939,-0.0084 -0.4151,-0.0077 -0.6363,-0.0077c-0.2212,0 -0.581,0.0833 -0.8855,0.4158c-0.3045,0.3325 -1.1627,1.1354 -1.1627,2.7692c0,1.6338 1.19,3.213 1.3559,3.4342c0.1659,0.2212 2.2974,3.6813 5.6728,5.0127c2.8049,1.106 3.3761,0.8862 3.9851,0.8309c0.609,-0.0553 1.9649,-0.8029 2.2414,-1.5785c0.2765,-0.7756 0.2765,-1.4399 0.1939,-1.5785c-0.0833,-0.1386 -0.3045,-0.2212 -0.6363,-0.3878c-0.3318,-0.1666 -1.9649,-0.9695 -2.2694,-1.0801c-0.3045,-0.1106 -0.5257,-0.1659 -0.7476,0.1666c-0.2212,0.3318 -0.8575,1.0801 -1.0514,1.3013c-0.1939,0.2219 -0.3878,0.2499 -0.7196,0.0833c-0.3318,-0.1666 -1.4014,-0.5166 -2.6705,-1.6478c-0.987,-0.8799 -1.6534,-1.967 -1.8473,-2.2995c-0.1939,-0.3318 -0.021,-0.5117 0.1456,-0.6776c0.1491,-0.1491 0.3318,-0.3878 0.4984,-0.5817c0.1659,-0.1939 0.2212,-0.3325 0.3318,-0.5537c0.1106,-0.2219 0.0553,-0.4158 -0.028,-0.5817c-0.0819,-0.1666 -0.7273,-1.8088 -1.0227,-2.4654z"/></g><g font-size="12" font-weight="normal" font-family="sans-serif" fill="none"/></g></g></g></svg>