<?xml version="1.0" encoding="utf-8"?>
<!-- Generator: Adobe Illustrator 16.0.0, SVG Export Plug-In . SVG Version: 6.00 Build 0)  -->
<!DOCTYPE svg PUBLIC "-//W3C//DTD SVG 1.1//EN" "http://www.w3.org/Graphics/SVG/1.1/DTD/svg11.dtd">
<svg version="1.1" id="Layer_1" xmlns="http://www.w3.org/2000/svg" xmlns:xlink="http://www.w3.org/1999/xlink" x="0px" y="0px"
	 width="810px" height="211px" viewBox="0 0 810 211" enable-background="new 0 0 810 211" xml:space="preserve">
<g>
	<g id="Layer_x0020_1">
		<g id="_292464208">
			<g>
				<path id="_292349848" fill="#FFFFFF" d="M96.744,38.007l57.208,32.938v-0.002c0.273,0.154,0.473,0.361,0.604,0.593l0.006,0.018
					c0.132,0.238,0.206,0.508,0.197,0.803c-0.008,0.251-0.075,0.489-0.192,0.702c-0.143,0.255-0.355,0.472-0.628,0.626l-0.001-0.002
					l-57.193,32.932h-0.006c-0.247,0.142-0.534,0.216-0.798,0.226c-0.298,0.013-0.624-0.06-0.904-0.219l-0.001,0.002L37.798,73.666
					l-0.006-0.006c-0.25-0.147-0.44-0.345-0.569-0.563c-0.155-0.264-0.224-0.541-0.215-0.832c0.008-0.259,0.076-0.502,0.21-0.731
					c0.131-0.228,0.328-0.429,0.586-0.579l0.006-0.007l57.211-32.94h0.006c0.247-0.14,0.535-0.216,0.799-0.227
					C96.132,37.77,96.462,37.842,96.744,38.007L96.744,38.007L96.744,38.007z M150.257,72.311L95.883,41.004L41.51,72.311
					l54.374,31.309L150.257,72.311L150.257,72.311z"/>
				<path id="_292349776" fill="#FFFFFF" d="M96.642,37.968l28.671,16.553h0.006l28.672,16.555l0.764,0.44v0.878V105.5v33.105v0.878
					l-0.764,0.441l-28.672,16.555h-0.006l-28.671,16.554l-0.758,0.438l-0.758-0.438l-28.672-16.554h-0.006l-28.671-16.554
					l-0.764-0.441v-0.878V105.5V72.394v-0.878l0.764-0.44l28.671-16.555h0.006l28.671-16.553l0.758-0.438L96.642,37.968
					L96.642,37.968z M123.792,57.155L95.883,41.044L67.975,57.155l0.001,0.004L40.069,73.271V105.5v32.229l27.907,16.113
					l-0.001,0.002l27.908,16.113l27.909-16.113l-0.001-0.002l27.907-16.113V105.5V73.271l-27.907-16.111L123.792,57.155z"/>
				<path id="_292349704" fill="#FFFFFF" d="M67.998,54.573l14.356,8.286h0.006l14.355,8.288l0.764,0.441v0.878v16.576v16.577v0.878
					l-0.764,0.44l-14.355,8.288h-0.006l-14.355,8.287l-0.758,0.438l-0.758-0.438l-14.355-8.287h-0.006l-14.357-8.287L37,106.499
					v-0.878V89.044V72.468V71.59l0.764-0.441l14.357-8.289h0.006l14.355-8.286l0.758-0.438L67.998,54.573L67.998,54.573z
					 M80.833,65.496L67.24,57.649l-13.593,7.847l0.001,0.003l-13.591,7.847v15.698v15.698l13.591,7.848l-0.001,0.002l13.593,7.848
					l13.593-7.848l-0.001-0.002l13.591-7.848V89.044V73.346l-13.592-7.847L80.833,65.496z"/>
				<path id="_292349632" fill="#FFFFFF" d="M125.284,54.573l14.355,8.286h0.006l14.356,8.288l0.764,0.441v0.878v16.576v16.577
					v0.878l-0.764,0.44l-14.356,8.288h-0.006l-14.355,8.287l-0.758,0.438l-0.758-0.438l-14.356-8.287h-0.006l-14.355-8.287
					l-0.764-0.44v-0.878V89.044V72.468V71.59l0.764-0.441l14.355-8.289h0.006l14.356-8.286l0.758-0.438L125.284,54.573
					L125.284,54.573z M138.119,65.496l-13.593-7.847l-13.593,7.847l0.001,0.003l-13.591,7.847v15.698v15.698l13.591,7.848
					l-0.001,0.002l13.593,7.848l13.593-7.848l-0.001-0.002l13.592-7.848V89.044V73.346l-13.592-7.847L138.119,65.496z"/>
				<path id="_292349560" fill="#FFFFFF" d="M96.641,104.091l14.356,8.287h0.006l14.355,8.288l0.764,0.44v0.878v16.576v16.577v0.877
					l-0.764,0.441l-14.355,8.289h-0.006l-14.356,8.287l-0.758,0.438l-0.758-0.438l-14.355-8.287h-0.006l-14.355-8.289l-0.764-0.441
					v-0.877v-16.576v-16.576v-0.879l0.764-0.44l14.355-8.288h0.006l14.355-8.287l0.758-0.438L96.641,104.091z M109.477,115.014
					l-13.594-7.847l-13.593,7.847l0.001,0.003L68.7,122.862v15.698v15.699l13.591,7.848l-0.001,0.002l13.593,7.848l13.594-7.848
					l-0.002-0.002l13.591-7.848v-15.698v-15.699l-13.591-7.847L109.477,115.014z"/>
				<path id="_292349488" fill="#FFFFFF" d="M37.028,138.391V72.342l1.513,0.011l-1.511-0.02c0-0.293,0.075-0.558,0.207-0.789
					c0.134-0.234,0.325-0.427,0.568-0.563l-0.002-0.004c0.247-0.137,0.5-0.202,0.749-0.202l0,0c0.284-0.002,0.572,0.069,0.836,0.224
					l57.096,33.143c0.238,0.139,0.451,0.354,0.596,0.584l0,0c0.162,0.259,0.262,0.578,0.262,0.896v66.047
					c0,0.294-0.075,0.562-0.213,0.797l0.003,0.002c-0.137,0.24-0.335,0.433-0.568,0.563l0.002,0.004
					c-0.251,0.139-0.5,0.203-0.749,0.203v-0.002c-0.292,0.004-0.583-0.068-0.845-0.226l0.001-0.001l-57.088-33.14l0,0
					c-0.242-0.145-0.451-0.353-0.592-0.572l-0.006-0.011C37.129,139.028,37.028,138.711,37.028,138.391L37.028,138.391z
					 M40.055,74.884v62.743l54.263,31.498v-62.743L40.055,74.884z"/>
				<path id="_292465976" fill="#FFFFFF" d="M151.713,137.628V74.885l-54.263,31.5v62.742L151.713,137.628z M153.226,72.354
					l1.513-0.011l0.001,66.049c0,0.321-0.101,0.639-0.262,0.895c-0.144,0.229-0.356,0.44-0.599,0.583l0.001,0.001l-57.095,33.144
					l-0.008,0.002c-0.263,0.15-0.539,0.223-0.802,0.223l0.01-1.522l-0.037,1.521c-0.235,0-0.471-0.063-0.705-0.184l-0.044-0.019
					c-0.23-0.128-0.42-0.313-0.566-0.565c-0.131-0.23-0.206-0.498-0.206-0.8h-0.003v-66.048c0-0.318,0.101-0.637,0.262-0.896
					c0.143-0.226,0.354-0.438,0.598-0.581l-0.001-0.003l57.088-33.139l-0.001-0.002c0.26-0.154,0.55-0.227,0.831-0.227l-0.024,1.522
					l0.037-1.521c0.236,0,0.478,0.065,0.705,0.185l0.044,0.019c0.227,0.126,0.418,0.31,0.565,0.566l-0.002,0.002
					c0.138,0.239,0.21,0.507,0.21,0.787L153.226,72.354L153.226,72.354z"/>
				<path id="_292465904" fill="#FFFFFF" d="M96.686,137.394l28.62,16.479l0.03,0.019c0.221,0.135,0.403,0.318,0.532,0.537
					l0.012,0.012c0.137,0.24,0.206,0.513,0.206,0.763c0,0.278-0.079,0.536-0.213,0.769l0.001,0.001
					c-0.129,0.222-0.315,0.41-0.556,0.555l-0.018,0.013l-28.607,16.472l-0.012,0.006c-0.224,0.127-0.484,0.194-0.727,0.207h-0.006
					c-0.284,0.014-0.588-0.054-0.856-0.203l-0.018-0.006l-28.619-16.479c-0.222-0.131-0.41-0.308-0.546-0.528l-0.004,0.002
					c-0.166-0.271-0.229-0.541-0.229-0.802c0-0.268,0.076-0.534,0.207-0.763v0.001c0.126-0.22,0.316-0.414,0.562-0.563l0.018-0.012
					l28.606-16.473l0.006-0.006c0.215-0.123,0.475-0.193,0.733-0.206v-0.002c0.285-0.014,0.592,0.053,0.861,0.204L96.686,137.394z
					 M121.552,155.203L95.88,140.422l-25.67,14.78l25.669,14.78L121.552,155.203L121.552,155.203z"/>
				<path id="_292465832" fill="#FFFFFF" d="M154.708,72.521l0.04,33.026c0,0.292-0.071,0.534-0.186,0.742l-0.019,0.039
					c-0.143,0.249-0.335,0.438-0.557,0.559c-0.236,0.127-0.488,0.197-0.718,0.197l-0.053,0.002c-0.261,0-0.53-0.07-0.77-0.211
					l0.741-1.317l-0.75,1.315l-28.568-16.539l0.749-1.315l-0.752,1.311c-0.227-0.132-0.428-0.335-0.566-0.555
					c-0.148-0.233-0.239-0.529-0.24-0.841h-0.002l-0.04-33.025h0.004c0.003-0.291,0.07-0.55,0.197-0.765l1.316,0.757l-1.312-0.772
					c0.139-0.243,0.326-0.436,0.557-0.56c0.233-0.125,0.49-0.2,0.75-0.2v0.002c0.272,0.004,0.547,0.07,0.78,0.203l0.019,0.01
					l28.568,16.538l0.033,0.021c0.209,0.131,0.401,0.324,0.536,0.538c0.149,0.237,0.238,0.526,0.24,0.84H154.708z M151.718,102.959
					l-0.035-29.623l-25.636-14.841l0.035,29.623L151.718,102.959z M124.53,55.917h0.024v0.021l0.001-0.002l-0.001-0.02h0.001l0,0
					h-0.001v-0.003l0,0v0.003L124.53,55.917L124.53,55.917z M124.555,55.917L124.555,55.917L124.555,55.917L124.555,55.917
					L124.555,55.917z M124.557,55.917h0.006l0,0H124.557L124.557,55.917L124.557,55.917z M124.563,55.917L124.563,55.917
					L124.563,55.917L124.563,55.917L124.563,55.917z M124.563,55.917h0.004l0,0H124.563L124.563,55.917z M124.567,55.917
					l1.429,0.009l0.007-0.018L124.567,55.917L124.567,55.917z M123.017,55.906l0.004,0.02v-0.02H123.017z M124.555,55.912
					L124.555,55.912V55.89V55.912z M124.555,55.912L124.555,55.912L124.555,55.912L124.555,55.912L124.555,55.912z M124.555,55.913
					L124.555,55.913L124.555,55.913L124.555,55.913L124.555,55.913z M124.555,55.938l0.024,1.428l0.017,0.007l0.009-0.003
					L124.555,55.938L124.555,55.938z M124.529,54.367l-0.026,0.001l0.026,0.001V54.367z"/>
				<path id="_292465760" fill="#FFFFFF" d="M40.094,73.34l-0.036,29.624l25.637-14.843l0.035-29.622L40.094,73.34z M40.012,105.53
					l-1.433,0.01v0.001l1.439,0.009L40.012,105.53L40.012,105.53z M38.578,105.54L38.578,105.54L38.578,105.54L38.578,105.54
					L38.578,105.54z M38.576,105.54h-0.007v0.001L38.576,105.54L38.576,105.54z M38.569,105.54L38.569,105.54L38.569,105.54
					L38.569,105.54L38.569,105.54z M38.568,105.54L38.568,105.54L38.568,105.54L38.568,105.54L38.568,105.54z M38.567,105.54h-0.002
					v0.001L38.567,105.54L38.567,105.54z M38.565,105.54h-0.023H38.565L38.565,105.54z M37.033,105.55h-0.004l0.04-33.025
					c0-0.307,0.093-0.604,0.243-0.84c0.138-0.22,0.33-0.414,0.546-0.545l0.022-0.015l28.568-16.539
					c0.245-0.144,0.51-0.214,0.778-0.214l-0.003,1.521l0.012-1.522c0.225,0,0.453,0.055,0.667,0.153l0,0
					c0.024,0.012,0.048,0.022,0.072,0.035l0.023,0.013l0,0c0.215,0.121,0.388,0.295,0.508,0.489l0.067,0.107
					c0.116,0.208,0.186,0.457,0.186,0.742L68.72,88.938h-0.002c-0.001,0.307-0.093,0.605-0.241,0.84
					c-0.139,0.222-0.338,0.425-0.569,0.56v0.001l-28.569,16.54l-0.057,0.028c-0.192,0.103-0.398,0.16-0.624,0.179v0.006
					c-0.315,0.018-0.614-0.055-0.868-0.2l0.001-0.003c-0.247-0.141-0.442-0.344-0.57-0.584l-0.015-0.021
					C37.107,106.092,37.036,105.837,37.033,105.55L37.033,105.55z M37.033,105.53l-0.004,0.02h0.004V105.53z"/>
				<path id="_292465688" fill="#FFFFFF" d="M65.771,88.935l-0.04-33.024c0-0.292,0.071-0.534,0.187-0.742l0.019-0.038
					c0.139-0.244,0.326-0.437,0.557-0.561c0.227-0.122,0.479-0.195,0.718-0.195l0.053-0.003c0.261,0,0.53,0.069,0.77,0.212
					l-0.742,1.315l0.75-1.313l28.569,16.538l0.011,0.008c0.22,0.129,0.419,0.332,0.558,0.552c0.14,0.223,0.233,0.509,0.24,0.822
					l0.004,0.019l0.039,33.025l-0.001,0.035c0,0.27-0.078,0.521-0.2,0.729l-0.053,0.086c-0.135,0.22-0.3,0.377-0.508,0.488
					c-0.236,0.128-0.468,0.197-0.718,0.197l-0.053,0.004c-0.267,0-0.538-0.074-0.778-0.215l-28.57-16.538v-0.001
					c-0.232-0.138-0.432-0.339-0.57-0.56c-0.148-0.233-0.239-0.533-0.24-0.841L65.771,88.935L65.771,88.935z M68.761,58.497
					l0.035,29.622l25.636,14.841l-0.035-29.622L68.761,58.497L68.761,58.497z"/>
				<path id="_292465616" fill="#FFFFFF" d="M68.8,122.694l-0.036,29.624L94.4,137.478l0.036-29.622L68.8,122.694z M65.735,154.905
					l0.04-33.024c0-0.304,0.092-0.604,0.243-0.842c0.137-0.218,0.329-0.412,0.547-0.545l0.022-0.015l28.568-16.539v0.002
					c0.251-0.146,0.519-0.216,0.777-0.216l-0.003,1.521l0.057-1.519c0.208,0,0.417,0.054,0.623,0.149l0,0l0.007,0.003
					c0.029,0.014,0.059,0.029,0.088,0.045l-0.001,0.002c0.207,0.122,0.39,0.293,0.509,0.486l0.02,0.024
					c0.151,0.247,0.234,0.524,0.234,0.825l-0.04,33.026c0,0.303-0.093,0.604-0.243,0.842l-0.015,0.024
					c-0.131,0.205-0.326,0.398-0.555,0.531v0.002l-28.567,16.541l-0.02,0.01c-0.232,0.133-0.5,0.199-0.779,0.203v0.002
					c-0.271,0-0.518-0.075-0.75-0.2l0.001-0.002c-0.243-0.14-0.426-0.326-0.558-0.558l-0.019-0.039
					C65.806,155.44,65.735,155.184,65.735,154.905L65.735,154.905z"/>
				<path id="_292465544" fill="#FFFFFF" d="M125.809,121.877l0.039,33.024c0,0.292-0.07,0.534-0.186,0.742l-0.019,0.039
					c-0.143,0.248-0.335,0.439-0.557,0.56c-0.236,0.127-0.488,0.196-0.718,0.196l-0.053,0.002c-0.267,0-0.521-0.067-0.758-0.204
					l-0.019-0.009l-28.569-16.539v-0.001c-0.234-0.138-0.426-0.332-0.555-0.532l-0.014-0.024c-0.146-0.232-0.239-0.531-0.24-0.842
					h-0.002l-0.04-33.026h0.004c0.003-0.291,0.07-0.549,0.197-0.764l1.316,0.757l-1.312-0.773c0.139-0.244,0.326-0.435,0.557-0.559
					c0.233-0.125,0.49-0.201,0.75-0.201l0.021,0.001c0.261,0,0.53,0.071,0.77,0.212l-0.741,1.316l0.75-1.314l28.568,16.539
					l-0.001,0.002c0.232,0.139,0.427,0.33,0.555,0.531l-1.27,0.815l1.273-0.811c0.154,0.237,0.247,0.527,0.257,0.805
					L125.809,121.877z M122.818,152.313l-0.035-29.621l-25.636-14.841l0.036,29.622L122.818,152.313L122.818,152.313z
					 M124.204,121.867L124.204,121.867l0.043-0.076L124.204,121.867z M95.63,105.271h0.024l0,0H95.63z M95.655,105.271h0.002l0,0
					H95.655L95.655,105.271z M95.657,105.271h0.006l0,0H95.657L95.657,105.271z M95.663,105.271L95.663,105.271L95.663,105.271
					L95.663,105.271L95.663,105.271z M95.664,105.271h0.003l0,0H95.664L95.664,105.271z M95.667,105.271L95.667,105.271
					L95.667,105.271L95.667,105.271L95.667,105.271z M95.667,105.271l1.428,0.009l0.007-0.018L95.667,105.271L95.667,105.271z
					 M94.117,105.263l0.004,0.019v-0.019H94.117z M124.202,121.871l-0.004,0.008l0.001-0.002L124.202,121.871L124.202,121.871z
					 M124.197,121.879L124.197,121.879L124.197,121.879l0.001-0.002L124.197,121.879z M124.197,121.879l-0.684,1.198l0.006,0.007
					l0.679-1.205H124.197z M124.997,120.477l-0.008-0.002l0.007,0.004L124.997,120.477L124.997,120.477z"/>
				<path id="_292465472" fill="#FFFFFF" d="M122.97,88.123l0.035-29.623L97.369,73.342l-0.036,29.622L122.97,88.123z
					 M126.034,55.913l-0.039,33.024h-0.002c-0.001,0.312-0.092,0.606-0.24,0.841l-0.015,0.026c-0.134,0.208-0.334,0.408-0.566,0.541
					v-0.001l-28.557,16.532c-0.249,0.145-0.517,0.215-0.778,0.215l0.004-1.521l-0.012,1.523c-0.233,0-0.459-0.058-0.667-0.154l0,0
					c-0.026-0.012-0.052-0.023-0.077-0.037l-0.019-0.011c-0.223-0.124-0.39-0.298-0.508-0.489l-0.067-0.106
					c-0.116-0.209-0.187-0.458-0.187-0.743l0.04-33.025h0.002c0.001-0.311,0.094-0.607,0.241-0.842
					c0.139-0.221,0.338-0.422,0.569-0.558v-0.001l28.568-16.539l0.749,1.313l-0.741-1.315c0.24-0.142,0.509-0.212,0.769-0.212
					l-0.003,1.521l0.057-1.517c0.231,0,0.482,0.068,0.719,0.195c0.221,0.119,0.415,0.311,0.557,0.56l0.019,0.039
					C125.964,55.379,126.034,55.62,126.034,55.913L126.034,55.913z"/>
				<path id="_292465280" fill="#FFFFFF" d="M68.053,87.538l28.589,16.506l0.029,0.018c0.219,0.133,0.399,0.313,0.532,0.538
					l0.012,0.012c0.137,0.239,0.206,0.512,0.206,0.764c0,0.267-0.075,0.527-0.214,0.768v0.001c-0.126,0.217-0.313,0.408-0.556,0.555
					l-0.018,0.013l-28.624,16.435l-0.054,0.029c-0.208,0.109-0.458,0.172-0.692,0.184h-0.018c-0.29,0.01-0.596-0.058-0.865-0.217
					l-28.59-16.505c-0.246-0.145-0.434-0.338-0.562-0.557l-0.012-0.013c-0.136-0.238-0.205-0.487-0.203-0.762h-0.002
					c0-0.262,0.065-0.488,0.189-0.721l0.012-0.029c0.136-0.242,0.332-0.436,0.586-0.585l28.626-16.438l0.024-0.013
					c0.217-0.12,0.473-0.188,0.715-0.201h0.006C67.465,87.308,67.78,87.376,68.053,87.538L68.053,87.538L68.053,87.538z
					 M92.888,105.37L67.234,90.559L41.545,105.31l25.654,14.813L92.888,105.37z"/>
				<path id="_292465088" fill="#FFFFFF" d="M125.396,87.53l28.601,16.514l-0.002,0.003c0.237,0.138,0.431,0.328,0.563,0.553
					l0.012,0.012c0.137,0.239,0.206,0.5,0.206,0.763c0,0.245-0.06,0.496-0.203,0.749l0.002,0.001
					c-0.126,0.227-0.321,0.425-0.568,0.572l-0.018,0.014l-28.626,16.437l-0.006,0.006c-0.219,0.125-0.479,0.194-0.733,0.206v0.001
					c-0.296,0.016-0.61-0.055-0.878-0.21l-28.602-16.513c-0.231-0.135-0.404-0.308-0.527-0.498l-0.047-0.07
					c-0.151-0.264-0.206-0.511-0.206-0.762c0-0.289,0.075-0.507,0.189-0.721l0.024-0.047c0.125-0.217,0.314-0.415,0.574-0.567
					l28.626-16.438l0.024-0.013c0.218-0.12,0.473-0.188,0.715-0.201h0.006C124.813,87.308,125.125,87.375,125.396,87.53
					L125.396,87.53z M150.241,105.37l-25.653-14.813L98.899,105.31l25.653,14.813L150.241,105.37z"/>
				<path id="_292464856" fill="#FFFFFF" d="M96.707,37.991l28.576,16.498c0.248,0.139,0.446,0.332,0.586,0.569l0.012,0.012
					c0.137,0.239,0.205,0.488,0.205,0.763c0,0.25-0.071,0.501-0.188,0.721l-0.012,0.029c-0.126,0.226-0.321,0.425-0.568,0.572
					l-0.018,0.013L96.674,73.604l-0.024,0.013c-0.218,0.12-0.478,0.189-0.722,0.2H95.91c-0.287,0.01-0.594-0.06-0.855-0.21
					l-28.6-16.512c-0.239-0.14-0.418-0.319-0.548-0.528l-0.002,0.001c-0.173-0.279-0.229-0.545-0.229-0.803
					c0-0.27,0.075-0.507,0.189-0.72l0.024-0.048c0.129-0.222,0.322-0.419,0.575-0.565l-0.001-0.001l28.626-16.438l0.023-0.014
					c0.217-0.12,0.476-0.188,0.715-0.201h0.006C96.127,37.769,96.437,37.835,96.707,37.991L96.707,37.991z M121.553,55.83
					L95.899,41.02L70.211,55.771l25.653,14.812L121.553,55.83z"/>
				<path id="_292464664" fill="#FFFFFF" d="M96.707,137.393l28.6,16.512l0.029,0.019c0.221,0.135,0.403,0.32,0.532,0.539
					l0.012,0.012c0.137,0.24,0.206,0.511,0.206,0.762c0,0.279-0.08,0.537-0.214,0.769l0.001,0.001
					c-0.129,0.222-0.315,0.41-0.556,0.555l-0.018,0.013l-28.625,16.437l-0.024,0.013c-0.22,0.121-0.479,0.189-0.722,0.201
					c-0.293,0.014-0.605-0.056-0.873-0.209l-28.57-16.496 M121.552,155.229l-25.654-14.81L70.21,155.171l25.653,14.812
					L121.552,155.229z M65.905,155.971c-0.146-0.236-0.229-0.498-0.227-0.803h-0.002c0-0.255,0.069-0.521,0.206-0.763h0.001
					c0.129-0.226,0.324-0.424,0.58-0.572l28.625-16.438l0.024-0.011c0.216-0.12,0.475-0.19,0.715-0.202h0.006
					c0.292-0.013,0.604,0.055,0.873,0.211 M65.908,155.969l-0.003,0.002"/>
				<polygon id="_292464568" fill="#FFFFFF" points="37.783,137.082 99.653,101.36 101.17,104 39.299,139.721 				"/>
				<polygon id="_292464448" fill="#FFFFFF" points="152.468,139.723 84.885,100.703 86.401,98.063 153.985,137.084 				"/>
			</g>
			<path id="_292464304" fill="#FFFFFF" d="M218.85,122.416l19.114-48.857l0.173-0.441h0.473h2.964h0.497l0.16,0.472l16.661,49.164
				l0.008,0.026l1.734,5.854c0.058-0.192,0.119-0.393,0.184-0.601c0.421-1.349,1.011-3.073,1.769-5.176l0,0l16.968-50.596
				l0.159-0.475h0.498h4.906h0.973l-0.319,0.92l-23.1,66.746l-0.162,0.469h-0.492h-2.76h-0.491l-0.163-0.467
				c-5.689-16.32-10.009-28.724-12.955-37.206c-2.961-8.523-4.54-13.097-4.736-13.715l0.002-0.001
				c-0.245-0.736-0.551-1.642-0.917-2.721l-0.262-0.771c-0.092,0.248-0.19,0.513-0.297,0.793v0.003
				c-0.461,1.211-1.067,2.74-1.819,4.588l0,0l-19.315,49.054l-0.174,0.442h-0.472h-2.76h-0.491l-0.163-0.467L190.938,72.71
				l-0.322-0.923h0.977h5.212h0.497l0.16,0.472l16.865,49.778l0,0c0.477,1.363,0.941,2.813,1.388,4.35
				c0.232,0.796,0.46,1.612,0.684,2.449c0.1-0.285,0.208-0.589,0.326-0.91C217.255,126.469,217.964,124.631,218.85,122.416
				L218.85,122.416L218.85,122.416z M297.914,138.817V72.48v-0.693h0.695h4.702h0.695v0.693v66.337v0.695h-0.695h-4.702h-0.695
				V138.817z M341.231,76.039c-1.776,0-3.381,0.211-4.813,0.635c-1.416,0.418-2.67,1.044-3.761,1.879
				c-1.066,0.814-1.866,1.794-2.397,2.936c-0.536,1.15-0.804,2.478-0.804,3.976c0,3.482,1.461,6.621,4.383,9.412l0.005,0.006
				c1.071,1.037,2.302,2.107,3.692,3.212c1.394,1.106,2.943,2.242,4.648,3.407c1.709,1.167,3.165,2.18,4.365,3.034
				c1.182,0.843,2.109,1.527,2.776,2.056c0.676,0.533,1.403,1.146,2.179,1.838c0.78,0.696,1.639,1.495,2.575,2.396l0.011,0.009
				c1.728,1.728,3.028,3.598,3.9,5.607c0.875,2.018,1.312,4.161,1.312,6.434c0,5.883-1.983,10.344-5.947,13.379
				c-1.959,1.5-4.306,2.626-7.036,3.375c-2.706,0.741-5.783,1.113-9.228,1.113c-3.457,0-6.64-0.454-9.546-1.361
				c-2.915-0.91-5.547-2.277-7.896-4.103l-0.518-0.401l0.369-0.537l2.453-3.576l0.391-0.57l0.57,0.386
				c2.266,1.532,4.592,2.682,6.976,3.442c2.379,0.76,4.831,1.141,7.354,1.141c2.53,0,4.775-0.266,6.733-0.794
				c1.934-0.521,3.589-1.302,4.964-2.337c1.355-1.02,2.371-2.245,3.046-3.678c0.679-1.436,1.019-3.094,1.019-4.967
				c0-3.215-1.395-6.184-4.184-8.908l-0.008-0.005c-1.011-1.011-2.189-2.061-3.533-3.146c-1.362-1.101-2.896-2.24-4.598-3.42
				c-1.788-1.238-3.252-2.269-4.391-3.083c-1.184-0.85-2.134-1.55-2.845-2.102c-0.689-0.534-1.443-1.163-2.259-1.883
				c-0.816-0.721-1.685-1.524-2.602-2.407l-0.008-0.009c-1.799-1.799-3.152-3.745-4.056-5.838c-0.909-2.104-1.363-4.341-1.363-6.714
				c0-4.786,1.707-8.544,5.118-11.272c1.691-1.354,3.701-2.366,6.027-3.038c2.31-0.667,4.925-1.001,7.846-1.001
				c2.91,0,5.677,0.286,8.298,0.859c2.625,0.573,5.107,1.437,7.443,2.587l0.604,0.298l-0.281,0.611l-1.738,3.781l-0.296,0.646
				l-0.635-0.309c-2.062-0.997-4.283-1.746-6.662-2.245C346.5,76.289,343.948,76.039,341.231,76.039z M427.52,138.817v-32.831
				h-44.708v32.831v0.695h-0.694h-4.702h-0.694v-0.695V72.48v-0.693h0.694h4.702h0.694v0.693v27.925h44.708V72.48v-0.693h0.695
				h4.701h0.695v0.693v66.337v0.695h-0.695h-4.701h-0.695V138.817z M498.237,72.939l-27.921,31.55
				c5.396,6.542,9.973,11.921,13.727,16.134c3.809,4.275,6.732,7.307,8.767,9.088c2.014,1.764,4.021,3.145,6.024,4.142
				c1.98,0.986,3.953,1.595,5.914,1.823l0.066,0.008l26.606-63.876l0.179-0.43h0.462h2.761h0.462l0.179,0.427l28.006,66.745
				l0.404,0.964h-1.044h-5.213h-0.462l-0.18-0.43l-9.429-22.568h-28.514l-9.328,22.566l-0.179,0.432h-0.463h-3.804l-0.001,0.041
				l-0.021,0.684l-0.683-0.013c-1.945-0.034-3.713-0.196-5.299-0.482c-1.609-0.291-3.033-0.712-4.271-1.261
				c-1.226-0.543-2.386-1.181-3.479-1.912c-1.092-0.729-2.112-1.553-3.06-2.465c-0.92-0.887-2.376-2.428-4.363-4.623
				c-1.992-2.198-4.487-5.018-7.483-8.453c-3.038-3.483-5.677-6.541-7.914-9.166c-2.246-2.639-4.129-4.887-5.645-6.746l-0.199-0.245
				v33.946v0.695h-0.693h-4.702h-0.694v-0.695V72.48v-0.693h0.694h4.702h0.693v0.693v31.984l0.218-0.246l28.519-32.196l0.209-0.235
				h0.31h5.621h1.54L498.237,72.939L498.237,72.939z M533.217,81.708c-0.287,0.839-0.564,1.632-0.835,2.379
				c-0.469,1.302-0.906,2.461-1.312,3.474l-0.003,0.008l-9.82,23.57h24.088l-9.722-23.471c-0.806-1.959-1.454-3.563-1.946-4.81
				h-0.001C533.504,82.446,533.354,82.063,533.217,81.708z M575.626,138.817V72.788v-0.641l0.641-0.052
				c2.909-0.237,5.626-0.416,8.147-0.537c2.525-0.121,4.802-0.182,6.83-0.182c3.202,0,6.133,0.416,8.792,1.247
				c2.668,0.833,5.06,2.087,7.173,3.761c2.136,1.69,3.738,3.742,4.806,6.152c1.063,2.397,1.595,5.146,1.595,8.239
				c0,2.077-0.302,4.08-0.902,6.008c-0.598,1.918-1.497,3.76-2.695,5.521c-1.184,1.74-2.441,3.313-3.775,4.716
				c-1.168,1.229-2.399,2.335-3.692,3.316c3.843,5.099,6.981,9.212,9.411,12.338c2.497,3.21,4.21,5.331,5.138,6.36l0.001-0.001
				c1.893,1.958,3.862,3.49,5.911,4.597c2.034,1.1,4.15,1.781,6.346,2.043l0.632,0.075l-0.021,0.636l-0.102,3.168l-0.022,0.684
				l-0.681-0.013c-1.947-0.034-3.714-0.196-5.299-0.483c-1.609-0.29-3.034-0.712-4.271-1.26c-1.242-0.55-2.477-1.289-3.703-2.215
				c-1.215-0.918-2.425-2.022-3.629-3.313c-2.345-2.515-7.455-9.223-15.33-20.117c-2.6-0.004-5.223-0.048-7.868-0.131
				c-2.483-0.078-4.93-0.191-7.336-0.337v26.449v0.695h-0.694h-4.701h-0.695v-0.694H575.626z M594.719,107.562
				c1.2,0,2.46-0.408,3.776-1.223c1.369-0.848,2.798-2.132,4.286-3.852c2.952-3.411,4.429-7.384,4.429-11.915
				c0-4.474-1.511-7.867-4.53-10.181c-1.533-1.176-3.299-2.058-5.294-2.646c-2.011-0.594-4.263-0.891-6.755-0.891
				c-1.388,0-2.861,0.033-4.419,0.101c-1.384,0.059-2.883,0.146-4.494,0.26v29.882c2.234,0.148,4.379,0.263,6.433,0.34
				C590.383,107.52,592.573,107.562,594.719,107.562L594.719,107.562z M669.232,136.037h-2.761h-0.463l-0.178-0.433l-19.317-46.915
				l0,0c-0.423-0.953-0.835-1.956-1.233-3.006c-0.095-0.244-0.188-0.494-0.281-0.75l-0.118,0.968
				c-0.135,1.109-0.271,2.055-0.414,2.832h0.002l-7.666,50.188l-0.091,0.592h-0.596h-4.601H630.7l0.132-0.807l10.834-66.745
				l0.095-0.584h0.589h2.762h0.457l0.181,0.427l20.646,48.96l0.007,0.011c0.831,2.078,1.442,3.634,1.838,4.668
				c0.519-1.258,1.221-2.795,2.106-4.61h0.002l22.993-49.053l0.188-0.401h0.438h2.76h0.598l0.09,0.592l10.119,66.745l0.121,0.799
				h-0.809h-4.906h-0.601l-0.086-0.598l-7.258-50.393c-0.22-1.541-0.392-2.85-0.51-3.923l-1.849,4.205l-0.006,0.013l-21.771,46.813
				l-0.188,0.404H669.232L669.232,136.037z M728.16,116.516l-9.328,22.566l-0.179,0.432h-0.462h-4.805h-1.04l0.4-0.961
				l27.802-66.746l0.178-0.429h0.464h2.759h0.462l0.179,0.427l28.007,66.744l0.403,0.965h-1.044h-5.213h-0.462l-0.18-0.43
				l-9.429-22.568H728.16L728.16,116.516z M742.344,81.708c-0.287,0.839-0.564,1.632-0.835,2.379
				c-0.469,1.302-0.906,2.461-1.312,3.474l-0.003,0.008l-9.82,23.57h24.088l-9.722-23.471c-0.806-1.959-1.454-3.563-1.946-4.81
				h-0.001C742.631,82.446,742.48,82.063,742.344,81.708z"/>
		</g>
	</g>
	<path fill="#2B2A29" d="M132.775,98.318"/>
</g>
</svg>
