<?xml version="1.0" encoding="UTF-8"?>
<!DOCTYPE svg PUBLIC "-//W3C//DTD SVG 1.1//EN" "http://www.w3.org/Graphics/SVG/1.1/DTD/svg11.dtd">
<!-- Creator: CorelDRAW -->
<svg xmlns="http://www.w3.org/2000/svg" xml:space="preserve" width="297mm" height="70mm" style="shape-rendering:geometricPrecision; text-rendering:geometricPrecision; image-rendering:optimizeQuality; fill-rule:evenodd; clip-rule:evenodd"
viewBox="0 0 297 70"
 xmlns:xlink="http://www.w3.org/1999/xlink">
 <defs>
  <style type="text/css">
   <![CDATA[
    .str2 {stroke:#373435;stroke-width:0.7871}
    .str0 {stroke:#373435;stroke-width:0.7889}
    .str1 {stroke:#373435;stroke-width:0.7891}
    .fil3 {fill:none}
    .fil1 {fill:none;fill-rule:nonzero}
    .fil2 {fill:#373435}
    .fil0 {fill:#373435;fill-rule:nonzero}
    .fil4 {fill:black;fill-rule:nonzero}
   ]]>
  </style>
 </defs>
 <g id="Layer_x0020_1">
  <metadata id="CorelCorpID_0Corel-Layer"/>
  <g id="_197631016">
   <g>
    <g>
     <path id="_197633032" class="fil0" d="M59.3347 22.3678l-22.3333 -12.8591 0.3956 -0.6732 22.3333 12.8591 -0.3924 0.675 -0.0032 -0.0018zm0.0032 0.0018l-0.0032 -0.0018 -0.0003 -0.0002 0.0035 0.002zm0.3872 0.0386l-0.3956 -0.6732 0.0036 -0.0021 -0.0131 0.0078 -0.013 0.0085 -0.0072 0.0051 -0.0139 0.0107 -0.0135 0.0114 -0.0093 0.0087 -0.02 0.0207 -0.0153 0.0183 -0.0002 0.0004 -0.0144 0.0201 -0.0234 0.0403 -0.009 0.0193 -0.0021 0.005 -0.0121 0.0348 -0.0071 0.0274 -0.0044 0.0249 -0.0035 0.0388 0 0.0273 0.0038 0.0408 0.0047 0.0259 0.0065 0.0245 0.0093 0.0277 0.0118 0.0272 0.0164 0.0306 0.0171 0.0258 0.0159 0.0206 0.0168 0.0188 0.0172 0.0168 0.0104 0.0092 0.0271 0.0209 0.0155 0.0103 0.0138 0.0081 0.3892 -0.6768 0.017 0.0101 0.0187 0.0123 0.0299 0.0231 0.0128 0.0114 0.0196 0.019 0.0188 0.0212 0.0179 0.023 0.0187 0.0284 0.0178 0.033 0.0128 0.0298 0.0103 0.0303 0.0071 0.0273 0.0053 0.0285 0.004 0.0436 0 0.0299 -0.0037 0.0416 -0.005 0.0277 -0.0077 0.0302 -0.0131 0.0374 -0.0033 0.0078 -0.0102 0.0221 -0.025 0.0431 -0.0164 0.0227 -0.0022 0.003 -0.0175 0.0211 -0.0226 0.0233 -0.0119 0.0111 -0.0165 0.014 -0.0171 0.0131 -0.0106 0.0075 -0.0166 0.0109 -0.0169 0.01 0.0036 -0.0021zm-0.3956 -0.6732l0.0036 -0.0021 0.002 -0.0011 -0.0056 0.0032zm-22.323 12.8535l22.323 -12.8535 0.3956 0.6732 -22.323 12.8535 -0.0024 0.0014 -0.3932 -0.6746zm0.3956 0.6732l-0.0024 0.0014 -0.002 0.0011 0.0044 -0.0025zm-0.4664 0.0029l0.3956 -0.6732 -0.0001 -0.0001 -0.0147 -0.008 -0.0139 -0.0067 -0.018 -0.0077 -0.0097 -0.0037 -0.0121 -0.0041 -0.0173 -0.005 -0.0085 -0.0021 -0.0082 -0.0018 -0.015 -0.0027 -0.0077 -0.0011 -0.0158 -0.0017 -0.0068 -0.0006 -0.006 -0.0002 -0.0146 -0.0004 0.0024 0 -0.0141 0.0003 -0.0134 0.0008 0.0025 -0.0002 -0.0065 0.0006 -0.0137 0.0017 -0.0135 0.0023 -0.007 0.0014 -0.0056 0.0012 -0.0053 0.0013 -0.0075 0.002 -0.0128 0.0039 -0.0076 0.0026 -0.0107 0.0041 -0.0155 0.0065 -0.0049 0.0023 -0.0081 0.004 -0.0127 0.0068 0.3908 0.676 -0.0167 0.009 -0.0123 0.006 -0.0091 0.0043 -0.0197 0.0083 -0.0151 0.0057 -0.0122 0.0042 -0.0174 0.0053 -0.0121 0.0032 -0.0101 0.0025 -0.0102 0.0022 -0.0118 0.0024 -0.0183 0.0031 -0.0185 0.0023 -0.0113 0.001 -0.0025 0.0002 -0.0182 0.0012 -0.0189 0.0003 -0.0024 0 -0.0192 -0.0004 -0.0108 -0.0006 -0.0114 -0.0008 -0.0204 -0.0023 -0.0121 -0.0017 -0.0194 -0.0035 -0.0126 -0.0028 -0.0127 -0.0031 -0.0215 -0.0062 -0.0161 -0.0055 -0.0135 -0.0051 -0.0218 -0.0093 -0.0175 -0.0085 -0.0181 -0.0098 -0.0001 -0.0001zm-21.9377 -13.5322l22.3333 12.859 -0.3956 0.6732 -22.3333 -12.859 -0.0025 -0.0014 0.3981 -0.6718zm-0.3956 0.6732l-0.0025 -0.0014 -0.004 -0.0023 0.0065 0.0037zm0.0051 -0.7142l0.3956 0.6732 0.0025 -0.0015 0.0134 -0.0082 0.0066 -0.0044 0.0133 -0.0096 0.0078 -0.0061 0.0135 -0.0115 0.02 -0.0192 0.0093 -0.01 0.0153 -0.0184 0.01 -0.0136 0.0102 -0.0153 0.0129 -0.0221 0.0092 -0.0185 0.0128 -0.0314 0.0073 -0.0224 0.0053 -0.0209 0.0066 -0.0398 0.002 -0.0274 0 -0.0262 -0.002 -0.0274 -0.0066 -0.0398 -0.0064 -0.0245 -0.0094 -0.0277 -0.0145 -0.0329 -0.0136 -0.0248 -0.0154 -0.0235 -0.0177 -0.023 -0.0169 -0.019 -0.0106 -0.0106 -0.0168 -0.0151 -0.0201 -0.0158 -0.0152 -0.0106 -0.0154 -0.0096 -0.4006 0.6704 -0.0186 -0.0116 -0.0184 -0.0128 -0.0229 -0.018 -0.0192 -0.0173 -0.013 -0.013 -0.0191 -0.0214 -0.0195 -0.0254 -0.017 -0.0259 -0.015 -0.0274 -0.0157 -0.0355 -0.0102 -0.0303 -0.0072 -0.0273 -0.007 -0.0424 -0.0022 -0.0302 0 -0.029 0.0022 -0.0302 0.007 -0.0424 0.0061 -0.0237 0.0081 -0.0252 0.014 -0.0342 0.0106 -0.0213 0.0145 -0.0249 0.012 -0.0179 0.012 -0.0164 0.0175 -0.021 0.0119 -0.0128 0.0226 -0.0218 0.0165 -0.0139 0.011 -0.0087 0.0167 -0.012 0.0102 -0.0068 0.0172 -0.0106 0.0025 -0.0015zm-0.0025 0.0015l0.0025 -0.0015 0.0036 -0.0021 -0.0061 0.0036zm22.7211 -12.1815l-22.323 12.8532 -0.3956 -0.6732 22.323 -12.8532 0.0024 -0.0014 0.3932 0.6746zm-0.3956 -0.6732l0.0024 -0.0014 0.002 -0.0011 -0.0044 0.0025zm0.4665 -0.0027l-0.3956 0.6732 -0.0011 -0.0006 0.0159 0.0087 0.0139 0.0067 0.0131 0.0057 0.0093 0.0037 0.0173 0.006 0.0173 0.005 0.0085 0.0021 0.0082 0.0018 0.015 0.0027 0.0077 0.0011 0.0082 0.001 0.0143 0.0012 0.0061 0.0003 0.0062 0.0002 0.0059 0.0001 0.0141 -0.0003 0.0141 -0.0009 -0.0024 0.0002 0.0058 -0.0005 0.0137 -0.0017 0.0135 -0.0023 0.0054 -0.001 0.0071 -0.0016 0.0074 -0.0018 0.0055 -0.0015 0.0128 -0.0039 0.0076 -0.0026 0.0107 -0.0041 0.0155 -0.0065 0.0049 -0.0023 0.0081 -0.004 0.0127 -0.0068 -0.3908 -0.676 0.0167 -0.009 0.0123 -0.006 0.0091 -0.0043 0.0197 -0.0083 0.0151 -0.0057 0.0122 -0.0042 0.0174 -0.0053 0.0101 -0.0027 0.012 -0.003 0.0119 -0.0026 0.0102 -0.002 0.0183 -0.0031 0.0185 -0.0023 0.0106 -0.0009 0.0024 -0.0002 0.0189 -0.0013 0.0189 -0.0003 0.0107 0.0001 0.011 0.0004 0.0107 0.0005 0.0191 0.0016 0.0128 0.0016 0.0121 0.0017 0.0194 0.0035 0.0126 0.0028 0.0127 0.0031 0.0215 0.0062 0.0213 0.0074 0.0133 0.0053 0.0169 0.0073 0.0175 0.0085 0.0193 0.0105 -0.0011 -0.0006zm-0.3956 0.6732l-0.0011 -0.0006 -0.0077 -0.0045 0.0088 0.0051z"/>
    </g>
    <polygon id="_197632936" class="fil1 str0" points="37.1661,9.1645 48.3532,15.6232 59.5403,22.0821 59.5403,34.9998 59.5403,47.9175 48.3532,54.3764 37.1661,60.8351 25.979,54.3764 14.7919,47.9175 14.7919,34.9998 14.7919,22.0821 25.979,15.6232 "/>
    <polygon id="_197632840" class="fil1 str1" points="25.9898,15.644 31.5911,18.8773 37.1923,22.1112 37.1923,28.5791 37.1923,35.047 31.5911,38.2809 25.9898,41.5144 20.3886,38.2809 14.7872,35.047 14.7872,28.5791 14.7872,22.1112 20.3886,18.8773 "/>
    <polygon id="_197632744" class="fil1 str1" points="48.342,15.644 53.9432,18.8773 59.5445,22.1112 59.5445,28.5791 59.5445,35.047 53.9432,38.2809 48.342,41.5144 42.7407,38.2809 37.1395,35.047 37.1395,28.5791 37.1395,22.1112 42.7407,18.8773 "/>
    <polygon id="_197632648" class="fil1 str1" points="37.1659,34.9647 42.7673,38.1982 48.3684,41.4321 48.3684,47.8998 48.3684,54.3677 42.7673,57.6016 37.1659,60.8351 31.5645,57.6016 25.9634,54.3677 25.9634,47.8998 25.9634,41.4321 31.5645,38.1982 "/>
    <g>
     <path id="_197632552" class="fil0" d="M15.1828 22.0697l-0.0003 25.7709 -0.7808 -0.0068 0.0003 -25.7709 0.7808 0.0068zm-0.1596 -0.3586l-0.386 0.6786 0.0018 0.0011 0.0142 0.0077 0.0092 0.0046 0.0138 0.0061 0.0115 0.0047 0.013 0.0045 0.0271 0.0079 0.0163 0.0037 0.007 0.0013 0.0192 0.0028 0.0331 0.0026 0.023 0 0.0246 -0.0017 0.0257 -0.0035 0.0267 -0.0056 0.0271 -0.0079 0.027 -0.0102 0.0321 -0.0154 0.0259 -0.0154 0.015 -0.0103 0.0301 -0.0245 0.0271 -0.0269 0.0183 -0.022 0.0107 -0.0145 0.0223 -0.0364 0.0145 -0.0298 0.0055 -0.014 0.0085 -0.0247 0.0044 -0.0161 0.0056 -0.0271 0.0031 -0.0212 0.0016 -0.0204 0.0006 -0.0194 -0.7808 -0.0068 0.0006 -0.0232 0.002 -0.024 0.0035 -0.0248 0.0064 -0.0305 0.0052 -0.0191 0.0095 -0.0277 0.0067 -0.0168 0.0157 -0.0326 0.0239 -0.0388 0.0123 -0.0167 0.0201 -0.0242 0.0291 -0.0289 0.0321 -0.0261 0.0174 -0.0119 0.0281 -0.0168 0.0347 -0.0166 0.0296 -0.0112 0.0299 -0.0087 0.0295 -0.0062 0.0287 -0.0039 0.0276 -0.0019 0.0262 0 0.0363 0.0028 0.0226 0.0034 0.0104 0.0019 0.0199 0.0045 0.0307 0.0089 0.0166 0.0059 0.0153 0.0061 0.0176 0.0079 0.013 0.0064 0.0182 0.0099 0.0018 0.0011zm-0.0018 -0.0011l0.0018 0.0011 -0.0097 -0.0056 0.0079 0.0045zm21.8936 13.6114l-22.2778 -12.9317 0.386 -0.6786 22.2778 12.9317 0.0025 0.0014 -0.3885 0.6772zm0.386 -0.6786l0.0025 0.0014 0.0052 0.0031 -0.0077 -0.0045zm0.2349 0.4029l-0.7808 -0.0068 0 0 0.0005 0.0177 0.0013 0.0176 0.002 0.0159 0.0027 0.0164 0.0015 0.0071 0.0027 0.0111 0.004 0.0143 0.0026 0.0085 0.005 0.0137 0.0039 0.0099 0.0021 0.0049 0.0037 0.0082 0.0024 0.0047 0.0058 0.0111 0.0058 0.0103 0.0046 0.0074 0.0011 0.0018 0.0064 0.0093 0.0051 0.0072 0.0016 0.0021 0.0065 0.0082 0.0057 0.0068 0.0098 0.0109 0.0065 0.0066 0.0025 0.0025 0.0069 0.0065 0.007 0.0062 0.0082 0.0068 0.0076 0.006 0.0134 0.0096 0.0103 0.0068 0.0082 0.005 0.391 -0.6758 0.012 0.0074 0.0141 0.0092 0.0172 0.0124 0.0112 0.0088 0.0118 0.0098 0.0106 0.0094 0.0103 0.0097 0.0059 0.0059 0.0099 0.01 0.013 0.0145 0.0089 0.0106 0.0095 0.012 0.0044 0.0059 0.0081 0.0112 0.009 0.0133 0.0037 0.0058 0.0072 0.0116 0.0082 0.0145 0.008 0.0153 0.0044 0.0089 0.0057 0.0124 0.0039 0.0093 0.0057 0.0141 0.0064 0.0179 0.004 0.0127 0.0052 0.0187 0.0037 0.0153 0.0023 0.0111 0.0035 0.0206 0.0024 0.0199 0.0017 0.0216 0.0005 0.0217 0 0zm-0.7808 25.7637l0 -25.7705 0.7808 0.0068 0 25.7705 0 0 -0.7808 -0.0068zm0.1596 0.3588l0.386 -0.6786 -0.0009 -0.0006 -0.0152 -0.0082 -0.0091 -0.0046 -0.0104 -0.0046 -0.0238 -0.0094 -0.0042 -0.0014 -0.0172 -0.0052 -0.0262 -0.0063 -0.0181 -0.0031 -0.0197 -0.0024 -0.0215 -0.0013 -0.023 0 -0.0246 0.0017 -0.0257 0.0035 -0.0267 0.0056 -0.0271 0.0079 -0.027 0.0102 -0.0321 0.0154 -0.0158 0.009 -0.0251 0.0168 -0.0378 0.0315 -0.013 0.013 -0.018 0.0204 -0.0216 0.0292 -0.0181 0.0301 -0.0096 0.0193 -0.0103 0.0245 -0.0094 0.0281 -0.0041 0.0153 -0.0047 0.0225 -0.0034 0.0232 -0.0016 0.0209 -0.0006 0.0188 0.7808 0.0068 -0.0006 0.0226 -0.002 0.0247 -0.0038 0.0266 -0.0055 0.0259 -0.0049 0.0185 -0.0104 0.0311 -0.0115 0.0273 -0.011 0.0221 -0.0195 0.0325 -0.0234 0.0316 -0.0198 0.0224 -0.015 0.015 -0.0398 0.0333 -0.0275 0.0182 -0.018 0.0104 -0.0347 0.0166 -0.0296 0.0112 -0.0299 0.0087 -0.0295 0.0062 -0.0287 0.0039 -0.0276 0.0019 -0.0262 0 -0.0247 -0.0015 -0.0231 -0.0028 -0.0215 -0.0037 -0.0298 -0.0071 -0.0208 -0.0064 -0.0078 -0.0026 -0.0276 -0.0108 -0.014 -0.0064 -0.0131 -0.0064 -0.019 -0.0104 -0.0009 -0.0006zm0.0009 0.0006l-0.0009 -0.0006 0.0226 0.0131 -0.0217 -0.0125zm-21.8924 -13.6112l22.2775 12.932 -0.386 0.6786 -22.2775 -12.932 0.3842 -0.6797 0.0018 0.0011zm-0.0018 -0.0011l0.0018 0.0011 -0.0096 -0.0056 0.0078 0.0045zm-0.6197 0.2773l0.7808 0.0068 0 0 -0.0005 -0.0177 -0.0013 -0.0176 -0.0022 -0.0173 -0.0025 -0.0151 -0.0011 -0.005 -0.0036 -0.0153 -0.0042 -0.0147 -0.0019 -0.006 -0.005 -0.0137 -0.0052 -0.013 -0.0023 -0.0051 -0.0056 -0.0118 -0.0023 -0.0046 -0.0024 -0.0044 -0.0044 -0.0078 -0.0085 -0.0138 -0.0024 -0.0037 -0.0026 -0.0036 -0.009 -0.0124 -0.0016 -0.002 -0.0058 -0.0071 -0.01 -0.0115 -0.0021 -0.0023 -0.0066 -0.0066 -0.0065 -0.0065 -0.0116 -0.0103 -0.0071 -0.006 -0.0033 -0.0026 -0.0075 -0.0057 -0.0093 -0.0066 -0.0142 -0.0092 -0.0085 -0.0051 -0.3824 0.6808 -0.0125 -0.0075 -0.018 -0.0116 -0.0131 -0.0094 -0.0113 -0.0085 -0.0069 -0.0056 -0.0109 -0.009 -0.015 -0.0135 -0.0101 -0.0099 -0.0098 -0.01 -0.0055 -0.0059 -0.0132 -0.0151 -0.0088 -0.0109 -0.0046 -0.0058 -0.012 -0.0164 -0.0052 -0.0076 -0.0052 -0.0077 -0.0109 -0.0178 -0.0068 -0.012 -0.0046 -0.0086 -0.0045 -0.0088 -0.0076 -0.016 -0.0041 -0.0093 -0.007 -0.0172 -0.0064 -0.0179 -0.0033 -0.0102 -0.0054 -0.0189 -0.0046 -0.0195 -0.0019 -0.0092 -0.0033 -0.0191 -0.0026 -0.0213 -0.0017 -0.0216 -0.0005 -0.0217 0 0z"/>
    </g>
    <g>
     <path class="fil0" d="M59.9305 22.0635l0.0002 25.771 -0.7808 0.0068 -0.0002 -25.771 0 0 0.7808 -0.0068zm-0.2352 0.3271l-0.386 -0.6786 -0.0028 0.0016 0.0157 -0.0089 0.0201 -0.0102 0.014 -0.0063 0.0188 -0.0077 0.0166 -0.0058 0.0208 -0.0064 0.0298 -0.0071 0.0104 -0.0019 0.0226 -0.0034 0.0363 -0.0028 0.0262 0 0.0276 0.0019 0.0287 0.0039 0.0295 0.0062 0.0299 0.0087 0.0296 0.0112 0.0347 0.0166 0.018 0.0104 0.0275 0.0182 0.0398 0.0333 0.015 0.015 0.0198 0.0224 0.0234 0.0316 0.0164 0.0269 0.0118 0.0226 0.0138 0.0323 0.0095 0.0277 0.0052 0.0191 0.0061 0.0286 0.0036 0.0254 0.0022 0.0252 0.0006 0.0232 -0.7808 0.0068 0.0006 0.0194 0.0018 0.0216 0.0032 0.022 0.0053 0.0252 0.0044 0.0161 0.0085 0.0247 0.0126 0.0295 0.0104 0.02 0.015 0.0245 0.0216 0.0292 0.018 0.0204 0.013 0.013 0.0378 0.0315 0.0251 0.0168 0.0158 0.009 0.0321 0.0154 0.027 0.0102 0.0271 0.0079 0.0267 0.0056 0.0257 0.0035 0.0246 0.0017 0.023 0 0.0331 -0.0026 0.0192 -0.0028 0.007 -0.0013 0.0262 -0.0063 0.0172 -0.0052 0.013 -0.0046 0.015 -0.0061 0.0104 -0.0047 0.0161 -0.0082 0.0119 -0.0067 -0.0028 0.0016zm0.0028 -0.0016l-0.0028 0.0016 0.0051 -0.003 -0.0023 0.0014zm-22.6664 12.2547l22.2776 -12.9317 0.386 0.6786 -22.2776 12.9317 -0.3864 -0.6785 0.0004 -0.0001zm0.5456 0.3959l-0.7808 0.0068 0 0 0.0005 -0.0217 0.0017 -0.0216 0.0024 -0.0199 0.0035 -0.0206 0.0023 -0.0111 0.0042 -0.0175 0.0054 -0.0189 0.0025 -0.0076 0.0061 -0.0177 0.0081 -0.0201 0.0041 -0.0093 0.0042 -0.0092 0.0078 -0.0156 0.0047 -0.0086 0.0046 -0.0084 0.0107 -0.0177 0.0075 -0.0115 0.0053 -0.0076 0.008 -0.0112 0.0085 -0.011 0.0088 -0.0109 0.0092 -0.0106 0.0094 -0.0104 0.0099 -0.01 0.0058 -0.0058 0.0146 -0.0136 0.0114 -0.0098 0.011 -0.0089 0.0072 -0.0055 0.0171 -0.0124 0.0181 -0.0116 0.0102 -0.0063 0.3868 0.6784 0.0064 -0.0039 0.0141 -0.0092 0.0135 -0.0096 0.0034 -0.0027 0.0074 -0.0059 0.0078 -0.0068 0.011 -0.0102 0.0024 -0.0024 0.0065 -0.0066 0.0062 -0.0068 0.006 -0.007 0.0058 -0.0071 0.0055 -0.0072 0.0052 -0.0072 0.0025 -0.0036 0.0049 -0.0075 0.0081 -0.0135 0.0024 -0.0042 0.0023 -0.0044 0.0058 -0.0114 0.0022 -0.005 0.0023 -0.0051 0.0063 -0.0159 0.0047 -0.0133 0.0011 -0.0034 0.0042 -0.0147 0.0032 -0.0133 0.0015 -0.0071 0.0027 -0.0164 0.002 -0.0159 0.0013 -0.0176 0.0005 -0.0177 0 0zm-0.7808 25.7775l0 -25.7707 0.7808 -0.0068 0 25.7707 0 0 -0.7808 0.0068zm0.2352 -0.3269l0.386 0.6786 0.0004 -0.0001 -0.0203 0.0111 -0.0131 0.0064 -0.006 0.0028 -0.0268 0.0113 -0.026 0.0088 -0.0114 0.0033 -0.0194 0.005 -0.0319 0.0059 -0.0231 0.0028 -0.0247 0.0015 -0.0137 0.0002 -0.0273 -0.0009 -0.0415 -0.005 -0.0295 -0.0062 -0.0299 -0.0087 -0.0296 -0.0112 -0.0235 -0.0108 -0.0292 -0.0161 -0.0364 -0.0251 -0.0232 -0.0194 -0.0227 -0.022 -0.0198 -0.0225 -0.0234 -0.0315 -0.0195 -0.0326 -0.0087 -0.017 -0.0138 -0.0323 -0.0104 -0.0311 -0.0049 -0.0185 -0.0055 -0.0259 -0.0038 -0.0266 -0.002 -0.0247 -0.0006 -0.0226 0.7808 -0.0068 -0.0006 -0.0188 -0.0016 -0.0209 -0.0034 -0.0232 -0.0047 -0.0225 -0.0041 -0.0153 -0.0094 -0.0281 -0.0126 -0.0295 -0.0073 -0.0144 -0.0181 -0.03 -0.0216 -0.0293 -0.018 -0.0203 -0.0207 -0.0202 -0.0212 -0.0176 -0.034 -0.0235 -0.027 -0.0149 -0.0209 -0.0096 -0.027 -0.0102 -0.0271 -0.0079 -0.0267 -0.0056 -0.0385 -0.0046 -0.0243 -0.0009 -0.0105 0.0002 -0.0215 0.0013 -0.0197 0.0024 -0.0285 0.0053 -0.0158 0.004 -0.0078 0.0023 -0.0224 0.0076 -0.023 0.0097 -0.0024 0.001 -0.0091 0.0046 -0.0165 0.0089 0.0004 -0.0001zm22.6636 -12.2531l-22.2776 12.9317 -0.386 -0.6786 22.2776 -12.9317 0.3874 0.6779 -0.0014 0.0007zm0.0014 -0.0007l-0.0014 0.0007 0.0229 -0.0133 -0.0215 0.0126zm-0.5468 -0.3951l0.7808 -0.0068 0 0 -0.0005 0.0217 -0.0017 0.0216 -0.0026 0.0213 -0.0033 0.0191 -0.0019 0.0092 -0.0046 0.0195 -0.0054 0.0189 -0.0033 0.0102 -0.0064 0.0179 -0.007 0.0172 -0.0026 0.0061 -0.0057 0.0125 -0.0097 0.019 -0.0063 0.0114 -0.0033 0.0057 -0.0048 0.0081 -0.0112 0.0175 -0.0119 0.0167 -0.0015 0.002 -0.0084 0.011 -0.0129 0.0156 -0.0052 0.0059 -0.0056 0.0063 -0.0096 0.0102 -0.0141 0.0139 -0.0104 0.0094 -0.0114 0.0099 -0.011 0.0088 -0.0113 0.0086 -0.0131 0.0093 -0.0118 0.0079 -0.0155 0.0095 -0.3888 -0.6772 -0.0115 0.0071 -0.008 0.0053 -0.0093 0.0067 -0.0075 0.0056 -0.0074 0.006 -0.0078 0.0067 -0.0068 0.0062 -0.0107 0.0105 -0.0062 0.0066 -0.0024 0.0027 -0.002 0.0023 -0.0097 0.0118 -0.0056 0.0072 0.0015 -0.002 -0.0091 0.0129 -0.0086 0.0133 -0.0024 0.0041 -0.0009 0.0015 -0.0039 0.0072 -0.0077 0.015 -0.0037 0.0081 -0.0008 0.0019 -0.0052 0.013 -0.005 0.0137 -0.0019 0.006 -0.0042 0.0147 -0.0036 0.0153 -0.0011 0.005 -0.0025 0.0151 -0.0022 0.0173 -0.0013 0.0176 -0.0005 0.0177 0 0z"/>
    </g>
    <g>
     <path class="fil0" d="M48.1504 54.7199l-11.167 -6.4296 0.3954 -0.6732 11.167 6.4296 0.0045 0.0026 -0.3999 0.6706zm0.3954 -0.6732l0.004 0.0023 0.0005 0.0003 -0.0045 -0.0026zm-0.0025 0.6938l-0.3954 -0.6732 -0.0038 0.0022 -0.0091 0.0055 -0.0159 0.0106 -0.0083 0.0061 -0.0208 0.0168 -0.0093 0.0083 -0.0097 0.0094 -0.0198 0.0213 -0.01 0.0122 -0.0019 0.0025 -0.0111 0.0152 -0.0276 0.0466 -0.0093 0.02 -0.0084 0.0216 -0.0075 0.0231 -0.0061 0.0245 -0.0046 0.0256 -0.0028 0.0263 0 0.0543 0.0034 0.0304 0.0053 0.0275 0.0048 0.0186 0.0107 0.0319 0.0202 0.044 0.0108 0.0187 0.0197 0.0289 0.0119 0.0151 0.0116 0.0133 0.0112 0.0117 0.0233 0.0214 0.0208 0.0164 0.0089 0.0063 0.0214 0.0137 0.4044 -0.668 0.023 0.0147 0.0105 0.0075 0.0222 0.0174 0.0245 0.0226 0.0124 0.0129 0.0126 0.0145 0.0129 0.0163 0.0205 0.0301 0.0116 0.0201 0.0208 0.0452 0.0111 0.0333 0.0052 0.02 0.0055 0.0287 0.0036 0.0318 0 0.0557 -0.003 0.0277 -0.0048 0.027 -0.0065 0.0259 -0.0079 0.0245 -0.009 0.023 -0.0099 0.0214 -0.0284 0.048 -0.0121 0.0164 -0.0029 0.0039 -0.0112 0.0136 -0.021 0.0227 -0.0111 0.0106 -0.0107 0.0097 -0.0224 0.018 -0.0099 0.0073 -0.0177 0.0118 -0.0111 0.0067 -0.0038 0.0022zm0.0038 -0.0022l-0.0008 0.0005 -0.003 0.0017 0.0038 -0.0022zm-11.5612 5.7555l11.162 -6.4265 0.3954 0.6732 -11.162 6.4265 0 0.0001 -0.3954 -0.6733zm-0.0353 0.6748l0.3956 -0.6732 -0.0056 -0.0032 -0.014 -0.0073 -0.0153 -0.0073 -0.023 -0.0093 -0.0051 -0.0018 -0.0046 -0.0016 -0.0324 -0.0092 0.001 0.0002 -0.0029 -0.0006 -0.0332 -0.0061 -0.0166 -0.0019 -0.0005 0 0.0012 0.0001 -0.016 -0.001 -0.0161 -0.0004 0.0012 0 -0.0153 0.0003 -0.0153 0.001 -0.0002 0 -0.0159 0.0017 -0.0127 0.0019 0.0012 -0.0002 -0.0145 0.0027 -0.018 0.0042 0.0011 -0.0003 -0.0142 0.0041 -0.0037 0.0011 -0.0141 0.0049 -0.0135 0.0051 0.0011 -0.0004 -0.0192 0.0085 -0.0195 0.01 -0.0057 0.0031 0.3954 0.6734 -0.0077 0.0043 -0.0215 0.011 -0.0214 0.0095 -0.0011 0.0004 -0.0157 0.0061 -0.0163 0.0055 -0.0059 0.0019 -0.0166 0.0047 -0.0011 0.0003 -0.0204 0.0048 -0.0169 0.0031 -0.0012 0.0002 -0.0151 0.0023 -0.0181 0.0019 -0.0026 0.0002 -0.0177 0.0012 -0.0177 0.0003 -0.0012 0 -0.0185 -0.0004 -0.0182 -0.0012 -0.0012 -0.0001 -0.0027 -0.0002 -0.0188 -0.0021 -0.0354 -0.0065 -0.0051 -0.0012 -0.001 -0.0002 -0.0346 -0.0098 -0.0066 -0.0024 -0.0071 -0.0024 -0.0248 -0.0101 -0.0171 -0.0081 -0.0158 -0.0083 -0.0056 -0.0032zm0.0056 0.0032l-0.0011 -0.0006 -0.0045 -0.0026 0.0056 0.0032zm-10.7767 -7.1063l11.1667 6.4299 -0.3956 0.6732 -11.1667 -6.4299 0.39 -0.6764 0.0056 0.0032zm-0.0056 -0.0032l0.0011 0.0006 0.0045 0.0026 -0.0056 -0.0032zm-0.3875 -0.0167l0.3956 0.6732 0.0013 -0.0007 0.0115 -0.007 0.0159 -0.0106 0.0083 -0.0061 0.0089 -0.0069 0.0212 -0.0183 0.0097 -0.0093 0.0103 -0.0107 0.0105 -0.0119 0.0109 -0.0136 0.0184 -0.0261 0.0149 -0.0252 0.0104 -0.0208 0.0127 -0.0313 0.0075 -0.0231 0.0048 -0.0186 0.0053 -0.0275 0.0034 -0.0304 -0.0002 -0.0564 -0.0032 -0.0284 -0.0053 -0.0274 -0.007 -0.0262 -0.0085 -0.0244 -0.0148 -0.0336 -0.0116 -0.0213 -0.0244 -0.0368 -0.0119 -0.0151 -0.0234 -0.0256 -0.0233 -0.0215 -0.0104 -0.0084 -0.0241 -0.0175 -0.0089 -0.0058 -0.017 -0.01 -0.3844 0.6796 -0.0186 -0.011 -0.0105 -0.0068 -0.0255 -0.0185 -0.0118 -0.0096 -0.0245 -0.0225 -0.0244 -0.0268 -0.0129 -0.0163 -0.0252 -0.038 -0.0122 -0.0225 -0.0154 -0.0348 -0.0089 -0.0258 -0.0074 -0.0274 -0.0055 -0.0288 -0.0034 -0.0296 -0.0002 -0.0578 0.0036 -0.0318 0.0055 -0.0287 0.0052 -0.02 0.0079 -0.0245 0.0133 -0.0327 0.011 -0.022 0.0157 -0.0266 0.0194 -0.0275 0.0119 -0.0148 0.0117 -0.0133 0.0115 -0.0119 0.0111 -0.0107 0.0226 -0.0195 0.0105 -0.0081 0.0099 -0.0073 0.0177 -0.0118 0.0135 -0.0082 0.0013 -0.0007zm-0.0013 0.0007l0.0013 -0.0007 -0.0107 0.0062 0.0094 -0.0055zm11.5587 -5.7544l-11.1618 6.4269 -0.3956 -0.6732 11.1618 -6.4269 0.0015 -0.0009 0.3941 0.6741zm-0.3956 -0.6732l0.0015 -0.0009 0.0064 -0.0036 -0.0079 0.0045zm0.4306 -0.0016l-0.3954 0.6732 0.0055 0.0032 0.014 0.0073 0.0153 0.0073 0.023 0.0093 0.0051 0.0018 -0.001 -0.0004 0.0381 0.0112 0.0029 0.0007 -0.0011 -0.0003 0.0332 0.0061 0.0166 0.0019 -0.0011 -0.0001 0.0005 0 0.0159 0.001 0.0162 0.0004 -0.0012 0 0.0153 -0.0003 0.0153 -0.001 0.0002 0 0.0159 -0.0017 0.0127 -0.0019 -0.0012 0.0002 0.0179 -0.0035 0.0147 -0.0034 -0.0012 0.0003 0.0143 -0.0041 -0.0012 0.0004 0.0189 -0.0064 0.0135 -0.0051 0.005 -0.0021 0.0132 -0.006 0.0124 -0.0062 0.0113 -0.0061 -0.3926 -0.675 0.0133 -0.0073 0.0146 -0.0072 0.0152 -0.007 0.0072 -0.0029 0.0157 -0.0061 0.0211 -0.007 0.0012 -0.0004 0.0165 -0.0047 0.0012 -0.0003 0.0169 -0.004 0.0203 -0.0039 0.0012 -0.0002 0.0151 -0.0023 0.0181 -0.0019 0.0026 -0.0002 0.0177 -0.0012 0.0177 -0.0003 0.0012 0 0.0184 0.0004 0.0183 0.0012 0.0027 0.0002 0.0011 0.0001 0.0188 0.0021 0.0354 0.0065 0.0011 0.0003 0.0051 0.0011 0.0401 0.0118 0.001 0.0004 0.0071 0.0024 0.0248 0.0101 0.0171 0.0081 0.0158 0.0083 0.0055 0.0032zm-0.0055 -0.0032l0.0055 0.0032 -0.0071 -0.0041 0.0016 0.0009z"/>
    </g>
    <g>
     <path class="fil0" d="M59.1531 35.0114l-0.0155 -12.8861 0.7812 0.0058 0.0155 12.8861 0 0.0005 -0.7812 -0.0063zm0.7812 0.0058l0 0 0 0.0005 0 -0.0005zm-0.6021 0.345l0.3854 -0.6796 -0.0019 -0.0011 -0.011 -0.006 -0.0139 -0.007 -0.0147 -0.0066 -0.0092 -0.0037 -0.0172 -0.0062 -0.0182 -0.0055 -0.0189 -0.0048 -0.016 -0.0032 -0.0426 -0.005 -0.0235 -0.0008 0.0008 0 -0.025 0.0009 -0.0547 0.0076 -0.0245 0.0061 -0.0068 0.002 -0.0245 0.0085 -0.0552 0.0265 -0.032 0.0209 0.0006 -0.0004 -0.0307 0.0248 -0.0142 0.0135 -0.0254 0.0281 -0.0344 0.0496 -0.0062 0.0109 -0.005 0.0098 -0.0209 0.0504 -0.0082 0.028 0.0002 -0.0008 -0.0055 0.0262 -0.0035 0.024 -0.0018 0.0219 -0.0005 0.0197 0.7812 0.0068 -0.0005 0.0217 -0.002 0.0237 -0.0037 0.0258 -0.0059 0.0278 -0.0002 0.0008 -0.0086 0.0296 -0.0215 0.0518 -0.0058 0.0112 -0.0068 0.0121 -0.0352 0.0508 -0.0264 0.0291 -0.0152 0.0145 -0.0317 0.0256 -0.0006 0.0004 -0.033 0.0217 -0.0566 0.0271 -0.0257 0.0089 -0.0082 0.0024 -0.0259 0.0065 -0.0561 0.0078 -0.0266 0.0009 -0.0008 0 -0.0251 -0.0008 -0.0442 -0.0052 -0.0178 -0.0036 -0.0207 -0.0052 -0.02 -0.0061 -0.019 -0.0068 -0.011 -0.0045 -0.0167 -0.0074 -0.0157 -0.008 -0.013 -0.007 -0.0019 -0.0011zm0.0019 0.0011l0 0 -0.0019 -0.0011 0.0019 0.0011zm-10.7634 -7.1338l11.1469 6.4531 -0.3854 0.6796 -11.1469 -6.4531 -0.0006 -0.0003 0.386 -0.6793zm-0.3854 0.6796l-0.0006 -0.0003 -0.0232 -0.0135 0.0238 0.0138zm-0.2167 -0.3725l0.7812 0.0058 0 0.0005 -0.0005 -0.0187 -0.0013 -0.0186 -0.0024 -0.0183 -0.0024 -0.0144 0.0002 0.0011 -0.0036 -0.0166 -0.0092 -0.0325 0.0004 0.001 0.0003 0.0011 -0.0114 -0.0299 -0.0059 -0.0132 0.0005 0.001 -0.0063 -0.0124 -0.0032 -0.0061 -0.007 -0.012 -0.0021 -0.0037 -0.0041 -0.0063 -0.0126 -0.0183 0.0063 0.0089 -0.0129 -0.0174 -0.0141 -0.0168 0.0008 0.0009 -0.0068 -0.0075 -0.0076 -0.0078 -0.0072 -0.007 -0.008 -0.0073 -0.0086 -0.0074 -0.0095 -0.0077 -0.0073 -0.0055 -0.0103 -0.0073 -0.0112 -0.0074 -0.0115 -0.007 -0.3866 0.679 -0.0135 -0.0082 -0.013 -0.0086 -0.0123 -0.0087 -0.0091 -0.0069 -0.0113 -0.0091 -0.0104 -0.009 -0.0098 -0.0089 -0.009 -0.0088 -0.0092 -0.0094 -0.0084 -0.0093 -0.0008 -0.0009 -0.0157 -0.0186 -0.0143 -0.0194 0.0049 0.0069 -0.014 -0.0201 -0.0053 -0.0085 -0.0035 -0.0057 -0.008 -0.014 -0.0044 -0.0081 -0.0073 -0.0146 -0.0005 -0.001 -0.0069 -0.0154 -0.0122 -0.0319 -0.0003 -0.0011 -0.0004 -0.001 -0.0098 -0.0347 -0.004 -0.0186 -0.0002 -0.0011 -0.0028 -0.0164 -0.0026 -0.0203 -0.0015 -0.0206 -0.0005 -0.0207 0 0.0005zm0.7812 0.0058l0 0 0 0.0005 0 -0.0005zm-0.0154 -12.8861l0.0154 12.8861 -0.7812 -0.0058 -0.0154 -12.8861 0 -0.0005 0.7812 0.0063zm-0.7812 -0.0058l0 0 0 -0.0005 0 0.0005zm0.6021 -0.3447l-0.3854 0.6796 -0.0006 -0.0003 0.0135 0.0074 -0.0009 -0.0005 0.0295 0.014 0.0092 0.0038 0.0172 0.0061 0.038 0.0106 -0.0009 -0.0002 0.016 0.0032 0.0186 0.0028 0.0232 0.0021 0.0477 0 0.0263 -0.0025 0.0029 -0.0004 0.0256 -0.0046 0.032 -0.0083 0.0245 -0.0085 0.0552 -0.0265 0.032 -0.0209 -0.0006 0.0004 0.0307 -0.0248 0.0142 -0.0135 0.0254 -0.0281 0.0344 -0.0496 -0.0003 0.0006 0.0061 -0.0109 0.0263 -0.0609 0.0082 -0.028 -0.0002 0.0008 0.0048 -0.0221 0.0042 -0.0282 0.0018 -0.0218 0.0005 -0.0198 -0.7812 -0.0068 0.0005 -0.0216 0.002 -0.0238 0.0044 -0.0298 0.0052 -0.0237 0.0002 -0.0008 0.0086 -0.0296 0.0269 -0.0623 0.0069 -0.0121 0.0003 -0.0006 0.0352 -0.0508 0.0264 -0.0291 0.0152 -0.0145 0.0317 -0.0256 0.0006 -0.0004 0.033 -0.0217 0.0566 -0.0271 0.0257 -0.0089 0.0334 -0.0087 0.027 -0.0048 0.0043 -0.0006 0.0279 -0.0027 0.0493 0 0.0248 0.0023 0.0202 0.003 0.0178 0.0036 0.0009 0.0002 0.0398 0.011 0.019 0.0069 0.011 0.0044 0.0315 0.015 0.0009 0.0005 0.0155 0.0084 -0.0006 -0.0003zm-0.3854 0.6796l-0.0006 -0.0003 -0.0231 -0.0134 0.0237 0.0137zm11.1468 6.4529l-11.1468 -6.4529 0.3854 -0.6796 11.1468 6.4529 0.0101 0.006 -0.3955 0.6736zm0.3854 -0.6796l0.0063 0.0036 0.0038 0.0024 -0.0101 -0.006zm0.2167 0.3724l-0.7812 -0.0058 0 -0.0005 0.0005 0.0187 0.0013 0.0186 0.0024 0.0183 0.0024 0.0144 -0.0002 -0.0011 0.0046 0.0209 0.0082 0.0283 -0.0004 -0.0011 0.0016 0.0046 0.0095 0.0243 0.0059 0.0132 0.0029 0.0058 0.0067 0.0128 -0.0044 -0.0081 0.0065 0.0117 0.0164 0.0262 -0.0006 -0.0009 0.0017 0.0025 0.0049 0.0069 0.0139 0.0177 0.0075 0.0087 -0.0008 -0.0009 -0.0008 -0.0009 0.0152 0.0161 0.0161 0.0152 -0.0009 -0.0008 -0.0009 -0.0008 0.0086 0.0074 0.0177 0.0139 -0.001 -0.0007 0.0104 0.0073 0.0141 0.0093 0.4056 -0.6676 0.0161 0.0105 0.0122 0.0087 0.001 0.0007 0.0195 0.0153 0.0104 0.009 0.0009 0.0008 0.0009 0.0008 0.0179 0.0168 0.0168 0.0179 0.0008 0.0009 0.0008 0.0009 0.0091 0.0105 0.0153 0.0195 0.0063 0.0089 0.0031 0.0045 0.0006 0.0009 0.0178 0.0282 0.0075 0.0139 -0.0032 -0.0061 0.0077 0.0148 0.0039 0.0078 0.0069 0.0154 0.0103 0.0263 0.0022 0.0066 0.0004 0.0011 0.0088 0.0303 0.005 0.0229 0.0002 0.0011 0.0028 0.0164 0.0026 0.0203 0.0015 0.0206 0.0005 0.0207 0 -0.0005zm-0.7812 -0.0058l0 0 0 -0.0005 0 0.0005z"/>
    </g>
    <g>
     <path class="fil0" d="M14.402 35.0186l0.0154 -12.8859 0.7808 -0.0058 -0.0154 12.8859 -0.7807 0.0138 -0.0001 -0.008zm0.0001 0.008l-0.0001 -0.0054 0 -0.0026 0.0001 0.008zm0.2165 -0.3422l0.3852 0.6792 -0.0082 0.0046 -0.014 0.0073 -0.0085 0.0042 -0.0267 0.0115 -0.0249 0.0087 -0.001 0.0003 -0.0084 0.0026 -0.0431 0.0101 -0.0231 0.0034 0.002 -0.0002 -0.0248 0.0023 -0.0493 0 -0.0278 -0.0027 -0.0307 -0.0053 -0.0259 -0.0065 -0.0081 -0.0024 -0.0356 -0.0129 -0.0466 -0.0231 -0.0331 -0.0216 -0.0005 -0.0004 -0.0317 -0.0257 -0.041 -0.043 -0.0005 -0.0006 -0.0229 -0.0309 -0.0192 -0.032 -0.011 -0.0221 -0.0083 -0.0192 -0.0104 -0.0294 -0.0114 -0.0454 -0.0008 -0.0049 -0.0008 -0.0046 -0.0049 -0.0449 -0.0005 -0.0142 0.7806 -0.0218 -0.0005 -0.0122 -0.0047 -0.0431 -0.0004 -0.0028 -0.0006 -0.0033 -0.011 -0.0438 -0.0098 -0.0278 -0.0077 -0.0178 -0.0104 -0.0209 -0.0184 -0.0306 -0.0221 -0.0299 0.0005 0.0006 -0.0402 -0.042 -0.0305 -0.0249 0.0005 0.0004 -0.0319 -0.0208 -0.0454 -0.0225 -0.0344 -0.0125 -0.0067 -0.002 -0.0245 -0.0061 -0.0293 -0.0051 -0.0262 -0.0025 -0.0477 0 -0.0232 0.0021 0.0036 -0.0004 -0.0213 0.0032 -0.0415 0.0097 -0.0066 0.002 0.001 -0.0003 -0.0231 0.0081 -0.0249 0.0107 -0.0065 0.0032 -0.012 0.0063 -0.0082 0.0046zm0.3852 0.6792l-0.0036 0.0021 -0.0046 0.0025 0.0082 -0.0046zm11.147 -6.4534l-11.147 6.4534 -0.3852 -0.6792 11.147 -6.4534 0.0019 -0.0011 0.3833 0.6803zm-0.3852 -0.6792l0.0019 -0.0011 0 0 -0.0019 0.0011zm-0.179 0.3128l0.7808 -0.0058 0 -0.0005 -0.0005 0.0207 -0.0016 0.0206 -0.0025 0.0203 -0.0028 0.0163 -0.0002 0.0011 -0.004 0.0187 -0.0098 0.0346 -0.0004 0.001 -0.0003 0.0011 -0.0122 0.0319 -0.0069 0.0154 -0.0005 0.001 -0.0073 0.0146 -0.0044 0.0081 -0.008 0.014 -0.0082 0.0131 -0.0006 0.001 -0.0084 0.0123 -0.0063 0.0088 -0.0087 0.0114 -0.0087 0.0108 -0.0154 0.0172 -0.0008 0.0008 -0.0092 0.0095 -0.0178 0.0168 -0.0009 0.0008 -0.0105 0.0091 -0.0113 0.009 -0.0091 0.0069 -0.0122 0.0087 -0.0131 0.0086 -0.0159 0.0096 -0.3814 -0.6814 -0.0139 0.0084 -0.0113 0.0074 -0.0102 0.0073 -0.0073 0.0055 -0.0095 0.0076 -0.0087 0.0075 0.0009 -0.0008 -0.016 0.0152 -0.0076 0.0077 0.0008 -0.0008 -0.0138 0.0154 -0.0071 0.0088 -0.0073 0.0096 -0.0049 0.0068 -0.007 0.0103 0.0006 -0.001 -0.0068 0.0111 -0.007 0.012 -0.0032 0.0061 -0.0063 0.0124 0.0005 -0.001 -0.0059 0.0132 -0.0114 0.0299 0.0003 -0.0011 0.0004 -0.001 -0.0092 0.0324 -0.0036 0.0167 0.0002 -0.0011 -0.0024 0.0143 -0.0023 0.0183 -0.0014 0.0186 -0.0005 0.0187 0 -0.0005zm0 0.0005l0 -0.0005 0 0 0 0.0005zm0.796 -12.8922l-0.0152 12.8859 -0.7808 0.0058 0.0152 -12.8859 0.7808 -0.0063 0 0.0005zm0 -0.0005l0 0.0005 0 0 0 -0.0005zm-0.2166 0.3351l-0.3852 -0.6792 -0.003 0.0017 0.0179 -0.0099 0.0157 -0.0079 0.001 -0.0005 0.0267 -0.0115 0.019 -0.0068 0.0199 -0.0061 0.0208 -0.0052 0.0177 -0.0035 0.0202 -0.0031 0.0248 -0.0023 0.0493 0 0.0278 0.0027 0.0043 0.0006 0.0271 0.0048 0.0333 0.0087 0.0257 0.0089 0.0566 0.0271 0.033 0.0216 0.0006 0.0004 0.0316 0.0257 0.0153 0.0145 0.0263 0.029 0.0352 0.0508 0.0068 0.0121 0.0058 0.0112 0.0215 0.0518 0.0086 0.0296 0.0002 0.0008 0.0059 0.0277 0.0037 0.0258 0.0019 0.0237 0.0006 0.0217 -0.7808 0.0068 0.0006 0.0197 0.0017 0.0219 0.0035 0.024 0.0055 0.0261 -0.0002 -0.0008 0.0082 0.028 0.0209 0.0504 0.005 0.0098 0.0062 0.0109 0.0344 0.0496 0.0253 0.028 0.0143 0.0135 0.0306 0.0249 -0.0006 -0.0004 0.032 0.0208 0.0552 0.0265 0.0245 0.0085 0.0319 0.0083 0.0257 0.0046 0.0029 0.0004 0.0262 0.0025 0.0477 0 0.0232 -0.0021 0.0186 -0.0029 0.0159 -0.0031 0.019 -0.0048 0.0181 -0.0055 0.0172 -0.0062 0.0249 -0.0107 -0.001 0.0005 0.0139 -0.0071 0.0159 -0.0087 -0.003 0.0017zm0.003 -0.0017l-0.003 0.0017 0.0062 -0.0036 -0.0032 0.0019zm-11.535 5.7754l11.1468 -6.4529 0.3852 0.6792 -11.1468 6.4529 -0.3906 -0.676 0.0054 -0.0032zm-0.0054 0.0032l0.0035 -0.0021 0.0019 -0.0011 -0.0054 0.0032zm0.5696 0.3633l-0.7808 0.0058 0 0.0005 0.0005 -0.0207 0.0016 -0.0206 0.0025 -0.0203 0.0028 -0.0163 0.0002 -0.0011 0.004 -0.0187 0.0098 -0.0346 0.0023 -0.0066 -0.0016 0.0046 0.0122 -0.032 0.0069 -0.0153 0.0005 -0.0011 0.0111 -0.0216 -0.0032 0.0061 0.0075 -0.0139 0.0125 -0.0204 0.0006 -0.001 0.014 -0.0201 0.0007 -0.0009 0.0087 -0.0115 0.0157 -0.0187 0.0008 -0.0009 0.0008 -0.0009 0.0168 -0.0178 0.0178 -0.0168 0.0009 -0.0008 0.0105 -0.0091 0.0009 -0.0007 0.0195 -0.0153 0.0122 -0.0086 0.0009 -0.0007 0.0208 -0.0133 0.396 0.6728 0.0188 -0.0121 -0.0009 0.0007 0.0102 -0.0074 0.0177 -0.0137 -0.0009 0.0007 0.0087 -0.0075 -0.0009 0.0008 0.016 -0.0152 0.0152 -0.016 -0.0008 0.0009 -0.0008 0.0009 0.0141 -0.0169 0.0073 -0.0095 -0.0007 0.0009 0.0126 -0.0181 -0.0006 0.001 0.0111 -0.0184 0.0065 -0.0117 -0.0044 0.0081 0.0101 -0.0196 -0.0005 0.0011 0.0059 -0.0133 0.0114 -0.0298 -0.0022 0.0066 0.0015 -0.0046 0.0092 -0.0324 0.0036 -0.0167 -0.0002 0.0011 0.0024 -0.0143 0.0023 -0.0183 0.0014 -0.0186 0.0005 -0.0187 0 0.0005zm0 -0.0005l0 0.0005 0 0 0 -0.0005z"/>
    </g>
    <g>
     <path class="fil0" d="M26.3819 15.657l0.0155 12.8859 -0.7808 -0.0058 -0.0155 -12.8859 0 -0.0005 0.7808 0.0063zm-0.7808 -0.0058l0 0 0 -0.0005 0 0.0005zm0.6018 -0.3448l-0.3852 0.6792 0.0019 0.0011 0.011 0.006 0.0139 0.007 0.0147 0.0066 0.0092 0.0037 0.0172 0.0062 0.0181 0.0055 0.0395 0.0088 0.0176 0.0025 -0.0036 -0.0004 0.0232 0.0021 0.0477 0 0.0262 -0.0025 0.0029 -0.0004 0.0257 -0.0046 0.057 -0.017 0.0226 -0.0095 0.0101 -0.0049 0.0341 -0.0193 0.0192 -0.013 0.0306 -0.0249 0.0269 -0.0268 0.0127 -0.0146 0.0344 -0.0497 0.0062 -0.0108 -0.0004 0.0006 0.0263 -0.0609 0.0082 -0.028 -0.0002 0.0008 0.0055 -0.0261 0.0035 -0.024 0.0017 -0.0219 0.0006 -0.0197 -0.7808 -0.0068 0.0006 -0.0217 0.0019 -0.0237 0.0037 -0.0258 0.0059 -0.0277 0.0002 -0.0008 0.0086 -0.0296 0.0269 -0.0623 0.0004 -0.0006 0.0068 -0.0122 0.0352 -0.0507 0.0137 -0.0158 0.0279 -0.0278 0.0316 -0.0257 0.0204 -0.0138 0.0351 -0.0199 0.0115 -0.0055 0.0238 -0.0101 0.0584 -0.0174 0.0271 -0.0048 0.0043 -0.0006 0.0278 -0.0027 0.0493 0 0.0248 0.0023 -0.002 -0.0002 0.0194 0.0027 0.0413 0.0092 0.0199 0.0061 0.019 0.0068 0.011 0.0045 0.0167 0.0074 0.0157 0.008 0.013 0.007 0.0019 0.0011zm-0.0019 -0.0011l0 0 0.0019 0.0011 -0.0019 -0.0011zm10.7638 7.1334l-11.1471 -6.4531 0.3852 -0.6792 11.1471 6.4531 0.0034 0.002 -0.3886 0.6772zm0.3852 -0.6792l0.0034 0.002 -0.0024 -0.0014 -0.001 -0.0006zm0.2166 0.3723l-0.7808 -0.0058 0.0001 0.007 0.0004 0.0112 0.0038 0.0379 -0.0002 -0.001 0.0025 0.0143 0.0035 0.0166 -0.0002 -0.001 0.0092 0.0324 0.0053 0.0148 -0.0004 -0.0011 -0.0004 -0.001 0.0057 0.014 0.0059 0.0133 0.0063 0.0124 0.0107 0.0191 -0.0049 -0.0083 0.0065 0.0109 0.0092 0.0142 -0.0006 -0.0009 0.0094 0.013 0.0052 0.0068 0.0059 0.0073 0.0075 0.0087 0.0068 0.0074 0.0076 0.0078 0.0072 0.007 -0.0004 -0.0003 0.0086 0.0078 0.0262 0.0211 -0.001 -0.0007 0.0021 0.0015 0.0195 0.0132 0.0086 0.0053 0.392 -0.6752 0.0106 0.0065 0.0213 0.0144 0.0039 0.0029 0.001 0.0007 0.028 0.0225 0.0102 0.0094 0.0014 0.0013 0.009 0.0088 0.0092 0.0094 0.0084 0.0092 0.0091 0.0105 0.0073 0.0091 0.0068 0.0088 0.0108 0.015 0.0006 0.0009 0.0106 0.0162 0.0077 0.0131 -0.0037 -0.0063 0.0119 0.0211 0.0073 0.0146 0.0069 0.0153 0.0065 0.0162 0.0004 0.001 0.0004 0.0011 0.0061 0.0168 0.0098 0.0346 0.0002 0.001 0.0041 0.0188 0.0027 0.0163 0.0002 0.001 0.004 0.0399 0.0004 0.0132 0.0001 0.007zm-0.0001 -0.007l0.0001 0.0051 0 0.0019 -0.0001 -0.007zm-0.7655 12.8873l-0.0152 -12.8861 0.7808 0.0058 0.0152 12.8861 0 0.0005 -0.7808 -0.0063zm0.7808 0.0058l0 0 0 0.0005 0 -0.0005zm-0.6018 0.3443l0.3852 -0.6792 0.0054 0.0032 -0.0044 -0.0026 -0.0278 -0.0146 -0.0147 -0.0066 0.008 0.0035 -0.0344 -0.0133 -0.0181 -0.0056 -0.019 -0.0047 -0.0159 -0.0032 -0.0186 -0.0028 -0.0232 -0.0022 -0.0235 -0.0007 -0.0504 0.0033 -0.0029 0.0004 -0.0257 0.0046 -0.0319 0.0083 -0.0245 0.0085 -0.0333 0.0147 -0.0341 0.0193 -0.0192 0.013 -0.0306 0.0249 -0.0143 0.0135 -0.0253 0.028 -0.0344 0.0496 -0.0062 0.0109 -0.005 0.0098 -0.0182 0.0425 -0.0093 0.0301 -0.0014 0.0051 -0.0055 0.0261 -0.0035 0.024 -0.0017 0.0219 -0.0006 0.0197 0.7808 0.0068 -0.0006 0.0217 -0.0019 0.0237 -0.0037 0.0258 -0.0059 0.0277 -0.0018 0.0067 -0.0097 0.0315 -0.0188 0.0439 -0.0058 0.0112 -0.0068 0.0121 -0.0352 0.0508 -0.0263 0.029 -0.0153 0.0145 -0.0316 0.0257 -0.0204 0.0138 -0.0351 0.0199 -0.0347 0.0153 -0.0257 0.0089 -0.0333 0.0087 -0.0271 0.0048 -0.0043 0.0006 -0.052 0.0035 -0.0251 -0.0009 -0.0248 -0.0022 -0.0202 -0.0032 -0.0177 -0.0034 -0.0208 -0.0053 -0.0199 -0.006 -0.0362 -0.0141 0.0062 0.0027 -0.0167 -0.0074 -0.0296 -0.0156 -0.0064 -0.0038 0.0054 0.0032zm0.3852 -0.6792l0.0019 0.0011 0.0035 0.0021 -0.0054 -0.0032zm-11.1468 -6.4529l11.1468 6.4529 -0.3852 0.6792 -11.1468 -6.4529 0.3819 -0.6811 0.0033 0.0019zm-0.0033 -0.0019l0.0033 0.0019 -0.0025 -0.0014 -0.0008 -0.0005zm-0.5985 0.3089l0.7808 0.0058 0 0.0005 -0.0005 -0.0187 -0.0014 -0.0186 -0.0023 -0.0183 -0.0024 -0.0143 0.0002 0.0011 -0.0036 -0.0167 -0.0041 -0.016 -0.0048 -0.0154 -0.0053 -0.0147 -0.0057 -0.0141 -0.0059 -0.0132 0.0005 0.001 0.0005 0.0011 -0.0101 -0.0196 -0.0069 -0.012 -0.0069 -0.0111 -0.007 -0.0103 0.0007 0.001 -0.0049 -0.0068 -0.0073 -0.0096 0.0008 0.001 -0.0218 -0.0252 -0.0075 -0.0078 0.0092 0.0095 -0.0162 -0.0162 -0.0074 -0.0068 -0.0087 -0.0075 -0.0177 -0.0138 0.001 0.0007 -0.0103 -0.0073 -0.0188 -0.0121 -0.0077 -0.0045 -0.3786 0.683 -0.0097 -0.0057 -0.0208 -0.0133 -0.0121 -0.0087 -0.001 -0.0007 -0.0195 -0.0152 -0.0105 -0.0091 -0.0092 -0.0084 -0.0178 -0.0178 0.0076 0.0077 -0.0093 -0.0094 -0.0232 -0.027 -0.0008 -0.001 -0.0087 -0.0114 -0.0063 -0.0088 -0.0007 -0.001 -0.0084 -0.0123 -0.0081 -0.0131 -0.0081 -0.014 -0.0111 -0.0216 -0.0005 -0.0011 -0.0005 -0.001 -0.0069 -0.0154 -0.0065 -0.0161 -0.0061 -0.0169 -0.0054 -0.0174 -0.0047 -0.0182 -0.004 -0.0187 -0.0002 -0.0011 -0.0028 -0.0163 -0.0025 -0.0203 -0.0016 -0.0206 -0.0005 -0.0207 0 0.0005zm0.7808 0.0058l0 0 0 0.0005 0 -0.0005z"/>
    </g>
    <g>
     <path class="fil0" d="M25.6027 54.2762l0.0154 -12.8859 0.7808 -0.0058 -0.0154 12.8859 -0.7808 0.0063 0 -0.0005zm0 0.0005l0 -0.0005 0 0 0 0.0005zm0.2166 -0.3347l0.3852 0.6792 -0.0019 0.0011 -0.013 0.007 -0.0157 0.008 -0.0167 0.0074 -0.011 0.0045 -0.019 0.0068 -0.0199 0.0061 -0.0208 0.0052 -0.0177 0.0035 -0.0442 0.0053 -0.0251 0.0008 -0.0008 0 -0.0266 -0.0009 -0.0561 -0.0078 -0.0259 -0.0065 -0.0081 -0.0024 -0.0489 -0.0187 -0.0334 -0.0174 -0.0132 -0.0081 -0.0204 -0.0138 -0.0316 -0.0257 -0.0279 -0.0278 -0.0238 -0.0287 -0.0251 -0.0379 -0.0068 -0.0121 -0.0058 -0.0112 -0.0215 -0.0518 -0.0086 -0.0296 -0.0015 -0.0061 -0.0052 -0.0262 -0.0031 -0.0221 -0.0019 -0.0237 -0.0006 -0.0217 0.7808 -0.0068 -0.0006 -0.0197 -0.0017 -0.0219 -0.0029 -0.0203 -0.0048 -0.0244 -0.0011 -0.0045 -0.0082 -0.028 -0.0209 -0.0504 -0.005 -0.0098 -0.0062 -0.0109 -0.0243 -0.0367 -0.0228 -0.0275 -0.0269 -0.0268 -0.0306 -0.0249 -0.0192 -0.013 -0.0122 -0.0075 -0.032 -0.0166 -0.0477 -0.0183 -0.0067 -0.002 -0.0245 -0.0061 -0.0547 -0.0076 -0.025 -0.0009 0.0008 0 -0.0235 0.0008 -0.0426 0.0051 -0.0159 0.0031 -0.019 0.0048 -0.0181 0.0055 -0.0172 0.0062 -0.0092 0.0037 -0.0147 0.0066 -0.0139 0.007 -0.011 0.006 -0.0019 0.0011zm0.3852 0.6792l-0.0019 0.0011 0 0 0.0019 -0.0011zm11.1468 -6.4534l-11.1468 6.4534 -0.3852 -0.6792 11.1468 -6.4534 0.006 -0.0034 0.3792 0.6826zm-0.3852 -0.6792l0.0029 -0.0017 0.0031 -0.0017 -0.006 0.0034zm-0.179 0.313l0.7808 -0.0058 0 -0.0005 -0.0005 0.0207 -0.0016 0.0206 -0.0025 0.0203 -0.0035 0.0199 -0.0002 0.001 -0.0033 0.0151 -0.0047 0.0182 -0.0054 0.0174 -0.0061 0.0169 -0.0028 0.0071 -0.0041 0.01 -0.0069 0.0154 -0.0111 0.0216 0.0032 -0.0061 -0.0075 0.0139 -0.0125 0.0204 -0.0058 0.0088 -0.0088 0.0122 -0.0007 0.001 -0.0087 0.0114 -0.0087 0.0108 -0.0078 0.0089 -0.0084 0.0092 -0.0178 0.0178 -0.0092 0.0084 -0.0009 0.0008 -0.0105 0.0091 -0.0113 0.009 -0.0091 0.0069 -0.02 0.0139 -0.013 0.0081 -0.0124 0.0072 -0.3732 -0.686 -0.0104 0.006 -0.011 0.0069 -0.018 0.0125 -0.0073 0.0055 -0.0095 0.0076 -0.0087 0.0075 0.0009 -0.0008 -0.0074 0.0068 -0.0162 0.0162 -0.0068 0.0074 -0.0062 0.0071 -0.0071 0.0088 -0.0073 0.0096 0.0007 -0.001 -0.0074 0.0104 -0.0046 0.0068 -0.0111 0.0184 -0.0065 0.0117 0.0044 -0.0081 -0.0101 0.0196 -0.0059 0.0132 -0.0033 0.008 -0.002 0.0051 -0.0053 0.0147 -0.0048 0.0154 -0.0041 0.016 -0.0029 0.0131 0.0002 -0.001 -0.0031 0.0179 -0.0023 0.0183 -0.0014 0.0186 -0.0005 0.0187 0 -0.0005zm0 0.0005l0 -0.0005 0 0 0 0.0005zm0.7962 -12.8924l-0.0154 12.8861 -0.7808 0.0058 0.0154 -12.8861 0.7808 -0.0063 0 0.0005zm0 -0.0005l0 0.0005 0 0 0 -0.0005zm-0.2165 0.3352l-0.3852 -0.6792 -0.0054 0.0032 0.0064 -0.0038 0.0296 -0.0156 0.0167 -0.0074 0.011 -0.0045 0.019 -0.0068 0.0199 -0.0061 0.0208 -0.0052 0.0177 -0.0035 0.0202 -0.0031 0.0248 -0.0023 0.0251 -0.0008 0.0265 0.0009 0.051 0.0068 0.0385 0.0097 0.0006 0.0002 0.0258 0.0089 0.0346 0.0153 0.0352 0.0199 0.0376 0.0273 0.0144 0.0123 0.0291 0.0291 0.0124 0.0144 0.0229 0.0309 0.0192 0.032 0.011 0.0221 0.0162 0.0408 0.0086 0.0296 0.0002 0.0008 0.0059 0.0277 0.0037 0.0258 0.0019 0.0237 0.0006 0.0217 -0.7808 0.0068 0.0006 0.0197 0.0017 0.0219 0.0035 0.024 0.0055 0.0261 -0.0002 -0.0008 0.0082 0.028 0.0156 0.0394 0.0104 0.0209 0.0184 0.0306 0.0221 0.0299 0.0114 0.0132 0.0283 0.0283 0.0132 0.0113 0.0366 0.0265 0.034 0.0193 0.0334 0.0147 0.0244 0.0085 -0.0006 -0.0002 0.0371 0.0093 0.0494 0.0066 0.0251 0.0009 0.0235 -0.0008 0.0232 -0.0021 0.0186 -0.0029 0.0159 -0.0031 0.019 -0.0048 0.0181 -0.0055 0.0172 -0.0062 0.0092 -0.0037 0.0147 -0.0066 0.0278 -0.0146 0.0044 -0.0026 -0.0054 0.0032zm0.0054 -0.0032l-0.0035 0.0021 -0.0019 0.0011 0.0054 -0.0032zm-11.5375 5.7769l11.1469 -6.4529 0.3852 0.6792 -11.1469 6.4529 -0.3882 -0.6775 0.003 -0.0017zm-0.003 0.0017l0.003 -0.0017 -0.0062 0.0036 0.0032 -0.0019zm0.5672 0.3647l-0.7808 0.0058 0 0.0005 0.0005 -0.0207 0.0016 -0.0206 0.0025 -0.0203 0.0028 -0.0163 0.0002 -0.0011 0.004 -0.0187 0.0098 -0.0346 0.0023 -0.0066 -0.0016 0.0046 0.0122 -0.032 0.0069 -0.0153 0.0005 -0.0011 0.0111 -0.0216 -0.0032 0.0061 0.0075 -0.0139 0.0125 -0.0204 0.0058 -0.0088 0.0088 -0.0122 0.0007 -0.001 0.0087 -0.0114 0.0087 -0.0108 0.0078 -0.0089 0.0084 -0.0092 0.0092 -0.0094 0.009 -0.0088 0.0193 -0.0172 0.0009 -0.0007 0.0009 -0.0008 0.0195 -0.0152 0.0122 -0.0087 0.0131 -0.0086 0.011 -0.0068 0.3912 0.6758 0.009 -0.0056 0.0113 -0.0074 0.0102 -0.0073 0.0177 -0.0138 -0.0009 0.0008 -0.0009 0.0007 0.0175 -0.0156 0.0072 -0.007 0.0076 -0.0078 0.0068 -0.0074 0.0062 -0.0071 0.0071 -0.0088 0.0073 -0.0096 -0.0007 0.001 0.0074 -0.0104 0.0046 -0.0068 0.0111 -0.0184 0.0065 -0.0117 -0.0044 0.0081 0.0101 -0.0196 -0.0005 0.0011 0.0059 -0.0133 0.0114 -0.0298 -0.0022 0.0066 0.0015 -0.0046 0.0092 -0.0324 0.0036 -0.0167 -0.0002 0.0011 0.0024 -0.0143 0.0023 -0.0183 0.0014 -0.0186 0.0005 -0.0187 0 0.0005zm0 -0.0005l0 0.0005 0 0 0 -0.0005z"/>
    </g>
    <g>
     <path class="fil0" d="M47.8769 54.2691l-0.0152 -12.8859 0.7808 0.0058 0.0152 12.8859 0 0.0005 -0.7808 -0.0063zm0.7808 0.0058l0 0 0 0.0005 0 -0.0005zm-0.6017 0.3447l0.3852 -0.6792 0.0006 0.0003 -0.0135 -0.0074 0.0009 0.0005 -0.0295 -0.014 -0.0092 -0.0038 -0.0172 -0.0061 -0.038 -0.0106 0.0009 0.0002 -0.0159 -0.0031 -0.0186 -0.0029 -0.0232 -0.0021 -0.0493 0.0001 -0.0247 0.0024 0.0008 -0.0001 -0.0352 0.0064 -0.0512 0.0157 -0.0225 0.0095 -0.0102 0.0049 -0.034 0.0193 -0.0193 0.013 -0.0305 0.0249 -0.0402 0.042 0.0005 -0.0006 -0.0221 0.0299 -0.0184 0.0306 -0.0104 0.0209 -0.0156 0.0394 -0.0082 0.028 0.0002 -0.0008 -0.0055 0.0261 -0.0035 0.024 -0.0017 0.0219 -0.0006 0.0197 0.7808 0.0068 -0.0006 0.0217 -0.0019 0.0237 -0.0037 0.0258 -0.0059 0.0277 -0.0002 0.0008 -0.0086 0.0296 -0.0162 0.0408 -0.011 0.0221 -0.0192 0.032 -0.0229 0.0309 -0.0005 0.0006 -0.041 0.043 -0.0317 0.0257 -0.0203 0.0138 -0.0352 0.0199 -0.0114 0.0055 -0.0239 0.0101 -0.0524 0.0161 -0.0366 0.0066 -0.0008 0.0001 -0.0261 0.0026 -0.0509 0.0001 -0.0248 -0.0023 -0.0202 -0.0031 -0.0177 -0.0035 -0.0009 -0.0002 -0.0398 -0.011 -0.019 -0.0069 -0.011 -0.0044 -0.0315 -0.015 -0.0009 -0.0005 -0.0155 -0.0084 0.0006 0.0003zm0.3852 -0.6792l0.0006 0.0003 0.0232 0.0135 -0.0238 -0.0138zm-11.1469 -6.4531l11.1469 6.4531 -0.3852 0.6792 -11.1469 -6.4531 0.3833 -0.6803 0.0019 0.0011zm-0.0019 -0.0011l0 0 0.0019 0.0011 -0.0019 -0.0011zm-0.5999 0.3081l0.7808 0.0058 0 0.0005 -0.0005 -0.0187 -0.0014 -0.0186 -0.0023 -0.0183 -0.0024 -0.0143 0.0002 0.0011 -0.0036 -0.0167 -0.0092 -0.0324 0.0004 0.001 0.0003 0.0011 -0.0114 -0.0299 -0.0059 -0.0132 0.0005 0.001 -0.0063 -0.0124 -0.0032 -0.0061 -0.007 -0.012 -0.0068 -0.0111 0.0006 0.001 -0.007 -0.0103 -0.0049 -0.0068 -0.0073 -0.0096 -0.0071 -0.0088 -0.0138 -0.0154 0.0008 0.0008 -0.0076 -0.0077 -0.016 -0.0152 0.0009 0.0008 -0.0087 -0.0075 -0.0095 -0.0076 -0.0073 -0.0055 -0.0102 -0.0073 -0.0113 -0.0074 -0.0139 -0.0084 -0.3814 0.6814 -0.0159 -0.0096 -0.0131 -0.0086 -0.0122 -0.0087 -0.0091 -0.0069 -0.0113 -0.009 -0.0105 -0.0091 -0.0009 -0.0008 -0.0178 -0.0168 -0.0092 -0.0095 -0.0008 -0.0008 -0.0154 -0.0172 -0.0087 -0.0108 -0.0087 -0.0114 -0.0063 -0.0088 -0.0084 -0.0123 -0.0006 -0.001 -0.0082 -0.0131 -0.008 -0.014 -0.0044 -0.0081 -0.0073 -0.0146 -0.0005 -0.001 -0.0069 -0.0154 -0.0122 -0.0319 -0.0003 -0.0011 -0.0004 -0.001 -0.0098 -0.0346 -0.004 -0.0187 -0.0002 -0.0011 -0.0028 -0.0163 -0.0025 -0.0203 -0.0016 -0.0206 -0.0005 -0.0207 0 0.0005zm0.7808 0.0058l0 0 0 0.0005 0 -0.0005zm-0.0154 -12.8862l0.0154 12.8862 -0.7808 -0.0058 -0.0154 -12.8862 0 -0.0005 0.7808 0.0063zm-0.7808 -0.0058l0 0 0 -0.0005 0 0.0005zm0.6018 -0.3445l-0.3852 0.6792 0.0019 0.0011 0.011 0.006 0.0139 0.007 0.0147 0.0066 0.0092 0.0037 0.0172 0.0062 0.0181 0.0055 0.019 0.0048 0.0159 0.0031 0.0426 0.0051 0.0235 0.0008 -0.0008 0 0.025 -0.0009 0.0547 -0.0076 -0.0007 0.0002 0.0319 -0.0084 0.0477 -0.0182 0.0101 -0.0049 0.0341 -0.0193 0.0192 -0.013 0.0306 -0.0249 0.0143 -0.0135 0.0253 -0.028 0.0344 -0.0496 -0.0003 0.0006 0.0061 -0.0109 0.0263 -0.0609 0.0082 -0.028 -0.0002 0.0008 0.0048 -0.022 0.0042 -0.0282 0.0017 -0.0218 0.0006 -0.0198 -0.7808 -0.0068 0.0006 -0.0216 0.0019 -0.0238 0.0044 -0.0298 0.0052 -0.0236 0.0002 -0.0008 0.0086 -0.0296 0.0269 -0.0623 0.0069 -0.0121 0.0003 -0.0006 0.0352 -0.0508 0.0263 -0.029 0.0153 -0.0145 0.0316 -0.0257 0.0204 -0.0138 0.0351 -0.0199 0.0115 -0.0055 0.0489 -0.0188 0.0333 -0.0086 0.0007 -0.0002 0.0561 -0.0078 0.0266 -0.0009 0.0008 0 0.0251 0.0008 0.0442 0.0053 0.0177 0.0035 0.0208 0.0052 0.0199 0.0061 0.019 0.0068 0.011 0.0045 0.0167 0.0074 0.0157 0.008 0.013 0.007 0.0019 0.0011zm-0.0019 -0.0011l0 0 0.0019 0.0011 -0.0019 -0.0011zm10.7635 7.1334l-11.1468 -6.4531 0.3852 -0.6792 11.1468 6.4531 0.0012 0.0007 -0.3864 0.6785zm0.3852 -0.6792l0 0 0.0012 0.0007 -0.0012 -0.0007zm0.2168 0.3723l-0.7808 -0.0058 0.0001 0.007 0.0004 0.0112 0.0038 0.0379 -0.0002 -0.001 -0.0005 -0.0038 0.0066 0.0347 0.0041 0.0161 -0.0003 -0.0011 0.0067 0.021 0.0034 0.0092 0.0057 0.014 0.0059 0.0133 -0.0005 -0.0011 0.0029 0.0058 0.0029 0.0057 0.0064 0.0117 0.0112 0.0184 0.007 0.0103 0.0049 0.0068 -0.0007 -0.0009 0.0073 0.0095 0.0058 0.0073 0.0076 0.0087 0.0072 0.0079 0.0071 0.0072 0.016 0.0152 -0.0009 -0.0008 0.0087 0.0075 -0.0009 -0.0007 0.0177 0.0137 0.018 0.0126 -0.001 -0.0007 0.0152 0.0094 0.3876 -0.6778 0.0172 0.0106 0.001 0.0007 0.02 0.0138 0.0195 0.0153 0.0009 0.0007 0.0105 0.0091 0.0009 0.0008 0.0178 0.0168 0.0087 0.009 0.009 0.0097 0.009 0.0105 0.0074 0.0091 0.0087 0.0115 0.0007 0.0009 0.0063 0.0088 0.0084 0.0123 0.0124 0.0204 0.0076 0.0139 0.0039 0.0077 0.0039 0.0078 0.0005 0.0011 0.0069 0.0153 0.0065 0.0162 0.0042 0.0112 0.0073 0.023 0.0003 0.0011 0.0047 0.0181 0.007 0.0369 -0.0003 -0.0018 0.0002 0.001 0.004 0.0399 0.0004 0.0132 0.0001 0.007zm-0.0001 -0.007l0.0001 0.0051 0 0.0019 -0.0001 -0.007z"/>
    </g>
    <g>
     <path class="fil0" d="M48.7304 15.6525l-0.0152 12.8861 -0.7808 0.0058 0.0152 -12.8861 0.7808 -0.0063 0 0.0005zm0 -0.0005l0 0.0005 0 0 0 -0.0005zm-0.2166 0.335l-0.3852 -0.6792 -0.0006 0.0003 0.0155 -0.0084 0.0009 -0.0005 0.0315 -0.015 0.011 -0.0044 0.019 -0.0069 0.0398 -0.011 0.0009 -0.0002 0.0177 -0.0035 0.0202 -0.0031 0.0248 -0.0023 0.0493 0 0.0278 0.0027 0.0043 0.0006 0.0271 0.0048 0.0584 0.0174 0.0238 0.0101 0.0115 0.0055 0.0351 0.0199 0.0204 0.0138 0.0316 0.0257 0.0279 0.0278 0.0137 0.0158 0.0352 0.0507 0.0068 0.0122 0.0004 0.0006 0.0269 0.0623 0.0086 0.0296 0.0002 0.0008 0.0059 0.0277 0.0037 0.0258 0.0019 0.0237 0.0006 0.0217 -0.7808 0.0068 0.0006 0.0197 0.0017 0.0219 0.0035 0.024 0.0055 0.0261 -0.0002 -0.0008 0.0082 0.028 0.0263 0.0609 -0.0004 -0.0006 0.0062 0.0108 0.0344 0.0497 0.0127 0.0146 0.0269 0.0268 0.0306 0.0249 0.0192 0.013 0.0341 0.0193 0.0101 0.0049 0.0226 0.0095 0.057 0.017 0.0257 0.0046 0.0029 0.0004 0.0262 0.0025 0.0477 0 0.0232 -0.0021 0.0186 -0.0029 0.0159 -0.0031 -0.0009 0.0002 0.038 -0.0106 0.0172 -0.0061 0.0092 -0.0038 0.0295 -0.014 -0.0009 0.0005 0.0135 -0.0074 -0.0006 0.0003zm0.0006 -0.0003l-0.0006 0.0003 0.0239 -0.0138 -0.0233 0.0135zm-11.5326 5.7742l11.1468 -6.4531 0.3852 0.6792 -11.1468 6.4531 -0.0019 0.0011 -0.3833 -0.6803zm0.3852 0.6792l-0.0019 0.0011 0 0 0.0019 -0.0011zm0.179 -0.3128l-0.7808 0.0058 0 0.0005 0.0005 -0.0207 0.0016 -0.0206 0.0025 -0.0203 0.0028 -0.0163 0.0002 -0.0011 0.004 -0.0187 0.0098 -0.0346 0.0004 -0.001 0.0003 -0.0011 0.0122 -0.0319 0.0069 -0.0154 0.0005 -0.001 0.0073 -0.0146 0.0044 -0.0081 0.008 -0.014 0.0082 -0.0131 0.0006 -0.001 0.0084 -0.0123 0.0063 -0.0088 0.0087 -0.0114 0.0087 -0.0108 0.0154 -0.0172 0.0008 -0.0008 0.0092 -0.0095 0.0178 -0.0168 0.0009 -0.0008 0.0105 -0.0091 0.0113 -0.009 0.0091 -0.0069 0.0122 -0.0087 0.0131 -0.0086 0.0159 -0.0096 0.3814 0.6814 0.0139 -0.0084 0.0113 -0.0074 0.0102 -0.0073 0.0073 -0.0055 0.0095 -0.0076 0.0087 -0.0075 -0.0009 0.0008 0.016 -0.0152 0.0076 -0.0077 -0.0008 0.0008 0.0138 -0.0154 0.0071 -0.0088 0.0073 -0.0096 0.0049 -0.0068 0.007 -0.0103 -0.0006 0.001 0.0068 -0.0111 0.007 -0.012 0.0032 -0.0061 0.0063 -0.0124 -0.0005 0.001 0.0059 -0.0132 0.0114 -0.0299 -0.0003 0.0011 -0.0004 0.001 0.0092 -0.0324 0.0036 -0.0167 -0.0002 0.0011 0.0024 -0.0143 0.0023 -0.0183 0.0014 -0.0186 0.0005 -0.0187 0 0.0005zm0 -0.0005l0 0.0005 0 0 0 -0.0005zm-0.7962 12.8925l0.0154 -12.8862 0.7808 -0.0058 -0.0154 12.8862 -0.7808 0.0063 0 -0.0005zm0 0.0005l0 -0.0005 0 0 0 0.0005zm0.2166 -0.3352l0.3852 0.6792 0.0016 -0.0009 -0.0238 0.0129 -0.0085 0.0041 -0.0009 0.0005 -0.0334 0.014 -0.0124 0.0043 -0.0199 0.0061 -0.0161 0.0041 -0.0182 0.0039 -0.0271 0.0041 -0.0221 0.002 -0.0508 -0.0001 -0.0262 -0.0026 -0.0043 -0.0006 -0.0271 -0.0048 -0.0259 -0.0065 -0.0332 -0.0111 -0.0565 -0.0271 -0.0133 -0.0082 -0.0344 -0.0245 -0.0323 -0.029 -0.0005 -0.0005 -0.0263 -0.029 -0.0229 -0.031 -0.0127 -0.0204 -0.0175 -0.0336 -0.0162 -0.0408 -0.0086 -0.0296 -0.0002 -0.0008 -0.0059 -0.0277 -0.0037 -0.0258 -0.0019 -0.0237 -0.0006 -0.0217 0.7808 -0.0068 -0.0006 -0.0197 -0.0017 -0.0219 -0.0035 -0.024 -0.0055 -0.0261 0.0002 0.0008 -0.0082 -0.028 -0.0156 -0.0394 -0.0169 -0.0324 -0.0119 -0.0192 -0.0221 -0.0298 -0.0253 -0.028 0.0005 0.0005 -0.0313 -0.028 -0.0334 -0.0239 -0.0121 -0.0074 -0.0553 -0.0265 -0.0318 -0.0107 -0.0245 -0.0061 -0.0257 -0.0046 -0.0029 -0.0004 -0.0246 -0.0024 -0.0494 -0.0001 -0.0203 0.0018 -0.0255 0.0039 -0.0166 0.0035 -0.0143 0.0037 -0.0181 0.0055 -0.0106 0.0037 -0.0314 0.0132 0.0009 -0.0005 -0.0065 0.0033 -0.0218 0.0117 0.0016 -0.0009zm-0.0016 0.0009l0.0016 -0.0009 -0.006 0.0035 0.0044 -0.0026zm11.5336 -5.7746l-11.1468 6.4529 -0.3852 -0.6792 11.1468 -6.4529 0.3877 0.6777 -0.0025 0.0015zm0.0025 -0.0015l-0.0025 0.0015 -0.0028 0.0016 0.0053 -0.0031zm-0.5665 -0.365l0.7808 -0.0058 0 -0.0005 -0.0005 0.0207 -0.0016 0.0206 -0.0025 0.0203 -0.0028 0.0163 -0.0002 0.0011 -0.004 0.0187 -0.0098 0.0346 -0.0023 0.0066 -0.0041 0.0112 -0.0066 0.0162 -0.0004 0.001 -0.0069 0.0154 -0.0111 0.0216 -0.0038 0.0067 -0.0006 0.0011 -0.0049 0.0083 -0.0081 0.0131 -0.014 0.0201 -0.0087 0.0114 -0.0087 0.0108 -0.0078 0.0089 -0.0008 0.0009 -0.0008 0.0009 -0.0168 0.0178 -0.0178 0.0168 -0.0009 0.0008 -0.0105 0.0091 -0.009 0.0072 -0.0115 0.0088 -0.0121 0.0086 -0.0088 0.0059 -0.0159 0.0098 -0.3902 -0.6762 -0.0139 0.0086 -0.0068 0.0045 -0.0103 0.0074 -0.0095 0.0072 -0.0072 0.0058 -0.0087 0.0075 0.0009 -0.0008 -0.016 0.0152 -0.0152 0.016 0.0008 -0.0009 0.0008 -0.0009 -0.0062 0.0071 -0.0071 0.0088 -0.0073 0.0096 -0.0126 0.0181 -0.0069 0.0111 -0.0037 0.0063 0.0006 -0.0011 -0.0026 0.0047 -0.0101 0.0196 -0.0059 0.0132 0.0004 -0.001 -0.0056 0.014 -0.0035 0.0092 -0.0015 0.0046 -0.0092 0.0324 -0.0036 0.0167 0.0002 -0.0011 -0.0024 0.0143 -0.0023 0.0183 -0.0014 0.0186 -0.0005 0.0187 0 -0.0005zm0 0.0005l0 -0.0005 0 0 0 0.0005z"/>
    </g>
    <g>
     <path class="fil2" d="M26.0043 28.4982l11.1596 6.4428c0.0091,0.0054 0.008,0.0143 -0.0025,0.0206l-11.1694 6.4135c-0.0107,0.0058 -0.0262,0.0067 -0.0351,0.0014l-11.1594 -6.4429c-0.0092,-0.0051 -0.008,-0.0141 0.0025,-0.0201l11.1694 -6.4138c0.0107,-0.006 0.0262,-0.0067 0.0349,-0.0015z"/>
     <path id="1" class="fil0" d="M36.9658 35.2774l-11.1596 -6.4428 0.3962 -0.6728 11.1596 6.4428 0.0041 0.0024 -0.4003 0.6704zm0.3962 -0.6728l0.0021 0.0012 0.002 0.0012 -0.0041 -0.0024zm-0.0032 0.6939l-0.3948 -0.6738 -0.0065 0.0039 -0.0067 0.0041 -0.0159 0.0106 -0.0203 0.0155 -0.0088 0.0073 -0.0093 0.0084 -0.0097 0.0093 -0.0103 0.0107 -0.0195 0.0229 -0.0102 0.0136 -0.0101 0.015 -0.0203 0.0356 -0.0093 0.02 -0.0084 0.0216 -0.0053 0.0156 -0.007 0.0262 -0.0059 0.0315 -0.0028 0.0263 0 0.0543 0.0028 0.0263 0.0059 0.0315 0.007 0.0262 0.0085 0.0244 0.0202 0.044 0.0108 0.0187 0.0197 0.0289 0.0119 0.0151 0.0116 0.0133 0.0112 0.0117 0.0233 0.0214 0.0208 0.0164 0.0089 0.0063 0.0214 0.0137 0.4044 -0.668 0.023 0.0147 0.0105 0.0075 0.0222 0.0174 0.0245 0.0226 0.0124 0.0129 0.0126 0.0145 0.0129 0.0163 0.0205 0.0301 0.0116 0.0201 0.0208 0.0452 0.0089 0.0258 0.0074 0.0274 0.0061 0.0329 0.003 0.0277 0 0.0557 -0.003 0.0277 -0.0061 0.0329 -0.0074 0.0274 -0.0057 0.017 -0.009 0.023 -0.0099 0.0214 -0.0211 0.037 -0.0111 0.0164 -0.0112 0.015 -0.0207 0.0243 -0.0115 0.0119 -0.0111 0.0107 -0.0107 0.0096 -0.0104 0.0087 -0.0219 0.0167 -0.0177 0.0118 -0.0087 0.0053 -0.0065 0.0039zm0.0065 -0.0039l-0.0065 0.0039 0 0 0.0065 -0.0039zm-11.5707 5.7436l11.1694 -6.4135 0.3948 0.6738 -11.1694 6.4135 -0.0085 0.0047 -0.3863 -0.6785zm0.3948 0.6738l-0.0029 0.0017 -0.0056 0.003 0.0085 -0.0047zm-0.4307 0.0009l0.3964 -0.6728 0.0045 0.0027 -0.0163 -0.0092 -0.0236 -0.0115 -0.0062 -0.0026 -0.0158 -0.0063 -0.0221 -0.0074 -0.004 -0.0011 -0.016 -0.0042 -0.0167 -0.0036 -0.0022 -0.0004 -0.0185 -0.0029 -0.0158 -0.0017 0.0011 0.0001 -0.0159 -0.001 -0.0162 -0.0004 0.0012 0 -0.0153 0.0003 -0.0153 0.001 -0.0002 0 -0.0159 0.0017 -0.0127 0.0019 0.0012 -0.0002 -0.0145 0.0027 -0.0141 0.0032 -0.0027 0.0007 -0.0143 0.0041 0.0012 -0.0004 -0.0189 0.0064 -0.0135 0.0051 -0.005 0.0021 -0.0132 0.006 0.0011 -0.0005 -0.0174 0.0088 0.3778 0.6832 -0.0194 0.0098 -0.0011 0.0005 -0.0152 0.007 -0.0072 0.0029 -0.0157 0.0061 -0.0211 0.007 -0.0012 0.0004 -0.0165 0.0047 -0.0051 0.0013 -0.0165 0.0038 -0.0169 0.0031 -0.0012 0.0002 -0.0151 0.0023 -0.0181 0.0019 -0.0026 0.0002 -0.0177 0.0012 -0.0177 0.0003 -0.0012 0 -0.0184 -0.0004 -0.0183 -0.0012 -0.0011 -0.0001 -0.0182 -0.0019 -0.0207 -0.0033 -0.0044 -0.0008 -0.0187 -0.004 -0.0182 -0.0048 -0.006 -0.0017 -0.0241 -0.008 -0.0176 -0.0071 -0.0082 -0.0034 -0.0252 -0.0123 -0.0181 -0.0102 0.0045 0.0027zm0.3964 -0.6728l0.0045 0.0027 -0.0056 -0.0033 0.0011 0.0006zm-11.1594 -6.4429l11.1594 6.4429 -0.3964 0.6728 -11.1594 -6.4429 0.3904 -0.6762 0.006 0.0034zm-0.006 -0.0034l0.0028 0.0015 0.0032 0.0019 -0.006 -0.0034zm-0.3871 -0.0171l0.3948 0.6736 -0.0008 0.0005 0.014 -0.0084 0.0159 -0.0106 0.0083 -0.0061 0.0089 -0.0069 0.0096 -0.0079 0.0213 -0.0198 0.0198 -0.0213 0.001 -0.0012 0.0109 -0.0136 0.0184 -0.0261 0.0203 -0.0356 0.005 -0.0103 0.0095 -0.0226 0.0107 -0.0319 0.0061 -0.0245 0.0046 -0.0256 0.0026 -0.0242 0 -0.0586 -0.0026 -0.0242 -0.0059 -0.0315 -0.007 -0.0262 -0.0085 -0.0244 -0.0095 -0.0226 -0.0104 -0.0207 -0.0309 -0.0483 -0.0119 -0.0151 -0.0234 -0.0256 -0.0233 -0.0215 -0.0104 -0.0084 -0.0241 -0.0175 -0.0089 -0.0058 -0.017 -0.01 -0.3844 0.6796 -0.0186 -0.011 -0.0105 -0.0068 -0.0255 -0.0185 -0.0118 -0.0096 -0.0245 -0.0225 -0.0244 -0.0268 -0.0129 -0.0163 -0.0317 -0.0495 -0.011 -0.0221 -0.0101 -0.0238 -0.0089 -0.0258 -0.0074 -0.0274 -0.0061 -0.0329 -0.0028 -0.0256 0 -0.0598 0.0028 -0.0256 0.0048 -0.027 0.0065 -0.0259 0.0111 -0.0333 0.0101 -0.0238 0.0056 -0.0117 0.0211 -0.037 0.0194 -0.0275 0.0119 -0.0148 0.0022 -0.0026 0.021 -0.0227 0.0227 -0.021 0.011 -0.0091 0.0105 -0.0081 0.0099 -0.0073 0.0177 -0.0118 0.016 -0.0096 -0.0008 0.0005zm0.3948 0.6736l-0.0008 0.0005 -0.0145 0.0083 0.0153 -0.0088zm11.1694 -6.4138l-11.1694 6.4138 -0.3948 -0.6736 11.1694 -6.4138 0.0035 -0.002 0.3913 0.6756zm-0.3948 -0.6736l0.0028 -0.0016 0.0007 -0.0004 -0.0035 0.002zm0.4304 -0.0011l-0.3962 0.6728 -0.0052 -0.003 0.017 0.0095 0.0235 0.0115 0.0063 0.0026 0.0157 0.0063 0.0168 0.0057 0.0094 0.0028 0.016 0.0042 0.0167 0.0036 0.0022 0.0004 0.0162 0.0026 0.0166 0.0019 0.0005 0 0.0167 0.0011 0.0153 0.0003 -0.0011 0 0.0153 -0.0003 0.0153 -0.001 0.0151 -0.0016 0.0009 0 -0.0011 0.0001 0.0127 -0.0019 0.0145 -0.0027 0.0141 -0.0032 0.0027 -0.0007 0.0143 -0.0041 0.0136 -0.0044 0.0041 -0.0015 0.0135 -0.0052 0.005 -0.002 0.0132 -0.0061 0.0124 -0.0061 0.0089 -0.0049 -0.3878 -0.6776 0.0109 -0.0059 0.0146 -0.0073 0.0152 -0.0069 0.0072 -0.003 0.0157 -0.006 0.0063 -0.0023 0.016 -0.0052 0.0165 -0.0047 0.0051 -0.0013 0.0165 -0.0038 0.0169 -0.0031 0.0151 -0.0023 0.0011 -0.0001 0.0033 -0.0004 0.0175 -0.0018 0.0177 -0.0012 0.0177 -0.0003 0.0011 0 0.0177 0.0003 0.0191 0.0013 0.0027 0.0002 0.0188 0.0021 0.0184 0.003 0.0044 0.0008 0.0187 0.004 0.0182 0.0048 0.0114 0.0034 0.0186 0.0063 0.0177 0.0071 0.0081 0.0034 0.0253 0.0123 0.0186 0.0105 -0.0052 -0.003zm-0.3962 0.6728l-0.0052 -0.003 -0.0001 -0.0001 0.0053 0.0031z"/>
    </g>
    <g>
     <path class="fil2" d="M48.3829 28.4982l11.1594 6.4428c0.0092,0.0051 0.0081,0.0141 -0.0024,0.0203l-11.1695 6.4136c-0.0107,0.006 -0.0259,0.0067 -0.0349,0.0016l-11.1595 -6.4429c-0.0092,-0.0051 -0.0081,-0.0141 0.0024,-0.0201l11.1694 -6.4138c0.0108,-0.006 0.0262,-0.0067 0.0351,-0.0015z"/>
     <path id="1" class="fil0" d="M59.3441 35.2774l-11.1594 -6.4428 0.3964 -0.6728 11.1594 6.4428 -0.3904 0.6762 -0.006 -0.0034zm0.006 0.0034l-0.0028 -0.0015 -0.0032 -0.0019 0.006 0.0034zm0.3872 0.0173l-0.3948 -0.6736 -0.0041 0.0024 -0.0091 0.0055 -0.0159 0.0106 -0.0083 0.0061 -0.0208 0.0168 -0.0093 0.0083 -0.0097 0.0094 -0.0198 0.0213 -0.001 0.0012 -0.0109 0.0136 -0.0184 0.0261 -0.0203 0.0356 -0.0093 0.02 -0.0084 0.0216 -0.0075 0.0231 -0.0061 0.0245 -0.0073 0.0505 -0.0011 0.029 0 -0.0007 0.0009 0.0268 0.0088 0.0585 0.0157 0.0513 0.0095 0.0225 0.005 0.0103 0.0051 0.0099 0.0223 0.0362 0.0315 0.0398 0.0124 0.013 0.0107 0.0102 0.023 0.0196 0.0241 0.0175 0.0089 0.0058 0.017 0.01 0.3844 -0.6796 0.0186 0.011 0.0105 0.0068 0.0255 0.0185 0.0244 0.0208 0.0119 0.0114 0.0134 0.014 0.0325 0.041 0.0231 0.0376 0.0057 0.0111 0.0056 0.0115 0.0101 0.0239 0.0161 0.0525 0.009 0.0599 0.0009 0.0282 0 0.0007 -0.0011 0.0302 -0.0075 0.0519 -0.0065 0.0259 -0.0079 0.0245 -0.009 0.023 -0.0099 0.0214 -0.0211 0.037 -0.0194 0.0275 -0.0119 0.0148 -0.0022 0.0026 -0.021 0.0227 -0.0111 0.0106 -0.0107 0.0097 -0.0224 0.018 -0.0099 0.0073 -0.0177 0.0118 -0.0111 0.0067 -0.0041 0.0024zm0.0041 -0.0024l-0.0028 0.0017 -0.0013 0.0007 0.0041 -0.0024zm-11.5684 5.7424l11.1695 -6.4136 0.3948 0.6736 -11.1695 6.4136 -0.0035 0.002 -0.3913 -0.6756zm0.3948 0.6736l-0.0028 0.0016 -0.0007 0.0004 0.0035 -0.002zm-0.4305 0.0012l0.3964 -0.6728 -0.0028 -0.0016 -0.0172 -0.0091 -0.0153 -0.0073 -0.0164 -0.0067 -0.0057 -0.0023 -0.0051 -0.0017 -0.0381 -0.0112 -0.0166 -0.0036 0.001 0.0002 -0.0022 -0.0004 -0.0162 -0.0026 -0.0182 -0.002 0.0012 0.0001 -0.016 -0.001 -0.0161 -0.0004 0.0011 0 -0.0153 0.0003 -0.0153 0.001 -0.0002 0 -0.0159 0.0017 -0.0127 0.0019 0.0012 -0.0002 -0.0179 0.0035 -0.0147 0.0034 0.0012 -0.0003 -0.0143 0.0041 -0.0136 0.0044 -0.0041 0.0015 -0.0135 0.0052 -0.005 0.002 -0.0132 0.0061 -0.0124 0.0061 -0.0089 0.0049 0.3878 0.6776 -0.0109 0.0059 -0.0146 0.0073 -0.0152 0.0069 -0.0072 0.003 -0.0157 0.006 -0.0063 0.0023 -0.016 0.0052 -0.0165 0.0047 -0.0012 0.0003 -0.0169 0.004 -0.0203 0.0039 -0.0012 0.0002 -0.0151 0.0023 -0.0181 0.0019 -0.0026 0.0002 -0.0177 0.0012 -0.0177 0.0003 -0.0011 0 -0.0185 -0.0004 -0.0182 -0.0012 -0.0012 -0.0001 -0.0204 -0.0022 -0.0184 -0.003 -0.0044 -0.0008 -0.001 -0.0002 -0.0188 -0.004 -0.0401 -0.0118 -0.0071 -0.0025 -0.0075 -0.0029 -0.0182 -0.0075 -0.0171 -0.0081 -0.019 -0.0101 -0.0028 -0.0016zm0.0028 0.0016l-0.0016 -0.0009 -0.0012 -0.0007 0.0028 0.0016zm-10.7659 -7.1173l11.1595 6.4429 -0.3964 0.6728 -11.1595 -6.4429 0.3904 -0.6762 0.006 0.0034zm-0.006 -0.0034l0.0028 0.0015 0.0032 0.0019 -0.006 -0.0034zm-0.3872 -0.0171l0.3948 0.6736 -0.0008 0.0005 0.014 -0.0084 0.0159 -0.0106 0.0083 -0.0061 0.0089 -0.0069 0.0096 -0.0079 0.0213 -0.0198 0.0198 -0.0213 0.001 -0.0012 0.0109 -0.0136 0.0184 -0.0261 0.0203 -0.0356 0.005 -0.0103 0.0095 -0.0226 0.0107 -0.0319 0.0061 -0.0245 0.0075 -0.0526 0.0009 -0.0268 0 0.0006 -0.0009 -0.0268 -0.0088 -0.0585 -0.0157 -0.0513 -0.0095 -0.0225 0.0003 0.0006 -0.0104 -0.0207 -0.0309 -0.0483 -0.0119 -0.0151 -0.0234 -0.0256 -0.0233 -0.0215 -0.0104 -0.0084 -0.0241 -0.0175 -0.0089 -0.0058 -0.017 -0.01 -0.3844 0.6796 -0.0186 -0.011 -0.0105 -0.0068 -0.0255 -0.0185 -0.0118 -0.0096 -0.0245 -0.0225 -0.0244 -0.0268 -0.0129 -0.0163 -0.0317 -0.0495 -0.011 -0.0221 -0.0003 -0.0006 -0.0101 -0.0239 -0.0161 -0.0525 -0.009 -0.0599 -0.0009 -0.0282 0 -0.0006 0.0009 -0.0282 0.0077 -0.054 0.0065 -0.0259 0.0111 -0.0333 0.0101 -0.0238 0.0056 -0.0117 0.0211 -0.037 0.0194 -0.0275 0.0119 -0.0148 0.0022 -0.0026 0.021 -0.0227 0.0227 -0.021 0.011 -0.0091 0.0105 -0.0081 0.0099 -0.0073 0.0177 -0.0118 0.016 -0.0096 -0.0008 0.0005zm0.3948 0.6736l-0.0008 0.0005 -0.0145 0.0083 0.0153 -0.0088zm11.1694 -6.4138l-11.1694 6.4138 -0.3948 -0.6736 11.1694 -6.4138 0.0049 -0.0028 0.3899 0.6764zm-0.3948 -0.6736l0.0042 -0.0024 0.0007 -0.0004 -0.0049 0.0028zm0.4307 -0.0011l-0.3964 0.6728 -0.0017 -0.001 0.0135 0.0075 0.0236 0.0115 0.0062 0.0026 0.0158 0.0063 0.0221 0.0074 0.004 0.0011 0.016 0.0042 0.0167 0.0036 0.0022 0.0004 0.0162 0.0026 0.0182 0.002 -0.0012 -0.0001 0.016 0.001 0.0161 0.0004 -0.0012 0 0.0162 -0.0004 0.0145 -0.0009 0.0151 -0.0016 -0.0012 0.0002 -0.0012 0.0001 0.0148 -0.0021 0.0179 -0.0035 0.0147 -0.0034 -0.0051 0.0013 0.0181 -0.0051 0.0189 -0.0063 -0.0063 0.0023 0.013 -0.0049 0.0106 -0.0042 0.0132 -0.0061 0.0124 -0.0061 0.0075 -0.0041 -0.385 -0.6792 0.0095 -0.0051 0.0146 -0.0073 0.0152 -0.0069 0.0128 -0.0052 0.0154 -0.0057 -0.0041 0.0015 0.0211 -0.0071 0.0205 -0.0057 -0.0027 0.0007 0.0169 -0.004 0.0203 -0.0039 0.0172 -0.0025 0.0012 -0.0001 0.0012 -0.0002 0.0175 -0.0018 0.0169 -0.0011 0.0184 -0.0004 0.0012 0 0.0185 0.0004 0.0182 0.0012 0.0012 0.0001 0.0204 0.0022 0.0184 0.003 0.0044 0.0008 0.0187 0.004 0.0182 0.0048 0.006 0.0017 0.0241 0.008 0.0176 0.0071 0.0082 0.0034 0.0252 0.0123 0.0153 0.0085 -0.0017 -0.001zm-0.3964 0.6728l0.001 0.0006 -0.0027 -0.0016 0.0017 0.001z"/>
    </g>
    <g>
     <path class="fil2" d="M37.1891 9.1685l11.1594 6.4429c0.0092,0.0051 0.0081,0.014 -0.0025,0.0203l-11.1694 6.4136c-0.0107,0.006 -0.0261,0.0067 -0.0351,0.0015l-11.1594 -6.4428c-0.0091,-0.0052 -0.008,-0.0141 0.0025,-0.0202l11.1694 -6.4137c0.0108,-0.0061 0.0262,-0.0067 0.0351,-0.0016z"/>
     <path id="1" class="fil0" d="M48.1503 15.9478l-11.1594 -6.4429 0.3964 -0.6728 11.1594 6.4429 -0.3904 0.6762 -0.006 -0.0034zm0.006 0.0034l-0.0028 -0.0015 -0.0032 -0.0019 0.006 0.0034zm0.3871 0.0173l-0.3948 -0.6736 -0.0051 0.0029 -0.0081 0.005 -0.0159 0.0106 -0.0203 0.0155 0.0008 -0.0007 -0.0088 0.0074 -0.0197 0.0183 -0.0103 0.0107 -0.0195 0.0229 -0.0208 0.0293 -0.0102 0.0167 0.0069 -0.0116 -0.0108 0.0188 -0.0234 0.0527 -0.0075 0.0231 -0.0061 0.0245 -0.0075 0.0526 -0.0009 0.0268 0 -0.0007 0.0044 0.058 0.0039 0.0215 0.0084 0.032 0.0235 0.0586 -0.0056 -0.0115 0.0104 0.0207 0.0309 0.0483 0.0119 0.0151 0.0234 0.0256 0.0233 0.0215 0.0104 0.0084 0.0241 0.0175 0.0089 0.0058 0.017 0.01 0.3844 -0.6796 0.0186 0.011 0.0105 0.0068 0.0255 0.0185 0.0118 0.0096 0.0245 0.0225 0.0244 0.0268 0.0129 0.0163 0.0317 0.0495 0.011 0.0221 -0.005 -0.0103 0.0241 0.0598 0.0086 0.0334 0.0043 0.0229 0.0044 0.0592 0 0.0007 -0.0009 0.0282 -0.0077 0.054 -0.0065 0.0259 -0.0079 0.0245 -0.024 0.0541 -0.0116 0.02 0.0061 -0.0102 -0.011 0.0181 -0.0218 0.0307 -0.0207 0.0243 -0.0115 0.0119 -0.0211 0.0197 -0.0104 0.0086 -0.0008 0.0007 -0.0219 0.0167 -0.0177 0.0118 -0.0101 0.0062 -0.0051 0.0029zm0.0051 -0.0029l-0.0051 0.0029 0.0065 -0.0037 -0.0014 0.0008zm-11.5693 5.7429l11.1694 -6.4136 0.3948 0.6736 -11.1694 6.4136 -0.0035 0.002 -0.3913 -0.6756zm0.3948 0.6736l-0.0028 0.0016 -0.0007 0.0004 0.0035 -0.002zm-0.4307 0.0011l0.3964 -0.6728 0.0001 0.0001 -0.0201 -0.0108 -0.0153 -0.0073 -0.0063 -0.0026 -0.0157 -0.0063 -0.0222 -0.0074 -0.0039 -0.0011 -0.0161 -0.0042 -0.0199 -0.0042 0.0011 0.0002 -0.0162 -0.0026 -0.0166 -0.0019 -0.0005 0 -0.0167 -0.0011 -0.0153 -0.0003 -0.0162 0.0004 0.002 -0.0002 0.0012 0 -0.0316 0.0027 0.0012 -0.0002 0.0012 -0.0001 -0.0176 0.0026 -0.0152 0.003 -0.0107 0.0024 -0.0027 0.0007 -0.0143 0.0041 -0.0136 0.0044 -0.0041 0.0015 -0.0135 0.0052 -0.005 0.002 -0.0132 0.0061 -0.0124 0.0061 -0.0089 0.0049 0.3878 0.6776 -0.0109 0.0059 -0.0146 0.0073 -0.0152 0.0069 -0.0072 0.003 -0.0157 0.006 -0.0063 0.0023 -0.016 0.0052 -0.0165 0.0047 -0.0051 0.0013 -0.0131 0.003 -0.0174 0.0034 -0.02 0.003 -0.0012 0.0001 -0.0012 0.0002 -0.034 0.0029 -0.0012 0 -0.0004 0 -0.0184 0.0004 -0.0177 -0.0003 -0.0191 -0.0013 -0.0027 -0.0002 -0.0188 -0.0021 -0.0184 -0.003 -0.0011 -0.0002 -0.0221 -0.0046 -0.0181 -0.0048 -0.0061 -0.0017 -0.024 -0.008 -0.0177 -0.0071 -0.0081 -0.0034 -0.0171 -0.0081 -0.0219 -0.0118 0.0001 0.0001zm-10.763 -7.1156l11.1594 6.4428 -0.3964 0.6728 -11.1594 -6.4428 0.3948 -0.6737 0.0016 0.0009zm-0.0016 -0.0009l0.0016 0.0009 0.0024 0.0014 -0.004 -0.0023zm-0.3915 -0.0197l0.3948 0.6736 0.0017 -0.0009 0.0115 -0.007 0.0159 -0.0106 0.0083 -0.0061 0.0089 -0.0069 0.0212 -0.0183 0.0097 -0.0093 0.0103 -0.0107 0.0195 -0.0229 0.0019 -0.0025 0.0111 -0.0151 0.0276 -0.0467 0.0093 -0.02 0.0084 -0.0216 0.0075 -0.0231 0.0048 -0.0186 0.0053 -0.0275 0.0034 -0.0304 0 -0.0543 -0.0034 -0.0304 -0.0053 -0.0275 -0.007 -0.0261 -0.0085 -0.0245 -0.0202 -0.0439 -0.0184 -0.0307 -0.0121 -0.017 -0.0119 -0.0151 -0.0116 -0.0133 -0.0235 -0.0234 -0.011 -0.0098 -0.0208 -0.0163 -0.0233 -0.0159 -0.0126 -0.0075 -0.3932 0.6746 -0.0142 -0.0085 -0.0249 -0.0169 -0.0222 -0.0175 -0.0122 -0.0108 -0.0247 -0.0246 -0.0126 -0.0145 -0.0129 -0.0163 -0.0129 -0.0182 -0.0192 -0.0319 -0.0208 -0.0453 -0.0089 -0.0257 -0.0074 -0.0275 -0.0055 -0.0287 -0.0036 -0.0318 0 -0.0557 0.0036 -0.0318 0.0055 -0.0287 0.0052 -0.02 0.0079 -0.0245 0.009 -0.023 0.0099 -0.0214 0.0284 -0.0481 0.0121 -0.0163 0.0029 -0.0039 0.0207 -0.0243 0.0115 -0.0119 0.0111 -0.0107 0.0226 -0.0195 0.0105 -0.0081 0.0099 -0.0073 0.0177 -0.0118 0.0135 -0.0082 0.0017 -0.0009zm-0.0017 0.0009l0.0017 -0.0009 -0.013 0.0075 0.0113 -0.0066zm11.5659 -5.741l-11.1694 6.4137 -0.3948 -0.6736 11.1694 -6.4137 0.0025 -0.0014 0.3923 0.675zm-0.3948 -0.6736l-0.0013 0.0007 0.0038 -0.0021 -0.0025 0.0014zm0.4307 -0.0012l-0.3964 0.6728 0.0012 0.0006 0.0106 0.0059 0.0236 0.0115 0.0229 0.0093 -0.0009 -0.0003 0.0051 0.0017 0.0381 0.0112 -0.0011 -0.0002 -0.001 -0.0003 0.0372 0.007 0.0166 0.0019 0.0005 0 -0.0012 -0.0001 0.016 0.001 0.0161 0.0004 -0.0012 0 0.0162 -0.0004 0.0145 -0.0009 -0.0012 0.0001 0.0151 -0.0016 0.0148 -0.0021 -0.0012 0.0002 0.0179 -0.0035 0.0147 -0.0034 -0.0051 0.0013 0.0181 -0.0051 0.0037 -0.0011 0.0089 -0.003 0.013 -0.0048 0.0106 -0.0043 0.0132 -0.006 0.0124 -0.0062 0.0099 -0.0054 -0.3898 -0.6764 0.0119 -0.0066 0.0146 -0.0072 0.0152 -0.007 0.0128 -0.0051 0.0154 -0.0058 0.0111 -0.0036 0.0059 -0.0019 0.0205 -0.0057 -0.0027 0.0007 0.0169 -0.004 0.0203 -0.0039 0.0012 -0.0002 0.0172 -0.0025 0.0175 -0.0018 0.0012 -0.0001 0.0169 -0.0011 0.0184 -0.0004 0.0012 0 0.0185 0.0004 0.0182 0.0012 0.0012 0.0001 0.0027 0.0002 0.0188 0.0021 0.0394 0.0074 0.001 0.0003 0.0011 0.0002 0.0401 0.0118 0.0071 0.0025 0.0009 0.0003 0.0249 0.0101 0.0252 0.0123 0.0124 0.0069 0.0012 0.0006zm-0.0012 -0.0006l0.0012 0.0006 0.0203 0.0117 -0.0215 -0.0123z"/>
    </g>
    <g>
     <path class="fil2" d="M37.1889 47.953l11.1594 6.4429c0.0092,0.0053 0.008,0.0143 -0.0025,0.0205l-11.1692 6.4134c-0.0107,0.006 -0.0264,0.0067 -0.0353,0.0015l-11.1594 -6.4428c-0.0091,-0.0052 -0.008,-0.0141 0.0025,-0.0201l11.1694 -6.4138c0.0107,-0.006 0.0262,-0.0067 0.0351,-0.0016z"/>
     <path id="1" class="fil0" d="M48.1501 54.7323l-11.1594 -6.4429 0.3964 -0.6728 11.1594 6.4429 -0.396 0.673 -0.0004 -0.0002zm0.3931 0.021l-0.3948 -0.6738 -0.0041 0.0025 -0.0091 0.0055 -0.0159 0.0106 -0.0083 0.0061 -0.0208 0.0168 -0.0093 0.0083 -0.0097 0.0094 -0.0198 0.0213 -0.01 0.0122 -0.0019 0.0025 -0.0111 0.0151 -0.0276 0.0467 -0.0093 0.02 -0.0084 0.0216 -0.0075 0.0231 -0.0061 0.0245 -0.0046 0.0256 -0.0028 0.0263 0.0002 0.0564 0.0032 0.0284 0.004 0.0215 0.0083 0.032 0.0085 0.0245 0.0095 0.0225 0.0104 0.0208 0.0223 0.0362 0.0205 0.0271 0.0116 0.0133 0.0351 0.0337 0.0104 0.0085 0.0097 0.0073 0.0233 0.0159 0.0114 0.0068 0.3956 -0.6732 0.013 0.0078 0.0249 0.0169 0.0111 0.0085 0.0118 0.0095 0.0363 0.0349 0.0126 0.0145 0.0215 0.0283 0.0231 0.0376 0.011 0.022 0.0101 0.0239 0.0089 0.0257 0.0087 0.0334 0.0042 0.0229 0.0034 0.0296 0.0002 0.0578 -0.003 0.0277 -0.0048 0.027 -0.0065 0.0259 -0.0079 0.0245 -0.009 0.023 -0.0099 0.0214 -0.0284 0.0481 -0.0121 0.0163 -0.0029 0.0039 -0.0112 0.0136 -0.021 0.0227 -0.0111 0.0106 -0.0107 0.0097 -0.0224 0.018 -0.0099 0.0073 -0.0177 0.0118 -0.0111 0.0067 -0.0041 0.0025zm0.0041 -0.0025l-0.0041 0.0025 -0.0049 0.0028 0.009 -0.0053zm-11.5681 5.7421l11.1692 -6.4134 0.3948 0.6738 -11.1692 6.4134 -0.0035 0.0019 -0.3913 -0.6757zm0.3948 0.6738l-0.0035 0.0019 0.0082 -0.0046 -0.0047 0.0027zm-0.4309 0.001l0.3964 -0.6728 0.0017 0.001 -0.0135 -0.0075 -0.0236 -0.0115 -0.0062 -0.0026 -0.0158 -0.0063 -0.0221 -0.0074 -0.004 -0.0011 -0.02 -0.0051 -0.0159 -0.0033 0.0011 0.0002 -0.0162 -0.0026 -0.0182 -0.002 0.0012 0.0001 -0.016 -0.001 -0.0161 -0.0004 0.0012 0 -0.0153 0.0003 -0.0153 0.001 -0.0151 0.0016 0.0012 -0.0002 0.0012 -0.0001 -0.0148 0.0021 -0.0179 0.0035 -0.0147 0.0034 0.0051 -0.0013 -0.0181 0.0051 -0.0137 0.0044 0.0012 -0.0004 -0.0187 0.0071 -0.005 0.002 -0.0132 0.0061 -0.0124 0.0061 -0.0089 0.0049 0.3878 0.6776 -0.0109 0.0059 -0.0146 0.0073 -0.0152 0.0069 -0.0072 0.003 -0.0209 0.0079 -0.0012 0.0004 -0.0159 0.0052 -0.0205 0.0057 0.0027 -0.0007 -0.0169 0.004 -0.0203 0.0039 -0.0172 0.0025 -0.0012 0.0001 -0.0012 0.0002 -0.0175 0.0018 -0.0177 0.0012 -0.0177 0.0003 -0.0012 0 -0.0185 -0.0004 -0.0182 -0.0012 -0.0012 -0.0001 -0.0204 -0.0022 -0.0184 -0.003 -0.0011 -0.0002 -0.0181 -0.0037 -0.0222 -0.0057 -0.006 -0.0017 -0.0241 -0.008 -0.0176 -0.0071 -0.0082 -0.0034 -0.0252 -0.0123 -0.0153 -0.0085 0.0017 0.001zm0.3964 -0.6728l-0.001 -0.0006 0.0027 0.0016 -0.0017 -0.001zm-11.1594 -6.4428l11.1594 6.4428 -0.3964 0.6728 -11.1594 -6.4428 0.3948 -0.6737 0.0016 0.0009zm-0.0016 -0.0009l0.0016 0.0009 0.0024 0.0014 -0.004 -0.0023zm-0.3915 -0.0196l0.3948 0.6736 -0.0008 0.0005 0.014 -0.0084 0.0159 -0.0106 0.0083 -0.0061 0.0089 -0.0069 0.0096 -0.0079 0.0213 -0.0198 0.0103 -0.0106 0.0105 -0.012 0.0192 -0.0246 0.0028 -0.0039 0.0222 -0.0364 0.0147 -0.0304 0.0084 -0.0216 0.0075 -0.0231 0.0061 -0.0245 0.004 -0.0215 0.0032 -0.0284 0.0002 -0.0564 -0.0034 -0.0304 -0.0053 -0.0275 -0.007 -0.0261 -0.0085 -0.0245 -0.0202 -0.0439 -0.0184 -0.0307 -0.0121 -0.017 -0.0119 -0.0151 -0.0116 -0.0133 -0.0235 -0.0234 -0.011 -0.0098 -0.0208 -0.0163 -0.0233 -0.0159 -0.0126 -0.0075 -0.3932 0.6746 -0.0142 -0.0085 -0.0249 -0.0169 -0.0222 -0.0175 -0.0122 -0.0108 -0.0247 -0.0246 -0.0126 -0.0145 -0.0129 -0.0163 -0.0129 -0.0182 -0.0192 -0.0319 -0.0208 -0.0453 -0.0089 -0.0257 -0.0074 -0.0275 -0.0055 -0.0287 -0.0036 -0.0318 0.0002 -0.0578 0.0034 -0.0296 0.0042 -0.0229 0.0065 -0.0259 0.0079 -0.0245 0.009 -0.023 0.0153 -0.0318 0.023 -0.0376 0.0038 -0.0053 0.0202 -0.026 0.0117 -0.0132 0.0115 -0.012 0.0227 -0.021 0.011 -0.0091 0.0105 -0.0081 0.0099 -0.0073 0.0177 -0.0118 0.016 -0.0096 -0.0008 0.0005zm0.3948 0.6736l-0.0008 0.0005 -0.0145 0.0083 0.0153 -0.0088zm11.1694 -6.4138l-11.1694 6.4138 -0.3948 -0.6736 11.1694 -6.4138 0.0035 -0.002 0.3913 0.6756zm-0.3948 -0.6736l0.0028 -0.0016 0.0007 -0.0004 -0.0035 0.002zm0.4307 -0.0012l-0.3964 0.6728 0.0012 0.0006 0.0106 0.0059 0.0236 0.0115 0.0229 0.0093 -0.0009 -0.0003 0.0051 0.0017 0.0381 0.0112 0.0166 0.0036 -0.001 -0.0002 0.0022 0.0004 0.0185 0.0029 0.0158 0.0017 -0.0011 -0.0001 0.0159 0.001 0.0162 0.0004 -0.0012 0 0.0153 -0.0003 0.0153 -0.001 0.0002 0 0.0159 -0.0017 0.0127 -0.0019 -0.0012 0.0002 0.0145 -0.0027 0.0141 -0.0032 0.0027 -0.0007 0.0143 -0.0041 0.0136 -0.0044 0.0041 -0.0015 0.0135 -0.0052 0.005 -0.002 0.0132 -0.0061 0.0124 -0.0061 0.0089 -0.0049 -0.3878 -0.6776 0.0109 -0.0059 0.0146 -0.0073 0.0152 -0.0069 0.0072 -0.003 0.0157 -0.006 0.0063 -0.0023 0.016 -0.0052 0.0165 -0.0047 0.0051 -0.0013 0.0165 -0.0038 0.0169 -0.0031 0.0012 -0.0002 0.0151 -0.0023 0.0181 -0.0019 0.0026 -0.0002 0.0177 -0.0012 0.0177 -0.0003 0.0012 0 0.0184 0.0004 0.0183 0.0012 0.0011 0.0001 0.0182 0.0019 0.0207 0.0033 0.0044 0.0008 0.001 0.0002 0.0188 0.004 0.0401 0.0118 0.0071 0.0025 0.0009 0.0003 0.0249 0.0101 0.0252 0.0123 0.0124 0.0069 0.0012 0.0006zm-0.0012 -0.0006l0.0012 0.0006 0.0203 0.0117 -0.0215 -0.0123z"/>
    </g>
    <line class="fil3 str2" x1="14.7921" y1="47.8372" x2="38.9329" y2= "33.8996" />
    <line class="fil3 str2" x1="59.5403" y1="47.8379" x2="33.1705" y2= "32.6134" />
   </g>
   <path class="fil4" d="M81.8628 41.4855l7.5023 -19.1362 1.051 0 6.56 19.2812c0.5074,1.5221 0.8456,2.6215 1.0148,3.298 0.1932,-0.7973 0.5315,-1.8846 1.0148,-3.2618l6.6686 -19.8248 1.8122 0 -9.0245 26.131 -1.0147 0 -6.7049 -19.2087c-0.0967,-0.314 -0.1994,-0.6282 -0.3081,-0.9423 -0.1088,-0.314 -0.1994,-0.5919 -0.2719,-0.8336 -0.0724,-0.2416 -0.1449,-0.447 -0.2174,-0.6161l-0.145 -0.4349c-0.0242,-0.1208 -0.0362,-0.1933 -0.0362,-0.2174 -0.29,0.8698 -0.6644,1.8725 -1.1236,3.0081l-7.5747 19.2449 -1.0148 0 -9.0969 -26.131 1.9208 0 6.6325 19.4986c0.3141,0.8698 0.5738,1.6551 0.7791,2.3557 0.2055,0.7007 0.3202,1.0873 0.3444,1.1599 0.1208,-0.5557 0.5316,-1.6793 1.2322,-3.3706zm30.5526 6.27l0 -23.5216 1.6673 0 0 23.5216 -1.6673 0zm15.1133 -22.5068c-1.3047,0 -2.3679,0.3141 -3.1894,0.9423 -0.8215,0.6282 -1.2322,1.5102 -1.2322,2.6457 0,1.3048 0.5436,2.4766 1.6309,3.5156 0.7731,0.749 1.7698,1.5403 2.99,2.3739 1.2202,0.8336 2.0598,1.4316 2.5189,1.794 0.4591,0.3624 1.0148,0.8577 1.6671,1.486 1.184,1.1839 1.776,2.549 1.776,4.0954 0,2.0055 -0.6706,3.5216 -2.0116,4.5485 -1.341,1.0268 -3.2134,1.5403 -5.6176,1.5403 -2.4041,0 -4.4155,-0.6282 -6.0344,-1.8846l0.8699 -1.2686c1.643,1.1115 3.3826,1.6672 5.219,1.6672 1.8362,0 3.2678,-0.3866 4.2947,-1.1597 1.0269,-0.7732 1.5403,-1.8605 1.5403,-3.2619 0,-1.2081 -0.5195,-2.3196 -1.5584,-3.3343 -0.7249,-0.7249 -1.6975,-1.5102 -2.9176,-2.3559 -1.2202,-0.8456 -2.0719,-1.4557 -2.5551,-1.8301 -0.4832,-0.3746 -1.0511,-0.8759 -1.7034,-1.5042 -1.2323,-1.2322 -1.8484,-2.6577 -1.8484,-4.2766 0,-1.6188 0.5739,-2.8874 1.7216,-3.8055 1.1477,-0.9182 2.7363,-1.3772 4.7659,-1.3772 2.0295,0 3.8538,0.3986 5.4727,1.196l-0.6162 1.341c-1.498,-0.7248 -3.2256,-1.0873 -5.1827,-1.0873zm30.8426 22.5068l0 -11.8877 -16.3455 0 0 11.8877 -1.6672 0 0 -23.5216 1.6672 0 0 10.148 16.3455 0 0 -10.148 1.6672 0 0 23.5216 -1.6672 0zm26.3848 -25.9136l-11.0178 12.54c1.4739,1.7637 3.1712,3.733 5.0921,5.9076 1.9208,2.1746 3.1652,3.5155 3.733,4.0229 0.5678,0.5074 1.0148,0.888 1.341,1.1417 0.3262,0.2537 0.8275,0.5315 1.5041,0.8335 0.6764,0.3021 1.4013,0.5014 2.1746,0.5981l-0.0363 1.1597c-1.4497,-0.0242 -2.6457,-0.2476 -3.588,-0.6705 -0.9423,-0.4228 -1.7639,-0.9785 -2.4646,-1.6671 -0.7007,-0.6887 -2.2289,-2.38 -4.5847,-5.074 -2.3558,-2.694 -4.1256,-4.7539 -5.3096,-6.1795l11.1266 -12.6124 2.0296 0zm-13.8448 0l0 25.9136 -1.7396 0 0 -25.9136 1.7396 0zm21.4558 17.7589l-3.3706 8.1547 -1.7034 0 9.858 -23.6666 0.9786 0 9.9304 23.6666 -1.8483 0 -3.4068 -8.1547 -10.4379 0zm5.1827 -12.8299c-0.3624,1.0873 -0.6886,1.9933 -0.9786,2.7182l-3.6243 8.6983 9.2782 0 -3.588 -8.6621c-0.5557,-1.353 -0.9182,-2.2711 -1.0873,-2.7544zm15.2944 20.9846l0 -23.4129c2.0779,-0.1691 3.8418,-0.2537 5.2915,-0.2537 2.2229,0 4.0592,0.5738 5.5089,1.7216 1.4497,1.1477 2.1745,2.7847 2.1745,4.9108 0,1.4256 -0.4107,2.7425 -1.2322,3.9505 -0.8215,1.2081 -1.7518,2.1867 -2.7907,2.9357 2.8752,3.8176 4.6511,6.1009 5.3277,6.8499 1.3772,1.4255 2.8753,2.235 4.4941,2.4283l-0.0363 1.1235c-1.353,-0.0242 -2.4524,-0.2235 -3.2981,-0.5981 -0.8456,-0.3744 -1.6853,-1.0087 -2.5189,-1.9027 -0.8335,-0.894 -2.6638,-3.2981 -5.4907,-7.2123 -1.9571,0 -3.878,-0.0604 -5.7626,-0.1812l0 9.6406 -1.6672 0zm6.5237 -10.8366c0.9424,0 1.9571,-0.6283 3.0444,-1.8847 1.0873,-1.2564 1.631,-2.7182 1.631,-4.3853 0,-1.6672 -0.5679,-2.9357 -1.7035,-3.8056 -1.1355,-0.8697 -2.6095,-1.3047 -4.4215,-1.3047 -0.9666,0 -2.1022,0.0484 -3.4069,0.145l0 11.054c1.7396,0.1209 3.3585,0.1813 4.8565,0.1813zm26.421 9.6043l-0.9786 0 -6.8499 -16.6354c-0.2899,-0.6524 -0.5798,-1.4135 -0.8698,-2.2833 0,0.0241 -0.0181,0.157 -0.0543,0.3987 -0.0363,0.2416 -0.0786,0.5617 -0.1269,0.9604 -0.0484,0.3987 -0.0967,0.7309 -0.145,0.9967l-2.7182 17.7952 -1.6309 0 3.8417 -23.6666 0.9786 0 7.321 17.3603c0.5799,1.4497 0.8699,2.2109 0.8699,2.2833 0.1691,-0.5074 0.4953,-1.2564 0.9785,-2.247l8.1546 -17.3966 0.9786 0 3.588 23.6666 -1.7396 0 -2.5733 -17.8677c-0.1691,-1.1839 -0.2537,-1.9692 -0.2537,-2.3558l-1.051 2.392 -7.7197 16.5992zm20.7309 -6.9224l-3.3706 8.1547 -1.7034 0 9.858 -23.6666 0.9786 0 9.9304 23.6666 -1.8483 0 -3.4068 -8.1547 -10.4379 0zm5.1827 -12.8299c-0.3624,1.0873 -0.6887,1.9933 -0.9786,2.7182l-3.6243 8.6983 9.2782 0 -3.5881 -8.6621c-0.5557,-1.353 -0.9182,-2.2711 -1.0872,-2.7544z"/>
  </g>
 </g>
</svg>
