<?xml version="1.0" encoding="UTF-8"?>
<!DOCTYPE svg PUBLIC "-//W3C//DTD SVG 1.1//EN" "http://www.w3.org/Graphics/SVG/1.1/DTD/svg11.dtd">
<!-- Creator: CorelDRAW -->
<svg xmlns="http://www.w3.org/2000/svg" xml:space="preserve" width="297mm" height="70mm" style="shape-rendering:geometricPrecision; text-rendering:geometricPrecision; image-rendering:optimizeQuality; fill-rule:evenodd; clip-rule:evenodd"
viewBox="0 0 297 70"
 xmlns:xlink="http://www.w3.org/1999/xlink">
 <defs>
  <style type="text/css">
   <![CDATA[
    .str2 {stroke:#373435;stroke-width:0.8523}
    .str3 {stroke:#1D201F;stroke-width:0.8523}
    .str0 {stroke:#373435;stroke-width:0.8542}
    .str1 {stroke:#373435;stroke-width:0.8544}
    .fil0 {fill:none}
    .fil2 {fill:none;fill-rule:nonzero}
    .fil6 {fill:#33CC33}
    .fil5 {fill:#6699FF}
    .fil4 {fill:#EEA236}
    .fil1 {fill:#373435;fill-rule:nonzero}
    .fil3 {fill:#1D201F;fill-rule:nonzero}
   ]]>
  </style>
 </defs>
 <g id="Layer_x0020_1">
  <metadata id="CorelCorpID_0Corel-Layer"/>
  <rect class="fil0" width="297" height="70"/>
  <g id="_389080656">
   <g>
    <path id="_197633032" class="fil1" d="M51.9564 21.3225l-24.1813 -13.9231 0.4282 -0.729 24.1813 13.9231 -0.4256 0.7305 -0.0026 -0.0015zm0.0026 0.0015l0.0003 0.0002 -0.0029 -0.0017 0.0026 0.0015zm0.42 0.0423l-0.4282 -0.729 0.0033 -0.0019 -0.0145 0.0087 -0.0128 0.0083 -0.007 0.005 -0.0186 0.0143 -0.0136 0.0116 -0.0148 0.0141 -0.0144 0.0152 -0.0107 0.0125 -0.0146 0.0189 -0.0137 0.0202 -0.0149 0.0256 -0.012 0.0244 -0.0088 0.0214 -0.0091 0.0267 -0.0063 0.0236 -0.0069 0.0382 -0.0034 0.0398 0 0.0263 0.0036 0.0416 0.0045 0.0262 0.0061 0.025 0.0182 0.0522 0.0097 0.0209 0.0137 0.025 0.0213 0.0324 0.0115 0.0149 0.0171 0.0198 0.0222 0.0222 0.0232 0.02 0.0167 0.0125 0.0135 0.0091 0.0197 0.012 0.423 -0.732 0.0233 0.0142 0.0167 0.0113 0.0197 0.0147 0.026 0.0224 0.0248 0.0248 0.0193 0.0224 0.0135 0.0175 0.0231 0.035 0.0151 0.0278 0.0111 0.0237 0.0192 0.055 0.0067 0.028 0.0051 0.029 0.0038 0.0446 0 0.0293 -0.0036 0.0428 -0.0075 0.0412 -0.0071 0.0266 -0.0101 0.0297 -0.01 0.0242 -0.0134 0.0274 -0.0167 0.0286 -0.0157 0.0232 -0.0168 0.0217 -0.0131 0.0153 -0.0172 0.0182 -0.0176 0.0167 -0.0168 0.0144 -0.022 0.0169 -0.0108 0.0076 -0.0166 0.0109 -0.0187 0.0111 0.0033 -0.0019zm-0.4282 -0.729l0.0033 -0.0019 0 0 -0.0033 0.0019zm-24.1702 13.9171l24.1702 -13.9171 0.4282 0.729 -24.1702 13.9171 -0.0028 0.0016 -0.4254 -0.7306zm0.4282 0.729l-0.0028 0.0016 0.0012 -0.0007 0.0016 -0.0009zm-0.5049 0.0032l0.4282 -0.729 -0.0018 -0.001 -0.0184 -0.0099 -0.0139 -0.0065 -0.0129 -0.0056 -0.0146 -0.0055 -0.0206 -0.0067 -0.011 -0.0031 -0.0062 -0.0015 -0.0168 -0.0037 -0.0078 -0.0014 -0.0075 -0.0011 -0.0155 -0.0019 -0.015 -0.0012 -0.0058 -0.0003 -0.006 -0.0001 -0.0141 -0.0001 -0.0056 0.0002 -0.0139 0.0008 -0.0056 0.0004 -0.0046 0.0006 -0.0131 0.0017 -0.0079 0.0013 -0.0135 0.0026 -0.0052 0.0012 -0.0072 0.0018 -0.0128 0.0036 -0.005 0.0015 -0.0074 0.0025 -0.0177 0.0067 -0.008 0.0033 -0.008 0.0036 -0.0151 0.0075 -0.0102 0.0055 0.4226 0.7322 -0.0146 0.0079 -0.0195 0.0097 -0.0126 0.0056 -0.0126 0.0053 -0.0225 0.0085 -0.0124 0.0041 -0.01 0.0031 -0.0178 0.005 -0.0122 0.003 -0.0104 0.0024 -0.0185 0.0036 -0.0131 0.0021 -0.0185 0.0025 -0.0098 0.001 -0.0108 0.001 -0.0191 0.001 -0.0108 0.0004 -0.0193 -0.0001 -0.011 -0.0003 -0.011 -0.0005 -0.02 -0.0016 -0.0205 -0.0025 -0.0123 -0.0019 -0.0126 -0.0022 -0.0214 -0.0047 -0.0108 -0.0027 -0.0156 -0.0043 -0.0248 -0.0081 -0.0188 -0.0071 -0.0171 -0.0074 -0.0177 -0.0083 -0.0222 -0.0119 -0.0018 -0.001zm0.0018 0.001l-0.0018 -0.001 -0.0038 -0.0022 0.0056 0.0032zm-23.7549 -14.6531l24.1813 13.9231 -0.4282 0.729 -24.1813 -13.9231 -0.003 -0.0018 0.4312 -0.7272zm-0.4282 0.729l-0.003 -0.0018 0.0066 0.0039 -0.0036 -0.0021zm0.0055 -0.7734l0.4282 0.729 0.0021 -0.0012 0.0154 -0.0095 0.0065 -0.0043 0.0132 -0.0095 0.0124 -0.0097 0.0141 -0.0122 0.0194 -0.0187 0.0099 -0.0107 0.0147 -0.0174 0.014 -0.0187 0.0097 -0.0147 0.0149 -0.0256 0.0141 -0.0292 0.0083 -0.0208 0.0075 -0.0224 0.0063 -0.0236 0.0069 -0.0382 0.0034 -0.0398 -0.0008 -0.0411 -0.0027 -0.0269 -0.004 -0.0234 -0.0103 -0.0404 -0.0097 -0.0276 -0.0146 -0.0328 -0.0195 -0.0346 -0.0111 -0.0167 -0.011 -0.0148 -0.0276 -0.032 -0.0165 -0.0162 -0.0098 -0.0088 -0.0228 -0.0182 -0.0208 -0.0144 -0.0141 -0.0087 -0.4342 0.7254 -0.0177 -0.0109 -0.024 -0.0166 -0.0258 -0.0206 -0.0126 -0.0114 -0.0191 -0.0186 -0.0298 -0.0346 -0.013 -0.0176 -0.0129 -0.0193 -0.0211 -0.0374 -0.0158 -0.0356 -0.0107 -0.0304 -0.0111 -0.0434 -0.0044 -0.0264 -0.0031 -0.0297 -0.0008 -0.0441 0.0036 -0.0428 0.0075 -0.0412 0.0071 -0.0266 0.0085 -0.0254 0.0095 -0.0238 0.0155 -0.0322 0.0167 -0.0286 0.0117 -0.0177 0.0162 -0.0217 0.0171 -0.0202 0.0125 -0.0135 0.0224 -0.0217 0.0173 -0.0148 0.0158 -0.0125 0.017 -0.0121 0.0103 -0.0069 0.0196 -0.0121 0.0021 -0.0012zm-0.0021 0.0012l0.0021 -0.0012 -0.0033 0.0019 0.0012 -0.0007zm24.6005 -13.189l-24.1702 13.9168 -0.4282 -0.729 24.1702 -13.9168 0.0021 -0.0012 0.4261 0.7302zm-0.4282 -0.729l0.0021 -0.0012 -0.0012 0.0007 -0.0009 0.0005zm0.505 -0.0029l-0.4282 0.729 -0.0016 -0.001 0.0139 0.0078 0.0138 0.0068 0.0209 0.0093 0.0176 0.0066 0.009 0.003 0.0088 0.0027 0.019 0.0049 0.0163 0.0035 0.0062 0.0011 0.0075 0.0011 0.0155 0.0019 0.015 0.0012 0.0058 0.0003 0.006 0.0001 0.0058 0.0001 0.0139 -0.0003 0.0133 -0.0007 0.0053 -0.0005 0.0063 -0.0006 0.0055 -0.0007 0.0133 -0.0021 0.0148 -0.0028 0.0053 -0.0012 0.0051 -0.0013 0.0148 -0.0041 0.0074 -0.0023 0.0077 -0.0026 0.0151 -0.0058 0.008 -0.0033 0.008 -0.0036 0.0151 -0.0075 0.0109 -0.0059 -0.424 -0.7314 0.0153 -0.0083 0.0195 -0.0097 0.0126 -0.0056 0.0126 -0.0053 0.0199 -0.0076 0.0125 -0.0042 0.0124 -0.0039 0.0198 -0.0055 0.0103 -0.0025 0.0103 -0.0024 0.02 -0.0038 0.0185 -0.0029 0.0107 -0.0013 0.0115 -0.0012 0.0107 -0.0009 0.0185 -0.0011 0.0191 -0.0003 0.011 0.0001 0.011 0.0003 0.011 0.0005 0.02 0.0016 0.0205 0.0025 0.0123 0.0019 0.011 0.0019 0.0211 0.0045 0.0236 0.0061 0.0132 0.0041 0.0134 0.0044 0.0218 0.0082 0.0251 0.0111 0.0176 0.0088 0.0177 0.0098 -0.0016 -0.001zm-0.4282 0.729l-0.0016 -0.001 0.0135 0.0078 -0.0119 -0.0068z"/>
   </g>
   <polygon class="fil2 str0" points="27.9533,7.0266 40.0662,14.0198 52.179,21.0132 52.179,34.9998 52.179,48.9864 40.0662,55.9798 27.9533,62.973 15.8405,55.9798 3.7277,48.9864 3.7277,34.9998 3.7277,21.0132 15.8405,14.0198 "/>
   <polygon class="fil2 str1" points="15.8521,14.0423 21.917,17.5431 27.9817,21.0447 27.9817,28.0478 27.9817,35.0509 21.917,38.5524 15.8521,42.0535 9.7875,38.5524 3.7226,35.0509 3.7226,28.0478 3.7226,21.0447 9.7875,17.5431 "/>
   <polygon class="fil2 str1" points="40.054,14.0423 46.1187,17.5431 52.1836,21.0447 52.1836,28.0478 52.1836,35.0509 46.1187,38.5524 40.054,42.0535 33.9892,38.5524 27.9245,35.0509 27.9245,28.0478 27.9245,21.0447 33.9892,17.5431 "/>
   <polygon class="fil2 str1" points="27.9531,34.9618 34.018,38.4628 40.0826,41.9644 40.0826,48.9673 40.0826,55.9704 34.018,59.4719 27.9531,62.973 21.8882,59.4719 15.8236,55.9704 15.8236,48.9673 15.8236,41.9644 21.8882,38.4628 "/>
   <g>
    <path class="fil1" d="M4.1509 20.9997l-0.0003 27.9035 -0.8454 -0.0074 0.0003 -27.9035 0.8454 0.0074zm-0.1728 -0.3882l-0.418 0.7348 0.0016 0.001 0.0125 0.0068 0.02 0.0097 0.0103 0.0045 0.0116 0.0046 0.0128 0.0045 0.0143 0.0045 0.0286 0.0071 0.0175 0.0033 0.0192 0.0026 0.0327 0.0023 0.0226 0 0.024 -0.0015 0.0272 -0.0034 0.0397 -0.0085 0.0271 -0.0082 0.02 -0.0076 0.0391 -0.0184 0.0258 -0.0152 0.0151 -0.0101 0.0383 -0.0309 0.0272 -0.0271 0.0175 -0.0206 0.0213 -0.0295 0.0148 -0.0246 0.0104 -0.0201 0.0144 -0.0338 0.0092 -0.0274 0.0061 -0.0235 0.0049 -0.0248 0.0029 -0.0217 0.0017 -0.0214 0.0004 -0.0192 -0.8454 -0.0074 0.0006 -0.0234 0.0019 -0.0252 0.0035 -0.0255 0.0055 -0.0284 0.0071 -0.0269 0.0102 -0.0308 0.0158 -0.0368 0.0118 -0.0229 0.0164 -0.0272 0.0231 -0.0321 0.0195 -0.0228 0.0292 -0.0293 0.0407 -0.0327 0.0175 -0.0117 0.0284 -0.0168 0.0417 -0.0196 0.0228 -0.0086 0.0301 -0.0092 0.0427 -0.0091 0.0304 -0.0038 0.0274 -0.0017 0.026 0 0.0363 0.0025 0.0228 0.0032 0.0213 0.0039 0.0324 0.0081 0.0181 0.0057 0.0168 0.0059 0.0156 0.0062 0.0145 0.0063 0.0242 0.0117 0.0167 0.0092 0.0016 0.001zm-0.0016 -0.001l0.0016 0.001 -0.0137 -0.0079 0.0121 0.0069zm23.7049 14.7375l-24.1213 -14.0017 0.418 -0.7348 24.1213 14.0017 0.0019 0.0011 -0.4199 0.7337zm0.418 -0.7348l0.0023 0.0013 -0.0004 -0.0002 -0.0019 -0.0011zm0.2544 0.4363l-0.8454 -0.0074 0 0 0.0004 0.0178 0.0012 0.0166 0.0018 0.0169 0.0024 0.0149 0.0031 0.0157 0.0038 0.0152 0.0034 0.0121 0.0018 0.0058 0.0037 0.0107 0.0048 0.0125 0.0065 0.0151 0.0021 0.0046 0.0074 0.0146 0.0023 0.0042 0.0023 0.004 0.0082 0.0136 0.0023 0.0036 0.0049 0.0072 0.0052 0.0072 0.0062 0.0082 0.0055 0.0067 0.0016 0.002 0.0059 0.0067 0.0142 0.015 0.0108 0.0104 0.0027 0.0024 -0.0019 -0.0017 0.012 0.0103 0.0168 0.013 0.0092 0.0065 0.0102 0.0067 0.0103 0.0063 0.4218 -0.7326 0.0145 0.0089 0.0142 0.0093 0.0134 0.0095 0.0208 0.016 0.0158 0.0137 0.0019 0.0017 0.0065 0.0058 0.0146 0.014 0.0178 0.0188 0.0093 0.0107 0.005 0.006 0.0089 0.0109 0.0094 0.0124 0.0082 0.0114 0.0079 0.0116 0.0051 0.008 0.011 0.018 0.0047 0.0086 0.0049 0.0086 0.0096 0.0192 0.0043 0.0092 0.0085 0.0197 0.0066 0.0173 0.0053 0.0153 0.0032 0.0104 0.0048 0.0167 0.0048 0.0196 0.0041 0.0203 0.003 0.0193 0.0024 0.0213 0.0014 0.021 0.0006 0.022 0 0zm-0.8454 27.8956l0 -27.903 0.8454 0.0074 0 27.903 0 0 -0.8454 -0.0074zm0.1727 0.3885l0.418 -0.7348 -0.0002 -0.0002 -0.0139 -0.0076 -0.0165 -0.0081 -0.0139 -0.0061 -0.0115 -0.0046 -0.0129 -0.0045 -0.017 -0.0053 -0.0235 -0.0058 -0.031 -0.0054 -0.0195 -0.0022 -0.0209 -0.0012 -0.023 0 -0.024 0.0015 -0.0252 0.0031 -0.026 0.005 -0.0427 0.0121 -0.0321 0.0126 -0.027 0.0133 -0.0258 0.0152 -0.0243 0.0168 -0.0222 0.018 -0.034 0.0333 -0.0242 0.0292 -0.0085 0.0117 -0.0184 0.0293 -0.0129 0.0245 -0.0144 0.0338 -0.0092 0.0274 -0.0061 0.0235 -0.0049 0.0248 -0.003 0.0228 -0.0016 0.0207 -0.0004 0.0187 0.8454 0.0074 -0.0006 0.0229 -0.0018 0.0247 -0.0036 0.0266 -0.0055 0.0284 -0.0071 0.0269 -0.0102 0.0308 -0.0158 0.0368 -0.0143 0.0273 -0.0202 0.0321 -0.0103 0.0141 -0.026 0.0316 -0.0362 0.0353 -0.0246 0.02 -0.0267 0.0184 -0.0284 0.0168 -0.0296 0.0145 -0.0349 0.0138 -0.0457 0.0129 -0.0292 0.0056 -0.0284 0.0035 -0.0274 0.0017 -0.0264 0 -0.0243 -0.0014 -0.0233 -0.0026 -0.0346 -0.006 -0.0273 -0.0068 -0.021 -0.0065 -0.0167 -0.0059 -0.0157 -0.0062 -0.0179 -0.0079 -0.0207 -0.0101 -0.0181 -0.01 -0.0002 -0.0002zm-23.703 -14.7369l24.121 14.0021 -0.418 0.7348 -24.121 -14.0021 0.4164 -0.7358 0.0016 0.001zm-0.0016 -0.001l0.0016 0.001 -0.0136 -0.0079 0.012 0.0069zm-0.6713 0.3001l0.8454 0.0074 0 0 -0.0004 -0.0178 -0.0012 -0.0166 -0.0018 -0.0169 -0.0027 -0.0165 -0.0028 -0.0142 -0.0038 -0.0151 -0.0042 -0.0148 -0.0037 -0.0112 -0.0048 -0.0131 -0.0021 -0.0052 -0.0035 -0.0082 -0.0056 -0.012 -0.0057 -0.0112 -0.0024 -0.0042 -0.0022 -0.004 -0.0083 -0.0136 -0.0086 -0.013 -0.0013 -0.0018 -0.0024 -0.0033 -0.0094 -0.0122 -0.0056 -0.0068 -0.0023 -0.0027 -0.0097 -0.0105 -0.0105 -0.0107 -0.0022 -0.0022 -0.0066 -0.006 -0.0115 -0.0099 -0.0082 -0.0066 -0.0075 -0.0056 -0.0132 -0.0092 -0.01 -0.0065 -0.0099 -0.0059 -0.4148 0.7368 -0.0141 -0.0085 -0.0142 -0.0091 -0.0174 -0.0122 -0.0115 -0.0086 -0.0122 -0.0098 -0.0155 -0.0133 -0.0104 -0.0096 -0.006 -0.0058 -0.0141 -0.0143 -0.0133 -0.0145 -0.0057 -0.0067 -0.009 -0.0108 -0.0126 -0.0164 -0.0054 -0.0075 -0.0043 -0.006 -0.0116 -0.0174 -0.0109 -0.018 -0.0048 -0.0086 -0.0048 -0.0086 -0.0081 -0.0158 -0.0076 -0.0164 -0.0055 -0.0128 -0.0039 -0.0098 -0.0066 -0.0177 -0.0051 -0.0158 -0.0056 -0.0192 -0.0048 -0.0197 -0.0038 -0.0186 -0.0033 -0.0209 -0.0024 -0.0213 -0.0014 -0.021 -0.0006 -0.022 0 0z"/>
   </g>
   <g>
    <path class="fil3" d="M52.6014 20.993l0.0002 27.9035 -0.8454 0.0074 -0.0002 -27.9035 0 0 0.8454 -0.0074zm-0.2546 0.3542l-0.418 -0.7348 -0.0029 0.0017 0.0212 -0.0119 0.013 -0.0065 0.014 -0.0066 0.0272 -0.0112 0.0168 -0.0059 0.0281 -0.0084 0.0224 -0.0053 0.0213 -0.004 0.0343 -0.0042 0.0128 -0.0008 0.0257 -0.0008 0.0537 0.0033 0.0268 0.0042 0.0167 0.0035 0.0333 0.0089 0.0473 0.0177 0.0296 0.0146 0.0284 0.0167 0.0267 0.0185 0.0166 0.0131 0.0442 0.0421 0.0194 0.0229 0.0125 0.0165 0.0271 0.0427 0.0142 0.0279 0.0134 0.0319 0.0092 0.0274 0.0075 0.0275 0.0058 0.0292 0.0039 0.0284 0.0018 0.0242 0.0006 0.0233 -0.8454 0.0074 0.0004 0.0193 0.0016 0.0202 0.0033 0.0246 0.0052 0.0258 0.0065 0.0241 0.0082 0.0242 0.012 0.0287 0.0128 0.0251 0.0255 0.0401 0.0105 0.0141 0.0176 0.0205 0.042 0.0401 0.0142 0.0113 0.0243 0.0167 0.0258 0.0153 0.027 0.0132 0.0445 0.0167 0.0303 0.0081 0.0135 0.0029 0.0236 0.0036 0.0505 0.0031 0.0223 -0.0006 0.0092 -0.0006 0.0307 -0.0038 0.0175 -0.0032 0.0186 -0.0045 0.0243 -0.0072 0.0128 -0.0045 0.0232 -0.0096 0.01 -0.0046 0.0088 -0.0045 0.017 -0.0095 -0.0029 0.0017zm0.0029 -0.0017l-0.0029 0.0017 0.0013 -0.0008 0.0016 -0.0009zm-24.5419 13.2687l24.121 -14.0018 0.418 0.7348 -24.121 14.0018 -0.4185 -0.7345 0.0005 -0.0003zm-0.0005 0.0003l0.0005 -0.0003 0.0051 -0.003 -0.0056 0.0033zm0.5913 0.4283l-0.8454 0.0074 0 0 0.0006 -0.022 0.0014 -0.021 0.0024 -0.0213 0.0033 -0.0209 0.0038 -0.0186 0.0042 -0.0175 0.0062 -0.0215 0.0033 -0.0104 0.0083 -0.023 0.004 -0.0098 0.004 -0.0096 0.0108 -0.0231 0.0046 -0.0089 0.0066 -0.0122 0.007 -0.0122 0.005 -0.0083 0.0088 -0.014 0.0118 -0.017 0.0083 -0.0112 0.0016 -0.0021 0.0087 -0.0112 0.0166 -0.0195 0.0097 -0.0104 0.0099 -0.0103 0.0102 -0.0099 0.0063 -0.0059 0.0154 -0.0136 0.0163 -0.0132 0.0074 -0.0056 0.0174 -0.0125 0.0182 -0.0118 0.012 -0.0072 0.419 0.7342 0.0078 -0.0046 0.014 -0.0092 0.0134 -0.0095 0.0034 -0.0026 0.0123 -0.01 0.0116 -0.0102 0.0025 -0.0023 0.0064 -0.0063 0.0063 -0.0065 0.0061 -0.0066 0.0132 -0.0155 0.0055 -0.007 -0.0016 0.0021 0.0051 -0.007 0.0088 -0.0126 0.006 -0.0096 0.0024 -0.0039 0.0044 -0.0078 0.0042 -0.0076 0.0022 -0.0043 0.0086 -0.0185 0.0022 -0.005 0.002 -0.0052 0.0067 -0.0184 0.0019 -0.006 0.0048 -0.0169 0.0032 -0.0129 0.0028 -0.0142 0.0027 -0.0165 0.0018 -0.0169 0.0012 -0.0166 0.0004 -0.0178 0 0zm-0.8454 27.9107l0 -27.9033 0.8454 -0.0074 0 27.9033 0 0 -0.8454 0.0074zm0.2546 -0.354l0.418 0.7348 0.0005 -0.0003 -0.0188 0.0105 -0.0207 0.0101 -0.0063 0.0029 -0.0272 0.0113 -0.0262 0.0088 -0.0087 0.0027 -0.0324 0.0081 -0.0213 0.0039 -0.0228 0.0032 -0.0363 0.0025 -0.0264 -0.0001 -0.0281 -0.0017 -0.0272 -0.0034 -0.0292 -0.0056 -0.0457 -0.0129 -0.0349 -0.0138 -0.0184 -0.0087 -0.0396 -0.0225 -0.0267 -0.0185 -0.0166 -0.0131 -0.0442 -0.0421 -0.0194 -0.0229 -0.017 -0.0228 -0.0257 -0.0422 -0.0087 -0.0172 -0.0142 -0.0326 -0.0108 -0.0316 -0.0081 -0.0302 -0.0055 -0.0284 -0.0036 -0.0266 -0.0018 -0.0247 -0.0006 -0.0229 0.8454 -0.0074 -0.0004 -0.0187 -0.0016 -0.0207 -0.003 -0.0228 -0.0049 -0.0248 -0.0071 -0.0268 -0.0098 -0.0284 -0.0128 -0.0296 -0.0073 -0.0144 -0.0241 -0.0394 -0.015 -0.0204 -0.0176 -0.0205 -0.042 -0.0401 -0.0142 -0.0113 -0.0243 -0.0167 -0.037 -0.0211 -0.0158 -0.0075 -0.0321 -0.0126 -0.0427 -0.0121 -0.026 -0.005 -0.024 -0.003 -0.0249 -0.0015 -0.023 -0.0001 -0.0327 0.0023 -0.0192 0.0026 -0.0175 0.0033 -0.0286 0.0071 -0.0049 0.0015 -0.0222 0.0076 -0.0232 0.0095 -0.0023 0.0011 -0.0165 0.0081 -0.0146 0.0081 0.0005 -0.0003zm-0.0005 0.0003l0.0005 -0.0003 0.0051 -0.003 -0.0056 0.0033zm24.5395 -13.2674l-24.121 14.0019 -0.418 -0.7348 24.121 -14.0019 0.4188 0.7344 -0.0008 0.0004zm0.0008 -0.0004l-0.0008 0.0004 0.0234 -0.0136 -0.0226 0.0132zm-0.5914 -0.4281l0.8454 -0.0074 0 0 -0.0006 0.022 -0.0014 0.021 -0.0024 0.0213 -0.003 0.0193 -0.0041 0.0203 -0.0048 0.0196 -0.0048 0.0167 -0.0032 0.0104 -0.0063 0.0181 -0.0081 0.0205 -0.0075 0.0168 -0.0028 0.0059 -0.0096 0.0192 -0.0049 0.0086 -0.0047 0.0086 -0.011 0.018 -0.0077 0.0118 -0.012 0.017 -0.0055 0.0073 -0.0047 0.0061 -0.0129 0.0159 -0.0058 0.0067 -0.0132 0.0145 -0.01 0.0102 -0.006 0.006 -0.0191 0.0176 -0.0109 0.0092 -0.007 0.0057 -0.0167 0.0128 -0.0174 0.0121 -0.008 0.0053 -0.0179 0.011 -0.4196 -0.734 -0.0137 0.0084 -0.0038 0.0025 -0.0132 0.0093 -0.0127 0.0096 -0.003 0.0025 -0.0069 0.0058 -0.0153 0.0142 -0.0024 0.0022 -0.0062 0.0066 -0.0098 0.0105 -0.0022 0.0027 -0.0097 0.0119 -0.0015 0.0019 -0.0023 0.0031 -0.009 0.0128 -0.0049 0.0074 -0.0082 0.0136 -0.0023 0.004 -0.0023 0.0042 -0.0074 0.0146 -0.0006 0.0013 -0.0055 0.0124 -0.0063 0.0159 -0.0047 0.0135 -0.0018 0.0058 -0.0034 0.0121 -0.0038 0.0152 -0.0031 0.0157 -0.0024 0.0149 -0.0018 0.0169 -0.0012 0.0166 -0.0004 0.0178 0 0z"/>
   </g>
   <g>
    <path class="fil1" d="M39.8465 56.3517l-12.091 -6.9616 0.4282 -0.729 12.091 6.9616 0.0072 0.0043 -0.4354 0.7247zm0.4282 -0.729l0.0072 0.0043 -0.0059 -0.0035 -0.0013 -0.0008zm-0.0027 0.7514l-0.4282 -0.729 -0.0033 0.0019 -0.0153 0.0095 -0.0196 0.0136 0.0042 -0.0031 -0.0084 0.0063 -0.0311 0.0262 -0.0199 0.02 -0.0097 0.0107 -0.0009 0.0011 -0.0193 0.0244 -0.0211 0.0316 -0.02 0.0378 0.0003 -0.0008 -0.009 0.0209 -0.0156 0.0468 -0.0058 0.025 -0.0048 0.0293 -0.0022 0.0232 0.0002 0.0568 0.0025 0.0248 0.0043 0.0259 0.0161 0.058 0.0052 0.0139 0.0091 0.0208 0.0225 0.0419 0.012 0.0184 0.0146 0.0198 0.0212 0.0248 0.0234 0.0234 0.022 0.0189 0.0097 0.0076 0.0091 0.0066 0.0251 0.0163 0.4426 -0.7204 0.0269 0.0175 0.0107 0.0078 0.0113 0.0088 0.0234 0.0201 0.0246 0.0246 0.0224 0.0262 0.0156 0.0212 0.0128 0.0196 0.0233 0.0433 0.0097 0.0224 0.0058 0.0153 0.0165 0.0594 0.0045 0.0275 0.0027 0.0262 0.0002 0.0582 -0.0024 0.0248 -0.005 0.0309 -0.0062 0.0264 -0.016 0.0484 -0.0098 0.0223 -0.0003 0.0008 -0.0208 0.0392 -0.0221 0.0332 -0.0205 0.0258 -0.0021 0.0025 -0.0111 0.0123 -0.0213 0.0214 -0.0327 0.0276 -0.0102 0.0075 0.0024 -0.0017 -0.0216 0.015 -0.0173 0.0107 -0.0033 0.0019zm0.0033 -0.0019l0 0 -0.0033 0.0019 0.0033 -0.0019zm-12.5171 6.2312l12.0856 -6.9583 0.4282 0.729 -12.0856 6.9583 -0.0005 0.0003 -0.4277 -0.7293zm0.4282 0.729l-0.0005 0.0003 -0.0066 0.0038 0.0071 -0.0041zm-0.4663 0.0017l0.4282 -0.729 -0.0073 -0.0041 -0.0059 -0.0032 -0.0228 -0.011 -0.0222 -0.0093 -0.016 -0.0057 -0.0045 -0.0015 -0.0207 -0.0059 -0.0196 -0.0047 0.0048 0.0011 -0.0195 -0.0038 -0.0182 -0.0026 -0.0143 -0.0014 -0.0002 -0.0001 -0.0158 -0.0009 -0.016 -0.0003 0.0013 0 -0.0152 0.0003 -0.0152 0.0008 0 0 -0.0157 0.0016 -0.0129 0.0018 -0.0145 0.0025 -0.0178 0.0038 0.0012 -0.0003 0.0013 -0.0003 -0.0144 0.0038 -0.0138 0.0041 -0.0187 0.0065 -0.0192 0.0078 0.0011 -0.0005 -0.0128 0.0058 -0.0191 0.0098 -0.007 0.0039 0.4272 0.7296 -0.0092 0.0051 -0.0213 0.011 -0.0152 0.0068 -0.0011 0.0005 -0.0216 0.0088 -0.0211 0.0073 -0.0164 0.0049 -0.0168 0.0044 -0.0013 0.0003 -0.0012 0.0003 -0.0204 0.0044 -0.0171 0.0029 -0.0155 0.0022 -0.0181 0.0018 -0.0026 0.0002 -0.0178 0.001 -0.0178 0.0003 -0.0013 0 -0.0184 -0.0003 -0.0184 -0.0011 -0.0026 -0.0003 -0.0167 -0.0016 -0.0208 -0.003 -0.0217 -0.0042 0.0024 0.0005 -0.022 -0.0051 -0.0229 -0.0067 -0.0067 -0.0021 -0.018 -0.0065 -0.0244 -0.0101 -0.0246 -0.012 -0.0079 -0.0042 -0.0073 -0.0041zm0.0073 0.0041l-0.004 -0.0022 -0.0033 -0.0019 0.0073 0.0041zm-11.6699 -7.6951l12.0908 6.962 -0.4282 0.729 -12.0908 -6.962 0.4209 -0.7331 0.0073 0.0041zm-0.0073 -0.0041l0.004 0.0022 0.0033 0.0019 -0.0073 -0.0041zm-0.4182 -0.0175l0.4282 0.729 0.0023 -0.0014 0.0163 -0.01 0.0074 -0.0049 0.008 -0.0057 0.0205 -0.0158 0.019 -0.0166 0.0098 -0.0095 0.0101 -0.0106 0.0106 -0.0118 0.0224 -0.0287 0.0181 -0.0274 -0.0005 0.0008 0.0151 -0.0276 0.0195 -0.0457 0.0101 -0.0323 0.0058 -0.0249 0.0038 -0.0222 0.0032 -0.0305 0 -0.0548 -0.0032 -0.0305 -0.005 -0.0278 -0.0066 -0.0266 -0.0081 -0.0251 -0.0254 -0.057 -0.0241 -0.0395 -0.012 -0.0163 0.0005 0.0006 -0.0239 -0.0283 -0.0349 -0.0338 -0.0246 -0.0194 -0.0098 -0.007 -0.0091 -0.006 -0.0253 -0.0152 -0.4136 0.7372 -0.0271 -0.0162 -0.0107 -0.0072 -0.0114 -0.008 -0.026 -0.0206 -0.0363 -0.035 -0.0249 -0.0297 -0.0005 -0.0006 -0.013 -0.0177 -0.0249 -0.0407 -0.026 -0.0584 -0.0085 -0.0265 -0.007 -0.028 -0.0052 -0.0292 -0.0034 -0.0319 0 -0.0564 0.0034 -0.0319 0.004 -0.0236 0.0062 -0.0265 0.0105 -0.0337 0.0201 -0.0471 0.0159 -0.029 0.0005 -0.0008 0.0189 -0.0288 0.0236 -0.0301 0.0118 -0.0132 0.0115 -0.012 0.0112 -0.0109 0.0206 -0.018 0.0223 -0.0172 0.0098 -0.0069 0.0094 -0.0063 0.0183 -0.0112 0.0023 -0.0014zm-0.0023 0.0014l0.0023 -0.0014 0.0068 -0.0039 -0.0091 0.0053zm12.516 -6.2311l-12.0855 6.9587 -0.4282 -0.729 12.0855 -6.9587 0.0005 -0.0003 0.4277 0.7293zm-0.4282 -0.729l0.0005 -0.0003 0.0065 -0.0037 -0.007 0.004zm0.4662 -0.0017l-0.4282 0.729 0.0073 0.0041 0.0059 0.0032 0.0228 0.011 0.0222 0.0093 0.016 0.0057 0.0045 0.0015 0.0207 0.0059 0.016 0.0039 -0.0011 -0.0003 0.0194 0.0038 0.0161 0.0023 0.0179 0.0019 -0.0013 -0.0001 0.0159 0.0009 0.0159 0.0003 -0.0013 0 0.016 -0.0003 0.0145 -0.0008 -0.0013 0.0001 0.015 -0.0015 0.0173 -0.0024 0.0152 -0.0027 0.0111 -0.0024 0.0023 -0.0005 -0.0012 0.0003 0.0143 -0.0038 0.0188 -0.0057 0.0138 -0.0049 0.0192 -0.0078 -0.0011 0.0005 0.0128 -0.0058 0.0191 -0.0098 0.007 -0.0039 -0.4272 -0.7296 0.0092 -0.0051 0.0213 -0.011 0.0152 -0.0068 0.0011 -0.0005 0.0216 -0.0088 0.0162 -0.0057 0.0212 -0.0065 0.0169 -0.0044 0.0012 -0.0003 0.0049 -0.0011 0.0137 -0.003 0.0176 -0.0031 0.0199 -0.0028 0.0176 -0.0017 0.0013 -0.0001 0.0171 -0.001 0.0184 -0.0003 0.0013 0 0.0185 0.0003 0.0183 0.0011 0.0013 0.0001 0.0203 0.0021 0.0185 0.0027 0.0218 0.0042 0.0011 0.0003 0.0184 0.0043 0.0229 0.0067 0.0067 0.0021 0.018 0.0065 0.0244 0.0101 0.0246 0.012 0.0079 0.0042 0.0073 0.0041zm-0.0073 -0.0041l0.004 0.0022 0.0033 0.0019 -0.0073 -0.0041z"/>
   </g>
   <g>
    <path class="fil1" d="M51.7597 35.0122l-0.0168 -13.9523 0.8458 0.0064 0.0168 13.9523 0 0.0005 -0.8458 -0.0069zm0.8458 0.0064l0 0 0 0.0005 0 -0.0005zm-0.6519 0.3736l0.4174 -0.7358 -0.0024 -0.0014 -0.0123 -0.0067 -0.0062 -0.0032 -0.0147 -0.0069 -0.033 -0.0132 -0.0173 -0.0056 -0.018 -0.005 -0.0144 -0.0033 -0.0167 -0.0031 -0.0451 -0.005 -0.0225 -0.0007 0.0008 0 -0.0254 0.0008 -0.0504 0.0063 -0.0299 0.0068 -0.0322 0.01 -0.0234 0.0092 -0.0327 0.0158 -0.0331 0.0198 -0.0183 0.013 -0.0298 0.0246 -0.0277 0.0277 -0.034 0.0428 -0.0119 0.0182 -0.0066 0.0112 -0.0198 0.0394 -0.0082 0.0202 -0.0074 0.0215 -0.009 0.0337 -0.0047 0.0249 -0.0028 0.0209 -0.0018 0.0234 -0.0004 0.0192 0.8458 0.0074 -0.0004 0.0214 -0.002 0.0254 -0.003 0.0227 -0.0051 0.0269 -0.0094 0.0353 -0.008 0.0231 -0.0088 0.0218 -0.0206 0.041 -0.0074 0.0124 -0.0127 0.0196 -0.035 0.044 -0.0287 0.0287 -0.031 0.0256 -0.0195 0.0138 -0.0343 0.0206 -0.0341 0.0164 -0.0248 0.0098 -0.0336 0.0104 -0.0315 0.0072 -0.052 0.0065 -0.027 0.0008 -0.0008 0 -0.0243 -0.0007 -0.0469 -0.0052 -0.0185 -0.0035 -0.0164 -0.0037 -0.02 -0.0056 -0.0193 -0.0062 -0.035 -0.014 -0.0167 -0.0079 -0.0082 -0.0042 -0.0145 -0.0079 -0.0024 -0.0014zm0.0024 0.0014l0.0012 0.0007 -0.0036 -0.0021 0.0024 0.0014zm-11.6543 -7.7244l12.0693 6.9872 -0.4174 0.7358 -12.0693 -6.9872 0 0 0.4174 -0.7358zm-0.6519 0.3325l0.8458 0.0064 0 0.0005 -0.0004 -0.0183 -0.0012 -0.0182 -0.0021 -0.018 -0.0028 -0.0177 -0.0035 -0.0172 -0.0029 -0.0122 -0.0044 -0.0154 -0.0049 -0.015 0.0004 0.0012 -0.0077 -0.0204 -0.0032 -0.0076 -0.0059 -0.0128 -0.0098 -0.0193 0.0006 0.0011 -0.0067 -0.0118 -0.0068 -0.011 -0.0043 -0.0066 -0.0072 -0.0104 -0.007 -0.0096 -0.0055 -0.007 0.0008 0.001 -0.0073 -0.0089 -0.0146 -0.0162 -0.0072 -0.0074 -0.0074 -0.0072 -0.0162 -0.0146 -0.0089 -0.0073 0.001 0.0008 -0.0096 -0.0074 -0.0103 -0.0075 -0.0192 -0.0126 -0.0097 -0.0059 -0.4174 0.7358 -0.0119 -0.0071 -0.0212 -0.014 -0.0123 -0.0089 -0.0116 -0.009 -0.001 -0.0008 -0.0109 -0.0089 -0.0182 -0.0164 -0.0092 -0.009 -0.009 -0.0092 -0.0164 -0.0182 -0.0089 -0.0109 -0.0008 -0.001 -0.0071 -0.009 -0.0086 -0.0118 -0.0086 -0.0124 -0.0057 -0.0088 -0.0082 -0.0132 -0.0079 -0.014 -0.0006 -0.0011 -0.011 -0.0215 -0.0069 -0.0152 -0.0042 -0.0098 -0.0085 -0.0226 -0.0004 -0.0012 -0.0057 -0.0172 -0.005 -0.0178 -0.0035 -0.0144 -0.0039 -0.0194 -0.0032 -0.0199 -0.0023 -0.0202 -0.0014 -0.0204 -0.0004 -0.0205 0 0.0005zm0.8458 0.0064l0 0 0 0.0005 0 -0.0005zm-0.0167 -13.9524l0.0167 13.9524 -0.8458 -0.0064 -0.0167 -13.9524 0 -0.0005 0.8458 0.0069zm-0.8458 -0.0064l0 0 0 -0.0005 0 0.0005zm0.6519 -0.3731l-0.4174 0.7358 -0.0014 -0.0008 0.0161 0.0089 0.0062 0.0032 0.0147 0.0069 0.033 0.0132 0.0173 0.0056 -0.0069 -0.0021 0.0348 0.0093 0.0213 0.0042 0.0219 0.003 0.0457 0.0026 -0.0009 0 0.0254 -0.0008 0.0553 -0.0073 0.0251 -0.0058 -0.0008 0.0002 0.0322 -0.01 0.0568 -0.0253 0.0331 -0.0198 0.0183 -0.013 0.0298 -0.0246 0.0277 -0.0277 0.0246 -0.0299 0.0131 -0.0184 0.0078 -0.0122 0.0226 -0.042 0.0124 -0.0295 0.0095 -0.0283 0.0057 -0.0217 0.0053 -0.0266 0.0036 -0.0267 0.0015 -0.0201 0.0005 -0.0203 -0.8458 -0.0074 0.0005 -0.0223 0.0017 -0.0221 0.0038 -0.0287 0.0057 -0.0282 0.0061 -0.0235 0.0101 -0.0299 0.013 -0.0311 0.0234 -0.0434 0.0086 -0.0134 0.0139 -0.0196 0.0256 -0.0311 0.0287 -0.0287 0.031 -0.0256 0.0195 -0.0138 0.0343 -0.0206 0.0582 -0.0259 0.0336 -0.0104 0.0008 -0.0002 0.0265 -0.0062 0.0569 -0.0075 0.027 -0.0008 0.0009 0 0.0475 0.0026 0.0237 0.0034 0.0231 0.0044 0.0366 0.0099 -0.0049 -0.0015 0.0193 0.0062 0.035 0.014 0.0167 0.0079 0.0082 0.0042 0.0183 0.0101 -0.0014 -0.0008zm-0.4174 0.7358l-0.0014 -0.0008 -0.002 -0.0012 0.0034 0.002zm12.0692 6.9868l-12.0692 -6.9868 0.4174 -0.7358 12.0692 6.9868 0.0095 0.0057 -0.4269 0.7301zm0.4174 -0.7358l0.0038 0.0022 0.0057 0.0035 -0.0095 -0.0057zm0.2345 0.4033l-0.8458 -0.0064 0 -0.0005 0.0004 0.0183 0.0012 0.0182 0.0021 0.018 0.0028 0.0177 0.0035 0.0172 0.0042 0.0167 0.0031 0.011 0.0049 0.0149 0.0016 0.0045 0.0057 0.0148 0.0032 0.0076 0.0059 0.0128 0.0098 0.0193 -0.0006 -0.0011 0.0067 0.0118 0.0118 0.0187 -0.0007 -0.001 0.0072 0.0103 0.0133 0.0177 -0.0008 -0.001 -0.0008 -0.001 0.0073 0.0089 0.0146 0.0162 0.0072 0.0074 0.0074 0.0072 0.0071 0.0066 0.0081 0.0071 0.0089 0.0073 0.0096 0.0074 0.0103 0.0075 0.007 0.0048 0.0124 0.0079 0.4364 -0.7244 0.0146 0.0093 0.009 0.0062 0.0123 0.0089 0.0116 0.009 0.0109 0.0089 0.0101 0.0089 0.0091 0.0084 0.0092 0.009 0.009 0.0092 0.0164 0.0182 0.0089 0.0109 0.0008 0.001 0.0008 0.001 0.0149 0.0197 0.0086 0.0125 0.0007 0.001 0.0132 0.0209 0.0079 0.014 0.0006 0.0011 0.011 0.0215 0.0069 0.0152 0.0042 0.0098 0.0065 0.017 0.0024 0.0067 0.0057 0.0173 0.0037 0.0132 0.0048 0.0189 0.0039 0.0194 0.0032 0.0199 0.0023 0.0202 0.0014 0.0204 0.0004 0.0205 0 -0.0005zm-0.8458 -0.0064l0 0 0 -0.0005 0 0.0005z"/>
   </g>
   <g>
    <path class="fil1" d="M3.3055 35.0202l0.0166 -13.9522 0.8454 -0.0064 -0.0166 13.9522 -0.8453 0.0181 -0.0001 -0.0117zm0.0001 0.0117l-0.0001 -0.0041 0 -0.0076 0.0001 0.0117zm0.2344 -0.3736l0.4172 0.7354 -0.0088 0.0049 -0.0081 0.0044 -0.0309 0.0147 -0.0172 0.0069 -0.0119 0.0044 -0.0134 0.0044 -0.0207 0.006 -0.0215 0.0051 -0.0185 0.0035 -0.0468 0.0052 -0.0243 0.0006 -0.027 -0.0008 -0.0267 -0.0025 -0.026 -0.0041 -0.0315 -0.0071 -0.0336 -0.0105 -0.0248 -0.0097 -0.0341 -0.0164 -0.0343 -0.0206 -0.0334 -0.0247 -0.0169 -0.0147 -0.015 -0.0143 -0.0394 -0.0454 -0.0221 -0.0325 -0.0074 -0.0124 -0.0164 -0.0316 -0.013 -0.0311 -0.01 -0.0299 -0.0074 -0.0286 -0.0051 -0.0268 -0.0032 -0.025 -0.0001 -0.001 -0.0021 -0.0322 0.8452 -0.0298 -0.0019 -0.0302 0.0001 0.001 -0.003 -0.023 -0.0047 -0.025 -0.007 -0.0268 -0.0094 -0.0283 -0.0124 -0.0295 -0.0156 -0.0302 -0.0066 -0.011 -0.0213 -0.0313 -0.0384 -0.0442 -0.0138 -0.0133 -0.0159 -0.0137 -0.0322 -0.0239 -0.0331 -0.0198 -0.0327 -0.0158 -0.0234 -0.0091 -0.0322 -0.0101 -0.0299 -0.0067 -0.0244 -0.0039 -0.0251 -0.0023 -0.0254 -0.0008 -0.0225 0.0006 -0.045 0.005 -0.0167 0.0031 -0.0195 0.0047 -0.0189 0.0054 -0.0114 0.0038 -0.0099 0.0036 -0.015 0.0061 -0.0289 0.0137 -0.0059 0.0032 -0.0088 0.0049zm0.4172 0.7354l-0.0025 0.0015 -0.0063 0.0034 0.0088 -0.0049zm12.0694 -6.9874l-12.0694 6.9874 -0.4172 -0.7354 12.0694 -6.9874 0.0025 -0.0014 0.4147 0.7368zm-0.4172 -0.7354l0.0025 -0.0014 -0.0054 0.0031 0.0029 -0.0017zm-0.1938 0.3388l0.8454 -0.0064 0 -0.0005 -0.0005 0.0214 -0.0015 0.0212 -0.0021 0.0184 -0.0032 0.0198 -0.0031 0.0155 -0.0044 0.0184 -0.0066 0.0229 -0.004 0.012 -0.0004 0.0012 -0.0086 0.0226 -0.0041 0.0098 -0.0069 0.0152 -0.0111 0.0215 -0.0006 0.0011 -0.0079 0.014 -0.0081 0.0132 -0.0007 0.0011 -0.0136 0.0202 -0.0149 0.0196 -0.0008 0.001 -0.0008 0.001 -0.0089 0.0109 -0.0164 0.0182 -0.009 0.0093 -0.0092 0.0089 -0.0182 0.0164 -0.0108 0.0089 -0.001 0.0008 -0.0116 0.009 -0.0124 0.0089 -0.0211 0.014 -0.0144 0.0085 -0.4122 -0.7382 -0.0122 0.0073 -0.0191 0.0126 -0.0104 0.0075 -0.0096 0.0074 0.001 -0.0008 -0.0088 0.0073 -0.0162 0.0146 -0.0074 0.0071 -0.0072 0.0075 -0.0146 0.0162 -0.0073 0.0089 0.0008 -0.001 0.0008 -0.001 -0.0133 0.0176 -0.0122 0.018 0.0007 -0.0011 -0.0067 0.011 -0.0067 0.0118 0.0006 -0.0011 -0.0099 0.0193 -0.0059 0.0128 -0.0031 0.0076 -0.0078 0.0204 0.0004 -0.0012 -0.0032 0.0098 -0.006 0.0207 -0.0038 0.016 -0.0027 0.0133 -0.0028 0.0176 -0.0019 0.0162 -0.0013 0.0192 -0.0005 0.0192 0 -0.0005zm0 0.0005l0 -0.0005 0 0 0 0.0005zm0.8619 -13.9592l-0.0165 13.9523 -0.8454 0.0064 0.0165 -13.9523 0.8454 -0.0069 0 0.0005zm0 -0.0005l0 0.0005 0 0 0 -0.0005zm-0.2345 0.3629l-0.4172 -0.7354 -0.0024 0.0014 0.0193 -0.0107 0.0082 -0.0041 0.0167 -0.008 0.0176 -0.0074 0.0184 -0.007 0.0382 -0.0114 0.0165 -0.0038 0.0185 -0.0035 0.0237 -0.0033 0.0227 -0.0019 0.0255 -0.0007 0.0256 0.0007 0.0584 0.0075 0.0264 0.0062 0.0008 0.0002 0.0431 0.014 0.0486 0.0223 0.0216 0.0125 0.0323 0.0219 0.0309 0.0256 0.0287 0.0287 0.0256 0.031 0.0221 0.0325 0.0074 0.0124 0.0164 0.0316 0.013 0.0311 0.01 0.0299 0.0074 0.0286 0.0045 0.0232 0.0036 0.0263 0.0019 0.0253 0.0005 0.0214 -0.8454 0.0074 0.0005 0.0192 0.0017 0.0233 0.0034 0.0245 0.0041 0.0214 0.007 0.0268 0.0094 0.0283 0.0124 0.0295 0.0156 0.0302 0.0066 0.011 0.0213 0.0313 0.0246 0.0298 0.0277 0.0277 0.0297 0.0246 0.0311 0.0211 0.0202 0.0117 0.0474 0.0217 0.0417 0.0136 -0.0008 -0.0002 0.025 0.0058 0.0568 0.0073 0.0238 0.0007 0.0239 -0.0007 0.0209 -0.0017 0.0219 -0.0031 0.0167 -0.0031 0.0145 -0.0034 0.0362 -0.0108 0.0164 -0.0062 0.0156 -0.0066 0.0147 -0.007 0.0062 -0.0031 0.0171 -0.0095 -0.0024 0.0014zm0.0024 -0.0014l-0.0012 0.0007 -0.0012 0.0007 0.0024 -0.0014zm-12.4887 6.2528l12.0691 -6.9868 0.4172 0.7354 -12.0691 6.9868 -0.422 -0.7325 0.0048 -0.0029zm-0.0048 0.0029l0.0048 -0.0029 0.0021 -0.0012 -0.0069 0.0041zm0.6156 0.3939l-0.8454 0.0064 0 0.0005 0.0004 -0.0205 0.0016 -0.0222 0.0021 -0.0183 0.0026 -0.0167 0.0046 -0.0227 0.0047 -0.0189 0.0038 -0.0131 0.0056 -0.0173 0.0086 -0.0226 -0.002 0.005 0.0065 -0.016 0.0103 -0.0219 0.0077 -0.0147 0.008 -0.014 0.0006 -0.0011 0.0081 -0.0132 0.0007 -0.0011 0.0136 -0.0202 0.0086 -0.0116 0.0008 -0.0011 0.0152 -0.0189 0.0164 -0.0182 0.0009 -0.0009 0.0009 -0.001 0.0173 -0.0173 0.0182 -0.0164 0.0025 -0.0021 0.0092 -0.0076 0.0197 -0.0149 0.0044 -0.003 0.009 -0.0062 0.0192 -0.0121 0.4268 0.7296 0.017 -0.0107 0.007 -0.0048 0.0024 -0.0016 0.0175 -0.0133 0.0074 -0.006 0.0005 -0.0005 0.0162 -0.0146 0.0155 -0.0155 -0.0009 0.001 -0.0009 0.0009 0.0146 -0.0162 0.0136 -0.0169 -0.0008 0.0011 0.007 -0.0096 0.0122 -0.018 -0.0007 0.0011 0.0067 -0.011 -0.0006 0.0011 0.0066 -0.0118 0.0067 -0.0125 0.0091 -0.0197 0.0057 -0.0136 -0.003 0.0072 0.0078 -0.0204 0.0048 -0.0149 0.0032 -0.0109 0.0041 -0.0167 0.0042 -0.0205 0.0022 -0.0143 0.0019 -0.0163 0.0014 -0.02 0.0004 -0.0183 0 0.0005zm0 -0.0005l0 0.0005 0 0 0 -0.0005z"/>
   </g>
   <g>
    <path class="fil1" d="M16.2768 14.0564l0.0167 13.9522 -0.8454 -0.0064 -0.0167 -13.9522 0 -0.0005 0.8454 0.0069zm-0.8454 -0.0064l0 0 0 -0.0005 0 0.0005zm0.6516 -0.3732l-0.4172 0.7354 0.0025 0.0014 0.0122 0.0067 0.0062 0.0031 0.0147 0.007 0.033 0.0132 0.0172 0.0056 0.018 0.0049 0.0145 0.0034 0.0167 0.0031 0.045 0.005 0.0225 0.0006 -0.0008 0 0.0254 -0.0008 0.0503 -0.0063 0.0299 -0.0067 0.0322 -0.0101 0.0234 -0.0091 0.0327 -0.0158 0.0331 -0.0198 0.0183 -0.013 0.0297 -0.0246 0.0277 -0.0277 0.0246 -0.0298 0.0213 -0.0313 0.0066 -0.011 0.0106 -0.0199 0.0174 -0.0399 0.0094 -0.0282 0.0058 -0.0217 0.0059 -0.0302 0.003 -0.023 0.0015 -0.0201 0.0005 -0.0203 -0.8454 -0.0074 0.0005 -0.0223 0.0017 -0.0221 0.0032 -0.025 0.0063 -0.032 0.0062 -0.0233 0.01 -0.03 0.018 -0.0413 0.0114 -0.0213 0.0074 -0.0124 0.0221 -0.0325 0.0256 -0.031 0.0287 -0.0287 0.0309 -0.0256 0.0195 -0.0138 0.0343 -0.0206 0.0341 -0.0164 0.0248 -0.0097 0.0336 -0.0105 0.0315 -0.0071 0.0519 -0.0065 0.027 -0.0008 0.0008 0 0.0243 0.0006 0.0468 0.0052 0.0185 0.0035 0.0165 0.0038 0.02 0.0055 0.0192 0.0062 0.035 0.014 0.0167 0.008 0.0082 0.0041 0.0144 0.0079 0.0025 0.0014zm-0.0025 -0.0014l0.0025 0.0014 0.0029 0.0017 -0.0054 -0.0031zm11.6548 7.7239l-12.0695 -6.9871 0.4172 -0.7354 12.0695 6.9871 0.0043 0.0026 -0.4215 0.7328zm0.4172 -0.7354l0.0043 0.0026 -0.0071 -0.0042 0.0028 0.0016zm0.2345 0.4031l-0.8454 -0.0064 0.0001 0.007 0.0003 0.0108 0.0034 0.0373 0.0028 0.0176 -0.0002 -0.0011 0.0036 0.0173 0.0029 0.0121 0.0044 0.0154 0.0048 0.015 0.0053 0.0142 0.0085 0.0201 -0.0034 -0.0075 0.0059 0.0128 0.0099 0.0193 -0.0006 -0.0011 0.0067 0.0118 0.0067 0.011 0.0122 0.018 -0.0008 -0.001 -0.0007 -0.0011 0.0133 0.0176 0.0073 0.0089 0.0071 0.0082 0.0066 0.007 0.0072 0.0075 -0.0009 -0.0009 0.0164 0.0154 0.0087 0.0077 -0.0009 -0.0008 0.0179 0.0142 0.0184 0.013 0.011 0.0071 0.0055 0.0033 0.4258 -0.7302 0.0075 0.0045 0.0132 0.0085 0.0204 0.0144 0.0199 0.0158 0.0009 0.0008 0.0107 0.0093 0.0182 0.0172 0.0009 0.0009 0.009 0.0093 0.0084 0.009 0.0089 0.0102 0.0089 0.0109 0.0149 0.0196 0.0007 0.0011 0.0008 0.001 0.0136 0.0202 0.0081 0.0132 0.0079 0.014 0.0006 0.0011 0.0111 0.0215 0.0069 0.0152 -0.0024 -0.0053 0.0095 0.0223 0.0061 0.0166 0.0056 0.0172 0.005 0.0178 0.0035 0.0143 0.004 0.0195 0.0002 0.0011 0.0032 0.0198 0.0036 0.0395 0.0003 0.013 0.0001 0.007zm-0.0001 -0.007l0.0001 0.0056 0 0.0014 -0.0001 -0.007zm-0.8289 13.9531l-0.0164 -13.9525 0.8454 0.0064 0.0164 13.9525 0 0.0005 -0.8454 -0.0069zm0.8454 0.0064l0 0 0 0.0005 0 -0.0005zm-0.6517 0.3727l0.4172 -0.7354 0.0048 0.0029 -0.0058 -0.0035 -0.0199 -0.0105 -0.0147 -0.0071 -0.0156 -0.0065 -0.0346 -0.0122 0.001 0.0003 -0.013 -0.0036 -0.0372 -0.008 -0.0219 -0.0031 -0.0209 -0.0017 -0.0239 -0.0007 -0.0238 0.0007 -0.0568 0.0073 -0.025 0.0058 0.0008 -0.0002 -0.0417 0.0136 -0.0474 0.0217 -0.0202 0.0117 -0.0122 0.0077 -0.0486 0.0381 -0.0277 0.0276 -0.0137 0.016 -0.0322 0.0452 -0.0066 0.011 -0.0156 0.0302 -0.0124 0.0295 -0.0074 0.0215 -0.0078 0.0285 -0.0059 0.0302 -0.003 0.023 -0.0015 0.0201 -0.0005 0.0203 0.8454 0.0074 -0.0005 0.0223 -0.0017 0.0221 -0.0032 0.025 -0.0063 0.032 -0.0082 0.0301 -0.008 0.0231 -0.013 0.0311 -0.0164 0.0316 -0.0074 0.0124 -0.033 0.0464 -0.0147 0.017 -0.0287 0.0288 -0.0498 0.0389 -0.0134 0.0085 -0.0216 0.0125 -0.0486 0.0223 -0.0431 0.014 -0.0008 0.0002 -0.0264 0.0062 -0.0584 0.0075 -0.0256 0.0007 -0.0255 -0.0007 -0.0227 -0.0019 -0.0237 -0.0033 -0.039 -0.0084 -0.015 -0.0042 -0.001 -0.0003 -0.0366 -0.0128 -0.0176 -0.0075 -0.0167 -0.0079 -0.0219 -0.0117 -0.008 -0.0047 0.0048 0.0029zm0.4172 -0.7354l0.0048 0.0029 -0.0069 -0.0041 0.0021 0.0012zm-12.0691 -6.9869l12.0691 6.9869 -0.4172 0.7354 -12.0691 -6.9869 0.4109 -0.7389 0.0063 0.0035zm-0.0063 -0.0035l0.0063 0.0035 0.0003 0.0002 -0.0066 -0.0037zm-0.6454 0.3358l0.8454 0.0064 0 0.0005 -0.0004 -0.0183 -0.0013 -0.0182 -0.002 -0.018 -0.0028 -0.0176 -0.0027 -0.0133 -0.0038 -0.016 -0.006 -0.0207 -0.0032 -0.0098 0.0004 0.0012 -0.0053 -0.0143 -0.0056 -0.0136 -0.0092 -0.0197 -0.0028 -0.0055 0.0006 0.0012 -0.0105 -0.0188 -0.0067 -0.011 -0.0043 -0.0065 -0.0072 -0.0105 -0.007 -0.0095 -0.0055 -0.007 -0.0073 -0.0089 -0.0146 -0.0162 0.0009 0.0009 0.0009 0.001 -0.016 -0.016 -0.0076 -0.007 -0.017 -0.0144 -0.0096 -0.0075 -0.007 -0.0051 -0.0103 -0.0071 -0.0111 -0.0071 -0.016 -0.0094 -0.4046 0.7424 -0.0182 -0.0106 -0.0131 -0.0085 -0.0125 -0.0085 -0.009 -0.0067 -0.0116 -0.0089 -0.019 -0.0162 -0.0094 -0.0086 -0.0178 -0.0178 -0.0009 -0.001 -0.0009 -0.0009 -0.0164 -0.0182 -0.0089 -0.0109 -0.0071 -0.009 -0.0086 -0.0117 -0.0086 -0.0125 -0.0057 -0.0087 -0.0081 -0.0132 -0.0117 -0.021 -0.0006 -0.0012 -0.004 -0.0077 -0.0102 -0.0219 -0.0066 -0.016 -0.0061 -0.0165 -0.0004 -0.0012 -0.004 -0.012 -0.0066 -0.0229 -0.0044 -0.0184 -0.0031 -0.0155 -0.0032 -0.0198 -0.0022 -0.0202 -0.0015 -0.0204 -0.0004 -0.0205 0 0.0005zm0.8454 0.0064l0 0 0 0.0005 0 -0.0005z"/>
   </g>
   <g>
    <path class="fil1" d="M15.4331 55.8713l0.0167 -13.9522 0.8454 -0.0064 -0.0167 13.9522 -0.8454 0.0069 0 -0.0005zm0 0.0005l0 -0.0005 0 0 0 0.0005zm0.2344 -0.3623l0.4172 0.7354 -0.0049 0.0028 -0.012 0.0065 -0.0239 0.0116 -0.0176 0.0074 -0.001 0.0004 -0.0366 0.0129 -0.02 0.0054 -0.0165 0.0039 -0.0413 0.0066 -0.0009 0.0001 -0.0227 0.0019 -0.0517 -0.0001 -0.0267 -0.0025 -0.026 -0.0041 -0.0315 -0.0071 -0.0336 -0.0105 -0.0248 -0.0097 -0.0341 -0.0164 -0.0343 -0.0206 -0.0195 -0.0138 -0.0309 -0.0256 -0.0287 -0.0287 -0.035 -0.0439 -0.0127 -0.0197 -0.0074 -0.0123 -0.0206 -0.041 -0.0088 -0.0218 -0.01 -0.0299 -0.0074 -0.0286 -0.0051 -0.0268 -0.0032 -0.025 -0.0017 -0.0231 -0.0005 -0.0214 0.8454 -0.0074 -0.0005 -0.0192 -0.0015 -0.0211 -0.003 -0.023 -0.0047 -0.025 -0.007 -0.0268 -0.0094 -0.0283 -0.0082 -0.0202 -0.0198 -0.0394 -0.0066 -0.0111 -0.0119 -0.0183 -0.034 -0.0427 -0.0277 -0.0277 -0.0297 -0.0246 -0.0183 -0.013 -0.0331 -0.0198 -0.0327 -0.0158 -0.0234 -0.0091 -0.0322 -0.0101 -0.0299 -0.0067 -0.0244 -0.0039 -0.0251 -0.0023 -0.0501 -0.0001 -0.0209 0.0017 0.0009 -0.0001 -0.0395 0.0064 -0.0145 0.0033 -0.018 0.005 -0.0346 0.0121 0.001 -0.0004 -0.0156 0.0066 -0.0219 0.0106 -0.0098 0.0053 -0.0049 0.0028zm0.4172 0.7354l-0.0028 0.0016 -0.0021 0.0012 0.0049 -0.0028zm12.0692 -6.9875l-12.0692 6.9875 -0.4172 -0.7354 12.0692 -6.9875 0.0066 -0.0037 0.4106 0.7391zm-0.4172 -0.7354l0.0014 -0.0008 0.0052 -0.0029 -0.0066 0.0037zm-0.1937 0.339l0.8454 -0.0064 0 -0.0005 -0.0005 0.0213 -0.0014 0.0195 -0.0022 0.0202 -0.0032 0.0198 -0.004 0.0195 -0.0047 0.0189 0.0009 -0.0035 -0.005 0.0178 -0.0138 0.0387 -0.007 0.0162 0.0024 -0.0053 -0.0005 0.0012 -0.0102 0.0219 -0.0078 0.0147 -0.0079 0.014 -0.0081 0.0132 -0.0057 0.0087 -0.0086 0.0125 -0.0086 0.0117 -0.0071 0.009 -0.0089 0.0109 -0.0164 0.0182 -0.009 0.0093 -0.0009 0.0009 -0.0092 0.0089 -0.0182 0.0164 -0.0108 0.0089 -0.001 0.0008 -0.0116 0.009 -0.0204 0.0144 -0.0207 0.013 -0.011 0.0063 -0.404 -0.7428 -0.0088 0.0051 -0.0185 0.0116 -0.0184 0.013 -0.0096 0.0074 0.001 -0.0008 -0.0088 0.0073 -0.0162 0.0146 -0.0074 0.0071 0.0009 -0.0009 -0.0072 0.0075 -0.0146 0.0162 -0.0073 0.0089 -0.0055 0.007 -0.007 0.0095 -0.0072 0.0105 -0.0043 0.0065 -0.0067 0.011 -0.0067 0.0118 -0.0066 0.0125 -0.0092 0.0197 0.0005 -0.0012 0.0034 -0.0075 -0.006 0.014 -0.013 0.0365 -0.0044 0.0154 0.0015 -0.0057 -0.0041 0.0167 -0.0036 0.0173 -0.0028 0.0176 -0.002 0.018 -0.0012 0.0173 -0.0005 0.0193 0 -0.0005zm0 0.0005l0 -0.0005 0 0 0 0.0005zm0.8621 -13.9593l-0.0167 13.9524 -0.8454 0.0064 0.0167 -13.9524 0.8454 -0.0069 0 0.0005zm0 -0.0005l0 0.0005 0 0 0 -0.0005zm-0.2345 0.363l-0.4172 -0.7354 -0.0071 0.0043 0.0103 -0.0061 0.0071 -0.004 0.0315 -0.0157 0.0176 -0.0074 0.0184 -0.007 0.0382 -0.0114 0.0165 -0.0038 0.0185 -0.0035 0.0237 -0.0033 0.0227 -0.0019 0.0255 -0.0007 0.0256 0.0007 0.0584 0.0075 0.0264 0.0062 0.0008 0.0002 0.0682 0.0246 0.0235 0.0118 0.0007 0.0003 0.0532 0.034 0.0309 0.0256 0.0287 0.0287 0.0256 0.031 0.0221 0.0325 0.0074 0.0124 0.0164 0.0316 0.013 0.0311 0.01 0.0299 0.0074 0.0286 0.0051 0.0268 0.0032 0.025 0.0017 0.0221 0.0005 0.0223 -0.8454 0.0074 0.0005 0.0203 0.0015 0.0201 0.003 0.023 0.0047 0.025 0.007 0.0268 0.0094 0.0283 0.0124 0.0295 0.0156 0.0302 0.0066 0.011 0.0213 0.0313 0.0246 0.0298 0.0277 0.0277 0.0297 0.0246 0.052 0.0332 -0.0007 -0.0003 0.0223 0.011 0.0668 0.0242 -0.0008 -0.0002 0.025 0.0058 0.0568 0.0073 0.0238 0.0007 0.0239 -0.0007 0.0209 -0.0017 0.0219 -0.0031 0.0167 -0.0031 0.0145 -0.0034 0.0362 -0.0108 0.0164 -0.0062 0.0156 -0.0066 0.0295 -0.0147 0.0051 -0.0028 0.0081 -0.0049 -0.0071 0.0043zm0.0071 -0.0043l-0.0072 0.0044 0.0001 -0.0001 0.0071 -0.0043zm-12.4935 6.2557l12.0692 -6.9868 0.4172 0.7354 -12.0692 6.9868 -0.4196 -0.734 0.0024 -0.0014zm-0.0024 0.0014l0.0012 -0.0007 0.0012 -0.0007 -0.0024 0.0014zm0.6134 0.3952l-0.8454 0.0064 0 0.0005 0.0005 -0.0214 0.0015 -0.0212 0.0021 -0.0184 0.0026 -0.0166 0.0037 -0.0188 0.0056 -0.0229 0.0054 -0.0183 0.004 -0.012 0.0004 -0.0012 0.0086 -0.0226 0.0041 -0.0098 0.0069 -0.0152 0.0111 -0.0215 0.0006 -0.0011 0.0079 -0.014 0.0081 -0.0132 0.0057 -0.0087 0.0086 -0.0125 0.0086 -0.0117 0.0071 -0.009 0.0008 -0.001 0.0161 -0.0191 0.0173 -0.0183 0.0009 -0.0009 0.0092 -0.0089 0.009 -0.0084 0.0102 -0.0089 0.0214 -0.0171 0.001 -0.0007 0.001 -0.0008 0.0325 -0.0222 0.0095 -0.0057 0.422 0.7326 0.0073 -0.0045 0.0305 -0.0208 -0.001 0.0008 -0.001 0.0007 0.0194 -0.0155 0.0082 -0.0071 0.007 -0.0066 0.0074 -0.0071 -0.0009 0.0009 0.0155 -0.0165 0.0145 -0.0171 -0.0008 0.001 0.0055 -0.007 0.007 -0.0095 0.0072 -0.0105 0.0043 -0.0065 0.0067 -0.011 0.0067 -0.0118 -0.0006 0.0011 0.0099 -0.0193 0.0059 -0.0128 0.0031 -0.0076 0.0078 -0.0204 -0.0004 0.0012 0.0032 -0.0098 0.0048 -0.0161 0.005 -0.0207 0.0033 -0.0164 0.0022 -0.0144 0.0019 -0.0162 0.0013 -0.0192 0.0005 -0.0192 0 0.0005zm0 -0.0005l0 0.0005 0 0 0 -0.0005z"/>
   </g>
   <g>
    <path class="fil3" d="M39.5504 55.8635l-0.0164 -13.9521 0.8454 0.0064 0.0164 13.9521 0 0.0005 -0.8454 -0.0069zm0.8454 0.0064l0 0 0 0.0005 0 -0.0005zm-0.6515 0.3732l0.4172 -0.7354 0 0 -0.0147 -0.0081 -0.0062 -0.0031 -0.0147 -0.007 -0.033 -0.0132 -0.0172 -0.0056 0.0068 0.0021 -0.0394 -0.0103 -0.0418 -0.0066 0.006 0.0007 -0.0237 -0.0021 -0.0238 -0.0007 -0.0513 0.0032 -0.0244 0.0038 -0.0042 0.0008 -0.0579 0.0161 -0.0339 0.0138 -0.0223 0.0111 -0.0202 0.0117 -0.045 0.032 -0.0303 0.0275 -0.0133 0.0139 -0.0246 0.0298 -0.0213 0.0313 -0.0066 0.011 -0.0156 0.0302 -0.0124 0.0295 -0.0094 0.0283 -0.007 0.0268 -0.0047 0.025 -0.003 0.023 -0.0015 0.0201 -0.0005 0.0203 0.8454 0.0074 -0.0005 0.0223 -0.0017 0.0221 -0.0032 0.025 -0.0051 0.0268 -0.0074 0.0286 -0.01 0.0299 -0.013 0.0311 -0.0164 0.0316 -0.0074 0.0124 -0.0221 0.0325 -0.0256 0.031 -0.0143 0.0149 -0.0313 0.0285 -0.0462 0.0328 -0.0216 0.0125 -0.0235 0.0117 -0.0353 0.0144 -0.0593 0.0165 -0.0058 0.001 -0.026 0.0042 -0.0529 0.0032 -0.0256 -0.0007 -0.0253 -0.0023 0.0042 0.0005 -0.0438 -0.0068 -0.0412 -0.0109 0.0048 0.0015 -0.0192 -0.0062 -0.035 -0.014 -0.0167 -0.008 -0.0082 -0.0041 -0.0169 -0.0093 0 0zm-11.6521 -7.7225l12.0693 6.9871 -0.4172 0.7354 -12.0693 -6.9871 0.4147 -0.7368 0.0025 0.0014zm-0.0025 -0.0014l0.0025 0.0014 0.0029 0.0017 -0.0054 -0.0031zm-0.6491 0.3338l0.8454 0.0064 0 0.0005 -0.0004 -0.0183 -0.0014 -0.02 -0.0019 -0.0163 -0.0022 -0.0143 -0.0042 -0.0205 -0.0041 -0.0167 -0.0032 -0.0109 -0.0048 -0.0149 -0.0016 -0.0046 -0.0033 -0.0086 -0.0056 -0.0136 -0.0092 -0.0197 -0.0066 -0.0125 0.0044 0.0081 -0.0063 -0.0115 -0.0159 -0.0258 0.0007 0.001 -0.0072 -0.0104 -0.007 -0.0096 0.0008 0.0011 -0.0055 -0.007 -0.0145 -0.0171 -0.0155 -0.0165 0.0009 0.0009 -0.0074 -0.0071 -0.0162 -0.0146 -0.0088 -0.0073 0.001 0.0008 -0.0096 -0.0074 -0.0104 -0.0075 -0.0191 -0.0126 -0.0122 -0.0073 -0.4122 0.7382 -0.0144 -0.0085 -0.0211 -0.014 -0.0124 -0.0089 -0.0116 -0.009 -0.001 -0.0008 -0.0108 -0.0089 -0.0182 -0.0164 -0.0092 -0.0089 -0.0009 -0.0009 -0.0173 -0.0183 -0.0161 -0.0191 -0.0071 -0.009 -0.0008 -0.0011 -0.0086 -0.0116 -0.0086 -0.0126 -0.0007 -0.001 -0.0173 -0.028 -0.0075 -0.0139 0.0032 0.0059 -0.0078 -0.0147 -0.0102 -0.0219 -0.0066 -0.016 -0.0041 -0.0108 -0.0024 -0.0068 -0.0056 -0.0173 -0.0038 -0.0131 -0.0047 -0.0189 -0.0046 -0.0227 -0.0026 -0.0167 -0.0021 -0.0183 -0.0016 -0.0222 -0.0004 -0.0205 0 0.0005zm0.8454 0.0064l0 0 0 0.0005 0 -0.0005zm-0.0167 -13.9525l0.0167 13.9525 -0.8454 -0.0064 -0.0167 -13.9525 0 -0.0005 0.8454 0.0069zm-0.8454 -0.0064l0 0 0 -0.0005 0 0.0005zm0.6516 -0.373l-0.4172 0.7354 0.0025 0.0014 0.0122 0.0067 0.0062 0.0031 0.0147 0.007 0.033 0.0132 0.0172 0.0056 0.018 0.0049 0.0145 0.0034 0.0167 0.0031 0.0219 0.0031 0.0209 0.0017 0.0501 -0.0001 0.0251 -0.0023 -0.0008 0.0001 0.0551 -0.0108 0.0322 -0.01 -0.0007 0.0002 0.0568 -0.0252 0.0331 -0.0198 0.0183 -0.013 0.0297 -0.0246 0.0277 -0.0277 0.0246 -0.0298 0.0131 -0.0184 0.0078 -0.0123 0.0226 -0.0419 0.0124 -0.0295 0.0094 -0.0283 0.0058 -0.0216 0.0053 -0.0267 0.0036 -0.0266 0.0015 -0.0201 0.0005 -0.0203 -0.8454 -0.0074 0.0005 -0.0223 0.0017 -0.0221 0.0038 -0.0286 0.0057 -0.0283 0.0062 -0.0234 0.01 -0.0299 0.013 -0.0311 0.0234 -0.0433 0.0086 -0.0135 0.0139 -0.0196 0.0256 -0.031 0.0287 -0.0287 0.0309 -0.0256 0.0195 -0.0138 0.0343 -0.0206 0.0582 -0.0258 0.0007 -0.0002 0.0336 -0.0106 0.0567 -0.011 0.0008 -0.0001 0.0267 -0.0025 0.0517 -0.0001 0.0227 0.0019 0.0237 0.0033 0.0185 0.0035 0.0165 0.0038 0.02 0.0055 0.0192 0.0062 0.035 0.014 0.0167 0.008 0.0082 0.0041 0.0144 0.0079 0.0025 0.0014zm-0.0025 -0.0014l0.0025 0.0014 0.0029 0.0017 -0.0054 -0.0031zm11.6545 7.7239l-12.0692 -6.9871 0.4172 -0.7354 12.0692 6.9871 0.0006 0.0004 -0.4178 0.735zm0.4172 -0.7354l0.0006 0.0004 -0.0231 -0.0134 0.0225 0.013zm0.2347 0.4032l-0.8454 -0.0064 0.0001 0.0107 0.0016 0.0264 -0.0001 -0.0011 0.002 0.018 0.0028 0.0176 0.0036 0.0173 0.0029 0.0121 0.0044 0.0154 0.0068 0.0207 0.0033 0.0086 -0.0005 -0.0012 0.0086 0.0201 0.0029 0.0065 -0.0005 -0.0012 0.0172 0.0322 -0.0007 -0.0011 -0.0006 -0.0011 0.0196 0.0301 -0.0008 -0.001 -0.0007 -0.0011 0.0133 0.0176 0.0073 0.0089 0.0071 0.0082 0.0066 0.007 0.0072 0.0075 0.0074 0.0071 0.0162 0.0146 0.0088 0.0073 -0.001 -0.0008 0.0096 0.0074 0.0184 0.013 0.0065 0.0043 0.0136 0.0082 0.4184 -0.7346 0.0158 0.0096 0.0087 0.0057 0.0204 0.0144 0.0116 0.009 0.001 0.0008 0.0108 0.0089 0.0182 0.0164 0.0092 0.0089 0.009 0.0093 0.0084 0.009 0.0089 0.0102 0.0089 0.0109 0.0149 0.0196 0.0007 0.0011 0.0008 0.001 0.021 0.0323 0.0006 0.0011 0.0007 0.0011 0.0184 0.0344 0.0005 0.0012 0.0041 0.0087 0.0094 0.0223 0.0005 0.0012 0.0041 0.0108 0.0076 0.0229 0.005 0.0178 0.0035 0.0143 0.004 0.0195 0.0032 0.0198 0.0022 0.0202 0.0001 0.0011 0.0018 0.0286 0.0001 0.0107zm-0.0001 -0.0107l0.0001 0.0035 0 0.0072 -0.0001 -0.0107z"/>
   </g>
   <g>
    <path class="fil3" d="M40.4745 14.0514l-0.0164 13.9525 -0.8454 0.0064 0.0164 -13.9525 0.8454 -0.0069 0 0.0005zm0 -0.0005l0 0.0005 0 0 0 -0.0005zm-0.2344 0.3628l-0.4172 -0.7354 0 0 0.0169 -0.0093 0.0082 -0.0041 0.0167 -0.008 0.035 -0.014 0.0192 -0.0062 0.001 -0.0003 0.0355 -0.0091 0.0185 -0.0034 0.0237 -0.0034 0.0474 -0.0025 0.0008 0 0.027 0.0008 0.0519 0.0065 0.0315 0.0071 0.0079 0.0022 0.0505 0.0179 0.0341 0.0165 0.0343 0.0205 0.0195 0.0139 0.0309 0.0255 0.0287 0.0288 0.0147 0.017 0.033 0.0464 0.0074 0.0124 0.0164 0.0316 0.013 0.0311 0.01 0.0299 0.0074 0.0286 0.0051 0.0268 0.0032 0.025 0.0017 0.0221 0.0005 0.0223 -0.8454 0.0074 0.0005 0.0203 0.0015 0.0201 0.003 0.023 0.0047 0.025 0.007 0.0268 0.0094 0.0283 0.0124 0.0295 0.0156 0.0302 0.0066 0.011 0.0322 0.0452 0.0137 0.016 0.0277 0.0276 0.0297 0.0247 0.0183 0.0129 0.0331 0.0199 0.0327 0.0157 0.0491 0.0175 0.0065 0.0018 0.0299 0.0067 0.0503 0.0063 0.0254 0.0008 -0.0008 0 0.0456 -0.0025 0.0219 -0.003 0.0167 -0.0032 0.0335 -0.0085 -0.001 0.0003 0.0172 -0.0056 0.033 -0.0132 0.0147 -0.007 0.0062 -0.0031 0.0147 -0.0081 0 0zm-12.4863 6.2516l12.0691 -6.987 0.4172 0.7354 -12.0691 6.987 -0.0025 0.0014 -0.4147 -0.7368zm0.4172 0.7354l-0.0025 0.0014 0.0054 -0.0031 -0.0029 0.0017zm0.1936 -0.3387l-0.8454 0.0064 0 0.0005 0.0004 -0.0205 0.0015 -0.0204 0.0022 -0.0202 0.0032 -0.0198 0.004 -0.0195 0.0047 -0.0189 0.0038 -0.0131 0.0056 -0.0173 0.0061 -0.0165 0.0005 -0.0012 0.0094 -0.0223 0.0041 -0.0087 0.0072 -0.0146 0.0118 -0.021 0.0006 -0.0011 0.0081 -0.0132 0.0007 -0.0011 0.0136 -0.0202 0.0149 -0.0196 0.0008 -0.001 0.0089 -0.0109 0.0089 -0.0102 0.0084 -0.009 0.009 -0.0093 0.0092 -0.0089 0.0182 -0.0164 0.0025 -0.0021 0.0092 -0.0076 0.0197 -0.0149 0.0044 -0.003 0.0211 -0.014 0.0144 -0.0085 0.4122 0.7382 0.0122 -0.0073 0.0191 -0.0126 0.0024 -0.0016 0.0175 -0.0133 0.0074 -0.006 0.0005 -0.0005 0.0162 -0.0146 0.0074 -0.0071 0.0072 -0.0075 0.0066 -0.007 0.0071 -0.0082 0.0073 -0.0089 -0.0008 0.001 0.0133 -0.0176 0.0122 -0.018 -0.0007 0.0011 0.0067 -0.011 -0.0006 0.0011 0.0104 -0.0188 0.0062 -0.0122 0.0029 -0.0065 0.0086 -0.0201 -0.0005 0.0012 0.0053 -0.0143 0.0048 -0.0149 0.0032 -0.0109 0.0041 -0.0167 0.0036 -0.0173 0.0028 -0.0176 0.002 -0.018 0.0013 -0.0182 0.0004 -0.0183 0 0.0005zm0 -0.0005l0 0.0005 0 0 0 -0.0005zm-0.862 13.9595l0.0166 -13.9526 0.8454 -0.0064 -0.0166 13.9526 -0.8454 0.0069 0 -0.0005zm0 0.0005l0 -0.0005 0 0 0 0.0005zm0.2345 -0.363l0.4172 0.7354 0.001 -0.0006 -0.0179 0.0099 -0.0155 0.0077 -0.0165 0.0075 -0.0106 0.0043 -0.0184 0.007 -0.0332 0.0101 -0.0168 0.0041 -0.0231 0.0045 -0.0237 0.0033 -0.024 0.002 -0.0243 0.0006 -0.027 -0.0008 -0.0519 -0.0065 -0.0315 -0.0071 -0.0079 -0.0022 -0.0264 -0.0085 -0.0582 -0.0258 -0.0343 -0.0206 -0.0195 -0.0138 -0.0309 -0.0256 -0.0287 -0.0287 -0.0256 -0.031 -0.0139 -0.0196 -0.0156 -0.0252 -0.0164 -0.0317 -0.0097 -0.0224 -0.0133 -0.0385 -0.0074 -0.0286 -0.0051 -0.0268 -0.0032 -0.025 -0.0017 -0.0221 -0.0005 -0.0223 0.8454 -0.0074 -0.0005 -0.0203 -0.0015 -0.0201 -0.003 -0.023 -0.0047 -0.025 -0.007 -0.0268 -0.0127 -0.0369 -0.0091 -0.021 -0.0156 -0.0301 -0.0148 -0.024 -0.0131 -0.0184 -0.0246 -0.0298 -0.0277 -0.0277 -0.0297 -0.0246 -0.0183 -0.013 -0.0331 -0.0198 -0.0568 -0.0252 -0.025 -0.0081 -0.0065 -0.0018 -0.0299 -0.0067 -0.0503 -0.0063 -0.0254 -0.0008 -0.0225 0.0006 -0.0222 0.0018 -0.0219 0.0031 -0.0213 0.0041 -0.015 0.0037 -0.0312 0.0095 -0.0164 0.0062 -0.0086 0.0035 -0.0143 0.0065 -0.0135 0.0067 -0.0157 0.0087 0.001 -0.0006zm-0.001 0.0006l0.001 -0.0006 0.0047 -0.0027 -0.0057 0.0033zm12.4874 -6.252l-12.0692 6.9868 -0.4172 -0.7354 12.0692 -6.9868 0.4229 0.732 -0.0057 0.0034zm0.0057 -0.0034l-0.0048 0.0029 -0.0009 0.0005 0.0057 -0.0034zm-0.6165 -0.3934l0.8454 -0.0064 0 -0.0005 -0.0005 0.0214 -0.0015 0.0212 -0.0021 0.0184 -0.0026 0.0166 -0.0037 0.0188 -0.0056 0.0229 -0.0054 0.0183 -0.004 0.012 -0.0004 0.0012 -0.0086 0.0226 -0.0105 0.0238 -0.0006 0.0012 -0.0038 0.0079 -0.0151 0.0276 -0.0007 0.0011 -0.0006 0.0011 -0.021 0.0323 -0.0086 0.0116 -0.0008 0.0011 -0.0071 0.009 -0.0008 0.001 -0.0089 0.0109 -0.0164 0.0182 -0.0173 0.0173 -0.001 0.0009 -0.0009 0.0009 -0.0182 0.0164 -0.0108 0.0089 -0.0196 0.0149 -0.0125 0.0085 -0.001 0.0007 -0.0183 0.0116 -0.4286 -0.7286 -0.0161 0.0102 0.001 -0.0007 -0.0103 0.0071 -0.0176 0.0133 -0.0088 0.0073 -0.0162 0.0146 0.0009 -0.0009 0.001 -0.0009 -0.0155 0.0155 -0.0146 0.0162 -0.0073 0.0089 0.0008 -0.001 -0.0055 0.007 0.0008 -0.0011 -0.007 0.0096 -0.0196 0.0301 0.0006 -0.0011 0.0007 -0.0011 -0.0139 0.0254 -0.0028 0.0057 0.0006 -0.0012 -0.0095 0.0216 -0.0078 0.0204 0.0004 -0.0012 -0.0032 0.0098 -0.0048 0.0161 -0.005 0.0207 -0.0033 0.0164 -0.0022 0.0144 -0.0019 0.0162 -0.0013 0.0192 -0.0005 0.0192 0 -0.0005zm0 0.0005l0 -0.0005 0 0 0 0.0005z"/>
   </g>
   <g>
    <path class="fil4" d="M15.8679 27.9602l12.0831 6.9759c0.0098,0.0059 0.0086,0.0155 -0.0028,0.0223l-12.0936 6.9442c-0.0116,0.0063 -0.0284,0.0073 -0.038,0.0015l-12.0828 -6.9759c-0.01,-0.0056 -0.0087,-0.0154 0.0026,-0.0219l12.0937 -6.9445c0.0116,-0.0065 0.0283,-0.0073 0.0378,-0.0016z"/>
    <path id="1" class="fil1" d="M27.7365 35.3003l-12.0831 -6.9759 0.429 -0.7284 12.0831 6.9759 0.0068 0.004 -0.4358 0.7244zm0.429 -0.7284l0.0038 0.0022 0.003 0.0018 -0.0068 -0.004zm-0.0036 0.7512l-0.4274 -0.7294 -0.0061 0.0036 -0.0129 0.008 -0.0196 0.0136 -0.0079 0.0059 -0.0084 0.0068 -0.019 0.0166 -0.0098 0.0095 -0.0101 0.0105 -0.0198 0.0229 -0.0101 0.0133 -0.0142 0.0206 -0.0169 0.0288 -0.0096 0.0193 -0.0175 0.044 -0.0072 0.0237 -0.0058 0.025 -0.0043 0.0259 -0.0027 0.0267 -0.0009 0.027 0.0042 0.0583 0.0097 0.0479 -0.0002 -0.0008 0.0101 0.0322 0.0195 0.0458 0.0106 0.0199 0.019 0.0301 0.0243 0.0318 0.0115 0.0129 0.0234 0.0234 0.0092 0.0082 0.0225 0.0182 0.0234 0.0163 0.0108 0.0067 0.4426 -0.7204 0.0126 0.0079 0.025 0.0173 0.0241 0.0196 0.0106 0.0094 0.0246 0.0246 0.0127 0.0143 0.0253 0.033 0.0198 0.0315 0.0114 0.0213 0.0201 0.0472 0.0105 0.0336 0.0002 0.0008 0.0101 0.0493 0.0042 0.0597 -0.0009 0.0286 -0.0029 0.0281 -0.0045 0.0275 -0.0062 0.0264 -0.0076 0.0253 -0.0181 0.0454 -0.0104 0.0209 -0.0177 0.0302 -0.0152 0.022 -0.0113 0.0149 -0.021 0.0243 -0.0115 0.0119 -0.0112 0.0109 -0.0206 0.018 -0.0102 0.0082 -0.0097 0.0073 -0.0216 0.015 -0.0149 0.0092 -0.0061 0.0036zm0.0061 -0.0036l-0.0044 0.0026 -0.0017 0.001 0.0061 -0.0036zm-12.5271 6.2184l12.0936 -6.9442 0.4274 0.7294 -12.0936 6.9442 -0.0089 0.005 -0.4185 -0.7344zm0.4274 0.7294l-0.0053 0.0031 -0.0036 0.0019 0.0089 -0.005zm-0.4662 0.001l0.429 -0.7284 0.0074 0.0043 -0.0211 -0.0119 -0.0069 -0.0036 -0.0148 -0.0069 -0.0393 -0.0154 -0.0045 -0.0015 -0.0161 -0.0047 -0.0207 -0.0051 0.0012 0.0003 -0.0165 -0.0033 -0.0192 -0.0028 -0.0178 -0.0019 0.0013 0.0001 -0.0159 -0.0009 -0.0159 -0.0003 0.0013 0 -0.016 0.0003 -0.0145 0.0008 0.0013 -0.0001 -0.015 0.0015 -0.0148 0.002 -0.0145 0.0025 -0.0142 0.003 -0.0023 0.0005 0.0012 -0.0003 -0.0143 0.0038 -0.0188 0.0057 -0.0138 0.0049 -0.0131 0.0052 0.0012 -0.0005 -0.0049 0.0021 -0.0196 0.0091 -0.0117 0.0061 0.4096 0.7394 -0.0139 0.0073 -0.0218 0.0101 -0.0073 0.0031 -0.0012 0.0005 -0.0155 0.0062 -0.0162 0.0057 -0.0212 0.0065 -0.0169 0.0044 -0.0012 0.0003 -0.0049 0.0011 -0.0168 0.0036 -0.0171 0.0029 -0.0174 0.0024 -0.0176 0.0017 -0.0013 0.0001 -0.0171 0.001 -0.0184 0.0003 -0.0013 0 -0.0185 -0.0003 -0.0183 -0.0011 -0.0013 -0.0001 -0.0202 -0.0021 -0.0216 -0.0032 -0.0187 -0.0037 -0.0012 -0.0003 -0.0229 -0.0055 -0.0183 -0.0055 -0.0067 -0.0021 -0.0413 -0.0162 -0.0168 -0.0079 -0.0089 -0.0046 -0.0229 -0.0129 0.0074 0.0043zm0.429 -0.7284l0.0064 0.0037 0.001 0.0006 -0.0074 -0.0043zm-12.0828 -6.9759l12.0828 6.9759 -0.429 0.7284 -12.0828 -6.9759 0.4242 -0.7312 0.0048 0.0028zm-0.0048 -0.0028l0.0048 0.0028 -0.0065 -0.0037 0.0017 0.0009zm-0.4208 -0.0196l0.4274 0.7294 0.0003 -0.0001 0.0187 -0.0115 0.0074 -0.0049 0.008 -0.0057 0.0205 -0.0158 0.019 -0.0166 0.0098 -0.0095 0.0101 -0.0105 0.0221 -0.0258 0.011 -0.0148 0.0073 -0.0104 0.0206 -0.0346 0.0191 -0.041 -0.0003 0.0008 0.0052 -0.0139 0.0161 -0.058 0.0071 -0.0533 0.0009 -0.0271 0 0.0008 -0.0011 -0.029 -0.0081 -0.0571 -0.0149 -0.0523 -0.0091 -0.0235 -0.0101 -0.0216 -0.0106 -0.0199 -0.0226 -0.0351 -0.0206 -0.0267 -0.0233 -0.0252 -0.0232 -0.0216 -0.0104 -0.0085 -0.0097 -0.0076 -0.0234 -0.0162 -0.0224 -0.0136 -0.4194 0.734 -0.0242 -0.0146 -0.025 -0.0174 -0.0113 -0.0088 -0.0118 -0.0097 -0.0246 -0.0228 -0.0243 -0.0264 -0.0218 -0.0281 -0.0234 -0.0365 -0.0114 -0.0213 -0.0107 -0.023 -0.0097 -0.0249 -0.0153 -0.0537 -0.0083 -0.0585 -0.0011 -0.0304 0 -0.0008 0.0009 -0.0285 0.0073 -0.0549 0.0165 -0.0594 0.0058 -0.0153 0.0003 -0.0008 0.0197 -0.0424 0.0216 -0.0362 0.0083 -0.0118 0.012 -0.0162 0.0233 -0.0272 0.0115 -0.0119 0.0112 -0.0109 0.0206 -0.018 0.0223 -0.0172 0.0098 -0.0069 0.0094 -0.0063 0.0207 -0.0127 0.0003 -0.0001zm12.5211 -6.2151l-12.0937 6.9445 -0.4274 -0.7294 12.0937 -6.9445 0.0039 -0.0022 0.4235 0.7316zm-0.4274 -0.7294l0.0039 -0.0022 -0.0028 0.0016 -0.0011 0.0006zm0.466 -0.0011l-0.429 0.7284 -0.0062 -0.0036 0.0199 0.0112 0.0227 0.011 0.0157 0.0067 -0.001 -0.0004 0.0226 0.0083 0.0217 0.0066 0.0035 0.0009 0.0196 0.0046 0.0128 0.0025 0.017 0.0025 0.0201 0.0022 -0.0013 -0.0001 0.0159 0.0009 0.0159 0.0003 -0.0012 0 0.0152 -0.0003 0.0152 -0.0008 0.015 -0.0015 0.0007 0 -0.0012 0.0001 0.0286 -0.0045 0.0142 -0.003 0.0023 -0.0005 0.0144 -0.0038 0.0138 -0.0041 0.0037 -0.0012 -0.0012 0.0004 0.0138 -0.0049 0.0131 -0.0052 0.0189 -0.0084 0.0191 -0.0098 0.0032 -0.0018 -0.4196 -0.7338 0.0054 -0.003 0.0213 -0.011 0.0213 -0.0094 0.0155 -0.0062 0.0162 -0.0057 0.0012 -0.0004 0.0061 -0.002 0.0164 -0.0049 0.0168 -0.0044 0.0049 -0.0011 0.0168 -0.0036 0.0312 -0.0049 0.0012 -0.0001 0.0033 -0.0004 0.0176 -0.0017 0.0178 -0.001 0.0178 -0.0003 0.0012 0 0.0185 0.0003 0.0183 0.0011 0.0013 0.0001 0.0225 0.0024 0.0192 0.0029 0.0152 0.0029 0.022 0.0052 0.0057 0.0015 0.0239 0.0072 0.0246 0.0091 0.001 0.0004 0.0177 0.0075 0.0247 0.012 0.0217 0.0122 -0.0062 -0.0036zm-0.429 0.7284l-0.0062 -0.0036 0.0009 0.0005 0.0053 0.0031z"/>
   </g>
   <g>
    <path class="fil4" d="M40.0983 27.9602l12.0829 6.9759c0.0099,0.0056 0.0087,0.0153 -0.0027,0.022l-12.0937 6.9443c-0.0116,0.0065 -0.0281,0.0073 -0.0378,0.0017l-12.0829 -6.9759c-0.01,-0.0056 -0.0089,-0.0154 0.0025,-0.0219l12.0937 -6.9445c0.0117,-0.0065 0.0283,-0.0073 0.038,-0.0016z"/>
    <path id="1" class="fil1" d="M51.9667 35.3003l-12.0829 -6.9759 0.429 -0.7284 12.0829 6.9759 -0.4258 0.7303 -0.0032 -0.0019zm0.0032 0.0019l-0.0032 -0.0019 0.0077 0.0044 -0.0045 -0.0025zm0.4223 0.0206l-0.4274 -0.7294 -0.0037 0.0021 -0.0153 0.0095 -0.0196 0.0136 0.0042 -0.0031 -0.0084 0.0063 -0.0311 0.0262 -0.0199 0.02 -0.0097 0.0107 -0.0009 0.0011 -0.0109 0.0132 -0.0295 0.0429 -0.01 0.0176 -0.0096 0.0194 -0.0175 0.0439 -0.0072 0.0238 -0.0058 0.0249 -0.0043 0.026 -0.0027 0.0266 0.0002 0.0568 0.003 0.0286 0.0038 0.0222 0.0058 0.0249 0.0195 0.0564 0.0159 0.0329 0.0118 0.0205 0.0155 0.0233 0.0207 0.0267 0.0232 0.0252 0.0117 0.0112 0.022 0.0189 0.0097 0.0076 0.0234 0.0162 0.0208 0.0127 0.4226 -0.7322 0.0226 0.0137 0.025 0.0174 0.0113 0.0088 0.0234 0.0201 0.0129 0.0124 0.0244 0.0264 0.0217 0.0281 0.0165 0.0247 0.0124 0.0217 0.0167 0.0343 0.0199 0.0578 0.0062 0.0265 0.004 0.0236 0.0032 0.03 0.0002 0.0582 -0.0029 0.0282 -0.0045 0.0274 -0.0062 0.0265 -0.0076 0.0252 -0.0181 0.0455 -0.0104 0.0208 -0.0108 0.0192 -0.0305 0.0443 -0.0121 0.0146 -0.0021 0.0025 -0.0111 0.0123 -0.0213 0.0214 -0.0327 0.0276 -0.0102 0.0075 0.0024 -0.0017 -0.0216 0.015 -0.0173 0.0107 -0.0037 0.0021zm0.0037 -0.0021l-0.0037 0.0021 0.0055 -0.0032 -0.0018 0.0011zm-12.5248 6.217l12.0937 -6.9443 0.4274 0.7294 -12.0937 6.9443 -0.0039 0.0022 -0.4235 -0.7316zm0.4274 0.7294l-0.0039 0.0022 0.0028 -0.0016 0.0011 -0.0006zm-0.466 0.0012l0.429 -0.7284 0 0 -0.0137 -0.0076 -0.0227 -0.011 -0.0157 -0.0067 -0.0056 -0.0022 -0.0215 -0.0075 -0.0161 -0.0048 -0.0207 -0.005 -0.0164 -0.0033 0.0011 0.0002 -0.0192 -0.0028 -0.0178 -0.0019 0.0013 0.0001 -0.0159 -0.0009 -0.0159 -0.0003 0.0012 0 -0.0152 0.0003 -0.0165 0.0009 0.0012 -0.0001 -0.0137 0.0014 -0.0148 0.002 -0.0176 0.0031 -0.0148 0.0032 0.0049 -0.0011 -0.0179 0.0046 -0.0033 0.0009 -0.0143 0.0045 -0.0138 0.0048 0.0012 -0.0004 -0.0131 0.0052 -0.0189 0.0084 -0.0191 0.0098 -0.0032 0.0018 0.4196 0.7338 -0.0054 0.003 -0.0213 0.011 -0.0213 0.0094 -0.0155 0.0062 -0.0012 0.0004 -0.0162 0.0058 -0.0167 0.0051 -0.0057 0.0017 -0.0205 0.0052 0.0023 -0.0005 -0.0172 0.0038 -0.0202 0.0035 -0.0174 0.0024 -0.0163 0.0016 -0.0012 0.0001 -0.0191 0.0011 -0.0178 0.0003 -0.0012 0 -0.0185 -0.0003 -0.0183 -0.0011 -0.0013 -0.0001 -0.0202 -0.0021 -0.0216 -0.0032 -0.0011 -0.0002 -0.0188 -0.0037 -0.0229 -0.0056 -0.0183 -0.0054 -0.0237 -0.0083 -0.0076 -0.003 -0.0177 -0.0075 -0.0247 -0.012 -0.0155 -0.0086 0 0zm-11.6539 -7.7043l12.0829 6.9759 -0.429 0.7284 -12.0829 -6.9759 0.4242 -0.7312 0.0048 0.0028zm-0.0048 -0.0028l0.0048 0.0028 -0.0065 -0.0037 0.0017 0.0009zm-0.4209 -0.0196l0.4274 0.7294 -0.0011 0.0007 0.0201 -0.0123 0.0074 -0.0049 0.008 -0.0057 0.0205 -0.0158 0.019 -0.0166 0.0098 -0.0095 0.0101 -0.0105 0.0106 -0.0119 0.0224 -0.0287 0.0181 -0.0274 0.0099 -0.0176 0.0191 -0.041 -0.0003 0.0008 0.0052 -0.0139 0.0161 -0.058 0.0071 -0.0533 0.0009 -0.0271 -0.0009 -0.027 -0.0032 -0.0305 -0.005 -0.0278 -0.0149 -0.0523 -0.0091 -0.0235 -0.0101 -0.0216 -0.0106 -0.0199 -0.011 -0.0181 -0.0323 -0.0437 -0.0355 -0.037 -0.0109 -0.0098 -0.0104 -0.0085 -0.0097 -0.0076 -0.0234 -0.0162 -0.0224 -0.0136 -0.4194 0.734 -0.0242 -0.0146 -0.025 -0.0174 -0.0113 -0.0088 -0.0118 -0.0097 -0.0123 -0.011 -0.0367 -0.0382 -0.0333 -0.0451 -0.0118 -0.0195 -0.0114 -0.0213 -0.0107 -0.023 -0.0097 -0.0249 -0.0153 -0.0537 -0.0052 -0.0292 -0.0034 -0.0319 -0.0009 -0.0286 0.0009 -0.0285 0.0073 -0.0549 0.0165 -0.0594 0.0058 -0.0153 0.0003 -0.0008 0.0197 -0.0424 0.0109 -0.0192 0.0189 -0.0288 0.0236 -0.0301 0.0118 -0.0133 0.0115 -0.0119 0.0112 -0.0109 0.0206 -0.018 0.0223 -0.0172 0.0098 -0.0069 0.0094 -0.0063 0.0221 -0.0135 -0.0011 0.0007zm0.4274 0.7294l-0.0011 0.0007 -0.0169 0.0096 0.018 -0.0103zm12.0937 -6.9445l-12.0937 6.9445 -0.4274 -0.7294 12.0937 -6.9445 0.0053 -0.003 0.4221 0.7324zm-0.4274 -0.7294l0.003 -0.0017 0.0023 -0.0013 -0.0053 0.003zm0.4662 -0.0011l-0.429 0.7284 -0.0029 -0.0016 0.0166 0.0092 0.0227 0.011 0.0157 0.0067 0.0056 0.0022 0.0215 0.0075 0.0161 0.0048 0.0035 0.0009 0.0196 0.0046 0.0158 0.003 0.0162 0.0023 0.0164 0.0017 -0.0012 -0.0001 0.0173 0.0011 0.0159 0.0003 -0.0013 0 0.0159 -0.0003 0.0159 -0.0009 0.0137 -0.0014 -0.0013 0.0002 -0.0013 0.0001 0.0306 -0.0047 0.0178 -0.0038 -0.0012 0.0003 0.0143 -0.0038 0.0139 -0.0041 -0.0013 0.0004 0.0037 -0.0012 0.0138 -0.0049 0.0131 -0.0052 0.0189 -0.0084 0.0191 -0.0098 0.0018 -0.001 -0.4168 -0.7354 0.004 -0.0022 0.0213 -0.011 0.0213 -0.0094 0.0155 -0.0062 0.0162 -0.0057 0.0061 -0.002 0.0013 -0.0004 0.0163 -0.0049 0.0169 -0.0044 0.0012 -0.0003 0.0204 -0.0044 0.0332 -0.0051 0.0013 -0.0001 0.0013 -0.0002 0.0163 -0.0016 0.0183 -0.0011 0.0185 -0.0003 0.0013 0 0.0185 0.0003 0.0197 0.0013 0.0012 0.0001 0.0188 0.0019 0.0186 0.0027 0.0182 0.0034 0.022 0.0052 0.0057 0.0015 0.0183 0.0054 0.0237 0.0083 0.0076 0.003 0.0177 0.0075 0.0247 0.012 0.0184 0.0102 -0.0029 -0.0016zm-0.429 0.7284l-0.0029 -0.0016 -0.0072 -0.0042 0.0101 0.0058z"/>
   </g>
   <g>
    <path class="fil5" d="M27.9782 7.031l12.0829 6.976c0.01,0.0056 0.0087,0.0152 -0.0027,0.022l-12.0937 6.9443c-0.0116,0.0065 -0.0283,0.0073 -0.038,0.0016l-12.0828 -6.9759c-0.0099,-0.0056 -0.0087,-0.0153 0.0026,-0.0219l12.0937 -6.9444c0.0117,-0.0066 0.0284,-0.0073 0.038,-0.0017z"/>
    <path id="1" class="fil1" d="M39.8466 14.3712l-12.0829 -6.976 0.429 -0.7284 12.0829 6.976 -0.4242 0.7312 -0.0048 -0.0028zm0.0048 0.0028l-0.0048 -0.0028 0.0065 0.0037 -0.0017 -0.0009zm0.4207 0.0197l-0.4274 -0.7294 -0.0061 0.0036 -0.0129 0.008 -0.0196 0.0136 -0.0079 0.0059 -0.0084 0.0068 -0.019 0.0166 -0.0098 0.0095 -0.0101 0.0105 -0.0198 0.0229 -0.0101 0.0133 -0.0142 0.0206 -0.0169 0.0288 -0.0096 0.0193 -0.0091 0.0209 -0.0155 0.0468 -0.0059 0.025 -0.0042 0.0259 -0.0037 0.0545 0 -0.0007 0.0037 0.0544 0.0054 0.0316 0.0067 0.0266 0.0174 0.0492 0.0101 0.0216 0.0176 0.0317 0.0245 0.0354 0.0117 0.0147 0.0233 0.0252 0.0232 0.0216 0.0104 0.0085 0.0097 0.0076 0.0234 0.0162 0.0224 0.0136 0.4194 -0.734 0.0242 0.0146 0.025 0.0174 0.0113 0.0088 0.0118 0.0097 0.0246 0.0228 0.0243 0.0264 0.0129 0.0161 0.0253 0.0366 0.0184 0.0331 0.0107 0.023 0.018 0.0506 0.0069 0.028 0.0058 0.033 0.0037 0.056 0 0.0007 -0.0037 0.0559 -0.0046 0.0275 -0.0061 0.0264 -0.0161 0.0484 -0.0097 0.0223 -0.0104 0.0209 -0.0177 0.0302 -0.0152 0.022 -0.0113 0.0149 -0.021 0.0243 -0.0115 0.0119 -0.0112 0.0109 -0.0206 0.018 -0.0102 0.0082 -0.0097 0.0073 -0.0216 0.015 -0.0149 0.0092 -0.0061 0.0036zm0.0061 -0.0036l-0.0044 0.0026 -0.0017 0.001 0.0061 -0.0036zm-12.5272 6.2185l12.0937 -6.9443 0.4274 0.7294 -12.0937 6.9443 -0.0039 0.0022 -0.4235 -0.7316zm0.4274 0.7294l-0.0039 0.0022 0.0028 -0.0016 0.0011 -0.0006zm-0.4662 0.0011l0.429 -0.7284 0.0029 0.0016 -0.0166 -0.0092 -0.0227 -0.011 -0.0157 -0.0067 -0.0056 -0.0022 -0.0215 -0.0075 -0.0161 -0.0048 -0.0035 -0.0009 -0.0196 -0.0046 -0.0158 -0.003 -0.0162 -0.0023 -0.0164 -0.0017 -0.0002 -0.0001 -0.0158 -0.0009 -0.016 -0.0003 0.0013 0 -0.0152 0.0003 -0.0152 0.0008 -0.017 0.0017 0.0012 -0.0002 0.0033 -0.0003 -0.0306 0.0047 -0.0142 0.003 -0.0023 0.0005 -0.0144 0.0038 -0.0138 0.0041 -0.0037 0.0012 0.0012 -0.0004 -0.0138 0.0049 -0.0131 0.0052 -0.0189 0.0084 -0.0191 0.0098 -0.0032 0.0018 0.4196 0.7338 -0.0054 0.003 -0.0213 0.011 -0.0213 0.0094 -0.0155 0.0062 -0.0162 0.0057 -0.0012 0.0004 -0.0061 0.002 -0.0164 0.0049 -0.0168 0.0044 -0.0049 0.0011 -0.0168 0.0036 -0.0332 0.0051 0.0007 -0.0001 -0.0012 0.0002 -0.0196 0.0019 -0.0178 0.001 -0.0178 0.0003 -0.0013 0 -0.0184 -0.0003 -0.0184 -0.0011 -0.0026 -0.0003 -0.0188 -0.0019 -0.0186 -0.0027 -0.0182 -0.0034 -0.022 -0.0052 -0.0057 -0.0015 -0.0183 -0.0054 -0.0237 -0.0083 -0.0076 -0.003 -0.0177 -0.0075 -0.0247 -0.012 -0.0184 -0.0102 0.0029 0.0016zm0.429 -0.7284l0.0029 0.0016 0.0072 0.0042 -0.0101 -0.0058zm-12.0828 -6.9759l12.0828 6.9759 -0.429 0.7284 -12.0828 -6.9759 0.4258 -0.7303 0.0032 0.0019zm-0.0032 -0.0019l0.0032 0.0019 -0.0077 -0.0044 0.0045 0.0025zm-0.4224 -0.0205l0.4274 0.7294 0.0027 -0.0016 0.0163 -0.01 0.0074 -0.0049 0.008 -0.0057 0.0205 -0.0158 0.019 -0.0166 0.0098 -0.0095 0.0101 -0.0105 0.0221 -0.0258 0.0188 -0.0259 0.0102 -0.0162 0.01 -0.0177 0.0096 -0.0193 0.0146 -0.0355 0.0101 -0.0323 -0.0002 0.0008 0.0102 -0.0517 0.0037 -0.0544 -0.0011 -0.029 -0.003 -0.0286 -0.0038 -0.0222 -0.0058 -0.0249 -0.0195 -0.0564 -0.0159 -0.0329 -0.0118 -0.0205 -0.0155 -0.0233 -0.0207 -0.0267 -0.0232 -0.0252 -0.0117 -0.0112 -0.022 -0.0189 -0.0097 -0.0076 -0.0234 -0.0162 -0.0208 -0.0127 -0.4226 0.7322 -0.0226 -0.0137 -0.025 -0.0174 -0.0113 -0.0088 -0.0234 -0.0201 -0.0129 -0.0124 -0.0244 -0.0264 -0.0217 -0.0281 -0.0165 -0.0247 -0.0124 -0.0217 -0.0167 -0.0343 -0.0199 -0.0578 -0.0062 -0.0265 -0.004 -0.0236 -0.0032 -0.03 -0.0011 -0.0304 0.0037 -0.056 0.0106 -0.0531 0.0002 -0.0008 0.0105 -0.0337 0.0152 -0.0369 0.0104 -0.0209 0.0108 -0.0191 0.0112 -0.0178 0.0198 -0.0273 0.0233 -0.0272 0.0115 -0.0119 0.0112 -0.0109 0.0206 -0.018 0.0223 -0.0172 0.0098 -0.0069 0.0094 -0.0063 0.0183 -0.0112 0.0027 -0.0016zm-0.0027 0.0016l0.0027 -0.0016 0.0023 -0.0013 -0.005 0.0029zm12.5238 -6.2166l-12.0937 6.9444 -0.4274 -0.7294 12.0937 -6.9444 0.0029 -0.0016 0.4245 0.731zm-0.4274 -0.7294l0.0029 -0.0016 -0.0064 0.0036 0.0035 -0.002zm0.4662 -0.0012l-0.429 0.7284 -0.0017 -0.0009 0.0154 0.0085 0.0227 0.011 0.0157 0.0067 0.0056 0.0022 0.0215 0.0075 0.0161 0.0048 0.0167 0.0041 0.0205 0.0042 0.0018 0.0003 -0.0012 -0.0002 0.0183 0.0026 0.0327 0.0026 -0.0012 0 -0.0013 -0.0001 0.0332 0 -0.002 0.0001 0.0152 -0.0009 0.015 -0.0014 -0.0013 0.0001 0.0148 -0.002 0.0176 -0.0031 -0.0012 0.0003 0.0111 -0.0025 0.0179 -0.0045 -0.0012 0.0003 0.0138 -0.0041 0.0187 -0.0065 0.0131 -0.0052 -0.0012 0.0005 0.0189 -0.0084 0.0191 -0.0098 0.0042 -0.0024 -0.4216 -0.7326 0.0064 -0.0036 0.0213 -0.011 0.0213 -0.0094 0.0012 -0.0005 0.0155 -0.0062 0.0211 -0.0073 0.0164 -0.0049 0.0012 -0.0003 0.0205 -0.0053 0.0137 -0.0029 0.0012 -0.0003 0.0202 -0.0035 0.0174 -0.0024 0.0013 -0.0001 0.0176 -0.0018 0.0178 -0.0009 0.0006 -0.0001 0.0356 0 0.0013 0.0001 0.0012 0 0.0353 0.0028 0.0207 0.003 0.0012 0.0002 0.0042 0.0007 0.0227 0.0046 0.0189 0.0047 0.0183 0.0054 0.0237 0.0083 0.0076 0.003 0.0177 0.0075 0.0247 0.012 0.0172 0.0095 -0.0017 -0.0009zm-0.429 0.7284l-0.0017 -0.0009 -0.0136 -0.0079 0.0153 0.0088z"/>
   </g>
   <g>
    <path class="fil6" d="M27.978 49.0249l12.0828 6.976c0.0101,0.0057 0.0087,0.0155 -0.0027,0.0222l-12.0934 6.9441c-0.0116,0.0065 -0.0286,0.0073 -0.0382,0.0016l-12.0828 -6.9759c-0.0099,-0.0057 -0.0087,-0.0153 0.0026,-0.0218l12.0937 -6.9445c0.0116,-0.0065 0.0284,-0.0073 0.038,-0.0017z"/>
    <path id="1" class="fil1" d="M39.8463 56.3651l-12.0828 -6.976 0.429 -0.7284 12.0828 6.976 -0.4254 0.7305 -0.0036 -0.0021zm0.0036 0.0021l-0.0036 -0.0021 0.0053 0.003 -0.0017 -0.0009zm0.4219 0.0206l-0.4274 -0.7294 -0.0037 0.0021 -0.0153 0.0095 -0.0196 0.0136 0.0042 -0.0031 -0.0084 0.0063 -0.0311 0.0262 -0.0199 0.02 0.0007 -0.0008 -0.0112 0.0126 -0.0303 0.0398 0.0005 -0.0008 -0.0206 0.0347 -0.0191 0.0409 0.0003 -0.0007 -0.0081 0.0223 -0.0132 0.0495 -0.0043 0.0259 -0.0027 0.0267 0 0.0548 0.0032 0.0305 0.0038 0.0222 0.0132 0.0494 0.012 0.0319 0.0101 0.0216 0.0176 0.0317 0.012 0.0184 0.0146 0.0198 0.0212 0.0248 0.035 0.0338 0.0103 0.0085 0.0098 0.0076 0.0326 0.0221 0.0119 0.007 0.4218 -0.7326 0.0137 0.008 0.0344 0.0233 0.0112 0.0088 0.0119 0.0097 0.0362 0.035 0.0224 0.0262 0.0156 0.0212 0.0128 0.0196 0.0184 0.0331 0.0107 0.023 0.0126 0.0333 0.0136 0.051 0.004 0.0236 0.0034 0.0319 0 0.0564 -0.0029 0.0281 -0.0045 0.0275 -0.0136 0.0509 -0.0087 0.0239 -0.0003 0.0007 -0.0197 0.0425 -0.0216 0.0361 -0.0005 0.0008 -0.0313 0.0412 -0.0126 0.014 -0.0007 0.0008 -0.0213 0.0214 -0.0327 0.0276 -0.0102 0.0075 0.0024 -0.0017 -0.0216 0.015 -0.0173 0.0107 -0.0037 0.0021zm0.0037 -0.0021l-0.0037 0.0021 0.0055 -0.0032 -0.0018 0.0011zm-12.5245 6.2168l12.0934 -6.9441 0.4274 0.7294 -12.0934 6.9441 -0.0039 0.0022 -0.4235 -0.7316zm0.4274 0.7294l-0.0039 0.0022 0.0028 -0.0016 0.0011 -0.0006zm-0.4664 0.0011l0.429 -0.7284 0.0045 0.0026 -0.0182 -0.0102 -0.0227 -0.011 -0.0157 -0.0067 -0.0056 -0.0022 -0.0215 -0.0075 -0.0161 -0.0048 -0.0035 -0.0009 -0.0196 -0.0046 -0.0158 -0.003 -0.0162 -0.0023 -0.0164 -0.0017 -0.0002 -0.0001 -0.0165 -0.0009 -0.0152 -0.0003 0.0013 0 -0.016 0.0003 -0.0145 0.0008 -0.015 0.0015 0.0013 -0.0002 0.0013 -0.0001 -0.0306 0.0047 -0.0142 0.003 0.0013 -0.0003 -0.0179 0.0046 -0.0139 0.0041 0.0013 -0.0004 -0.0037 0.0012 -0.0138 0.0049 -0.0131 0.0052 -0.0189 0.0084 -0.0191 0.0098 -0.0032 0.0018 0.4196 0.7338 -0.0054 0.003 -0.0213 0.011 -0.0213 0.0094 -0.0155 0.0062 -0.0162 0.0057 -0.0061 0.002 -0.0013 0.0004 -0.0163 0.0049 -0.0205 0.0052 -0.0013 0.0003 -0.0168 0.0036 -0.0332 0.0051 -0.0013 0.0001 -0.0013 0.0002 -0.0176 0.0017 -0.0171 0.001 -0.0184 0.0003 -0.0013 0 -0.0178 -0.0003 -0.0191 -0.0011 -0.0026 -0.0003 -0.0188 -0.0019 -0.0186 -0.0027 -0.0182 -0.0034 -0.022 -0.0052 -0.0057 -0.0015 -0.0183 -0.0054 -0.0237 -0.0083 -0.0076 -0.003 -0.0177 -0.0075 -0.0247 -0.012 -0.02 -0.0112 0.0045 0.0026zm0.429 -0.7284l0.0044 0.0025 0.0001 0.0001 -0.0045 -0.0026zm-12.0828 -6.9759l12.0828 6.9759 -0.429 0.7284 -12.0828 -6.9759 0.4286 -0.7287 0.0004 0.0003zm-0.0004 -0.0003l0.0004 0.0003 -0.044 -0.0254 0.0436 0.0251zm-0.4252 -0.022l0.4274 0.7294 0.0003 -0.0001 0.0187 -0.0115 0.0074 -0.0049 0.008 -0.0057 0.0084 -0.0062 0.0194 -0.0159 0.0215 -0.0199 0.0101 -0.0105 0.0305 -0.037 0.0104 -0.0146 0.0033 -0.0052 0.0169 -0.0288 0.0096 -0.0193 0.0146 -0.0355 0.0101 -0.0323 -0.0002 0.0008 0.0097 -0.0479 0.0042 -0.0583 -0.0009 -0.027 -0.0032 -0.0305 -0.005 -0.0278 -0.0066 -0.0266 -0.0175 -0.0492 -0.01 -0.0216 -0.0107 -0.0199 -0.0314 -0.0471 -0.0118 -0.0148 -0.0115 -0.0129 -0.0234 -0.0234 -0.022 -0.0189 -0.0097 -0.0076 -0.0234 -0.0162 -0.018 -0.0111 -0.4282 0.729 -0.0198 -0.0121 -0.025 -0.0174 -0.0113 -0.0088 -0.0234 -0.0201 -0.0246 -0.0246 -0.0127 -0.0143 -0.0128 -0.016 -0.0324 -0.0485 -0.0113 -0.0213 -0.0108 -0.023 -0.0179 -0.0506 -0.007 -0.028 -0.0052 -0.0292 -0.0034 -0.0319 -0.0009 -0.0286 0.0042 -0.0597 0.0101 -0.0493 0.0002 -0.0008 0.0105 -0.0337 0.0152 -0.0369 0.0104 -0.0209 0.0177 -0.0302 0.0043 -0.0066 0.0114 -0.0162 0.0317 -0.0384 0.0115 -0.0119 0.0229 -0.0213 0.021 -0.0171 0.0102 -0.0076 0.0098 -0.0069 0.0094 -0.0063 0.0207 -0.0127 0.0003 -0.0001zm12.5211 -6.2151l-12.0937 6.9445 -0.4274 -0.7294 12.0937 -6.9445 0.0039 -0.0022 0.4235 0.7316zm-0.4274 -0.7294l0.0039 -0.0022 -0.0028 0.0016 -0.0011 0.0006zm0.4662 -0.0012l-0.429 0.7284 -0.0017 -0.0009 0.0154 0.0085 0.0227 0.011 0.0157 0.0067 0.0056 0.0022 0.0215 0.0075 0.0161 0.0048 0.0207 0.005 0.0164 0.0033 -0.0011 -0.0002 0.0192 0.0028 0.0178 0.0019 -0.0013 -0.0001 0.0159 0.0009 0.0159 0.0003 -0.0013 0 0.0159 -0.0003 0.0159 -0.0009 -0.0026 0.0002 0.015 -0.0015 0.0148 -0.002 0.0145 -0.0025 0.0142 -0.003 0.0023 -0.0005 0.0144 -0.0038 -0.0013 0.0004 0.0188 -0.0058 0.0138 -0.0048 -0.0012 0.0004 0.0131 -0.0052 0.0189 -0.0084 0.0191 -0.0098 0.0032 -0.0018 -0.4196 -0.7338 0.0054 -0.003 0.0213 -0.011 0.0213 -0.0094 0.0155 -0.0062 0.0012 -0.0004 0.0162 -0.0058 0.0212 -0.0064 0.0013 -0.0004 0.0168 -0.0044 0.0049 -0.0011 0.0168 -0.0036 0.0171 -0.0029 0.0174 -0.0024 0.0176 -0.0017 0 0 0.0183 -0.0011 0.0185 -0.0003 0.0013 0 0.0185 0.0003 0.0183 0.0011 0.0013 0.0001 0.0202 0.0021 0.0216 0.0032 0.0011 0.0002 0.0188 0.0037 0.0229 0.0056 0.0183 0.0054 0.0237 0.0083 0.0076 0.003 0.0177 0.0075 0.0247 0.012 0.0172 0.0095 -0.0017 -0.0009zm-0.429 0.7284l-0.0017 -0.0009 -0.0136 -0.0079 0.0153 0.0088z"/>
   </g>
   <line class="fil0 str2" x1="3.728" y1="48.8995" x2="29.8663" y2= "33.8086" />
   <line class="fil0 str3" x1="52.179" y1="48.9002" x2="23.6271" y2= "32.4159" />
   <path class="fil3" d="M76.3487 42.0221l8.123 -20.7197 1.138 0 7.1028 20.8767c0.5494,1.6481 0.9157,2.8385 1.0988,3.571 0.2092,-0.8633 0.5755,-2.0406 1.0988,-3.5317l7.2205 -21.4653 1.9621 0 -9.7713 28.2933 -1.0987 0 -7.2597 -20.7982c-0.1047,-0.34 -0.2159,-0.6802 -0.3336,-1.0202 -0.1178,-0.3401 -0.2159,-0.641 -0.2943,-0.9026 -0.0785,-0.2617 -0.157,-0.484 -0.2355,-0.6671l-0.1569 -0.4709c-0.0262,-0.1308 -0.0393,-0.2093 -0.0393,-0.2354 -0.314,0.9417 -0.7194,2.0274 -1.2165,3.257l-8.2015 20.8374 -1.0988 0 -9.8497 -28.2933 2.0798 0 7.1813 21.1121c0.3401,0.9417 0.6213,1.792 0.8436,2.5506 0.2225,0.7587 0.3467,1.1773 0.3728,1.2559 0.1309,-0.6017 0.5756,-1.8183 1.3343,-3.6496zm33.0808 6.7889l0 -25.468 1.8051 0 0 25.468 -1.8051 0zm16.3638 -24.3692c-1.4127,0 -2.5638,0.3401 -3.4532,1.0203 -0.8896,0.6802 -1.3343,1.6351 -1.3343,2.8646 0,1.4128 0.5886,2.6815 1.7659,3.8065 0.8371,0.811 1.9163,1.6677 3.2374,2.5703 1.3212,0.9026 2.2302,1.5501 2.7274,1.9425 0.497,0.3924 1.0987,0.9287 1.8051,1.6089 1.2819,1.2819 1.9228,2.76 1.9228,4.4343 0,2.1715 -0.726,3.813 -2.1779,4.9249 -1.452,1.1118 -3.4794,1.6678 -6.0825,1.6678 -2.603,0 -4.7809,-0.6802 -6.5337,-2.0406l0.9418 -1.3735c1.779,1.2035 3.6626,1.8052 5.6508,1.8052 1.9882,0 3.5383,-0.4186 4.6501,-1.2557 1.1119,-0.8372 1.6678,-2.0145 1.6678,-3.5318 0,-1.3081 -0.5625,-2.5116 -1.6873,-3.6103 -0.7849,-0.7849 -1.8379,-1.6351 -3.159,-2.5508 -1.3212,-0.9156 -2.2434,-1.5762 -2.7666,-1.9816 -0.5232,-0.4055 -1.138,-0.9484 -1.8444,-1.6286 -1.3342,-1.3341 -2.0013,-2.8777 -2.0013,-4.6305 0,-1.7528 0.6214,-3.1263 1.864,-4.1204 1.2427,-0.9942 2.9628,-1.4912 5.1603,-1.4912 2.1975,0 4.1727,0.4317 5.9255,1.295l-0.6671 1.4519c-1.622,-0.7847 -3.4926,-1.1772 -5.6116,-1.1772zm33.3949 24.3692l0 -12.8713 -17.6981 0 0 12.8713 -1.8052 0 0 -25.468 1.8052 0 0 10.9877 17.6981 0 0 -10.9877 1.805 0 0 25.468 -1.805 0zm28.5681 -28.0579l-11.9296 13.5776c1.5959,1.9098 3.4337,4.0419 5.5135,6.3965 2.0798,2.3545 3.4271,3.8065 4.0419,4.3558 0.6148,0.5494 1.0988,0.9615 1.452,1.2361 0.3531,0.2747 0.8959,0.5755 1.6285,0.9025 0.7325,0.3271 1.5173,0.543 2.3545,0.6476l-0.0392 1.2557c-1.5697,-0.0262 -2.8647,-0.2681 -3.885,-0.726 -1.0202,-0.4578 -1.9098,-1.0595 -2.6684,-1.8051 -0.7587,-0.7456 -2.4134,-2.5769 -4.9641,-5.4938 -2.5508,-2.917 -4.467,-5.1473 -5.749,-6.6908l12.0473 -13.6561 2.1976 0zm-14.9905 0l0 28.0579 -1.8836 0 0 -28.0579 1.8836 0zm23.2312 19.2285l-3.6495 8.8294 -1.8443 0 10.6737 -25.6249 1.0596 0 10.7522 25.6249 -2.0013 0 -3.6887 -8.8294 -11.3017 0zm5.6116 -13.8916c-0.3924,1.1772 -0.7456,2.1582 -1.0596,2.9431l-3.9242 9.4181 10.046 0 -3.8849 -9.3789c-0.6017,-1.465 -0.9942,-2.4591 -1.1773,-2.9823zm16.56 22.721l0 -25.3503c2.2499,-0.1831 4.1597,-0.2746 5.7293,-0.2746 2.4069,0 4.3952,0.6212 5.9648,1.864 1.5697,1.2426 2.3545,3.0151 2.3545,5.3172 0,1.5435 -0.4448,2.9694 -1.3342,4.2774 -0.8895,1.308 -1.8968,2.3676 -3.0216,3.1786 3.1131,4.1335 5.036,6.6057 5.7685,7.4167 1.4912,1.5434 3.1132,2.4199 4.866,2.6292l-0.0393 1.2164c-1.465,-0.0261 -2.6553,-0.2419 -3.571,-0.6474 -0.9156,-0.4055 -1.8247,-1.0922 -2.7273,-2.0602 -0.9025,-0.968 -2.8842,-3.5711 -5.9451,-7.8091 -2.119,0 -4.1989,-0.0654 -6.2394,-0.1963l0 10.4384 -1.8052 0zm7.0636 -11.7333c1.0203,0 2.119,-0.6803 3.2963,-2.0406 1.1772,-1.3604 1.7659,-2.9432 1.7659,-4.7483 0,-1.8051 -0.6149,-3.1786 -1.8445,-4.1204 -1.2295,-0.9418 -2.8253,-1.4127 -4.7874,-1.4127 -1.0465,0 -2.2761,0.0523 -3.6887,0.157l0 11.9687c1.8836,0.1309 3.6364,0.1963 5.2584,0.1963zm28.6072 10.399l-1.0595 0 -7.4168 -18.0119c-0.3138,-0.7065 -0.6278,-1.5305 -0.9417,-2.4723 0,0.0262 -0.0196,0.1701 -0.0589,0.4317 -0.0392,0.2616 -0.085,0.6082 -0.1374,1.0399 -0.0523,0.4316 -0.1046,0.7914 -0.1569,1.0791l-2.9431 19.2678 -1.7659 0 4.1596 -25.6249 1.0596 0 7.9268 18.7968c0.6279,1.5696 0.9419,2.3938 0.9419,2.4722 0.183,-0.5493 0.5363,-1.3603 1.0594,-2.433l8.8294 -18.836 1.0596 0 3.8849 25.6249 -1.8836 0 -2.7862 -19.3462c-0.1831,-1.2819 -0.2747,-2.1322 -0.2747,-2.5508l-1.138 2.59 -8.3585 17.9727zm22.4464 -7.4951l-3.6495 8.8294 -1.8444 0 10.6738 -25.6249 1.0595 0 10.7522 25.6249 -2.0013 0 -3.6887 -8.8294 -11.3016 0zm5.6115 -13.8916c-0.3924,1.1772 -0.7456,2.1582 -1.0595,2.9431l-3.9242 9.4181 10.0459 0 -3.8849 -9.3789c-0.6017,-1.465 -0.9942,-2.4591 -1.1773,-2.9823z"/>
  </g>
 </g>
</svg>
