<?xml version="1.0" encoding="utf-8"?>
<!-- Generator: Adobe Illustrator 16.0.2, SVG Export Plug-In . SVG Version: 6.00 Build 0)  -->
<!DOCTYPE svg PUBLIC "-//W3C//DTD SVG 1.1//EN" "http://www.w3.org/Graphics/SVG/1.1/DTD/svg11.dtd">
<svg version="1.1" id="Layer_1" xmlns="http://www.w3.org/2000/svg" xmlns:xlink="http://www.w3.org/1999/xlink" x="0px" y="0px"
	 width="765.553px" height="151.309px" viewBox="0 0 765.553 151.309" enable-background="new 0 0 765.553 151.309"
	 xml:space="preserve">
<g>
	<path id="_317446920" fill="#FFFFFF" d="M128.474,40.12L64.772,3.441l1.71-2.911l63.702,36.678l-1.699,2.917L128.474,40.12z
		 M128.485,40.126l0.003,0.002l-0.015-0.008L128.485,40.126L128.485,40.126z M130.169,40.235l-1.71-2.912l0.016-0.009l-0.043,0.025
		l-0.057,0.037l-0.052,0.036l-0.084,0.065l-0.064,0.057l-0.018,0.017l-0.066,0.067l-0.089,0.105l-0.021,0.027l-0.045,0.065
		l-0.081,0.135l-0.061,0.127l-0.037,0.092l-0.032,0.099l-0.026,0.105l-0.018,0.101l-0.017,0.179v0.118l0.017,0.181l0.021,0.114
		l0.028,0.108l0.062,0.173l0.043,0.093l0.06,0.109l0.068,0.103l0.078,0.102l0.049,0.057l0.073,0.075l0.099,0.087l0.095,0.072
		l0.069,0.046l0.06,0.035l1.688-2.924l0.068,0.041l0.079,0.052l0.103,0.078l0.105,0.093l0.08,0.082l0.056,0.063l0.083,0.108
		l0.072,0.11l0.064,0.117l0.046,0.1l0.065,0.18l0.03,0.116l0.022,0.121l0.018,0.189v0.125l-0.018,0.186l-0.02,0.109l-0.028,0.113
		l-0.034,0.106l-0.04,0.101l-0.065,0.135l-0.085,0.143l-0.051,0.072l-0.027,0.036l-0.095,0.112l-0.073,0.075l-0.026,0.024
		l-0.072,0.064l-0.093,0.072l-0.062,0.043l-0.068,0.043l-0.054,0.031L130.169,40.235L130.169,40.235z M128.459,37.324l0.016-0.009
		l-0.027,0.015L128.459,37.324z M64.786,73.986l63.673-36.663l1.71,2.912L66.497,76.897l-0.013,0.008L64.786,73.986z M66.497,76.897
		l-0.013,0.008l0.025-0.014L66.497,76.897z M64.584,76.906l1.71-2.911l0.002,0.001l-0.068-0.038l-0.063-0.031l-0.095-0.04
		l-0.043-0.016l-0.042-0.014l-0.078-0.022l-0.04-0.01l-0.039-0.008l-0.074-0.013l-0.035-0.005l-0.03-0.003l-0.069-0.006
		l-0.031-0.002l-0.029,0h-0.064l-0.029,0l-0.027,0.001l-0.062,0.005l-0.032,0.003l-0.028,0.004l-0.062,0.01l-0.027,0.005
		l-0.026,0.006l-0.034,0.008l-0.036,0.01l-0.059,0.018l-0.036,0.013L65,73.885l-0.069,0.028l-0.038,0.018l-0.038,0.019L64.8,73.979
		l1.684,2.926l-0.066,0.035l-0.05,0.025l-0.05,0.023l-0.081,0.033l-0.049,0.018l-0.049,0.018l-0.072,0.021l-0.049,0.014
		l-0.048,0.012l-0.04,0.008l-0.041,0.008l-0.076,0.014l-0.042,0.006l-0.045,0.005l-0.077,0.006l-0.04,0.002l-0.043,0.001h-0.078
		l-0.042-0.001L65.4,77.15l-0.083-0.007l-0.043-0.006l-0.048-0.007l-0.086-0.016l-0.051-0.011l-0.052-0.014l-0.09-0.025
		l-0.054-0.018l-0.055-0.021l-0.105-0.044l-0.073-0.036l-0.078-0.042L64.584,76.906L64.584,76.906z M66.294,73.995l0.002,0.001
		l-0.056-0.032L66.294,73.995z M2.593,37.316l63.702,36.678l-1.71,2.911L0.883,40.228l-0.007-0.004L2.593,37.316z M0.883,40.228
		l-0.006-0.003l-0.001-0.001L0.883,40.228z M0.897,37.2l1.71,2.911l0.01-0.006l0.044-0.026l0.03-0.02l0.079-0.056l0.082-0.067
		l0.04-0.035l0.018-0.017l0.087-0.091l0.067-0.081l0.021-0.028l0.061-0.088l0.065-0.111l0.061-0.127l0.036-0.093l0.032-0.099
		l0.026-0.105l0.02-0.11l0.015-0.17v-0.12l-0.015-0.17l-0.022-0.122l-0.033-0.125l-0.049-0.136l-0.051-0.113l-0.06-0.11
		l-0.049-0.077l-0.097-0.127l-0.049-0.057L2.904,37.55l-0.098-0.087l-0.065-0.05l-0.068-0.047L2.6,37.32l-1.725,2.903l-0.082-0.051
		l-0.077-0.053l-0.073-0.056L0.538,39.97l-0.08-0.082l-0.056-0.063L0.301,39.69l-0.054-0.084l-0.064-0.117l-0.055-0.121
		l-0.051-0.143l-0.035-0.133l-0.024-0.13l-0.016-0.178v-0.127l0.016-0.178l0.021-0.118l0.028-0.113l0.034-0.107l0.04-0.1
		l0.065-0.135l0.07-0.119l0.066-0.096l0.027-0.035l0.074-0.089l0.095-0.099l0.026-0.024l0.047-0.042l0.091-0.074l0.089-0.063
		l0.041-0.026l0.055-0.033L0.897,37.2z M0.887,37.206l0.01-0.006l-0.001,0.001L0.887,37.206z M66.28,3.449L2.607,40.111L0.897,37.2
		L64.57,0.538l0.016-0.009L66.28,3.449z M64.57,0.538L64.57,0.538l0.016-0.009L64.57,0.538z M66.482,0.53l-1.71,2.911l-0.004-0.002
		l0.087,0.047l0.046,0.022l0.06,0.025l0.079,0.03l0.042,0.014l0.078,0.022l0.04,0.01l0.039,0.008l0.038,0.007l0.072,0.011
		l0.067,0.008l-0.003,0l0.067,0.004l0.029,0.001h0.029l0.065-0.001l0.026-0.001l0.063-0.005l0.032-0.003l0.027-0.004l0.063-0.01
		l0.027-0.005l0.026-0.006l0.034-0.008l0.036-0.01l0.059-0.018l0.037-0.013l0.037-0.014l0.068-0.028l0.039-0.018l0.038-0.019
		l0.052-0.028l-1.678-2.929l0.063-0.034l0.05-0.025l0.05-0.023l0.081-0.033l0.05-0.019l0.049-0.017l0.072-0.022l0.049-0.013
		l0.048-0.012l0.04-0.009l0.041-0.008l0.076-0.013l0.041-0.005l0.046-0.005l0.077-0.006l0.04-0.002l0.078-0.002l0.042,0l0.042,0.001
		l0.081,0.005l0.01,0.001l0.08,0.008l0.084,0.013l0.05,0.009l0.051,0.011l0.052,0.013l0.09,0.026l0.054,0.018l0.09,0.034l0.07,0.031
		l0.056,0.027l0.097,0.052L66.482,0.53z M64.772,3.441l-0.009-0.005l0.005,0.003L64.772,3.441z"/>
</g>
<g>
	<path fill="#FFFFFF" d="M96.592,21.859L64.683,3.437l1.701-2.946l31.909,18.422l0,0L96.592,21.859z M128.501,40.282L96.592,21.859
		l1.701-2.946l31.909,18.423l0.851,1.473L128.501,40.282z M130.202,37.336l0.851,0.491v0.982L130.202,37.336z M127.651,75.655V38.81
		h3.401v36.845l0,0H127.651z M127.651,112.5V75.655h3.401V112.5l-0.851,1.473L127.651,112.5L127.651,112.5z M131.052,112.5v0.981
		l-0.851,0.491L131.052,112.5z M96.592,129.45l31.91-18.422l1.701,2.945l-31.909,18.423l0,0L96.592,129.45z M64.683,147.873
		l31.909-18.423l1.701,2.946l-31.91,18.423h-1.701V147.873z M66.383,150.819l-0.85,0.49l-0.851-0.49H66.383z M34.474,129.45
		l31.909,18.423l-1.701,2.946l-31.909-18.423l0,0L34.474,129.45z M2.565,111.028l31.909,18.422l-1.701,2.946L0.864,113.973
		L0.014,112.5L2.565,111.028L2.565,111.028z M0.864,113.973l-0.851-0.491V112.5L0.864,113.973z M3.415,75.655V112.5H0.014V75.655
		l0,0H3.415z M3.415,38.81v36.845H0.014V38.81l0.851-1.473L3.415,38.81L3.415,38.81z M0.014,38.81v-0.982l0.851-0.491L0.014,38.81z
		 M34.474,21.859L2.564,40.282l-1.701-2.946l31.909-18.423l0,0L34.474,21.859z M66.383,3.437L34.474,21.859l-1.701-2.946
		l31.91-18.422h1.701V3.437z M64.683,0.491L65.533,0l0.851,0.491H64.683z"/>
</g>
<g>
	<path fill="#FFFFFF" d="M48.781,31.141l-15.977-9.222l1.7-2.946l15.977,9.222h0L48.781,31.141z M64.757,40.365l-15.976-9.224
		l1.701-2.946l15.976,9.225l0.851,1.473L64.757,40.365z M66.458,37.42l0.851,0.491v0.982L66.458,37.42z M63.907,57.341V38.893h3.401
		v18.448l0,0H63.907z M63.907,75.79V57.341h3.401V75.79l-0.851,1.473L63.907,75.79L63.907,75.79z M67.308,75.79v0.982l-0.851,0.49
		L67.308,75.79z M48.781,83.542l15.976-9.225l1.701,2.946l-15.976,9.225l0,0L48.781,83.542z M32.804,92.764l15.977-9.223
		l1.701,2.945l-15.977,9.223h-1.701V92.764L32.804,92.764z M34.504,95.709l-0.85,0.49l-0.851-0.49H34.504z M18.528,83.542
		l15.976,9.223l-1.701,2.945l-15.976-9.223l0,0L18.528,83.542L18.528,83.542z M2.551,74.316l15.977,9.225l-1.701,2.945L0.85,77.262
		L0,75.79L2.551,74.316z M0.85,77.262L0,76.772V75.79L0.85,77.262z M3.401,57.341V75.79H0V57.341l0,0H3.401z M3.401,38.893v18.448H0
		V38.893l0.85-1.473L3.401,38.893L3.401,38.893z M0,38.893v-0.982l0.85-0.491L0,38.893z M18.528,31.141L2.551,40.365L0.85,37.42
		l15.978-9.225l0,0L18.528,31.141z M34.504,21.919l-15.976,9.222l-1.701-2.946l15.976-9.222h1.701V21.919z M32.804,18.973
		l0.85-0.491l0.851,0.491H32.804z"/>
</g>
<g>
	<path fill="#FFFFFF" d="M112.536,31.141L96.56,21.919l1.701-2.946l15.977,9.222l0,0L112.536,31.141z M128.513,40.365l-15.977-9.224
		l1.701-2.946l15.977,9.225l0.851,1.473L128.513,40.365z M130.213,37.42l0.851,0.491v0.982L130.213,37.42z M127.663,57.341V38.893
		h3.401v18.448l0,0H127.663z M127.663,75.79V57.341h3.401V75.79l-0.851,1.473L127.663,75.79L127.663,75.79z M131.064,75.79v0.982
		l-0.851,0.49L131.064,75.79z M112.536,83.542l15.977-9.225l1.701,2.946l-15.977,9.225l0,0L112.536,83.542z M96.56,92.764
		l15.977-9.223l1.701,2.945L98.26,95.709H96.56V92.764L96.56,92.764z M98.26,95.709l-0.85,0.49l-0.851-0.49H98.26z M82.284,83.542
		l15.977,9.223l-1.701,2.945l-15.977-9.223l0,0L82.284,83.542z M66.307,74.316l15.977,9.225l-1.701,2.945l-15.977-9.225l-0.85-1.473
		L66.307,74.316z M64.606,77.262l-0.85-0.49V75.79L64.606,77.262z M67.158,57.341V75.79h-3.402V57.341l0,0H67.158z M67.158,38.893
		v18.448h-3.402V38.893l0.851-1.473L67.158,38.893L67.158,38.893z M63.756,38.893v-0.982l0.851-0.491L63.756,38.893z M82.284,31.141
		l-15.977,9.224l-1.701-2.945l15.977-9.225l0,0L82.284,31.141z M98.26,21.919l-15.977,9.222l-1.7-2.946l15.977-9.222h1.7V21.919z
		 M96.56,18.973l0.85-0.491l0.85,0.491H96.56z"/>
</g>
<g>
	<path fill="#FFFFFF" d="M80.659,86.25l-15.977-9.223l1.701-2.946l15.977,9.223l0,0L80.659,86.25z M96.635,95.475L80.659,86.25
		l1.701-2.945l15.977,9.224l0.85,1.474L96.635,95.475z M98.336,92.529l0.85,0.491v0.982L98.336,92.529z M95.785,112.45V94.002h3.401
		v18.447l0,0H95.785z M95.785,130.899V112.45h3.401v18.449l-0.85,1.473L95.785,130.899z M99.186,130.899v0.981l-0.85,0.491
		L99.186,130.899z M80.659,138.65l15.977-9.224l1.701,2.945l-15.977,9.225l0,0L80.659,138.65z M64.682,147.873l15.977-9.223
		l1.701,2.946l-15.977,9.223h-1.701V147.873z M66.382,150.819l-0.851,0.49l-0.85-0.49H66.382z M50.405,138.65l15.977,9.223
		l-1.701,2.946l-15.977-9.223l0,0L50.405,138.65z M34.429,129.426l15.976,9.224l-1.701,2.946l-15.976-9.225l-0.851-1.473
		L34.429,129.426z M32.729,132.372l-0.851-0.491v-0.981L32.729,132.372z M35.28,112.45v18.449h-3.402V112.45l0,0H35.28z
		 M35.28,94.002v18.447h-3.402V94.002l0.851-1.474L35.28,94.002L35.28,94.002z M31.878,94.002V93.02l0.851-0.491L31.878,94.002z
		 M50.405,86.25l-15.976,9.225l-1.701-2.946l15.976-9.224l0,0L50.405,86.25L50.405,86.25z M66.382,77.028L50.405,86.25l-1.701-2.945
		l15.977-9.223h1.701V77.028z M64.682,74.082l0.85-0.491l0.851,0.491H64.682z"/>
</g>
<g>
	<path fill="#FFFFFF" d="M3.403,38.779l0,73.507l-3.376-0.029l0-73.507L3.403,38.779z M2.658,37.251l-1.67,2.935l0.008,0.004
		l0.064,0.035l0.043,0.021l0.063,0.028l0.053,0.021l0.059,0.021l0.12,0.035l0.074,0.017l0.033,0.006l0.091,0.013l0.141,0.011h0.101
		l0.108-0.007l0.114-0.016l0.118-0.024l0.119-0.035l0.119-0.044l0.116-0.055l0.138-0.081l0.135-0.099l0.063-0.054l0.091-0.088
		l0.079-0.09l0.095-0.128l0.08-0.131l0.032-0.064l0.056-0.13l0.042-0.124l0.018-0.069l0.021-0.1l0.015-0.103l0.008-0.093
		l0.002-0.084L0.027,38.75l0.002-0.095l0.009-0.104l0.016-0.112l0.023-0.11l0.021-0.078l0.044-0.132l0.059-0.137l0.037-0.072
		l0.083-0.139l0.1-0.135l0.084-0.096l0.096-0.093l0.069-0.059l0.142-0.103L0.957,37.2l0.124-0.058l0.126-0.048l0.127-0.037
		l0.126-0.026l0.122-0.017l0.117-0.008h0.11l0.15,0.011l0.101,0.015l0.042,0.008l0.083,0.019l0.13,0.038l0.069,0.025l0.063,0.025
		l0.074,0.033l0.053,0.026l0.076,0.041L2.658,37.251L2.658,37.251z M2.65,37.247l0.008,0.004l0.002,0.001L2.65,37.247z
		 M64.532,77.072L0.988,40.186l1.67-2.934l63.543,36.886l0.004,0.002L64.532,77.072z M66.202,74.138l0.004,0.002l-0.021-0.012
		L66.202,74.138z M67.162,75.791l-3.376-0.029l0,0l0.002,0.08l0.005,0.079l0.009,0.072l0.011,0.066l0.007,0.033l0.016,0.069
		l0.016,0.056l0.02,0.063l0.01,0.027l0.01,0.026l0.03,0.071l0.019,0.039l0.011,0.022l0.02,0.036l0.021,0.037l0.028,0.047
		l0.012,0.019l0.024,0.034l0.012,0.018l0.025,0.033l0.058,0.072l0.011,0.012l0.013,0.015l0.029,0.03l0.031,0.031l0.033,0.03
		l0.033,0.03l0.056,0.045l0.035,0.027l0.043,0.03l0.047,0.031l0.045,0.026l1.678-2.929l0.056,0.034l0.058,0.038l0.054,0.039
		l0.046,0.035l0.066,0.054l0.043,0.039l0.042,0.04l0.041,0.041l0.039,0.041l0.022,0.024l0.02,0.023l0.066,0.082l0.033,0.045
		l0.021,0.029l0.031,0.046l0.02,0.031l0.035,0.058l0.028,0.049l0.026,0.049l0.017,0.035l0.024,0.052l0.035,0.083l0.015,0.039
		l0.015,0.039l0.024,0.075l0.02,0.067l0.019,0.081l0.009,0.044l0.014,0.078l0.01,0.083l0.006,0.09L67.162,75.791L67.162,75.791z
		 M63.786,149.267V75.762l3.376,0.029v73.506l0,0L63.786,149.267z M64.531,150.795l1.67-2.935l0,0l-0.042-0.023l-0.073-0.037
		l-0.063-0.028l-0.053-0.021l-0.059-0.021l-0.077-0.023l-0.116-0.028l-0.081-0.015l-0.088-0.01l-0.095-0.006h-0.1l-0.105,0.006
		l-0.119,0.018l-0.118,0.023l-0.119,0.035l-0.119,0.045l-0.116,0.055l-0.138,0.08l-0.066,0.047l-0.102,0.08l-0.148,0.145
		l-0.103,0.125l-0.044,0.063l-0.055,0.09l-0.066,0.128l-0.046,0.108l-0.041,0.123l-0.019,0.068l-0.022,0.108l-0.014,0.099
		l-0.007,0.089l-0.002,0.084l3.376,0.03l-0.002,0.094l-0.008,0.1l-0.015,0.109l-0.025,0.117l-0.02,0.078l-0.044,0.133l-0.049,0.115
		l-0.071,0.137l-0.06,0.096l-0.049,0.07l-0.107,0.131l-0.154,0.15l-0.108,0.084l-0.073,0.051l-0.145,0.085l-0.123,0.058
		l-0.126,0.048l-0.127,0.037l-0.125,0.026l-0.127,0.018l-0.114,0.007H65.38l-0.104-0.007l-0.098-0.012l-0.09-0.016l-0.126-0.029
		l-0.087-0.027l-0.069-0.023l-0.063-0.026l-0.073-0.032l-0.084-0.043L64.531,150.795L64.531,150.795L64.531,150.795z M2.658,110.974
		l63.542,36.886l-1.669,2.936L0.988,113.909l1.662-2.939L2.658,110.974z M2.65,110.969l0.008,0.005l0.002,0.001L2.65,110.969z
		 M0.027,112.256l3.376,0.029l0,0l-0.002-0.079l-0.006-0.079l-0.009-0.072l-0.011-0.066l-0.007-0.031l-0.016-0.07l-0.019-0.066
		l-0.021-0.063l-0.01-0.028l-0.005-0.014l-0.023-0.057l-0.032-0.067l-0.012-0.022l-0.021-0.038l-0.028-0.048l-0.012-0.02
		l-0.023-0.036l-0.013-0.019l-0.024-0.033l-0.043-0.057l-0.027-0.031l-0.011-0.014l-0.014-0.014l-0.064-0.066l-0.014-0.013
		l-0.032-0.029l-0.053-0.046l-0.017-0.014l-0.035-0.027l-0.043-0.029l-0.064-0.043l-0.04-0.023l-1.653,2.943l-0.051-0.029
		l-0.075-0.049l-0.054-0.039l-0.046-0.034l-0.027-0.022l-0.064-0.055l-0.042-0.038l-0.023-0.022l-0.074-0.076l-0.022-0.024
		l-0.02-0.022l-0.036-0.043l-0.052-0.066l-0.032-0.046l-0.021-0.029l-0.031-0.047l-0.02-0.032l-0.035-0.059l-0.027-0.05
		l-0.018-0.034l-0.038-0.08l-0.029-0.069l-0.01-0.026l-0.015-0.039l-0.025-0.076l-0.022-0.078l-0.019-0.082L0.06,112.6l-0.013-0.079
		l-0.01-0.083l-0.007-0.09L0.027,112.256L0.027,112.256L0.027,112.256z"/>
</g>
<g>
	<path fill="#FFFFFF" d="M131.039,38.751l0.001,73.507l-3.376,0.029l0-73.507l0,0L131.039,38.751z M130.078,40.188l-1.669-2.934
		l-0.009,0.005l0.062-0.035l0.1-0.05l0.043-0.019l0.078-0.032l0.083-0.029l0.062-0.019l0.138-0.034l0.09-0.016l0.047-0.006
		l0.105-0.009l0.161-0.002l0.117,0.008l0.122,0.017l0.125,0.026l0.127,0.037l0.126,0.047l0.123,0.058l0.145,0.084l0.112,0.08
		l0.069,0.056l0.126,0.12l0.113,0.132l0.071,0.099l0.06,0.096l0.061,0.114l0.059,0.138l0.044,0.132l0.018,0.066l0.026,0.121
		l0.016,0.113l0.009,0.101l0.002,0.097l-3.376,0.029l0.002,0.086l0.007,0.091l0.015,0.103l0.024,0.112l0.015,0.057l0.042,0.124
		l0.056,0.129l0.057,0.107l0.055,0.088l0.066,0.092l0.108,0.126l0.121,0.115l0.063,0.051l0.105,0.075l0.138,0.081l0.116,0.054
		l0.119,0.045l0.119,0.035l0.118,0.025l0.113,0.016l0.109,0.007l0.151-0.002l0.096-0.009l0.038-0.005l0.08-0.014l0.128-0.031
		l0.052-0.016l0.072-0.025l0.068-0.027l0.032-0.015l0.088-0.044l0.051-0.028L130.078,40.188L130.078,40.188z M130.086,40.184
		l-0.009,0.005L130.086,40.184L130.086,40.184z M64.865,74.14l63.543-36.886l1.669,2.935L66.535,77.075l-0.001,0.001L64.865,74.14z
		 M66.535,77.075l-0.001,0.001l-0.095,0.056L66.535,77.075z M67.28,75.763l-3.376,0.03l0,0l0.002-0.091l0.007-0.09l0.01-0.083
		l0.014-0.078l0.009-0.044l0.019-0.081l0.022-0.078l0.021-0.064l0.014-0.04l0.02-0.051l0.023-0.056l0.031-0.066l0.025-0.049
		l0.018-0.034l0.043-0.075l0.02-0.032l0.02-0.031l0.031-0.046l0.033-0.045l0.035-0.045l0.021-0.027l0.054-0.063l0.037-0.041
		l0.04-0.041l0.042-0.04l0.024-0.022l0.061-0.054l0.049-0.039l0.028-0.022l0.088-0.063l0.058-0.037l0.044-0.027l1.667,2.937
		l0.034-0.021l0.047-0.029l0.078-0.056l0.018-0.014l0.038-0.03l0.05-0.045l0.015-0.014l0.031-0.03l0.031-0.031l0.027-0.03
		l0.044-0.052l0.013-0.017l0.026-0.033l0.025-0.035l0.023-0.033l0.013-0.02l0.012-0.02l0.037-0.063l0.012-0.022l0.019-0.037
		l0.025-0.053l0.019-0.045l0.015-0.039l0.01-0.027l0.017-0.051l0.019-0.067l0.016-0.069l0.007-0.032l0.011-0.066l0.009-0.072
		l0.005-0.079L67.28,75.763L67.28,75.763L67.28,75.763z M63.904,149.299V75.793l3.376-0.029v73.506l0,0L63.904,149.299z
		 M64.865,147.863l1.669,2.935l-0.001,0.001l-0.082,0.044l-0.069,0.033l-0.008,0.005l-0.113,0.048l-0.123,0.041l-0.022,0.006
		l-0.093,0.023l-0.135,0.025l-0.097,0.012l-0.106,0.007h-0.11l-0.062-0.003l-0.122-0.013l-0.181-0.035l-0.127-0.037l-0.126-0.048
		l-0.123-0.058l-0.145-0.085l-0.073-0.051l-0.108-0.084l-0.154-0.15l-0.086-0.103l-0.07-0.099l-0.06-0.096l-0.061-0.114
		l-0.059-0.138l-0.044-0.133l-0.02-0.077l-0.025-0.118l-0.015-0.109l-0.008-0.099l-0.002-0.095l3.376-0.029l-0.002-0.084
		l-0.007-0.088l-0.014-0.1l-0.022-0.108l-0.018-0.068l-0.041-0.124l-0.056-0.129l-0.057-0.107l-0.055-0.089l-0.066-0.093
		l-0.081-0.096l-0.148-0.145l-0.102-0.08l-0.066-0.046l-0.138-0.081l-0.116-0.055l-0.119-0.045l-0.119-0.034l-0.173-0.034
		l-0.113-0.012l-0.053-0.002h-0.101l-0.096,0.006l-0.088,0.01l-0.125,0.024l-0.083,0.021l-0.012,0.004l-0.111,0.038l-0.103,0.042
		h0.003l-0.058,0.027l-0.071,0.039L64.865,147.863L64.865,147.863z M66.535,150.797l-0.001,0.001l-0.095,0.056L66.535,150.797
		L66.535,150.797z M130.078,113.912l-63.543,36.886l-1.669-2.935l63.543-36.886h0L130.078,113.912L130.078,113.912z
		 M127.664,112.288l3.376-0.029l0,0l-0.002,0.092l-0.007,0.09l-0.01,0.083l-0.013,0.078l-0.009,0.044l-0.02,0.082l-0.019,0.067
		l-0.024,0.075l-0.019,0.051l-0.016,0.039l-0.023,0.057l-0.031,0.064l-0.025,0.05l-0.018,0.034l-0.043,0.075l-0.03,0.048l-0.02,0.03
		l-0.037,0.053l-0.021,0.028l-0.03,0.039l-0.036,0.044l-0.039,0.046l-0.055,0.059l-0.022,0.021l-0.023,0.023l-0.061,0.056
		l-0.064,0.055l-0.023,0.019l-0.051,0.039l-0.054,0.037l-0.048,0.033l-0.07,0.042l-1.668-2.935l-0.059,0.035l-0.038,0.025
		l-0.043,0.031l-0.04,0.029l-0.012,0.01l-0.054,0.047l-0.05,0.047l-0.013,0.012l-0.013,0.014l-0.045,0.048l-0.03,0.034l-0.027,0.034
		l-0.022,0.028l-0.012,0.017l-0.029,0.042l-0.013,0.019l-0.022,0.036l-0.037,0.063l-0.012,0.022l-0.019,0.037l-0.025,0.053
		l-0.019,0.044l-0.011,0.026l-0.014,0.041l-0.02,0.063l-0.016,0.055l-0.017,0.07l-0.006,0.031l-0.011,0.066l-0.009,0.072
		l-0.006,0.079L127.664,112.288L127.664,112.288z"/>
</g>
<g>
	<path fill="#FFFFFF" d="M96.572,132.399l-31.852-18.34l1.709-2.911l31.852,18.34l0.013,0.007L96.572,132.399L96.572,132.399z
		 M98.282,129.488l0.013,0.007l-0.017-0.01L98.282,129.488z M98.275,132.458l-1.71-2.911l-0.021,0.012l-0.037,0.022l-0.07,0.047
		l-0.089,0.068l0.002-0.003l-0.039,0.033l-0.13,0.126l-0.002,0.001l-0.046,0.054l-0.13,0.175l-0.044,0.073l0.001-0.002l-0.043,0.08
		l-0.079,0.184l-0.032,0.101l-0.026,0.106l-0.033,0.229l-0.004,0.117v-0.002l0.02,0.252l0.023,0.119l0.021,0.082l0.089,0.239
		l-0.001-0.001l0.045,0.09l0.135,0.209l0.052,0.066l0.051,0.059l0.098,0.098l0.101,0.086l0.043,0.033l0.04,0.028l0.101,0.063
		l1.735-2.896l0.105,0.066l0.044,0.032l0.047,0.036l0.104,0.089l0.102,0.101l0.054,0.063l0.055,0.069l0.137,0.214l0.047,0.094
		l0.001,0.002l0.09,0.243l0.022,0.085l0.024,0.123l0.02,0.256v0.002l-0.004,0.121l-0.033,0.232l-0.028,0.111l-0.034,0.104
		l-0.08,0.188l-0.045,0.084l-0.001,0.002l-0.047,0.076l-0.132,0.18l-0.05,0.057l-0.005,0.005l-0.134,0.13l-0.043,0.036l-0.002,0.002
		l-0.094,0.071l-0.075,0.051l-0.042,0.025L98.275,132.458L98.275,132.458z M98.296,132.446l-0.008,0.004l-0.012,0.008
		L98.296,132.446z M64.728,147.877l31.838-18.331l1.71,2.911l-31.838,18.33h0L64.728,147.877z M64.627,150.792l1.71-2.911
		l-0.024-0.014l-0.062-0.032l-0.068-0.032l-0.101-0.041l-0.023-0.008l-0.021-0.008l-0.142-0.04l0.003,0.001l-0.014-0.004
		l-0.145-0.026l-0.081-0.009h0.003h0.003l-0.074-0.004l-0.068-0.002h0.003l-0.068,0.002l-0.068,0.004h0.003l-0.067,0.007
		l-0.066,0.009h0.003l-0.079,0.016l-0.065,0.016l0.021-0.006l-0.08,0.022l-0.018,0.005l-0.063,0.021l-0.06,0.023l0.003-0.001
		l-0.085,0.037l-0.085,0.044l-0.026,0.016l1.709,2.91l-0.031,0.018l-0.092,0.048l-0.091,0.04l-0.003,0.001l-0.066,0.026
		l-0.069,0.023l-0.024,0.007l-0.087,0.024l0.014-0.004l-0.072,0.018l-0.086,0.016l-0.003,0.001l-0.072,0.011l-0.074,0.008h-0.003
		l-0.074,0.005l-0.075,0.001h-0.003l-0.075-0.001l-0.081-0.005l-0.003-0.001h-0.003l-0.086-0.01l-0.151-0.027l-0.021-0.005h-0.003
		l-0.148-0.043l-0.027-0.01l-0.029-0.01l-0.106-0.043l-0.073-0.034l-0.067-0.035L64.627,150.792L64.627,150.792z M64.651,150.806
		l-0.02-0.011l-0.004-0.003L64.651,150.806L64.651,150.806z M34.486,129.542l31.851,18.34l-1.71,2.911l-31.852-18.341l1.692-2.921
		L34.486,129.542L34.486,129.542z M34.468,129.531l0.019,0.011l-0.001-0.001L34.468,129.531z M32.783,129.485l1.71,2.91l0.006-0.003
		l0.051-0.031l0.07-0.047l0.037-0.026l0.04-0.031l0.092-0.08l0.043-0.041l0.045-0.047l0.046-0.053l0.048-0.061l0.081-0.113
		l0.088-0.155l0.021-0.045l0.042-0.099l0.046-0.139l0.027-0.107l0.02-0.111l0.012-0.106v-0.254l-0.012-0.106l-0.026-0.137
		l-0.03-0.114l-0.037-0.106l-0.116-0.241l-0.052-0.083l-0.053-0.075l-0.052-0.065l-0.051-0.059l-0.153-0.146l-0.045-0.038
		l-0.043-0.032l-0.102-0.07l-0.069-0.04l-1.673,2.933l-0.074-0.045l-0.107-0.072l-0.047-0.035l-0.05-0.041l-0.156-0.149
		l-0.054-0.062l-0.055-0.07l-0.055-0.077l-0.055-0.087l-0.117-0.245l-0.039-0.11l-0.031-0.117l-0.026-0.141l-0.012-0.111v-0.257
		l0.012-0.11l0.021-0.115l0.028-0.111l0.048-0.143l0.043-0.102l0.023-0.049l0.09-0.16l0.083-0.117l0.051-0.063l0.05-0.058
		l0.048-0.05l0.047-0.046l0.097-0.083l0.044-0.035l0.042-0.029l0.075-0.051l0.057-0.035L32.783,129.485z M32.777,129.488
		l0.005-0.003l0.021-0.013L32.777,129.488z M66.331,114.064l-31.837,18.331l-1.71-2.91l31.837-18.332l0.013-0.008L66.331,114.064z
		 M64.62,111.153l0.013-0.008l-0.035,0.021L64.62,111.153z M66.43,111.148l-1.709,2.911l0.011,0.007l0.074,0.039l0.068,0.032
		l0.028,0.012l0.096,0.037l0.071,0.023l0.019,0.006l0.088,0.021l0.07,0.015l-0.003-0.001l0.072,0.012l0.081,0.01l0.071,0.004h-0.003
		l0,0h0.139l0,0h-0.003l0.135-0.012l-0.003,0.001l-0.003,0.001l0.134-0.022l-0.003,0.001l0.011-0.003L66,114.208l-0.003,0.001
		l0.018-0.005l0.102-0.037l-0.003,0.002l0.047-0.02l0.059-0.026l0.055-0.028l0.044-0.023l-1.685-2.925l0.05-0.028l0.062-0.029
		l0.064-0.029l0.054-0.022l0.003-0.001l0.107-0.039l0.024-0.007L65,110.989l0.138-0.036l0.018-0.004l0.003-0.001l0.141-0.023h0.003
		h0.003l0.142-0.012h0.003l0.007-0.002h0.146l0.007,0.002h0.003l0.078,0.004l0.086,0.01l0.079,0.013l0.003,0.001l0.076,0.016
		l0.094,0.023l0.024,0.008l0.077,0.024l0.102,0.04l0.033,0.014l0.073,0.034l0.079,0.042L66.43,111.148z M66.419,111.141l0.011,0.007
		l0.005,0.003L66.419,111.141z"/>
</g>
<g>
	<path fill="#FFFFFF" d="M127.673,75.684l-0.044-36.755l3.376,0.025l0.044,36.755v0.002L127.673,75.684z M131.049,75.709
		L131.049,75.709v0.002V75.709z M128.474,77.188l1.666-2.937l-0.004-0.002l-0.085-0.046l0.034,0.018l-0.129-0.061l-0.069-0.027
		l-0.048-0.017l-0.166-0.046l0.023,0.005l-0.091-0.019l-0.093-0.014l-0.09-0.008l-0.214,0l-0.108,0.011l0.002,0l-0.127,0.022
		l-0.247,0.074l-0.146,0.064l0.002-0.001l-0.093,0.05l-0.214,0.148l-0.122,0.11l0.001-0.001l-0.11,0.122l-0.149,0.215l-0.027,0.048
		l-0.022,0.043l-0.09,0.219l-0.036,0.123l0-0.002l-0.024,0.114l-0.015,0.105l-0.008,0.096l-0.002,0.087l3.376,0.029l-0.002,0.093
		l-0.008,0.101l-0.016,0.11l-0.025,0.119l-0.001,0.002l-0.037,0.126l-0.092,0.223l-0.024,0.048l-0.029,0.052l-0.152,0.219
		l-0.113,0.125l-0.001,0.001l-0.125,0.113l-0.217,0.151l-0.096,0.051l-0.002,0.002l-0.149,0.064l-0.251,0.075l-0.131,0.022h-0.002
		l-0.112,0.012h-0.219l-0.094-0.008l-0.098-0.014l-0.096-0.021l0.018,0.004l-0.171-0.047l-0.052-0.019l-0.075-0.029l-0.135-0.064
		l0.029,0.016l-0.091-0.049L128.474,77.188L128.474,77.188z M128.478,77.19l-0.004-0.002l-0.087-0.051L128.478,77.19z
		 M98.346,55.845l31.794,18.406l-1.666,2.937L96.68,58.781l-0.002-0.001L98.346,55.845z M96.68,58.781l-0.002-0.001l0.132,0.077
		L96.68,58.781z M95.771,57.215l3.376,0.025v0.002l-0.002-0.083l-0.006-0.082l-0.01-0.081l-0.011-0.063l0,0.003l-0.016-0.073
		l-0.041-0.142l-0.023-0.065l0.01,0.027l-0.008-0.021l-0.025-0.062l-0.026-0.059l-0.028-0.056l-0.028-0.052l-0.017-0.028
		l-0.031-0.05l-0.031-0.046l0.002,0.003l-0.022-0.031l-0.033-0.043L98.77,56.2l-0.028-0.032l-0.031-0.034l-0.034-0.035l-0.033-0.032
		l-0.036-0.033l-0.039-0.033l-0.042-0.034l-0.033-0.025l-0.046-0.033l-0.05-0.033l-0.051-0.031l-1.67,2.934l-0.057-0.034
		l-0.055-0.036l-0.051-0.037l-0.038-0.029l-0.047-0.038l-0.044-0.038l-0.041-0.037l-0.038-0.037l-0.038-0.039l-0.036-0.039
		L96.2,58.378l-0.036-0.045l-0.037-0.048l-0.026-0.037l-0.002-0.003l-0.035-0.052l-0.034-0.055l-0.021-0.034l-0.032-0.059
		l-0.031-0.062l-0.029-0.065l-0.028-0.068l-0.01-0.027l0.008,0.021l-0.025-0.071l-0.042-0.148l-0.017-0.079l0-0.003l-0.012-0.069
		l-0.011-0.087l-0.006-0.087l-0.002-0.088V57.215L95.771,57.215z M99.147,57.241L99.147,57.241v0.002V57.241z M99.103,20.485
		l0.044,36.755l-3.376-0.025L95.727,20.46v-0.002L99.103,20.485z M95.727,20.46L95.727,20.46v-0.002V20.46z M98.302,18.982
		l-1.666,2.937l0.004,0.002l0.085,0.046l-0.034-0.018l0.129,0.061l0.069,0.028l0.048,0.016l0.166,0.046l-0.023-0.005l0.091,0.019
		l0.093,0.014l0.09,0.008h0.214l0.108-0.011h-0.002l0.127-0.022l0.139-0.036l0.149-0.054l0.197-0.098l0.083-0.052l0.054-0.038
		l0.134-0.108l0.062-0.059l0.11-0.122l0.149-0.215l-0.001,0.002l0.027-0.048l0.114-0.264l0.036-0.122l0,0.002l0.021-0.097
		l0.019-0.123l0.008-0.096l0.002-0.087l-3.376-0.03l0.002-0.092l0.008-0.101l0.019-0.128l0.022-0.101l0-0.002l0.037-0.126
		l0.116-0.268l0.029-0.052l0.001-0.002l0.151-0.218l0.113-0.125l0.065-0.062l0.137-0.11l0.057-0.04l0.086-0.054l0.201-0.1
		l0.153-0.055l0.143-0.038l0.131-0.022l0.002,0l0.112-0.011l0.219,0l0.094,0.009l0.098,0.014l0.096,0.02l-0.018-0.004l0.171,0.047
		l0.053,0.019l0.074,0.029l0.135,0.063l-0.029-0.015l0.091,0.049L98.302,18.982L98.302,18.982z M98.298,18.98l0.004,0.002
		l0.04,0.023L98.298,18.98z M128.43,40.324L96.636,21.919l1.666-2.937l31.794,18.406l0.047,0.028L128.43,40.324z M130.096,37.388
		l0.021,0.012l0.025,0.016L130.096,37.388z M131.005,38.954l-3.376-0.025v-0.002l0.002,0.082l0.006,0.082l0.008,0.069l0.013,0.075
		l0.002,0.013l0.013,0.058l0.041,0.142l-0.001-0.002l-0.001-0.003l0.05,0.13l0.026,0.059l0.013,0.027l0.013,0.026l0.028,0.052
		l0.017,0.028l-0.001-0.002l0.031,0.049l0.055,0.08l0.033,0.043l-0.002-0.003l-0.002-0.003l0.062,0.074l0.067,0.071l-0.036-0.038
		l0.032,0.033l0.071,0.067l-0.002-0.002l0.074,0.062l0.042,0.032l-0.003-0.002l0.08,0.055l0.025,0.016l1.76-2.88l0.031,0.02
		l0.085,0.059l0.002,0.002l0.048,0.037l0.079,0.066l0.003,0.002l0.076,0.071l0.037,0.038l-0.032-0.033l0.071,0.075l0.066,0.08
		l0.002,0.003l0.002,0.002l0.037,0.048l0.06,0.085l0.034,0.055l0.001,0.003l0.021,0.034l0.032,0.059l0.016,0.032l0.016,0.032
		l0.029,0.065l0.052,0.136l0,0.003l0.001,0.003l0.042,0.148l0.014,0.064l0.003,0.018l0.014,0.081l0.009,0.075l0.006,0.087
		l0.002,0.088V38.954L131.005,38.954z M127.629,38.928L127.629,38.928v-0.002V38.928z"/>
</g>
<g>
	<path fill="#FFFFFF" d="M0.027,75.713l0.044-36.755l3.376-0.025L3.403,75.688l-3.375,0.06L0.027,75.713L0.027,75.713z
		 M0.028,75.747l0-0.016v-0.018L0.028,75.747z M0.936,74.255l1.666,2.937l-0.036,0.021l-0.059,0.03L2.472,77.26l-0.114,0.049
		l-0.106,0.037l-0.003,0.002l-0.034,0.01l-0.186,0.044L1.93,77.417l0.01-0.002l-0.211,0.014l-0.107-0.004H1.613l-0.241-0.033
		l-0.111-0.028l-0.002-0.001l-0.243-0.09l-0.143-0.074l-0.057-0.034l-0.222-0.169l-0.001-0.002l-0.065-0.061L0.371,76.75
		l-0.055-0.077l-0.083-0.138l-0.065-0.137l-0.051-0.133l-0.011-0.033L0.08,76.137l-0.025-0.119L0.051,76L0.03,75.807l-0.002-0.06
		l3.375-0.094l-0.002-0.055L3.38,75.411l-0.002-0.014l-0.024-0.114l-0.025-0.092l-0.01-0.028L3.27,75.034l-0.064-0.133l-0.08-0.134
		l-0.053-0.074l-0.154-0.177l-0.063-0.059l0.001,0.001L2.64,74.292l-0.053-0.033l-0.14-0.073l-0.239-0.088l0.002,0l-0.107-0.027
		l-0.237-0.033H1.861l-0.103-0.003l-0.207,0.013l0.014-0.001L1.473,74.06l-0.181,0.042l-0.029,0.009l0.003-0.001l-0.102,0.036
		l-0.109,0.047l-0.03,0.014l-0.053,0.028L0.936,74.255z M2.602,77.192L2.588,77.2l-0.022,0.013L2.602,77.192z M34.397,58.785
		L2.602,77.192l-1.666-2.937l31.795-18.407l0.015-0.008L34.397,58.785z M32.731,55.848l0.003-0.001l0.012-0.007L32.731,55.848
		L32.731,55.848z M31.93,57.245l3.376-0.025v-0.002l-0.002,0.088l-0.006,0.087l-0.009,0.075l-0.013,0.081l-0.001,0.003l-0.017,0.08
		l-0.042,0.148l0.006-0.02l-0.008,0.026l-0.052,0.136l-0.029,0.065l-0.001,0.003l-0.031,0.062l-0.032,0.058l-0.001,0.003
		l-0.021,0.034l-0.034,0.055l-0.059,0.086l-0.037,0.048l-0.002,0.003l-0.03,0.038l-0.038,0.044l-0.038,0.041l-0.037,0.038
		l-0.04,0.038l-0.039,0.035l-0.044,0.038l-0.083,0.065l-0.003,0.002l-0.051,0.037l-0.088,0.057l-0.04,0.023l-1.637-2.953
		l-0.035,0.021l-0.083,0.053l-0.046,0.033l0.003-0.002l-0.078,0.061l-0.039,0.034l-0.034,0.031l-0.035,0.034l-0.031,0.033
		l-0.033,0.035l-0.034,0.04l-0.026,0.032l0.002-0.002l-0.033,0.042l-0.055,0.08l-0.031,0.049l-0.017,0.029l0.002-0.003l-0.028,0.052
		l-0.028,0.056l0.001-0.003l-0.027,0.059l-0.05,0.13l-0.006,0.02l0.008-0.025l-0.041,0.142l-0.016,0.073l0.001-0.003l-0.013,0.075
		l-0.008,0.069l-0.006,0.082l-0.002,0.082V57.245L31.93,57.245z M31.93,57.247v-0.002l0,0V57.247z M35.349,20.464l-0.043,36.755
		l-3.376,0.026l0.043-36.755l3.376-0.028V20.464z M35.349,20.462v0.002l0,0V20.462z M34.44,21.923l-1.666-2.937l-0.017,0.01
		l0.052-0.03l0.095-0.048l0.071-0.031l0.075-0.029l0.053-0.019l0.084-0.026l0.068-0.017l0.096-0.02l0.099-0.014l0.094-0.009
		l0.107-0.003l0.113,0.004l0.219,0.029l0.133,0.033l0.034,0.01l0.153,0.055l0.106,0.049l0.096,0.052l0.217,0.151l0.125,0.113
		l0.001,0.001l0.113,0.125l0.152,0.218l0.029,0.052l0.024,0.047l0.092,0.223l0.037,0.127l0.001,0.002l0.025,0.119l0.016,0.11
		l0.008,0.101l0.002,0.092l-3.376,0.03l0.002,0.086l0.008,0.096l0.015,0.105l0.024,0.114l0-0.002l0.036,0.122l0.09,0.219
		l0.022,0.043l0.027,0.048l0.149,0.215l0.11,0.122l-0.001-0.001l0.122,0.11l0.214,0.148l0.093,0.05l0.103,0.047l0.149,0.054
		l0.03,0.009l0.129,0.031l0.215,0.028l0.109,0.004l0.103-0.003l0.09-0.008l0.093-0.014l0.091-0.019l0.063-0.016l0.08-0.024
		l0.048-0.017l0.069-0.027l0.065-0.029l0.089-0.045l0.046-0.027L34.44,21.923z M34.457,21.913l-0.004,0.003l-0.012,0.007
		L34.457,21.913z M0.98,37.393l31.794-18.406l1.666,2.937L2.646,40.329l-1.689-2.923L0.98,37.393L0.98,37.393z M0.957,37.406
		l0.007-0.004l0.017-0.009L0.957,37.406z M3.447,38.933l-3.376,0.025v0.002l0.002-0.087l0.006-0.088l0.011-0.086l0.012-0.069
		l0-0.003l0.017-0.079l0.042-0.148l0.025-0.071l0.001-0.003l0.001-0.003l0.027-0.068l0.029-0.064l0.031-0.062l0.05-0.089
		l0.002-0.003l0.034-0.055l0.035-0.052l0.002-0.003l0.026-0.037l0.037-0.048L0.5,37.795l0.032-0.038l0.036-0.038l0.038-0.04
		l0.038-0.037l0.041-0.037l0.044-0.038l0.002-0.002l0.083-0.065l0.052-0.036l0.002-0.002l0.088-0.057l1.712,2.909l0.083-0.053
		L2.75,40.264l0.046-0.033l0.078-0.061l-0.002,0.002l0.039-0.034l0.036-0.033l0.033-0.032l0.034-0.035l0.031-0.034l0.028-0.032
		l0.032-0.039l0.033-0.043l0.022-0.031l-0.002,0.002l0.031-0.046l0.031-0.049l-0.002,0.002l0.047-0.083l0.028-0.056l0.026-0.059
		l0.025-0.062l-0.001,0.003l-0.001,0.003l0.023-0.065l0.041-0.142l0.016-0.074l0,0.003l0.011-0.063l0.01-0.081l0.006-0.082
		l0.002-0.082V38.933L3.447,38.933z M3.447,38.931v0.002l0,0V38.931z"/>
</g>
<g>
	<path fill="#FFFFFF" d="M35.348,20.487l0.044,36.755l-3.376-0.025l-0.044-36.755V20.46L35.348,20.487z M31.971,20.462
		L31.971,20.462V20.46V20.462z M34.546,18.983L32.88,21.92l0.003,0.002l0.085,0.046l-0.034-0.018l0.129,0.061l0.069,0.027
		l0.048,0.017l0.166,0.046l-0.023-0.005l0.091,0.019l0.093,0.014l0.09,0.008l0.214,0l0.108-0.011l-0.002,0l0.127-0.022l0.248-0.074
		l0.146-0.064l-0.001,0.001l0.092-0.05l0.214-0.148l0.122-0.11l-0.001,0.001l0.11-0.122l0.149-0.215l0.027-0.048l0.022-0.043
		l0.09-0.219l0.036-0.123l0,0.002l0.024-0.114l0.015-0.105l0.008-0.096l0.002-0.087l-3.376-0.029l0.002-0.093l0.009-0.101
		l0.015-0.11l0.026-0.119l0-0.002l0.037-0.127l0.092-0.223l0.025-0.047l0.029-0.051l0.151-0.219l0.113-0.125l0.001-0.001
		l0.125-0.113l0.218-0.151l0.096-0.052l0.002-0.001l0.149-0.065l0.251-0.075l0.131-0.023h0.002l0.112-0.012h0.219l0.094,0.008
		l0.098,0.014l0.096,0.02l-0.018-0.004l0.171,0.047l0.053,0.019l0.074,0.029l0.135,0.064l-0.028-0.015l0.09,0.049L34.546,18.983z
		 M34.542,18.981l0.004,0.002l0.04,0.023L34.542,18.981z M64.675,40.326L32.88,21.92l1.666-2.937L66.341,37.39l0.015,0.008
		L64.675,40.326z M66.341,37.39l0.015,0.008l0.002,0.001L66.341,37.39z M67.25,38.956l-3.376-0.025l0,0.03l0.002,0.05l0.016,0.166
		l0-0.003l0.011,0.063l0.015,0.073l0-0.003l0.041,0.142l0.023,0.065l-0.01-0.027l0.034,0.086l0.027,0.059l-0.001-0.003l-0.001-0.003
		l0.028,0.056l0.08,0.136l-0.002-0.003l-0.002-0.003l0.031,0.046l0.022,0.031l0.033,0.043l0.032,0.039l0.028,0.032l0.031,0.034
		l0.034,0.035l-0.002-0.002l0.035,0.034l0.075,0.066l0.078,0.061l-0.003-0.002l0.011,0.008l0.085,0.058l0.039,0.024l1.695-2.92
		l0.044,0.027l0.091,0.061l0.016,0.012l0.003,0.002l0.083,0.065l0.08,0.071l0.04,0.039l0.003,0.003l0.038,0.039l0.036,0.039
		l0.032,0.038l0.036,0.045l0.037,0.048l0.026,0.037l0.035,0.052l0.001,0.003l0.002,0.002l0.083,0.142l0.03,0.062l0.001,0.003
		l0.001,0.003l0.029,0.064l0.037,0.093l-0.008-0.021l0.025,0.071l0.042,0.148l0,0.003l0.017,0.08l0.012,0.069l0,0.003l0.017,0.171
		l0.002,0.055V38.956L67.25,38.956z M67.25,38.925v0.014v0.017V38.925z M63.917,75.686L63.874,38.93l3.376,0.025l0.043,36.756v0.002
		L63.917,75.686z M67.293,75.711L67.293,75.711v0.002V75.711z M64.719,77.188l1.666-2.937l0.017,0.01l-0.047-0.027l-0.089-0.045
		L66.2,74.16l0.003,0.001l-0.12-0.045l-0.08-0.024l-0.063-0.016l-0.091-0.019l-0.093-0.013l-0.089-0.008l-0.103-0.003l-0.22,0.014
		h0.002l-0.127,0.022l-0.139,0.036l-0.149,0.054l-0.103,0.047l-0.093,0.05l-0.139,0.09l-0.133,0.108l-0.063,0.059l-0.11,0.123
		l-0.149,0.215l-0.027,0.048l-0.022,0.043l-0.079,0.185l-0.041,0.131l-0.006,0.023l-0.024,0.114l-0.015,0.105l-0.008,0.096
		l-0.002,0.086l3.376,0.03l-0.002,0.092l-0.008,0.101l-0.016,0.11l-0.025,0.119l-0.007,0.027l-0.042,0.136l-0.081,0.188
		l-0.024,0.047l-0.029,0.053l-0.152,0.219l-0.113,0.125l-0.065,0.061l-0.136,0.111l-0.142,0.092l-0.096,0.053l-0.106,0.049
		l-0.152,0.055l-0.144,0.037l-0.131,0.023h-0.002l-0.224,0.016l-0.107-0.004l-0.094-0.009l-0.099-0.015l-0.096-0.02l-0.068-0.018
		l-0.084-0.025l-0.125-0.047l-0.003-0.002l-0.071-0.031l-0.094-0.048l-0.052-0.03L64.719,77.188L64.719,77.188z M66.384,74.251
		l0.012,0.007l0.005,0.003L66.384,74.251z M34.59,55.846l31.794,18.406l-1.666,2.937L32.924,58.782l1.651-2.945L34.59,55.846z
		 M34.576,55.837l0.014,0.008L34.576,55.837L34.576,55.837z M32.015,57.217l3.376,0.025v0.002l-0.002-0.082l-0.006-0.082
		l-0.009-0.069l-0.012-0.075l0,0.003l-0.016-0.073l-0.041-0.142l0.008,0.025l-0.006-0.02l-0.049-0.13l-0.027-0.059l0.001,0.003
		l-0.028-0.056l-0.028-0.052l0.001,0.003l-0.017-0.028l-0.031-0.05l-0.055-0.08l-0.033-0.043l0.002,0.003l-0.026-0.032l-0.033-0.04
		l-0.033-0.035l-0.032-0.033l-0.035-0.034l-0.033-0.03l-0.039-0.034l-0.078-0.061l0.003,0.002l-0.046-0.032l-0.083-0.053
		l-0.035-0.021l-1.637,2.953l-0.041-0.023L32.81,58.71l-0.051-0.037l-0.003-0.002l-0.083-0.065l-0.044-0.038l-0.039-0.035
		l-0.04-0.039l-0.037-0.038l-0.038-0.041l-0.038-0.044l-0.03-0.038l-0.002-0.002l-0.037-0.048l-0.059-0.086l-0.035-0.055
		l-0.02-0.034l-0.002-0.003l-0.032-0.058l-0.031-0.062l-0.001-0.003l-0.029-0.065l-0.052-0.136L32.1,57.757l0.006,0.02l-0.042-0.148
		l-0.017-0.08l0-0.003l-0.014-0.081l-0.009-0.075l-0.006-0.087l-0.002-0.088V57.217L32.015,57.217z M35.392,57.242L35.392,57.242
		v0.002V57.242z"/>
</g>
<g>
	<path fill="#FFFFFF" d="M31.976,130.642l0.044-36.755l3.376-0.025l-0.044,36.755l-3.376,0.027V130.642z M31.976,130.644v-0.002l0,0
		V130.644z M32.884,129.184l1.666,2.938l0.002-0.002l-0.065,0.036l-0.002,0.001l-0.135,0.064l-0.046,0.018l-0.081,0.03l-0.17,0.047
		l-0.003,0.001l-0.075,0.016l-0.086,0.012l-0.106,0.01H33.57l-0.12-0.012l-0.131-0.021l-0.111-0.028l-0.002-0.001l-0.143-0.047
		l-0.243-0.117l-0.086-0.055l-0.058-0.039l-0.136-0.111l-0.177-0.185l-0.098-0.134l-0.001-0.002l-0.034-0.053l-0.073-0.131
		l-0.092-0.223l-0.037-0.127l-0.006-0.025L32,130.932l-0.013-0.095l-0.008-0.101l-0.002-0.093l3.376-0.029l-0.002-0.087
		l-0.008-0.096l-0.012-0.09l-0.021-0.106l-0.005-0.021l-0.036-0.123l-0.09-0.219l-0.071-0.127l-0.032-0.049l0.001,0.002
		l-0.096-0.131l-0.174-0.182l-0.134-0.108l-0.054-0.038l-0.083-0.052l-0.24-0.115l-0.139-0.046h0.002l-0.107-0.026l-0.127-0.022
		l-0.115-0.011h-0.207l-0.102,0.009l-0.082,0.013l-0.07,0.015l0.002-0.001l-0.166,0.046l-0.076,0.027l-0.041,0.017l-0.129,0.062
		l0.003-0.002l-0.06,0.033L32.884,129.184L32.884,129.184z M32.882,129.186l0.002-0.002l0.131-0.076L32.882,129.186z
		 M66.345,113.714L34.55,132.122l-1.666-2.938l31.794-18.406l0.016-0.01L66.345,113.714z M64.679,110.778l0.016-0.01l-0.028,0.017
		L64.679,110.778z M63.877,112.174l3.376-0.025v-0.002l-0.002,0.088l-0.006,0.088l-0.011,0.086l-0.015,0.084l0,0.004l-0.014,0.063
		l-0.02,0.077l-0.023,0.074l-0.026,0.07l-0.027,0.068l-0.001,0.004l-0.001,0.002l-0.059,0.123l-0.051,0.09l-0.001,0.004
		l-0.002,0.002l-0.034,0.056l-0.035,0.052l-0.062,0.082l-0.002,0.002l-0.002,0.004l-0.066,0.078l-0.072,0.076l-0.038,0.037
		l0.033-0.032L66.64,113.5l-0.08,0.066l-0.012,0.01l-0.038,0.029l-0.085,0.059l-0.055,0.034l-0.042,0.024l-1.635-2.955l-0.036,0.021
		l-0.049,0.031l-0.08,0.055l-0.033,0.025l-0.007,0.005l-0.074,0.062l-0.071,0.067l0.038-0.037l-0.033,0.032l-0.067,0.07
		l-0.062,0.074l0.002-0.002l0.002-0.003l-0.057,0.076l-0.031,0.046l-0.031,0.05l0.002-0.003l0.001-0.003l-0.047,0.084l-0.056,0.118
		l0.001-0.004l0.001-0.003l-0.025,0.063l-0.023,0.065l-0.021,0.068l-0.019,0.07l-0.013,0.059l0-0.004l-0.014,0.08l-0.01,0.08
		l-0.006,0.082l-0.002,0.082V112.174L63.877,112.174z M63.877,112.176v-0.002l0,0V112.176z M67.297,75.394l-0.044,36.755
		l-3.376,0.025l0.044-36.755l3.376-0.027V75.394z M67.297,75.392v0.002l0,0V75.392z M66.389,76.852l-1.666-2.937L64.7,73.929
		l0.026-0.016l0.127-0.066l0.071-0.032l0.046-0.019l0.081-0.029l0.085-0.026l0.088-0.022l0.076-0.015l0.086-0.013l0.106-0.01
		l0.107-0.003l0.114,0.003l0.241,0.034l0.111,0.028l0.002,0l0.143,0.048l0.149,0.065l0.096,0.052l0.217,0.151l0.125,0.113
		l0.062,0.065l0.111,0.136l0.04,0.058l0.034,0.053l0.073,0.131l0.092,0.223l0.037,0.126l0,0.002l0.025,0.119l0.016,0.11l0.009,0.101
		l0.002,0.093l-3.376,0.029l0.002,0.087l0.008,0.096l0.015,0.105l0.024,0.114l0-0.002l0.036,0.122l0.09,0.219l0.071,0.128
		l0.032,0.049l0.038,0.055l0.108,0.134l0.059,0.062l0.122,0.111l0.214,0.148l0.093,0.05l0.146,0.063l0.138,0.047h-0.002l0.107,0.026
		l0.237,0.033l0.109,0.003l0.103-0.002l0.102-0.01l0.082-0.013l0.07-0.015l0.083-0.02l0.08-0.025l0.076-0.027l0.041-0.016
		l0.065-0.029l0.122-0.064l0.021-0.012L66.389,76.852L66.389,76.852z M66.412,76.838l-0.007,0.004l-0.016,0.01L66.412,76.838z
		 M32.929,92.321l31.794-18.405l1.666,2.937L34.594,95.258l-1.683-2.928L32.929,92.321z M32.912,92.331l0.005-0.002l0.012-0.008
		L32.912,92.331z M35.396,93.862l-3.376,0.025v0.002l0.002-0.088l0.007-0.088l0.011-0.086l0.012-0.069l0-0.003l0.017-0.08
		l0.042-0.147l0.001-0.003l0.001-0.003l0.052-0.136l0.03-0.065l0.001-0.003l0.03-0.062l0.051-0.09l0.001-0.003l0.002-0.002
		l0.034-0.057l0.035-0.051l0.062-0.082l0.002-0.003l0.002-0.003l0.066-0.079l0.072-0.075l0.002-0.003l0.002-0.003l0.076-0.07
		l0.044-0.039l0.038-0.029l0.048-0.037l0.051-0.037l0.037-0.023l0.061-0.039l1.7,2.918l0.055-0.035l0.031-0.021l0.046-0.032
		l0.042-0.033l0.032-0.025l0.039-0.034L34.928,95l-0.002,0.004l-0.002,0.002l0.067-0.07l0.062-0.074l-0.002,0.002l-0.002,0.003
		l0.057-0.077l0.031-0.045l0.031-0.051l-0.002,0.004L35.164,94.7l0.047-0.084l0.028-0.055l-0.001,0.002l0.027-0.059l0.049-0.13
		l0,0.003l-0.001,0.003l0.041-0.142l0.016-0.074l0,0.004l0.011-0.064l0.01-0.08l0.006-0.082l0.002-0.082V93.862L35.396,93.862z
		 M35.396,93.86v0.002l0,0V93.86z"/>
</g>
<g>
	<path fill="#FFFFFF" d="M95.509,130.613l-0.043-36.755l3.376,0.025l0.043,36.755v0.002L95.509,130.613z M98.885,130.638
		L98.885,130.638v0.002V130.638z M96.311,132.117l1.666-2.937l0.002,0.001l-0.059-0.032h0.002l-0.129-0.061l-0.041-0.017
		l-0.076-0.026l-0.166-0.047L97.513,129l-0.07-0.015l-0.082-0.012l-0.102-0.01h-0.207l-0.115,0.012l-0.014,0.002l-0.112,0.02
		l-0.21,0.06l-0.136,0.056l-0.045,0.021l-0.093,0.051l-0.214,0.148l-0.122,0.109l-0.059,0.063l-0.108,0.135l-0.038,0.054
		l-0.032,0.05l-0.071,0.127l-0.091,0.219l-0.036,0.123l0-0.003l-0.024,0.114l-0.015,0.105l-0.008,0.096l-0.002,0.086l3.376,0.03
		l-0.002,0.093l-0.008,0.101l-0.016,0.11l-0.025,0.119l0,0.002l-0.037,0.127l-0.092,0.223l-0.073,0.131l-0.034,0.053l-0.04,0.059
		l-0.111,0.137l-0.062,0.064l-0.125,0.113l-0.217,0.15l-0.096,0.053l-0.049,0.023l-0.14,0.057l-0.213,0.061l-0.116,0.021
		l-0.017,0.002l-0.12,0.012h-0.211l-0.106-0.01l-0.086-0.014l-0.075-0.015l-0.002-0.001l-0.171-0.047l-0.081-0.029l-0.046-0.019
		l-0.135-0.063l-0.003-0.002l-0.065-0.035L96.311,132.117L96.311,132.117z M97.977,129.18l0.002,0.001l-0.132-0.077L97.977,129.18z
		 M66.182,110.774l31.794,18.406l-1.666,2.937l-31.794-18.407l1.662-2.938L66.182,110.774z M66.178,110.772l0.004,0.002l0.087,0.05
		L66.178,110.772z M63.607,112.145l3.376,0.025v0.002l-0.002-0.082l-0.006-0.082l-0.009-0.069l-0.012-0.075l0,0.003l-0.016-0.073
		l-0.041-0.143l0.001,0.004l0.001,0.002l-0.039-0.104l-0.038-0.085l0.001,0.003l-0.028-0.056l-0.047-0.084l0.001,0.003l0.002,0.003
		l-0.031-0.05l-0.031-0.046l-0.031-0.042l-0.024-0.031l-0.026-0.033l-0.033-0.039l-0.067-0.07l0.002,0.002l0.002,0.003l-0.071-0.067
		l-0.039-0.033l-0.078-0.061l0.003,0.002l-0.046-0.033l-0.083-0.053l-0.024-0.014l-1.658,2.939l-0.03-0.017l-0.088-0.057
		l-0.051-0.036l-0.003-0.002l-0.083-0.065l-0.044-0.038l-0.076-0.071l-0.002-0.003l-0.002-0.002l-0.071-0.076l-0.038-0.043
		L64,113.262l-0.028-0.036l-0.035-0.048l-0.035-0.053l-0.035-0.055l-0.001-0.002l-0.002-0.004l-0.05-0.09l-0.031-0.061l-0.001-0.004
		l-0.041-0.09l-0.041-0.111l-0.001-0.002l-0.001-0.004l-0.042-0.148l-0.017-0.078l0-0.004l-0.014-0.08l-0.009-0.075l-0.006-0.088
		l-0.002-0.088V112.145L63.607,112.145z M66.984,112.17L66.984,112.17v0.002V112.17z M66.939,75.414l0.044,36.756l-3.376-0.025
		l-0.044-36.756v-0.002L66.939,75.414z M63.563,75.389L63.563,75.389v-0.002V75.389z M66.138,73.911l-1.667,2.937l-0.002-0.002
		l0.06,0.033l-0.002-0.002l0.129,0.062l0.041,0.017l0.076,0.027l0.166,0.046l-0.002-0.001l0.07,0.015l0.082,0.013l0.102,0.009h0.207
		l0.115-0.011l0.014-0.002l0.112-0.021l0.107-0.026l0.139-0.047l0.24-0.115l0.083-0.051l0.054-0.038l0.133-0.108l0.123-0.123
		l0.108-0.133l0.038-0.055l-0.001,0.002l0.08-0.134l0.114-0.264l0.036-0.123l-0.001,0.002l0.021-0.096l0.019-0.124l0.008-0.096
		l0.002-0.087l-3.376-0.029l0.002-0.092l0.008-0.101l0.019-0.128l0.022-0.101l0-0.002l0.037-0.127l0.116-0.268l0.083-0.137
		l0.001-0.002l0.04-0.058l0.111-0.137l0.125-0.125l0.136-0.11l0.057-0.04l0.086-0.054l0.244-0.117l0.143-0.048l0.111-0.027
		l0.116-0.021l0.017-0.002l0.119-0.012h0.212l0.106,0.01l0.086,0.013l0.075,0.016l0.002,0l0.171,0.047l0.081,0.029l0.046,0.019
		l0.135,0.064l0.002,0.001l0.065,0.036L66.138,73.911L66.138,73.911z M64.472,76.848l-0.002-0.002l0.132,0.076L64.472,76.848z
		 M96.266,95.254L64.472,76.848l1.667-2.937l31.794,18.406l0.005,0.004L96.266,95.254z M97.933,92.317l0.005,0.004l-0.01-0.006
		L97.933,92.317z M98.842,93.883l-3.376-0.025l0,0.046l0.001,0.034l0.006,0.082l0.021,0.146l0-0.002l0.016,0.072l0.019,0.071
		l-0.001-0.003l0.021,0.068l0.023,0.064l0.025,0.063l0.027,0.059l-0.001-0.002l0.013,0.026l0.014,0.026l0.059,0.104l0.019,0.029
		l0.021,0.031l0.032,0.046l0.007,0.009l0.024,0.031l0.026,0.032l0.034,0.04l0.033,0.035l0.066,0.066l0,0l0.034,0.03l0.074,0.062
		l-0.038-0.029l0.078,0.061l0.08,0.055l-0.003-0.002l0.067,0.041l1.676-2.93l0.073,0.045l0.003,0.002l0.085,0.059l0.083,0.064
		l-0.033-0.025l0.08,0.066l0.038,0.035l0.005,0.004l0.072,0.072l0.037,0.04l0.038,0.044l0.03,0.038l0.028,0.036l0.011,0.015
		l0.036,0.052l0.024,0.037l0.022,0.034l0.063,0.11l0.016,0.031l0.016,0.033l0.001,0.003l0.029,0.064l0.028,0.068l0.025,0.071
		l0.023,0.074l0.001,0.002l0.02,0.078l0.017,0.078l0,0.004l0.022,0.152l0.006,0.088l0.002,0.039L98.842,93.883L98.842,93.883z
		 M98.841,93.836l0,0.02v0.027L98.841,93.836z"/>
</g>
<g>
	<path fill="#FFFFFF" d="M99.092,20.466l-0.043,36.755l-3.376,0.025l0.043-36.755l3.376-0.027V20.466z M99.092,20.464v0.002l0,0
		V20.464z M98.184,21.924l-1.666-2.937l0.004-0.002l0.091-0.049l-0.029,0.015l0.135-0.064l0.075-0.029l0.053-0.019l0.17-0.047
		l-0.018,0.004l0.096-0.02l0.099-0.014l0.094-0.008h0.219l0.112,0.012h0.002l0.131,0.023l0.251,0.075l0.149,0.066l0.001,0
		l0.096,0.052l0.217,0.151l0.125,0.113l0.001,0.001l0.113,0.125l0.152,0.219l0.029,0.051l0.025,0.047l0.092,0.223l0.037,0.126
		l0,0.002l0.025,0.119l0.016,0.11l0.008,0.101l0.002,0.093l-3.376,0.029l0.002,0.087l0.008,0.096l0.015,0.105l0.024,0.114
		l-0.001-0.002l0.036,0.122l0.09,0.219l0.022,0.043l0.027,0.048l0.149,0.215l0.11,0.122l-0.001-0.001l0.122,0.11l0.214,0.148
		l0.093,0.05l-0.001,0l0.146,0.064l0.248,0.074l0.127,0.022l-0.002,0l0.108,0.011l0.214,0l0.089-0.008l0.093-0.014l0.091-0.019
		l-0.023,0.005l0.166-0.046l0.047-0.017L98,22.015l0.129-0.061l-0.034,0.018l0.085-0.046L98.184,21.924L98.184,21.924z
		 M96.518,18.987l0.004-0.002l-0.091,0.052L96.518,18.987z M64.723,37.394l31.794-18.406l1.666,2.937L66.39,40.33l-0.015,0.008
		L64.723,37.394L64.723,37.394z M66.39,40.33l-0.003,0.002l-0.012,0.006L66.39,40.33z M67.191,38.934l-3.376,0.025v0.002
		l0.002-0.088l0.007-0.087l0.009-0.075l0.014-0.082l0-0.002l0.017-0.08l0.042-0.148l-0.006,0.019l0.008-0.025l0.052-0.136
		l0.03-0.065l0.001-0.003l0.031-0.062l0.032-0.058l0.002-0.003l0.02-0.034l0.035-0.056l0.059-0.085l0.037-0.048l0.002-0.003
		l0.03-0.038l0.038-0.044l0.038-0.041l0.037-0.038l0.04-0.039l0.039-0.035l0.044-0.038l0.083-0.065l0.003-0.002l0.051-0.036
		l0.088-0.057l0.041-0.023l1.637,2.953l0.035-0.02l0.083-0.053l0.046-0.033l-0.003,0.002l0.078-0.061l0.039-0.033l0.033-0.031
		l0.035-0.034l0.032-0.032l0.033-0.036l0.033-0.039l0.026-0.033l-0.002,0.003l0.033-0.043l0.055-0.08l0.031-0.05l0.017-0.028
		l-0.001,0.003l0.028-0.052l0.028-0.056l-0.001,0.003l0.027-0.059l0.049-0.13l0.007-0.019l-0.009,0.025l0.041-0.142l0.016-0.073
		l0,0.003l0.012-0.075l0.009-0.069l0.006-0.082l0.002-0.082V38.934L67.191,38.934z M67.191,38.932v0.002l0,0V38.932z M63.771,75.715
		l0.044-36.756l3.376-0.025l-0.044,36.755l-3.376,0.028V75.715z M63.771,75.717v-0.002l0,0V75.717z M64.68,74.256l1.666,2.936
		l0.017-0.01l-0.052,0.031l-0.095,0.047l-0.071,0.032l-0.074,0.029l-0.053,0.019l-0.085,0.025l-0.067,0.018l-0.096,0.02
		l-0.098,0.015l-0.094,0.009L65.47,77.43l-0.114-0.004l-0.219-0.029l-0.133-0.033l-0.034-0.01l-0.153-0.055L64.71,77.25
		l-0.096-0.052l-0.218-0.151l-0.125-0.113l-0.001-0.001l-0.113-0.125l-0.151-0.218l-0.029-0.053l-0.025-0.047l-0.092-0.223
		l-0.037-0.127l0-0.002l-0.026-0.119l-0.015-0.11l-0.009-0.101l-0.002-0.092l3.376-0.03l-0.002-0.086l-0.008-0.096l-0.015-0.105
		l-0.024-0.114l0,0.002l-0.036-0.122l-0.09-0.219l-0.022-0.043l-0.027-0.048l-0.149-0.215l-0.11-0.122l0.001,0.001l-0.122-0.11
		l-0.214-0.148l-0.092-0.05l-0.103-0.047l-0.149-0.054l-0.03-0.009l-0.129-0.031l-0.214-0.029l-0.11-0.003l-0.103,0.003l-0.09,0.008
		l-0.093,0.014l-0.091,0.019l-0.063,0.016l-0.08,0.024l-0.047,0.017l-0.069,0.027l-0.065,0.029l-0.089,0.045l-0.046,0.026
		L64.68,74.256L64.68,74.256z M64.663,74.266l0.005-0.002l0.012-0.007L64.663,74.266L64.663,74.266z M98.14,58.787L66.345,77.192
		l-1.666-2.936L96.474,55.85l1.67,2.934L98.14,58.787L98.14,58.787z M98.145,58.784l-0.005,0.002l0.032-0.018L98.145,58.784
		L98.145,58.784z M95.673,57.247l3.376-0.026v-0.002l-0.002,0.088l-0.007,0.088l-0.009,0.074l-0.014,0.082l0,0.003L99,57.632
		l-0.042,0.148l-0.001,0.003l-0.025,0.071l-0.028,0.068l-0.001,0.003l-0.03,0.065l-0.047,0.092l-0.015,0.028l-0.002,0.003
		L98.756,58.2l-0.025,0.036l-0.036,0.052l-0.011,0.015l-0.028,0.037l-0.066,0.079l-0.002,0.002l-0.038,0.041L98.514,58.5
		l-0.04,0.039l-0.039,0.035l-0.079,0.066l-0.002,0.002l-0.048,0.037l-0.085,0.059l-0.003,0.002l-0.073,0.045l-1.676-2.931
		l-0.067,0.042l0.002-0.002l-0.08,0.055l-0.042,0.032l0.003-0.002l-0.074,0.062l-0.033,0.031l-0.035,0.034l-0.031,0.033
		l-0.033,0.036l0.002-0.003l-0.062,0.074l-0.024,0.031l-0.006,0.009l-0.033,0.046l-0.021,0.031l-0.05,0.081l0.002-0.003
		l-0.012,0.022l-0.044,0.086l-0.027,0.059l0.001-0.003l-0.025,0.062l-0.024,0.065l0.001-0.003l-0.041,0.143l-0.016,0.073l0-0.003
		l-0.013,0.075l-0.008,0.069l-0.006,0.082l-0.002,0.083V57.247z M95.673,57.249v-0.002l0,0V57.249z"/>
</g>
<g>
	<path fill="#FFFFFF" d="M33.695,57.11l31.831,18.377c0.026,0.015,0.023,0.041-0.007,0.059L33.66,93.839
		c-0.03,0.017-0.074,0.019-0.1,0.004L1.73,75.466c-0.026-0.015-0.023-0.041,0.007-0.058l31.859-18.294
		C33.626,57.097,33.67,57.096,33.695,57.11z"/>
	<path id="_x31_" fill="#FFFFFF" d="M64.669,76.942L32.839,58.564l1.714-2.909l31.831,18.377l0.01,0.006L64.669,76.942
		L64.669,76.942z M66.383,74.033l0.01,0.006l-0.019-0.011L66.383,74.033z M66.373,77.002l-1.707-2.913l-0.022,0.013l-0.037,0.022
		l-0.07,0.047l-0.089,0.068l0.002-0.002l-0.039,0.033l-0.13,0.125l-0.001,0.001l-0.046,0.053l-0.13,0.175l-0.044,0.073l0.001-0.002
		l-0.042,0.08l-0.079,0.184l-0.032,0.101l-0.027,0.107l-0.033,0.229l-0.004,0.117v-0.002l0.019,0.251l0.023,0.12l0.021,0.082
		l0.089,0.239l-0.001-0.002l0.045,0.09l0.134,0.211l0.052,0.066l0.051,0.058l0.098,0.099l0.101,0.086l0.043,0.032l0.04,0.028
		l0.101,0.064l1.734-2.897l0.105,0.066l0.044,0.032l0.047,0.036l0.104,0.089l0.101,0.101l0.054,0.062l0.055,0.069l0.137,0.213
		l0.047,0.094l0,0.001l0.091,0.244l0.021,0.085l0.024,0.123l0.019,0.256v0.002l-0.004,0.121l-0.033,0.233l-0.028,0.11l-0.034,0.105
		l-0.08,0.188l-0.045,0.084l-0.001,0.002l-0.046,0.077l-0.133,0.179l-0.05,0.057l-0.005,0.006l-0.134,0.129l-0.044,0.037
		l-0.002,0.002l-0.094,0.07l-0.075,0.051l-0.042,0.025L66.373,77.002L66.373,77.002z M66.395,76.989l-0.022,0.014l0.019-0.012
		L66.395,76.989z M32.807,92.383l31.859-18.294l1.707,2.913L34.514,95.295l-0.042,0.023L32.807,92.383z M34.514,95.295l-0.022,0.014
		l-0.02,0.01L34.514,95.295z M32.704,95.297l1.714-2.908l0.024,0.014l-0.112-0.061h0.002l-0.099-0.045l-0.096-0.037l0.003,0.002
		l-0.071-0.023l-0.093-0.025l-0.087-0.018h0.003l-0.072-0.012l-0.08-0.009l0.003,0.001l-0.071-0.005l-0.071-0.002h0.003
		l-0.068,0.001l-0.068,0.005l-0.067,0.007h0.003h0.003l-0.078,0.011l-0.068,0.013l-0.048,0.012h0.003l-0.08,0.021l-0.018,0.006
		l-0.04,0.014l-0.083,0.03l-0.023,0.01l-0.031,0.014l-0.024,0.011L32.85,92.36l1.622,2.959l-0.076,0.039l-0.031,0.015l-0.037,0.017
		l-0.029,0.012l-0.089,0.033l-0.046,0.016l-0.024,0.008l-0.087,0.023l-0.003,0.002l-0.055,0.013L33.92,95.51l-0.084,0.012h-0.003
		l-0.003,0.001l-0.074,0.008l-0.074,0.005l-0.075,0.002h-0.003l-0.078-0.002l-0.078-0.006h-0.003l-0.086-0.01l-0.078-0.012
		l-0.003-0.001l-0.094-0.02l-0.098-0.026l-0.077-0.025h-0.003l-0.102-0.039l-0.104-0.049h-0.002l-0.118-0.064L32.704,95.297z
		 M34.417,92.389l0.015,0.008l0.01,0.006L34.417,92.389z M2.587,74.012l31.831,18.377l-1.714,2.908L0.873,76.92l1.701-2.917
		L2.587,74.012L2.587,74.012z M2.574,74.004l0.017,0.009l-0.003-0.001L2.574,74.004z M0.884,73.952l1.706,2.914l0.001-0.002
		l0.058-0.033l0.07-0.048l0.038-0.026l-0.002,0.002l0.091-0.074l0.086-0.08l0.045-0.047l0.085-0.101l0.091-0.128l0.016-0.025
		l-0.001,0.001l0.071-0.127l0.078-0.184l0.033-0.101l0.026-0.106l0.033-0.229l0.004-0.117v0.002l-0.02-0.252l-0.017-0.094
		L3.34,74.958L3.261,74.75l0.001,0.002l-0.073-0.141l-0.106-0.16L3.03,74.385l-0.051-0.058L2.827,74.18l-0.045-0.038L2.738,74.11
		l-0.102-0.069l-0.062-0.037l-1.687,2.924L0.82,76.889l-0.106-0.072l-0.047-0.036l-0.05-0.04L0.46,76.59l-0.054-0.063l-0.055-0.068
		l-0.108-0.164l-0.075-0.144l-0.001-0.002l-0.081-0.211l-0.037-0.143l-0.018-0.098l-0.02-0.255V75.44l0.004-0.121l0.033-0.233
		l0.028-0.111l0.033-0.105l0.081-0.188l0.073-0.131l0.001-0.002l0.019-0.03l0.094-0.132l0.088-0.104l0.049-0.051l0.09-0.084
		L0.7,74.073l0.002-0.002l0.042-0.03l0.075-0.05l0.063-0.038L0.884,73.952L0.884,73.952z M34.449,58.571L2.59,76.866l-1.706-2.914
		l31.858-18.294l0.011-0.006L34.449,58.571z M32.743,55.658l0.011-0.006l-0.007,0.004L32.743,55.658L32.743,55.658z M34.553,55.655
		l-1.714,2.909l-0.002-0.001l0.055,0.03l0.103,0.05l0.101,0.041l0.024,0.009l-0.003-0.001l0.147,0.044l0.016,0.004l0.014,0.003
		l0.145,0.026l0.073,0.008l-0.003,0l0.004,0l0.071,0.004l0.071,0.002h-0.003l0.068-0.001l0.068-0.004l-0.003,0l0.067-0.007
		l0.065-0.009l0.009-0.002l0.067-0.013l0.048-0.011l-0.003,0l0.08-0.022l0.018-0.005l0.041-0.014l0.082-0.031l0.023-0.01
		l0.031-0.014l0.083-0.041l0.044-0.024l-1.686-2.925l0.05-0.027l0.088-0.043l0.037-0.016l0.029-0.012l0.089-0.034l0.046-0.016
		l0.023-0.007l0.087-0.024l0.003-0.001l0.055-0.013l0.074-0.014l0.015-0.002l0.073-0.011l0.074-0.008h0.003l0.075-0.005l0.075-0.001
		h0.003l0.078,0.001l0.078,0.005l0.01,0.001h0.003l0.08,0.009l0.151,0.027l0.021,0.005l0.021,0.005l0.153,0.046l0.003,0.001
		l0.029,0.01l0.105,0.043l0.108,0.052l0.06,0.033L34.553,55.655L34.553,55.655z M32.839,58.564l-0.002-0.001l0.049,0.028
		L32.839,58.564z"/>
</g>
<g>
	<path fill="#FFFFFF" d="M97.527,57.11l31.83,18.377c0.026,0.015,0.023,0.04-0.007,0.058L97.491,93.838
		c-0.031,0.018-0.074,0.02-0.1,0.005L65.561,75.466c-0.026-0.015-0.023-0.041,0.007-0.058l31.859-18.294
		C97.458,57.097,97.501,57.095,97.527,57.11L97.527,57.11z"/>
	<path id="_x31__1_" fill="#FFFFFF" d="M128.5,76.942L96.67,58.564l1.714-2.909l31.83,18.377l-1.7,2.917L128.5,76.942z
		 M128.514,76.95l-0.017-0.01l0.003,0.002L128.514,76.95z M130.203,77.001l-1.707-2.913l-0.022,0.013l-0.037,0.022l-0.07,0.047
		l-0.089,0.067l0.002-0.002l-0.039,0.033l-0.13,0.125l-0.001,0.001l-0.047,0.053l-0.129,0.175l-0.044,0.073l0.001-0.002l-0.042,0.08
		l-0.079,0.184l-0.032,0.101l-0.027,0.107l-0.033,0.229l-0.004,0.117v-0.001l0.017,0.234l0.02,0.112l0.036,0.139l0.079,0.208
		l0-0.002l0.073,0.141l0.106,0.16l0.052,0.065l0.051,0.059l0.153,0.146l0.046,0.038l0.043,0.031l0.102,0.07l0.063,0.037l1.687-2.925
		l0.067,0.04l0.106,0.072l0.047,0.036l0.049,0.041l0.156,0.15l0.054,0.062l0.055,0.069l0.108,0.164l0.075,0.144l0,0.002L131,75.015
		l0.037,0.143l0.021,0.116l0.017,0.238v0.001l-0.004,0.121l-0.033,0.232l-0.028,0.111l-0.033,0.105l-0.08,0.188l-0.045,0.084
		l-0.001,0.002l-0.046,0.076l-0.133,0.18l-0.05,0.057l-0.005,0.006l-0.134,0.129l-0.043,0.037l-0.002,0.002l-0.094,0.07
		l-0.075,0.051l-0.042,0.025L130.203,77.001L130.203,77.001z M130.225,76.989l-0.022,0.013l0.019-0.011L130.225,76.989z
		 M96.638,92.382l31.859-18.293l1.707,2.913L98.344,95.295l-0.011,0.006L96.638,92.382L96.638,92.382z M98.344,95.295l-0.011,0.006
		l0.008-0.004L98.344,95.295z M96.535,95.297l1.714-2.908l0,0l-0.088-0.047l-0.067-0.033l0.002,0.002l-0.101-0.041l-0.119-0.039
		l0.003,0.001l-0.071-0.019l-0.073-0.016l-0.011-0.002l-0.082-0.014l-0.063-0.006L97.5,92.17h0.003h0.003h-0.143h0.003l0,0
		l-0.145,0.013l0.013-0.001l0.003-0.001l-0.134,0.022l0.003-0.001l-0.011,0.003l-0.132,0.033h0.003l-0.018,0.005L96.85,92.28
		l0.003-0.002l-0.047,0.02l-0.059,0.027l-0.055,0.027l-0.044,0.023l1.685,2.926l-0.05,0.027l-0.062,0.03l-0.064,0.029l-0.053,0.022
		l-0.003,0.001l-0.108,0.038l-0.024,0.008l-0.003,0.001l-0.138,0.036l-0.018,0.004h-0.003l-0.141,0.023h-0.003h0.005l-0.151,0.013
		l-0.006,0.001h-0.003h-0.149l-0.003-0.001h-0.003l-0.084-0.005l-0.069-0.008l-0.088-0.014l-0.017-0.004l-0.08-0.018l-0.077-0.02
		l-0.003-0.001l-0.124-0.04l-0.106-0.043L96.7,95.381l-0.073-0.033L96.535,95.297L96.535,95.297z M66.417,74.012l31.831,18.377
		l-1.714,2.908L64.704,76.92L66.397,74L66.417,74.012z M66.397,74l0.009,0.005l0.011,0.007L66.397,74z M64.714,73.952l1.707,2.914
		l0.007-0.005l0.051-0.03l0.07-0.048l0.038-0.026l0.04-0.031l0.093-0.08l0.043-0.041l0.045-0.047l0.085-0.101l0.045-0.06
		l0.013-0.019l0.097-0.157l0.063-0.133l0.037-0.094l0.033-0.101l0.026-0.106l0.02-0.112l0.012-0.115l0-0.245l-0.014-0.124
		l-0.018-0.094l-0.036-0.139l-0.037-0.107l-0.087-0.191l-0.08-0.134l-0.053-0.075l-0.052-0.066l-0.051-0.058l-0.153-0.147
		l-0.046-0.038l-0.043-0.032l-0.102-0.069L66.397,74l-1.673,2.932l-0.074-0.043l-0.106-0.072l-0.047-0.036l-0.05-0.04l-0.156-0.15
		l-0.054-0.063l-0.055-0.068l-0.055-0.078l-0.083-0.138l-0.089-0.195l-0.038-0.11l-0.037-0.143l-0.018-0.098l-0.015-0.127l0-0.249
		l0.013-0.119l0.021-0.116l0.028-0.111l0.033-0.105l0.039-0.098l0.065-0.137l0.099-0.161l0.016-0.022l0.048-0.063l0.088-0.104
		l0.048-0.051l0.047-0.045l0.097-0.083l0.044-0.035l0.042-0.03l0.075-0.05l0.057-0.034L64.714,73.952z M64.707,73.957l0.008-0.004
		l-0.029,0.017L64.707,73.957z M98.28,58.571L66.421,76.866l-1.707-2.914l31.859-18.294l0.011-0.006L98.28,58.571z M96.573,55.658
		l0.011-0.006l-0.007,0.004L96.573,55.658z M98.384,55.655l-1.714,2.909l0.012,0.007l0.076,0.04l0.068,0.032l0.101,0.041
		l0.023,0.009l-0.003-0.001l0.148,0.044l0.016,0.004l0.014,0.003l0.146,0.026l0.073,0.008l0.003,0l-0.003,0l0.071,0.004l0.071,0.002
		h-0.003l0.068-0.001l0.068-0.004l-0.003,0l0.067-0.007l0.065-0.009l0.009-0.001l0.067-0.013l0.048-0.011l-0.003,0l0.08-0.022
		l0.018-0.005l0.041-0.014l0.082-0.031l0.023-0.01l0.031-0.014l0.083-0.041l0.044-0.024l-1.686-2.925l0.05-0.027l0.088-0.043
		l0.037-0.016l0.029-0.012l0.089-0.034l0.047-0.016l0.023-0.007l0.087-0.024l0.003-0.001l0.055-0.013l0.074-0.014l0.015-0.002
		l0.073-0.011l0.074-0.008h0.003l0.075-0.005l0.075-0.001h0.003l0.078,0.001l0.077,0.005l0.003,0l0.01,0l0.08,0.009l0.151,0.027
		l0.021,0.005l0.021,0.005l0.153,0.046l0.003,0.001l0.029,0.01l0.106,0.043l0.073,0.034l0.081,0.043L98.384,55.655L98.384,55.655z
		 M98.372,55.648l0.007,0.004l0.005,0.003L98.372,55.648z"/>
</g>
<g>
	<path fill="#FFFFFF" d="M65.598,1.976l31.83,18.377c0.026,0.015,0.023,0.041-0.007,0.058L65.563,38.704
		c-0.031,0.017-0.075,0.019-0.1,0.004l-31.83-18.377c-0.026-0.015-0.023-0.04,0.007-0.057L65.498,1.98
		C65.529,1.963,65.573,1.961,65.598,1.976z"/>
	<path id="_x31__2_" fill="#FFFFFF" d="M96.572,21.807L64.742,3.43l1.713-2.909l31.831,18.377l-1.693,2.921L96.572,21.807
		L96.572,21.807z M96.592,21.819l-0.009-0.005l-0.012-0.007L96.592,21.819z M98.275,21.867l-1.707-2.913l-0.028,0.017l-0.03,0.019
		l-0.07,0.047l-0.089,0.067l-0.039,0.033l-0.042,0.037l-0.086,0.086l-0.002,0.002l-0.046,0.053l-0.083,0.107l-0.045,0.066
		l-0.088,0.155l-0.041,0.087l-0.037,0.095l-0.033,0.101l-0.026,0.107l-0.02,0.112L95.75,20.25v0.254l0.012,0.106l0.02,0.112
		l0.036,0.139l0.037,0.107l0.087,0.191l0.08,0.134l0.053,0.074l0.052,0.066l0.051,0.058l0.153,0.146l0.046,0.038l0.043,0.032
		l0.102,0.069l0.069,0.041l1.673-2.932l0.074,0.043l0.106,0.072l0.047,0.036l0.05,0.041l0.156,0.15l0.054,0.062l0.055,0.069
		l0.055,0.078l0.083,0.137l0.089,0.194l0.038,0.11l0.037,0.144l0.021,0.115l0.012,0.11v0.257l-0.012,0.11l-0.021,0.116l-0.028,0.111
		l-0.033,0.105l-0.039,0.098l-0.042,0.091l-0.09,0.159l-0.048,0.07l-0.086,0.111l-0.05,0.056l-0.005,0.006l-0.09,0.09l-0.045,0.041
		l-0.043,0.037l-0.094,0.071l-0.075,0.05l-0.036,0.022L98.275,21.867z M98.303,21.851l-0.006,0.004l-0.022,0.013L98.303,21.851z
		 M64.709,37.248l31.859-18.294l1.707,2.913L66.416,40.161l-0.021,0.012L64.709,37.248L64.709,37.248z M66.416,40.161l-0.021,0.012
		l0.007-0.004L66.416,40.161z M64.605,40.163l1.714-2.909l0,0l-0.088-0.047l-0.068-0.032l-0.028-0.012l-0.096-0.037l-0.071-0.023
		l0.003,0.001l-0.093-0.024l-0.087-0.019l0.003,0l-0.072-0.011l-0.08-0.009l0.003,0l-0.071-0.004l-0.071-0.002l-0.068,0.001l0.003,0
		h0.003l-0.139,0.012l0.003,0h0.003l-0.078,0.011l-0.067,0.013l-0.048,0.011l0.003,0l-0.08,0.022l-0.084,0.028l0.026-0.009
		l-0.082,0.031l-0.023,0.01l-0.031,0.014l-0.082,0.041l-0.034,0.018l1.665,2.937l-0.04,0.021l-0.088,0.044l-0.037,0.016L66.2,40.266
		L66.111,40.3l0.02-0.007l-0.09,0.03l-0.087,0.024l-0.003,0.001l-0.055,0.013l-0.074,0.015l-0.084,0.013h-0.003l-0.003,0
		L65.585,40.4h-0.003l-0.003,0l-0.075,0.001L65.426,40.4l-0.077-0.005l-0.003,0l-0.086-0.009l-0.078-0.013l-0.003,0l-0.093-0.02
		l-0.099-0.026l-0.003-0.001l-0.076-0.025l-0.102-0.039l-0.034-0.015l-0.073-0.034L64.605,40.163L64.605,40.163z M34.489,18.877
		l31.83,18.377l-1.714,2.909l-31.83-18.377l1.7-2.917L34.489,18.877z M34.476,18.87l0.017,0.009l-0.003-0.002L34.476,18.87z
		 M32.786,18.818l1.707,2.913l-0.009,0.005l0.067-0.041l0.07-0.047l0.037-0.027l-0.002,0.002l0.04-0.031l0.138-0.123l0.086-0.093
		l0.005-0.006l0.098-0.127l0.076-0.121l-0.001,0.002l0.02-0.035l0.087-0.191l0.046-0.139l0.027-0.107l0.033-0.229l0.004-0.117v0.002
		l-0.019-0.251l-0.017-0.094l-0.037-0.139l-0.079-0.208l0,0.002l-0.073-0.141l-0.106-0.16l-0.052-0.066l-0.051-0.059l-0.153-0.146
		l-0.046-0.038l-0.043-0.033l-0.102-0.069l-0.063-0.037l-1.687,2.924l-0.067-0.04l-0.106-0.072l-0.047-0.036l-0.049-0.041
		l-0.156-0.15l-0.054-0.062l-0.055-0.069l-0.108-0.163l-0.075-0.144l0-0.002l-0.081-0.211l-0.037-0.143l-0.018-0.098l-0.02-0.255
		v-0.002l0.004-0.121l0.033-0.233l0.028-0.111l0.047-0.143l0.089-0.194l0.022-0.04l0.001-0.002l0.079-0.125l0.101-0.131l0.008-0.01
		l0.09-0.097l0.142-0.127l0.044-0.034l0.002-0.001l0.042-0.031l0.075-0.05l0.073-0.044L32.786,18.818z M34.493,21.731l-0.009,0.005
		l-0.022,0.012L34.493,21.731z M66.352,3.437L34.493,21.731l-1.707-2.913L64.645,0.524l0.011-0.006L66.352,3.437z M64.645,0.524
		l0.011-0.006l-0.007,0.004L64.645,0.524z M66.455,0.521L64.742,3.43l0,0l0.088,0.047l0.068,0.032l0.028,0.012l0.096,0.037
		l0.071,0.023l-0.003-0.001l0.093,0.025l0.087,0.018l-0.003,0l0.072,0.011l0.08,0.009l0.071,0.004h-0.003h0h0.14l-0.003,0h-0.003
		l0.138-0.012l-0.003,0l-0.003,0l0.148-0.025l-0.003,0.001l-0.018,0.003l0.127-0.032l0.016-0.004l0.018-0.005l0.102-0.036
		l0.021-0.008l0.023-0.01l0.031-0.014l0.083-0.041l0.044-0.024l-1.685-2.925l0.05-0.027l0.089-0.043l0.037-0.016l0.029-0.012
		l0.027-0.011l0.108-0.038l0.024-0.007l0.022-0.007l0.134-0.034l-0.011,0.002l0.003,0l0.155-0.026l0.003,0l0.003,0l0.146-0.012
		h0.003l0.003,0h0.146l0.006,0.001h0.003l0.078,0.005l0.086,0.01l0.078,0.012l0.003,0l0.093,0.02l0.099,0.026l0.002,0.001
		l0.077,0.025l0.102,0.039l0.033,0.015l0.073,0.034L66.455,0.521L66.455,0.521z"/>
</g>
<g>
	<path fill="#FFFFFF" d="M65.598,112.602l31.83,18.377c0.026,0.016,0.023,0.041-0.007,0.059l-31.858,18.293
		c-0.031,0.018-0.075,0.02-0.101,0.004l-31.83-18.377c-0.026-0.014-0.023-0.04,0.007-0.057l31.859-18.295
		C65.528,112.588,65.572,112.586,65.598,112.602z"/>
	<path id="_x31__3_" fill="#FFFFFF" d="M96.571,132.434l-31.831-18.378l1.714-2.909l31.831,18.377l0.01,0.007L96.571,132.434z
		 M98.285,129.524l0.01,0.007l-0.019-0.011L98.285,129.524z M98.274,132.495l-1.706-2.914l-0.022,0.014l-0.037,0.021l-0.07,0.048
		l-0.089,0.067l0.002-0.002l-0.039,0.033l-0.13,0.125l-0.002,0.002l-0.046,0.053l-0.13,0.176l-0.044,0.072l0.001-0.002l-0.043,0.08
		l-0.078,0.184l-0.033,0.102l-0.026,0.106l-0.033,0.229l-0.004,0.116v-0.002l0.02,0.251l0.023,0.12l0.021,0.081l0.089,0.24
		l-0.001-0.002l0.045,0.09l0.134,0.211l0.052,0.065l0.051,0.059l0.098,0.098l0.101,0.086l0.043,0.032l0.04,0.029l0.1,0.063
		l1.735-2.896l0.105,0.066l0.044,0.032l0.047,0.035l0.104,0.09l0.102,0.102l0.054,0.061l0.055,0.07l0.136,0.213l0.047,0.094
		l0.001,0.002l0.09,0.244l0.022,0.085l0.024,0.124l0.02,0.255v0.002l-0.004,0.12l-0.033,0.233l-0.028,0.11l-0.033,0.105
		l-0.081,0.188l-0.045,0.084l-0.001,0.002l-0.047,0.077l-0.132,0.179l-0.05,0.057l-0.005,0.006l-0.134,0.129l-0.043,0.037
		l-0.002,0.002l-0.094,0.07l-0.075,0.051l-0.042,0.025L98.274,132.495L98.274,132.495z M98.296,132.481l-0.022,0.014l0.019-0.012
		L98.296,132.481z M64.709,147.874l31.858-18.293l1.706,2.914l-31.858,18.292l-0.011,0.007L64.709,147.874z M66.416,150.787
		l-0.011,0.007l0.007-0.005L66.416,150.787z M64.605,150.79l1.714-2.909l0,0.001l-0.088-0.048l-0.068-0.032l-0.028-0.012
		l-0.096-0.037l-0.071-0.023l0.002,0.001l-0.092-0.024l-0.087-0.019l0.003,0.001l-0.082-0.014l-0.07-0.008l-0.071-0.004h0h0.003
		h-0.14h0.003h0.003l-0.138,0.012l0.003-0.001l0.003-0.001l-0.134,0.022l0.003-0.001h0.003l-0.146,0.037l0.003-0.001l0.003-0.001
		l-0.146,0.053l0.003-0.002l0.003-0.001l-0.058,0.024l-0.082,0.041l-0.045,0.023l1.686,2.926l-0.05,0.027l-0.089,0.043l-0.063,0.027
		l-0.003,0.001l-0.003,0.001l-0.153,0.055l-0.003,0.001l-0.003,0.001l-0.153,0.039l-0.003,0.001l-0.003,0.001l-0.141,0.023h-0.003
		H65.73l-0.145,0.013h-0.003l-0.003,0.001h-0.146l-0.003-0.001l-0.006-0.001l-0.078-0.004l-0.077-0.009L65.18,151l-0.003-0.001
		l-0.093-0.02l-0.099-0.025l-0.003-0.002l-0.076-0.024l-0.102-0.039l-0.034-0.015l-0.073-0.034L64.605,150.79L64.605,150.79z
		 M34.489,129.503l31.83,18.377l-1.714,2.909l-31.83-18.377l1.688-2.924L34.489,129.503L34.489,129.503z M34.463,129.489
		l0.014,0.008l0.012,0.007L34.463,129.489z M32.786,129.444l1.707,2.913l0.001-0.001l0.057-0.034l0.07-0.048l0.037-0.026
		l-0.002,0.002l0.091-0.073l0.086-0.08l0.045-0.048l0.085-0.101l0.091-0.127l0.017-0.026l-0.001,0.001l0.07-0.127l0.079-0.184
		l0.032-0.1l0.027-0.107l0.033-0.229l0.004-0.117v0.002l-0.017-0.234l-0.025-0.137l-0.031-0.114l-0.079-0.207l0,0.001l-0.045-0.09
		l-0.134-0.209l-0.1-0.121l-0.054-0.057l-0.047-0.046l-0.101-0.086l-0.105-0.076l-0.04-0.026l-0.075-0.043l-1.662,2.938l-0.08-0.047
		l-0.044-0.027l-0.109-0.08l-0.104-0.089l-0.05-0.048l-0.057-0.061l-0.103-0.124l-0.137-0.214l-0.047-0.094l0-0.002l-0.081-0.211
		l-0.031-0.117l-0.027-0.141l-0.017-0.238v-0.002l0.004-0.121l0.033-0.232l0.027-0.111l0.034-0.104l0.08-0.188l0.073-0.131
		l0.001-0.002l0.019-0.03l0.094-0.131l0.089-0.104l0.048-0.051l0.09-0.084l0.096-0.077l0.002-0.002l0.042-0.03l0.075-0.05
		l0.063-0.038L32.786,129.444z M66.351,114.063l-31.859,18.294l-1.707-2.913l31.859-18.294l0.01-0.006L66.351,114.063z
		 M64.645,111.15l0.01-0.006l-0.007,0.004L64.645,111.15z M66.455,111.147l-1.714,2.909v-0.001l0.088,0.048l0.068,0.032l0.028,0.012
		l0.096,0.037l0.071,0.023l-0.003-0.001l0.093,0.024l0.087,0.019l-0.003-0.001l0.072,0.012l0.08,0.01l0.071,0.004h-0.003h0h0.14
		h-0.003h-0.003l0.138-0.012l-0.003,0.001l-0.003,0.001l0.148-0.025h-0.003l-0.018,0.004l0.127-0.031l0.016-0.005l0.018-0.005
		l0.102-0.037l0.021-0.008l0.023-0.01l0.031-0.014l0.083-0.041l0.044-0.023l-1.685-2.925l0.05-0.028l0.089-0.043l0.037-0.016
		l0.029-0.013l0.027-0.011l0.108-0.039l0.024-0.007l0.022-0.007l0.134-0.033l-0.011,0.002h0.003l0.155-0.027h0.003h0.003
		l0.145-0.013h0.003l0.003-0.001h0.146l0.006,0.002h0.003l0.078,0.004l0.086,0.01l0.078,0.013l0.003,0.001l0.094,0.02l0.098,0.026
		l0.003,0.001l0.077,0.024l0.102,0.04l0.033,0.014l0.073,0.034L66.455,111.147L66.455,111.147L66.455,111.147z"/>
</g>
<g>
	<polygon fill="#FFFFFF" points="71.423,73.99 2.565,113.745 0.865,110.798 69.722,71.044 	"/>
</g>
<g>
	<polygon fill="#FFFFFF" points="54.986,67.375 130.202,110.8 128.501,113.746 53.286,70.321 	"/>
</g>
<path fill="#FFFFFF" stroke="#FFFFFF" stroke-miterlimit="10" d="M193.022,94.155l21.399-54.583h2.998l18.711,54.996
	c1.447,4.341,2.412,7.478,2.895,9.407c0.551-2.274,1.516-5.376,2.895-9.304l19.021-56.547h5.169l-25.741,74.534h-2.894
	l-19.125-54.79c-0.275-0.896-0.568-1.792-0.878-2.688c-0.311-0.896-0.569-1.688-0.775-2.377c-0.207-0.689-0.414-1.275-0.621-1.757
	l-0.414-1.241c-0.069-0.345-0.104-0.551-0.104-0.62c-0.827,2.48-1.895,5.341-3.204,8.58l-21.606,54.893h-2.895l-25.947-74.534h5.479
	l18.918,55.616c0.896,2.48,1.636,4.721,2.222,6.719c0.586,1.999,0.914,3.102,0.982,3.309
	C189.852,102.183,191.024,98.979,193.022,94.155L193.022,94.155z M280.168,112.038v-67.09h4.755v67.09H280.168z M323.276,47.842
	c-3.722,0-6.754,0.896-9.098,2.688c-2.343,1.792-3.515,4.308-3.515,7.546c0,3.722,1.551,7.064,4.652,10.028
	c2.205,2.136,5.048,4.393,8.528,6.771s5.875,4.083,7.185,5.117s2.895,2.446,4.756,4.238c3.377,3.377,5.065,7.271,5.065,11.682
	c0,5.72-1.913,10.044-5.738,12.974c-3.824,2.93-9.165,4.394-16.022,4.394s-12.595-1.792-17.212-5.376l2.481-3.617
	c4.687,3.17,9.648,4.755,14.887,4.755c5.237,0,9.32-1.103,12.25-3.308c2.929-2.206,4.393-5.307,4.393-9.305
	c0-3.445-1.481-6.615-4.444-9.51c-2.067-2.068-4.842-4.309-8.322-6.721s-5.909-4.152-7.288-5.22
	c-1.378-1.068-2.998-2.498-4.858-4.291c-3.515-3.515-5.272-7.581-5.272-12.198c0-4.617,1.637-8.236,4.911-10.854
	c3.272-2.619,7.805-3.928,13.594-3.928c5.788,0,10.992,1.137,15.609,3.412l-1.758,3.825
	C333.786,48.875,328.858,47.842,323.276,47.842L323.276,47.842z M411.25,112.038V78.131h-46.623v33.906h-4.756v-67.09h4.756v28.945
	h46.623V44.947h4.755v67.09H411.25z M486.508,38.125l-31.427,35.768c4.204,5.031,9.046,10.647,14.524,16.851
	c5.479,6.203,9.028,10.027,10.648,11.475c1.619,1.447,2.894,2.533,3.824,3.256c0.931,0.725,2.36,1.517,4.29,2.378
	c1.93,0.862,3.997,1.431,6.203,1.706l-0.104,3.309c-4.135-0.07-7.547-0.707-10.234-1.913s-5.031-2.791-7.029-4.755
	c-1.999-1.965-6.358-6.789-13.077-14.473c-6.72-7.685-11.768-13.561-15.145-17.626l31.736-35.975L486.508,38.125L486.508,38.125z
	 M447.018,38.125v73.913h-4.962V38.125H447.018z M508.217,88.778l-9.614,23.26h-4.858l28.118-67.504h2.791l28.325,67.504h-5.272
	l-9.717-23.26H508.217z M522.999,52.184c-1.033,3.101-1.964,5.686-2.791,7.753l-10.338,24.81h26.465L526.101,60.04
	C524.516,56.181,523.481,53.562,522.999,52.184z M566.624,112.038v-66.78c5.927-0.482,10.958-0.724,15.093-0.724
	c6.341,0,11.578,1.637,15.713,4.91c4.135,3.274,6.202,7.943,6.202,14.007c0,4.066-1.171,7.822-3.514,11.268
	c-2.344,3.445-4.997,6.236-7.96,8.373c8.2,10.89,13.266,17.402,15.196,19.539c3.928,4.066,8.201,6.375,12.818,6.926l-0.104,3.205
	c-3.859-0.069-6.995-0.639-9.407-1.706s-4.807-2.878-7.185-5.427c-2.378-2.551-7.599-9.408-15.662-20.572
	c-5.582,0-11.061-0.172-16.437-0.518v27.498H566.624L566.624,112.038z M585.231,81.128c2.688,0,5.582-1.792,8.684-5.375
	s4.652-7.753,4.652-12.508c0-4.755-1.62-8.374-4.859-10.854c-3.238-2.481-7.442-3.722-12.611-3.722
	c-2.757,0-5.996,0.138-9.718,0.414v31.53C576.341,80.956,580.959,81.129,585.231,81.128L585.231,81.128z M660.593,108.524h-2.791
	l-19.538-47.45c-0.827-1.861-1.654-4.032-2.481-6.513c0,0.069-0.052,0.448-0.155,1.137c-0.104,0.689-0.224,1.602-0.361,2.739
	s-0.275,2.085-0.414,2.843l-7.753,50.757h-4.651l10.957-67.504h2.792l20.882,49.518c1.654,4.135,2.48,6.306,2.48,6.512
	c0.482-1.447,1.413-3.584,2.791-6.408l23.26-49.622h2.792l10.233,67.504h-4.962l-7.34-50.964c-0.482-3.377-0.724-5.617-0.724-6.72
	l-2.998,6.823L660.593,108.524L660.593,108.524z M719.724,88.778l-9.613,23.26h-4.859l28.118-67.504h2.792l28.324,67.504h-5.271
	l-9.718-23.26H719.724L719.724,88.778z M734.507,52.183c-1.034,3.102-1.964,5.686-2.792,7.753l-10.337,24.81h26.464L737.607,60.04
	C736.022,56.18,734.989,53.562,734.507,52.183L734.507,52.183z"/>
</svg>
