<?xml version="1.0" encoding="UTF-8"?>
<!DOCTYPE svg PUBLIC "-//W3C//DTD SVG 1.1//EN" "http://www.w3.org/Graphics/SVG/1.1/DTD/svg11.dtd">
<!-- Creator: CorelDRAW -->
<svg xmlns="http://www.w3.org/2000/svg" xml:space="preserve" width="310px" height="132px" style="shape-rendering:geometricPrecision; text-rendering:geometricPrecision; image-rendering:optimizeQuality; fill-rule:evenodd; clip-rule:evenodd"
viewBox="0 0 348.613 148.88"
 xmlns:xlink="http://www.w3.org/1999/xlink">
 <defs>
  <style type="text/css">
   <![CDATA[
    .fil0 {fill:#00599E;fill-rule:nonzero}
    .fil1 {fill:#3FAB3C;fill-rule:nonzero}
    .fil2 {fill:url(#id0)}
   ]]>
  </style>
  <linearGradient id="id0" gradientUnits="userSpaceOnUse" x1="299.895" y1="34.584" x2="306.521" y2="34.584">
   <stop offset="0" style="stop-color:#0DA341"/>
   <stop offset="1" style="stop-color:#008D45"/>
  </linearGradient>
 </defs>
 <g id="Layer_x0020_1">
  <metadata id="CorelCorpID_0Corel-Layer"/>
  <g id="_177276560">
   <polygon id="_177280352" class="fil0" points="131.917,105.628 183.421,105.628 183.421,92.9069 144.984,92.9069 144.984,66.2289 179.194,66.2289 179.194,53.5078 144.984,53.5078 144.984,28.0777 183.421,28.0777 183.421,15.3567 131.917,15.3567 "/>
   <polygon id="_177280424" class="fil0" points="102.584,80.8886 72.5308,15.3562 57.9627,15.3562 102.642,110.943 146.095,15.3562 131.804,15.3562 "/>
   <polygon id="_177280520" class="fil1" points="6.15895,15.2036 6.15895,27.8958 48.8884,27.8958 -0,105.273 70.8492,105.273 70.8492,92.5803 23.2777,92.5803 72.4166,15.2036 "/>
   <polygon id="_177280592" class="fil1" points="181.623,15.3562 181.623,28.0954 224.324,28.029 175.436,105.689 250.143,105.817 243.645,93.0781 198.742,93.0166 247.88,15.3562 "/>
   <polygon id="_177280640" class="fil1" points="290.134,148.88 239.955,93.8472 281.128,105.506 290.023,105.506 336.92,93.8472 "/>
   <path id="_177280784" class="fil0" d="M328.179 75.547c-2.18249,5.24294 -5.22834,9.88937 -9.04416,13.8008 -3.82733,3.91406 -8.40738,7.02319 -13.6247,9.24374 -10.4217,4.44154 -23.7282,4.44154 -34.1499,0 -5.22303,-2.22586 -9.80264,-5.33499 -13.6127,-9.24108 -3.83353,-3.92513 -6.87273,-8.56934 -9.04992,-13.8034 -2.17674,-5.22303 -3.28259,-10.9231 -3.28259,-16.9422 0,-5.02611 0.960704,-10.1615 2.85335,-15.2602 1.88822,-5.08319 4.68493,-9.72431 8.31534,-13.7888 3.61315,-4.04461 8.15205,-7.37632 13.4795,-9.89557 5.29162,-2.50111 11.47,-3.7698 18.3724,-3.7698 6.90194,0 13.0857,1.2687 18.3777,3.7698 5.33277,2.5219 9.86592,5.85096 13.4729,9.89557 3.63661,4.07337 6.43331,8.71139 8.32153,13.7919 1.89353,5.09558 2.85423,10.231 2.85423,15.2571 0,6.01912 -1.10585,11.7192 -3.28303,16.9422zm14.8168 -41.8944c-3.69944,-7.33959 -8.53438,-13.5751 -14.3654,-18.5401 -5.80184,-4.93672 -12.3263,-8.73175 -19.3849,-11.2886 -14.1052,-5.09514 -27.5091,-5.10134 -41.6139,0 -7.05859,2.55067 -13.5778,6.34923 -19.3858,11.2886 -5.83636,4.96504 -10.6709,11.2005 -14.3654,18.5401 -3.72909,7.39667 -5.62218,15.9492 -5.62218,25.4186 0,7.52146 1.49394,14.9332 4.43491,22.0285 2.94185,7.0754 7.14001,13.3985 12.4777,18.7977 5.33322,5.38189 11.7201,9.75971 18.9862,13.014 7.31304,3.2733 15.4828,4.93495 24.2787,4.93495 8.79458,0 16.9648,-1.66165 24.2836,-4.93495 7.27232,-3.26047 13.6592,-7.63784 18.98,-13.0166 5.35003,-5.40535 9.54819,-11.7307 12.4781,-18.795 2.94097,-7.0816 4.43535,-14.4929 4.43535,-22.0285 0,-9.46677 -1.88734,-18.0193 -5.61687,-25.4186z"/>
   <path id="_177280712" class="fil1" d="M259.18 52.6436l0.20577 2.21303 0.91778 -0.0212408c0.969555,-0.0225684 1.91566,-0.0340738 2.8383,-0.0340738l2.89583 0c1.6882,0 3.52642,0.0115054 5.51465,0.0340738l0.528808 -0.0747854 0.514647 -0.599611 0.348703 -5.68192 -2.23825 0.347818 -1.43287 2.96663 -4.03045 0c-0.00619524,-0.509337 -0.00885034,-1.02266 -0.00885034,-1.54217l0 -9.37959 -0.0238959 0c0.0261085,-0.230109 0.0278786,-0.484556 0.0292061,-0.741659 0.00221259,-0.278786 0.0053102,-0.519515 0.00840782,-0.71555l1.80989 -0.540313 -0.206655 -2.22276 -0.924861 0.0287636c-1.93955,0.0601823 -3.68971,0.0619524 -5.66068,0l-1.06337 -0.0327463 0.103549 2.24622 1.68378 0.528808 0.0141605 10.8527 -0.0141605 1.82406 -1.80945 0.544296z"/>
   <path id="_177280856" class="fil1" d="M279.171 39.4513l3.59058 0 0.662891 2.4688 -1.4842 0.0535446 -0.475263 1.83645c-0.809806,0.0110629 -1.55146,0.0172582 -2.22896,0.0172582l-0.06505 0 0 -4.37605zm-6.05408 12.9211l0.205328 2.21347 0.918665 -0.0216833c0.969112,-0.0225684 1.91521,-0.0340738 2.8383,-0.0340738l2.74538 0c1.68068,0 3.51491,0.0115054 5.50314,0.0340738l0.495619 -0.0765554 0.556244 -0.555359 0.355784 -5.63634 -2.24931 0.400478 -1.35808 2.82591 -3.94814 0c-0.00619524,-0.509337 -0.00885034,-1.02266 -0.00885034,-1.54173l0 -3.21533 0.0535446 0c0.678821,0 1.42756,0.00575272 2.22542,0.0154881l0.514647 1.95814 2.37233 -0.175679 -0.0203558 -0.934596c-0.0234534,-1.05894 -0.0349588,-1.83556 -0.0349588,-2.33206 0,-0.51155 0.0115054,-1.29967 0.0349588,-2.36658l0.0168156 -0.816001 1.20232 -0.211523 0.794318 -4.23577 0.0110629 -0.51686 -0.561554 -0.747854 -0.501372 0.00752279c-1.91079,0.0309762 -3.72378,0.0464643 -5.44207,0.0464643l-2.80335 0c-0.905832,0 -1.84884,-0.0154881 -2.83034,-0.0464643l-1.06337 -0.0327463 0.103992 2.24622 1.68333 0.527923 0.0141605 10.8523 -0.0141605 1.82494 -1.80945 0.544296z"/>
   <polygon id="_177281096" class="fil2" points="303.88,37.7202 306.521,37.7202 304.738,31.4484 299.895,31.4484 "/>
   <path id="_177281000" class="fil1" d="M289.076 42.4046l0.987256 -2.95336 2.37986 0 0 10.5293c0,0.684131 -0.00486769,1.27666 -0.0132755,1.76918l-2.08735 0.620851 0.20577 2.21126 0.915125 -0.0172582c2.23958,-0.0442517 3.85211,-0.0464643 6.25985,0l1.05142 0.0185857 -0.104877 -2.24356 -1.98336 -0.589875c-0.00885034,-0.498717 -0.013718,-1.08638 -0.013718,-1.76918l0 -10.5293 2.30773 0 0.77352 3.29542 2.05372 -0.359766 0.849633 -4.72785 0.00663776 -0.51332 -0.559342 -0.744314 -0.501814 0.00752279c-1.91035,0.0305337 -3.7229,0.0460218 -5.44119,0.0460218l-3.08036 0c-1.72626,0 -3.53129,-0.0154881 -5.41774,-0.0460218l-0.537658 0.0845208 -0.570847 0.653598 0.409328 5.62616 2.11169 -0.368617z"/>
   <path id="_177280928" class="fil1" d="M285.293 72.0391c-2.79804,0.0765554 -5.78857,0.0765554 -9.06231,0l-2.11213 -0.0477918 0.201788 4.30525 2.77945 0.870874c0.00177007,0.158864 0.00486769,0.323037 0.00708027,0.492079 0.00663776,0.513762 0.0101779,1.08461 0.0101779,1.71077l0 3.47155c-0.424816,0.051332 -0.85273,0.0765554 -1.28153,0.0765554 -2.70334,0 -4.77609,-0.884592 -6.33773,-2.70334 -1.61519,-1.8807 -2.43296,-4.52075 -2.43296,-7.84892 0,-3.30604 0.746969,-5.88592 2.22055,-7.66882 1.86963,-2.26303 4.80928,-3.00071 8.69413,-2.22807l1.46517 5.55713 3.8884 -0.579255 1.44526 -7.53518 0.0495619 -1.00584 -0.949199 -1.27489 -0.705372 -0.163289c-2.39711,-0.552261 -4.7159,-0.832375 -6.89353,-0.832375 -5.23586,0 -9.46898,1.46473 -12.5816,4.35304 -3.15205,2.92681 -4.75086,6.9723 -4.75086,12.0254 0,4.80087 1.55412,8.62775 4.61855,11.3731 3.00381,2.6905 7.03469,4.0539 11.982,4.0539 2.31746,0 4.88096,-0.332773 7.62324,-0.990353l0.731481 -0.280998 0.892557 -1.03505 0 -6.84087c0,-0.600053 0.0026551,-1.16116 0.0101779,-1.68643 0.00177007,-0.184087 0.0053102,-0.366847 0.00708027,-0.542526l2.77502 -0.812904 -0.492964 -4.26055 -1.80149 0.0477918z"/>
   <path id="_177281168" class="fil1" d="M310.561 39.5358c0.651828,-0.534118 1.78733,-0.700062 3.22064,-0.313745l0.840782 3.21533 2.02452 -0.355784 0.807594 -4.26852 0.0154881 -0.592088 -0.573502 -0.573502 -0.284538 -0.0615099c-3.47066,-0.741659 -6.6851,-0.588548 -8.89592,0.854058 -1.43508,0.937694 -2.19444,2.33959 -2.19444,4.05523 0,0.836357 0.155323,1.58952 0.4642,2.23825 0.302239,0.640322 0.716878,1.18993 1.2302,1.63599 0.466413,0.405788 0.992566,0.765112 1.56386,1.06691 0.531463,0.282768 1.07841,0.544296 1.62537,0.77883 0.466413,0.209753 0.918665,0.423489 1.35587,0.638552 0.38499,0.188512 0.731038,0.399593 1.02885,0.628817 0.243827,0.18807 0.431897,0.403576 0.576157,0.662005 0.125232,0.226126 0.187185,0.493849 0.187185,0.818214 0,0.834587 -0.336755,1.19612 -0.588548,1.39614 -0.749624,0.592088 -2.31171,0.736791 -3.749,0.298699l-0.895654 -3.63661 -2.13072 0.331003 -0.669971 4.64333 0.0115054 0.495619 0.44473 0.594743 0.322595 0.0902735c1.56518,0.438534 3.02018,0.659793 4.32737,0.659793 2.09089,0 3.83884,-0.463758 5.19604,-1.3811 1.47668,-0.997876 2.22675,-2.4511 2.22675,-4.32251 0,-0.797416 -0.157979,-1.51518 -0.466855,-2.13603 -0.300469,-0.600053 -0.707585,-1.12267 -1.20984,-1.55323 -0.459333,-0.394725 -0.978848,-0.742986 -1.54394,-1.03283 -0.519515,-0.267723 -1.05363,-0.520843 -1.59793,-0.757147 -0.474821,-0.209753 -0.931941,-0.423489 -1.37402,-0.640765 -0.38853,-0.192052 -0.738561,-0.409771 -1.03814,-0.650058 -0.259315,-0.20577 -0.458005,-0.436322 -0.608903,-0.703602 -0.128772,-0.228339 -0.191167,-0.502257 -0.191167,-0.832817 0,-0.758917 0.309762,-1.09965 0.543411,-1.28994z"/>
   <path id="_177281240" class="fil1" d="M309.037 80.7284c-1.13727,1.49748 -2.93831,2.22675 -5.50314,2.22675 -2.61749,0 -4.5212,-0.828834 -5.81954,-2.53253 -1.40543,-1.84795 -2.11789,-4.65528 -2.11789,-8.34277 0,-3.62112 0.618196,-6.29392 1.83822,-7.94185 1.09965,-1.48641 2.91265,-2.20905 5.54562,-2.20905 2.73874,0 4.66944,0.803611 5.90362,2.45508 1.34746,1.80237 2.03071,4.52474 2.03071,8.09541 0,3.82821 -0.632357,6.60457 -1.8776,8.24896zm-5.38012 -24.2814c-4.97876,0 -8.96495,1.49172 -11.848,4.43579 -2.87415,2.93433 -4.33003,6.91256 -4.33003,11.8272 0,4.72254 1.35808,8.55828 4.03708,11.3988 2.70909,2.87459 6.51916,4.3318 11.3214,4.3318 5.03407,0 9.04328,-1.56297 11.9192,-4.64377 2.8383,-3.04186 4.27648,-7.06788 4.27648,-11.9657 0,-4.65661 -1.36561,-8.4211 -4.05744,-11.1926 -2.70643,-2.7821 -6.51429,-4.19152 -11.3187,-4.19152z"/>
  </g>
 </g>
</svg>
